%TF.GenerationSoftware,KiCad,Pcbnew,7.0.1*%
%TF.CreationDate,2023-05-05T11:57:25+02:00*%
%TF.ProjectId,antenna-evaluation-board,616e7465-6e6e-4612-9d65-76616c756174,rev?*%
%TF.SameCoordinates,Original*%
%TF.FileFunction,Legend,Top*%
%TF.FilePolarity,Positive*%
%FSLAX46Y46*%
G04 Gerber Fmt 4.6, Leading zero omitted, Abs format (unit mm)*
G04 Created by KiCad (PCBNEW 7.0.1) date 2023-05-05 11:57:25*
%MOMM*%
%LPD*%
G01*
G04 APERTURE LIST*
G04 Aperture macros list*
%AMRoundRect*
0 Rectangle with rounded corners*
0 $1 Rounding radius*
0 $2 $3 $4 $5 $6 $7 $8 $9 X,Y pos of 4 corners*
0 Add a 4 corners polygon primitive as box body*
4,1,4,$2,$3,$4,$5,$6,$7,$8,$9,$2,$3,0*
0 Add four circle primitives for the rounded corners*
1,1,$1+$1,$2,$3*
1,1,$1+$1,$4,$5*
1,1,$1+$1,$6,$7*
1,1,$1+$1,$8,$9*
0 Add four rect primitives between the rounded corners*
20,1,$1+$1,$2,$3,$4,$5,0*
20,1,$1+$1,$4,$5,$6,$7,0*
20,1,$1+$1,$6,$7,$8,$9,0*
20,1,$1+$1,$8,$9,$2,$3,0*%
G04 Aperture macros list end*
%ADD10C,0.120000*%
%ADD11C,0.800000*%
%ADD12C,6.000000*%
%ADD13R,1.780000X4.190000*%
%ADD14R,2.665000X4.190000*%
%ADD15RoundRect,0.135000X0.135000X0.185000X-0.135000X0.185000X-0.135000X-0.185000X0.135000X-0.185000X0*%
%ADD16RoundRect,0.250000X1.250000X0.250000X-1.250000X0.250000X-1.250000X-0.250000X1.250000X-0.250000X0*%
%ADD17RoundRect,0.135000X-0.135000X-0.185000X0.135000X-0.185000X0.135000X0.185000X-0.135000X0.185000X0*%
G04 APERTURE END LIST*
D10*
%TO.C,J10*%
X146250000Y-79400000D02*
X146750000Y-79400000D01*
X146750000Y-79400000D02*
X146500000Y-78900000D01*
X146500000Y-78900000D02*
X146250000Y-79400000D01*
%TO.C,J4*%
X120750000Y-67640000D02*
X120250000Y-67640000D01*
X120250000Y-67640000D02*
X120500000Y-68140000D01*
X120500000Y-68140000D02*
X120750000Y-67640000D01*
%TO.C,J7*%
X94250000Y-79400000D02*
X94750000Y-79400000D01*
X94750000Y-79400000D02*
X94500000Y-78900000D01*
X94500000Y-78900000D02*
X94250000Y-79400000D01*
%TO.C,R1*%
X41663641Y-50380000D02*
X41356359Y-50380000D01*
X41663641Y-49620000D02*
X41356359Y-49620000D01*
%TO.C,J1*%
X42750000Y-67640000D02*
X42250000Y-67640000D01*
X42250000Y-67640000D02*
X42500000Y-68140000D01*
X42500000Y-68140000D02*
X42750000Y-67640000D01*
%TO.C,J8*%
X68250000Y-79400000D02*
X68750000Y-79400000D01*
X68750000Y-79400000D02*
X68500000Y-78900000D01*
X68500000Y-78900000D02*
X68250000Y-79400000D01*
%TO.C,J9*%
X42250000Y-79400000D02*
X42750000Y-79400000D01*
X42750000Y-79400000D02*
X42500000Y-78900000D01*
X42500000Y-78900000D02*
X42250000Y-79400000D01*
%TO.C,J6*%
X120250000Y-79400000D02*
X120750000Y-79400000D01*
X120750000Y-79400000D02*
X120500000Y-78900000D01*
X120500000Y-78900000D02*
X120250000Y-79400000D01*
%TO.C,J2*%
X94750000Y-67640000D02*
X94250000Y-67640000D01*
X94250000Y-67640000D02*
X94500000Y-68140000D01*
X94500000Y-68140000D02*
X94750000Y-67640000D01*
%TO.C,J3*%
X68750000Y-67640000D02*
X68250000Y-67640000D01*
X68250000Y-67640000D02*
X68500000Y-68140000D01*
X68500000Y-68140000D02*
X68750000Y-67640000D01*
%TO.C,J5*%
X146750000Y-67640000D02*
X146250000Y-67640000D01*
X146250000Y-67640000D02*
X146500000Y-68140000D01*
X146500000Y-68140000D02*
X146750000Y-67640000D01*
%TO.C,R2*%
X43356359Y-49620000D02*
X43663641Y-49620000D01*
X43356359Y-50380000D02*
X43663641Y-50380000D01*
%TD*%
%LPC*%
D11*
%TO.C,H9*%
X136750000Y-64000000D03*
X137409010Y-62409010D03*
X137409010Y-65590990D03*
X139000000Y-61750000D03*
D12*
X139000000Y-64000000D03*
D11*
X139000000Y-66250000D03*
X140590990Y-62409010D03*
X140590990Y-65590990D03*
X141250000Y-64000000D03*
%TD*%
%TO.C,H11*%
X32750000Y-83000000D03*
X33409010Y-81409010D03*
X33409010Y-84590990D03*
X35000000Y-80750000D03*
D12*
X35000000Y-83000000D03*
D11*
X35000000Y-85250000D03*
X36590990Y-81409010D03*
X36590990Y-84590990D03*
X37250000Y-83000000D03*
%TD*%
%TO.C,H19*%
X136750000Y-83000000D03*
X137409010Y-81409010D03*
X137409010Y-84590990D03*
X139000000Y-80750000D03*
D12*
X139000000Y-83000000D03*
D11*
X139000000Y-85250000D03*
X140590990Y-81409010D03*
X140590990Y-84590990D03*
X141250000Y-83000000D03*
%TD*%
%TO.C,H10*%
X151750000Y-64000000D03*
X152409010Y-62409010D03*
X152409010Y-65590990D03*
X154000000Y-61750000D03*
D12*
X154000000Y-64000000D03*
D11*
X154000000Y-66250000D03*
X155590990Y-62409010D03*
X155590990Y-65590990D03*
X156250000Y-64000000D03*
%TD*%
D13*
%TO.C,J10*%
X146500000Y-76500000D03*
D14*
X143007500Y-76500000D03*
X149992500Y-76500000D03*
%TD*%
D11*
%TO.C,H3*%
X58750000Y-64000000D03*
X59409010Y-62409010D03*
X59409010Y-65590990D03*
X61000000Y-61750000D03*
D12*
X61000000Y-64000000D03*
D11*
X61000000Y-66250000D03*
X62590990Y-62409010D03*
X62590990Y-65590990D03*
X63250000Y-64000000D03*
%TD*%
D13*
%TO.C,J4*%
X120500000Y-70540000D03*
D14*
X123992500Y-70540000D03*
X117007500Y-70540000D03*
%TD*%
D13*
%TO.C,J7*%
X94500000Y-76500000D03*
D14*
X91007500Y-76500000D03*
X97992500Y-76500000D03*
%TD*%
D15*
%TO.C,R1*%
X42020000Y-50000000D03*
X41000000Y-50000000D03*
%TD*%
D11*
%TO.C,H6*%
X99750000Y-64000000D03*
X100409010Y-62409010D03*
X100409010Y-65590990D03*
X102000000Y-61750000D03*
D12*
X102000000Y-64000000D03*
D11*
X102000000Y-66250000D03*
X103590990Y-62409010D03*
X103590990Y-65590990D03*
X104250000Y-64000000D03*
%TD*%
%TO.C,H20*%
X151750000Y-83000000D03*
X152409010Y-81409010D03*
X152409010Y-84590990D03*
X154000000Y-80750000D03*
D12*
X154000000Y-83000000D03*
D11*
X154000000Y-85250000D03*
X155590990Y-81409010D03*
X155590990Y-84590990D03*
X156250000Y-83000000D03*
%TD*%
%TO.C,H8*%
X125750000Y-64000000D03*
X126409010Y-62409010D03*
X126409010Y-65590990D03*
X128000000Y-61750000D03*
D12*
X128000000Y-64000000D03*
D11*
X128000000Y-66250000D03*
X129590990Y-62409010D03*
X129590990Y-65590990D03*
X130250000Y-64000000D03*
%TD*%
%TO.C,H15*%
X84750000Y-83000000D03*
X85409010Y-81409010D03*
X85409010Y-84590990D03*
X87000000Y-80750000D03*
D12*
X87000000Y-83000000D03*
D11*
X87000000Y-85250000D03*
X88590990Y-81409010D03*
X88590990Y-84590990D03*
X89250000Y-83000000D03*
%TD*%
%TO.C,H12*%
X47750000Y-83000000D03*
X48409010Y-81409010D03*
X48409010Y-84590990D03*
X50000000Y-80750000D03*
D12*
X50000000Y-83000000D03*
D11*
X50000000Y-85250000D03*
X51590990Y-81409010D03*
X51590990Y-84590990D03*
X52250000Y-83000000D03*
%TD*%
%TO.C,H16*%
X99750000Y-83000000D03*
X100409010Y-81409010D03*
X100409010Y-84590990D03*
X102000000Y-80750000D03*
D12*
X102000000Y-83000000D03*
D11*
X102000000Y-85250000D03*
X103590990Y-81409010D03*
X103590990Y-84590990D03*
X104250000Y-83000000D03*
%TD*%
%TO.C,H13*%
X58750000Y-82759010D03*
X59409010Y-81168020D03*
X59409010Y-84350000D03*
X61000000Y-80509010D03*
D12*
X61000000Y-82759010D03*
D11*
X61000000Y-85009010D03*
X62590990Y-81168020D03*
X62590990Y-84350000D03*
X63250000Y-82759010D03*
%TD*%
D13*
%TO.C,J1*%
X42500000Y-70540000D03*
D14*
X45992500Y-70540000D03*
X39007500Y-70540000D03*
%TD*%
D13*
%TO.C,J8*%
X68500000Y-76500000D03*
D14*
X65007500Y-76500000D03*
X71992500Y-76500000D03*
%TD*%
D13*
%TO.C,J9*%
X42500000Y-76500000D03*
D14*
X39007500Y-76500000D03*
X45992500Y-76500000D03*
%TD*%
D13*
%TO.C,J6*%
X120500000Y-76500000D03*
D14*
X117007500Y-76500000D03*
X123992500Y-76500000D03*
%TD*%
D13*
%TO.C,J2*%
X94500000Y-70540000D03*
D14*
X97992500Y-70540000D03*
X91007500Y-70540000D03*
%TD*%
D11*
%TO.C,H1*%
X32750000Y-64000000D03*
X33409010Y-62409010D03*
X33409010Y-65590990D03*
X35000000Y-61750000D03*
D12*
X35000000Y-64000000D03*
D11*
X35000000Y-66250000D03*
X36590990Y-62409010D03*
X36590990Y-65590990D03*
X37250000Y-64000000D03*
%TD*%
%TO.C,H18*%
X125750000Y-83000000D03*
X126409010Y-81409010D03*
X126409010Y-84590990D03*
X128000000Y-80750000D03*
D12*
X128000000Y-83000000D03*
D11*
X128000000Y-85250000D03*
X129590990Y-81409010D03*
X129590990Y-84590990D03*
X130250000Y-83000000D03*
%TD*%
%TO.C,H14*%
X73750000Y-83000000D03*
X74409010Y-81409010D03*
X74409010Y-84590990D03*
X76000000Y-80750000D03*
D12*
X76000000Y-83000000D03*
D11*
X76000000Y-85250000D03*
X77590990Y-81409010D03*
X77590990Y-84590990D03*
X78250000Y-83000000D03*
%TD*%
D13*
%TO.C,J3*%
X68500000Y-70540000D03*
D14*
X71992500Y-70540000D03*
X65007500Y-70540000D03*
%TD*%
D11*
%TO.C,H17*%
X110750000Y-83000000D03*
X111409010Y-81409010D03*
X111409010Y-84590990D03*
X113000000Y-80750000D03*
D12*
X113000000Y-83000000D03*
D11*
X113000000Y-85250000D03*
X114590990Y-81409010D03*
X114590990Y-84590990D03*
X115250000Y-83000000D03*
%TD*%
%TO.C,H4*%
X73750000Y-64000000D03*
X74409010Y-62409010D03*
X74409010Y-65590990D03*
X76000000Y-61750000D03*
D12*
X76000000Y-64000000D03*
D11*
X76000000Y-66250000D03*
X77590990Y-62409010D03*
X77590990Y-65590990D03*
X78250000Y-64000000D03*
%TD*%
%TO.C,H2*%
X47750000Y-64000000D03*
X48409010Y-62409010D03*
X48409010Y-65590990D03*
X50000000Y-61750000D03*
D12*
X50000000Y-64000000D03*
D11*
X50000000Y-66250000D03*
X51590990Y-62409010D03*
X51590990Y-65590990D03*
X52250000Y-64000000D03*
%TD*%
D16*
%TO.C,AE10*%
X146500000Y-96000000D03*
X146500000Y-106300000D03*
%TD*%
D13*
%TO.C,J5*%
X146500000Y-70540000D03*
D14*
X149992500Y-70540000D03*
X143007500Y-70540000D03*
%TD*%
D11*
%TO.C,H7*%
X110750000Y-64000000D03*
X111409010Y-62409010D03*
X111409010Y-65590990D03*
X113000000Y-61750000D03*
D12*
X113000000Y-64000000D03*
D11*
X113000000Y-66250000D03*
X114590990Y-62409010D03*
X114590990Y-65590990D03*
X115250000Y-64000000D03*
%TD*%
%TO.C,H5*%
X84750000Y-64000000D03*
X85409010Y-62409010D03*
X85409010Y-65590990D03*
X87000000Y-61750000D03*
D12*
X87000000Y-64000000D03*
D11*
X87000000Y-66250000D03*
X88590990Y-62409010D03*
X88590990Y-65590990D03*
X89250000Y-64000000D03*
%TD*%
D17*
%TO.C,R2*%
X43000000Y-50000000D03*
X44020000Y-50000000D03*
%TD*%
M02*
