%TF.GenerationSoftware,KiCad,Pcbnew,7.0.1*%
%TF.CreationDate,2023-05-09T18:35:19+02:00*%
%TF.ProjectId,antenna-evaluation-board,616e7465-6e6e-4612-9d65-76616c756174,rev?*%
%TF.SameCoordinates,Original*%
%TF.FileFunction,Legend,Top*%
%TF.FilePolarity,Positive*%
%FSLAX46Y46*%
G04 Gerber Fmt 4.6, Leading zero omitted, Abs format (unit mm)*
G04 Created by KiCad (PCBNEW 7.0.1) date 2023-05-09 18:35:19*
%MOMM*%
%LPD*%
G01*
G04 APERTURE LIST*
G04 Aperture macros list*
%AMRoundRect*
0 Rectangle with rounded corners*
0 $1 Rounding radius*
0 $2 $3 $4 $5 $6 $7 $8 $9 X,Y pos of 4 corners*
0 Add a 4 corners polygon primitive as box body*
4,1,4,$2,$3,$4,$5,$6,$7,$8,$9,$2,$3,0*
0 Add four circle primitives for the rounded corners*
1,1,$1+$1,$2,$3*
1,1,$1+$1,$4,$5*
1,1,$1+$1,$6,$7*
1,1,$1+$1,$8,$9*
0 Add four rect primitives between the rounded corners*
20,1,$1+$1,$2,$3,$4,$5,0*
20,1,$1+$1,$4,$5,$6,$7,0*
20,1,$1+$1,$6,$7,$8,$9,0*
20,1,$1+$1,$8,$9,$2,$3,0*%
G04 Aperture macros list end*
%ADD10C,0.200000*%
%ADD11C,0.120000*%
%ADD12C,1.000000*%
%ADD13C,0.800000*%
%ADD14C,6.000000*%
%ADD15R,1.780000X4.190000*%
%ADD16R,2.665000X4.190000*%
%ADD17RoundRect,0.135000X0.135000X0.185000X-0.135000X0.185000X-0.135000X-0.185000X0.135000X-0.185000X0*%
%ADD18RoundRect,0.250000X1.250000X0.250000X-1.250000X0.250000X-1.250000X-0.250000X1.250000X-0.250000X0*%
%ADD19RoundRect,0.135000X-0.135000X-0.185000X0.135000X-0.185000X0.135000X0.185000X-0.135000X0.185000X0*%
G04 APERTURE END LIST*
D10*
G36*
X49803908Y-41099225D02*
G01*
X49659072Y-41188618D01*
X49667299Y-41201087D01*
X49675835Y-41214815D01*
X49684642Y-41229727D01*
X49693684Y-41245750D01*
X49702922Y-41262810D01*
X49712320Y-41280834D01*
X49721840Y-41299746D01*
X49731444Y-41319475D01*
X49741096Y-41339945D01*
X49750757Y-41361082D01*
X49760391Y-41382814D01*
X49769960Y-41405066D01*
X49779427Y-41427764D01*
X49788754Y-41450835D01*
X49797904Y-41474204D01*
X49806839Y-41497799D01*
X49815523Y-41521544D01*
X49823917Y-41545366D01*
X49831984Y-41569192D01*
X49839688Y-41592947D01*
X49846990Y-41616558D01*
X49853853Y-41639950D01*
X49860240Y-41663051D01*
X49866114Y-41685786D01*
X49871436Y-41708080D01*
X49876170Y-41729862D01*
X49880279Y-41751056D01*
X49883724Y-41771589D01*
X49886469Y-41791386D01*
X49888476Y-41810375D01*
X49889707Y-41828481D01*
X49890126Y-41845631D01*
X49903114Y-41845597D01*
X49915442Y-41845493D01*
X49927136Y-41845315D01*
X49938222Y-41845061D01*
X49948725Y-41844728D01*
X49958672Y-41844312D01*
X49976996Y-41843223D01*
X49993402Y-41841769D01*
X50008094Y-41839925D01*
X50021278Y-41837669D01*
X50033161Y-41834976D01*
X50043947Y-41831822D01*
X50053843Y-41828183D01*
X50063053Y-41824036D01*
X50071785Y-41819356D01*
X50080244Y-41814119D01*
X50088635Y-41808301D01*
X50097164Y-41801879D01*
X50106037Y-41794829D01*
X50117557Y-41785101D01*
X50128761Y-41774796D01*
X50139645Y-41763930D01*
X50150206Y-41752518D01*
X50160441Y-41740576D01*
X50170346Y-41728118D01*
X50179919Y-41715160D01*
X50189155Y-41701719D01*
X50198053Y-41687808D01*
X50206608Y-41673445D01*
X50214817Y-41658643D01*
X50222678Y-41643420D01*
X50230186Y-41627790D01*
X50237340Y-41611768D01*
X50244134Y-41595370D01*
X50250567Y-41578613D01*
X50256635Y-41561510D01*
X50262335Y-41544078D01*
X50267664Y-41526331D01*
X50272618Y-41508287D01*
X50277194Y-41489959D01*
X50281389Y-41471364D01*
X50285200Y-41452517D01*
X50288623Y-41433433D01*
X50291656Y-41414128D01*
X50294295Y-41394618D01*
X50296537Y-41374917D01*
X50298378Y-41355042D01*
X50299816Y-41335007D01*
X50300846Y-41314829D01*
X50301467Y-41294522D01*
X50301675Y-41274103D01*
X50301619Y-41261859D01*
X50301459Y-41248020D01*
X50301301Y-41238176D01*
X50301106Y-41228026D01*
X50300877Y-41217731D01*
X50300617Y-41207452D01*
X50300332Y-41197349D01*
X50299862Y-41182879D01*
X50299352Y-41169712D01*
X50298815Y-41158392D01*
X50298077Y-41147110D01*
X50297523Y-41142212D01*
X50125820Y-41142212D01*
X50126454Y-41153957D01*
X50126883Y-41164170D01*
X50127243Y-41174977D01*
X50127535Y-41186254D01*
X50127759Y-41197877D01*
X50127913Y-41209725D01*
X50127999Y-41221674D01*
X50128018Y-41230628D01*
X50128011Y-41241837D01*
X50127957Y-41252839D01*
X50127811Y-41263360D01*
X50127473Y-41274440D01*
X50127286Y-41278255D01*
X50126865Y-41291620D01*
X50126372Y-41305009D01*
X50125798Y-41318412D01*
X50125130Y-41331819D01*
X50124359Y-41345219D01*
X50123472Y-41358602D01*
X50122459Y-41371959D01*
X50121309Y-41385279D01*
X50120011Y-41398552D01*
X50118554Y-41411767D01*
X50116927Y-41424914D01*
X50115118Y-41437984D01*
X50113118Y-41450966D01*
X50110914Y-41463849D01*
X50108496Y-41476624D01*
X50105853Y-41489281D01*
X50102974Y-41501808D01*
X50099848Y-41514197D01*
X50096464Y-41526437D01*
X50092810Y-41538517D01*
X50088877Y-41550427D01*
X50084652Y-41562158D01*
X50080125Y-41573699D01*
X50075285Y-41585039D01*
X50070121Y-41596169D01*
X50064621Y-41607079D01*
X50058776Y-41617758D01*
X50052573Y-41628196D01*
X50046002Y-41638382D01*
X50039052Y-41648308D01*
X50031712Y-41657962D01*
X50023971Y-41667334D01*
X50019587Y-41650677D01*
X50015129Y-41633911D01*
X50010590Y-41617040D01*
X50005960Y-41600067D01*
X50001230Y-41582996D01*
X49996393Y-41565832D01*
X49991438Y-41548578D01*
X49986358Y-41531237D01*
X49981143Y-41513814D01*
X49975784Y-41496313D01*
X49970274Y-41478737D01*
X49964603Y-41461091D01*
X49958762Y-41443377D01*
X49952743Y-41425601D01*
X49946537Y-41407765D01*
X49940135Y-41389874D01*
X49933528Y-41371931D01*
X49926708Y-41353941D01*
X49919665Y-41335907D01*
X49912392Y-41317833D01*
X49904879Y-41299723D01*
X49897118Y-41281580D01*
X49889099Y-41263409D01*
X49880814Y-41245213D01*
X49872255Y-41226997D01*
X49863412Y-41208764D01*
X49854276Y-41190518D01*
X49844840Y-41172262D01*
X49835094Y-41154001D01*
X49825029Y-41135739D01*
X49814637Y-41117479D01*
X49803908Y-41099225D01*
G37*
G36*
X50752732Y-40924042D02*
G01*
X50772212Y-40926027D01*
X50790737Y-40929282D01*
X50808330Y-40933761D01*
X50825010Y-40939420D01*
X50840800Y-40946216D01*
X50855722Y-40954103D01*
X50869795Y-40963037D01*
X50883043Y-40972973D01*
X50895486Y-40983867D01*
X50907146Y-40995675D01*
X50918043Y-41008352D01*
X50928201Y-41021854D01*
X50937639Y-41036136D01*
X50946380Y-41051154D01*
X50954445Y-41066863D01*
X50961855Y-41083219D01*
X50968631Y-41100177D01*
X50974796Y-41117693D01*
X50980370Y-41135723D01*
X50985375Y-41154222D01*
X50989833Y-41173145D01*
X50993764Y-41192449D01*
X50997191Y-41212088D01*
X51000134Y-41232018D01*
X51002616Y-41252196D01*
X51004656Y-41272575D01*
X51006278Y-41293113D01*
X51007502Y-41313764D01*
X51008350Y-41334483D01*
X51008843Y-41355228D01*
X51009002Y-41375952D01*
X51008855Y-41397220D01*
X51008395Y-41418538D01*
X51007600Y-41439861D01*
X51006445Y-41461139D01*
X51004905Y-41482325D01*
X51002958Y-41503372D01*
X51000579Y-41524232D01*
X50997744Y-41544857D01*
X50994429Y-41565200D01*
X50990610Y-41585213D01*
X50986262Y-41604849D01*
X50981362Y-41624059D01*
X50975886Y-41642797D01*
X50969809Y-41661014D01*
X50963107Y-41678663D01*
X50955757Y-41695696D01*
X50947735Y-41712067D01*
X50939016Y-41727726D01*
X50929576Y-41742626D01*
X50919391Y-41756720D01*
X50908437Y-41769961D01*
X50896691Y-41782300D01*
X50884127Y-41793690D01*
X50870723Y-41804083D01*
X50856453Y-41813432D01*
X50841294Y-41821689D01*
X50825222Y-41828806D01*
X50808213Y-41834736D01*
X50790242Y-41839431D01*
X50771286Y-41842844D01*
X50751320Y-41844926D01*
X50730321Y-41845631D01*
X50708737Y-41845026D01*
X50688206Y-41843235D01*
X50668704Y-41840291D01*
X50650208Y-41836229D01*
X50632692Y-41831082D01*
X50616134Y-41824885D01*
X50600508Y-41817671D01*
X50585791Y-41809475D01*
X50571958Y-41800332D01*
X50558985Y-41790274D01*
X50546849Y-41779336D01*
X50535524Y-41767553D01*
X50524988Y-41754957D01*
X50515215Y-41741584D01*
X50506181Y-41727467D01*
X50497863Y-41712641D01*
X50490236Y-41697139D01*
X50483277Y-41680996D01*
X50476960Y-41664245D01*
X50471262Y-41646921D01*
X50466158Y-41629058D01*
X50461625Y-41610690D01*
X50460432Y-41605052D01*
X50637998Y-41605052D01*
X50641321Y-41617105D01*
X50644722Y-41628355D01*
X50648237Y-41638805D01*
X50651904Y-41648458D01*
X50657770Y-41661453D01*
X50664187Y-41672676D01*
X50671280Y-41682139D01*
X50679175Y-41689855D01*
X50687998Y-41695835D01*
X50697873Y-41700091D01*
X50708926Y-41702636D01*
X50721284Y-41703482D01*
X50740278Y-41701472D01*
X50757051Y-41695626D01*
X50771740Y-41686216D01*
X50784482Y-41673516D01*
X50795416Y-41657799D01*
X50800247Y-41648895D01*
X50804678Y-41639339D01*
X50808725Y-41629166D01*
X50812406Y-41618409D01*
X50815738Y-41607103D01*
X50818737Y-41595282D01*
X50821422Y-41582980D01*
X50823809Y-41570232D01*
X50825916Y-41557071D01*
X50827759Y-41543531D01*
X50829356Y-41529648D01*
X50830724Y-41515454D01*
X50831881Y-41500985D01*
X50832842Y-41486273D01*
X50833626Y-41471355D01*
X50834250Y-41456263D01*
X50834731Y-41441032D01*
X50835086Y-41425696D01*
X50835332Y-41410289D01*
X50835487Y-41394845D01*
X50835567Y-41379399D01*
X50835590Y-41363984D01*
X50835582Y-41360380D01*
X50835475Y-41350398D01*
X50835224Y-41339560D01*
X50834857Y-41329790D01*
X50637998Y-41605052D01*
X50460432Y-41605052D01*
X50457639Y-41591851D01*
X50454174Y-41572575D01*
X50451208Y-41552896D01*
X50448715Y-41532849D01*
X50446672Y-41512466D01*
X50445055Y-41491783D01*
X50443839Y-41470834D01*
X50443001Y-41449652D01*
X50442515Y-41428271D01*
X50442359Y-41406727D01*
X50442425Y-41396224D01*
X50616748Y-41396224D01*
X50616762Y-41399273D01*
X50616984Y-41409985D01*
X50617416Y-41420968D01*
X50617970Y-41431151D01*
X50810189Y-41159309D01*
X50808229Y-41152892D01*
X50804480Y-41140843D01*
X50800893Y-41129812D01*
X50797395Y-41119769D01*
X50792152Y-41106489D01*
X50786690Y-41095259D01*
X50780757Y-41085975D01*
X50774104Y-41078532D01*
X50763676Y-41071294D01*
X50754363Y-41067745D01*
X50743491Y-41065692D01*
X50730810Y-41065031D01*
X50712181Y-41067344D01*
X50695685Y-41074013D01*
X50681193Y-41084628D01*
X50668577Y-41098782D01*
X50662933Y-41107059D01*
X50657709Y-41116068D01*
X50652890Y-41125757D01*
X50648459Y-41136077D01*
X50644402Y-41146975D01*
X50640700Y-41158402D01*
X50637340Y-41170305D01*
X50634303Y-41182634D01*
X50631575Y-41195338D01*
X50629140Y-41208366D01*
X50626981Y-41221667D01*
X50625082Y-41235190D01*
X50623427Y-41248884D01*
X50622000Y-41262698D01*
X50620786Y-41276581D01*
X50619767Y-41290482D01*
X50618928Y-41304351D01*
X50618254Y-41318135D01*
X50617727Y-41331784D01*
X50617332Y-41345248D01*
X50617052Y-41358475D01*
X50616873Y-41371414D01*
X50616777Y-41384014D01*
X50616748Y-41396224D01*
X50442425Y-41396224D01*
X50442498Y-41384732D01*
X50442934Y-41362699D01*
X50443695Y-41340674D01*
X50444809Y-41318708D01*
X50446303Y-41296848D01*
X50448205Y-41275142D01*
X50450543Y-41253639D01*
X50453346Y-41232387D01*
X50456641Y-41211434D01*
X50460455Y-41190830D01*
X50464817Y-41170621D01*
X50469755Y-41150857D01*
X50475296Y-41131586D01*
X50481468Y-41112856D01*
X50488299Y-41094715D01*
X50495818Y-41077213D01*
X50504051Y-41060396D01*
X50513027Y-41044314D01*
X50522773Y-41029015D01*
X50533318Y-41014548D01*
X50544689Y-41000959D01*
X50556914Y-40988299D01*
X50570022Y-40976615D01*
X50584039Y-40965956D01*
X50598994Y-40956370D01*
X50614914Y-40947905D01*
X50631828Y-40940610D01*
X50649764Y-40934532D01*
X50668748Y-40929721D01*
X50688810Y-40926225D01*
X50709976Y-40924092D01*
X50732275Y-40923370D01*
X50752732Y-40924042D01*
G37*
G36*
X51339219Y-41616043D02*
G01*
X51339219Y-41830000D01*
X51554641Y-41830000D01*
X51554641Y-41616043D01*
X51339219Y-41616043D01*
G37*
G36*
X52186986Y-40923370D02*
G01*
X52180440Y-40934433D01*
X52173802Y-40944811D01*
X52164889Y-40957976D01*
X52153678Y-40973597D01*
X52147204Y-40982225D01*
X52140145Y-40991342D01*
X52132501Y-41000907D01*
X52124267Y-41010879D01*
X52115441Y-41021215D01*
X52106019Y-41031875D01*
X52095999Y-41042817D01*
X52085379Y-41053999D01*
X52074154Y-41065380D01*
X52062322Y-41076919D01*
X52049880Y-41088573D01*
X52036825Y-41100302D01*
X52023154Y-41112064D01*
X52008864Y-41123817D01*
X51993952Y-41135520D01*
X51978416Y-41147132D01*
X51962252Y-41158610D01*
X51945457Y-41169914D01*
X51928029Y-41181002D01*
X51909964Y-41191832D01*
X51891259Y-41202363D01*
X51871912Y-41212554D01*
X51970342Y-41360809D01*
X51986777Y-41351086D01*
X52002738Y-41340909D01*
X52018224Y-41330330D01*
X52033231Y-41319398D01*
X52047755Y-41308165D01*
X52061794Y-41296680D01*
X52075345Y-41284993D01*
X52088403Y-41273156D01*
X52100966Y-41261219D01*
X52113031Y-41249232D01*
X52124594Y-41237246D01*
X52135653Y-41225311D01*
X52146203Y-41213478D01*
X52156242Y-41201797D01*
X52165767Y-41190318D01*
X52174773Y-41179092D01*
X52175995Y-41845631D01*
X52352338Y-41845631D01*
X52352338Y-40954633D01*
X52186986Y-40923370D01*
G37*
G36*
X52787090Y-41616043D02*
G01*
X52787090Y-41830000D01*
X53002513Y-41830000D01*
X53002513Y-41616043D01*
X52787090Y-41616043D01*
G37*
G36*
X53648475Y-40924042D02*
G01*
X53667955Y-40926027D01*
X53686481Y-40929282D01*
X53704073Y-40933761D01*
X53720753Y-40939420D01*
X53736544Y-40946216D01*
X53751465Y-40954103D01*
X53765539Y-40963037D01*
X53778786Y-40972973D01*
X53791229Y-40983867D01*
X53802889Y-40995675D01*
X53813787Y-41008352D01*
X53823944Y-41021854D01*
X53833382Y-41036136D01*
X53842123Y-41051154D01*
X53850188Y-41066863D01*
X53857598Y-41083219D01*
X53864374Y-41100177D01*
X53870539Y-41117693D01*
X53876113Y-41135723D01*
X53881119Y-41154222D01*
X53885576Y-41173145D01*
X53889508Y-41192449D01*
X53892934Y-41212088D01*
X53895877Y-41232018D01*
X53898359Y-41252196D01*
X53900400Y-41272575D01*
X53902021Y-41293113D01*
X53903245Y-41313764D01*
X53904093Y-41334483D01*
X53904586Y-41355228D01*
X53904746Y-41375952D01*
X53904598Y-41397220D01*
X53904138Y-41418538D01*
X53903343Y-41439861D01*
X53902188Y-41461139D01*
X53900649Y-41482325D01*
X53898702Y-41503372D01*
X53896323Y-41524232D01*
X53893488Y-41544857D01*
X53890172Y-41565200D01*
X53886353Y-41585213D01*
X53882005Y-41604849D01*
X53877105Y-41624059D01*
X53871629Y-41642797D01*
X53865552Y-41661014D01*
X53858851Y-41678663D01*
X53851501Y-41695696D01*
X53843478Y-41712067D01*
X53834759Y-41727726D01*
X53825319Y-41742626D01*
X53815134Y-41756720D01*
X53804181Y-41769961D01*
X53792434Y-41782300D01*
X53779871Y-41793690D01*
X53766466Y-41804083D01*
X53752196Y-41813432D01*
X53737037Y-41821689D01*
X53720965Y-41828806D01*
X53703956Y-41834736D01*
X53685985Y-41839431D01*
X53667029Y-41842844D01*
X53647064Y-41844926D01*
X53626064Y-41845631D01*
X53604480Y-41845026D01*
X53583949Y-41843235D01*
X53564447Y-41840291D01*
X53545951Y-41836229D01*
X53528435Y-41831082D01*
X53511877Y-41824885D01*
X53496251Y-41817671D01*
X53481534Y-41809475D01*
X53467701Y-41800332D01*
X53454728Y-41790274D01*
X53442592Y-41779336D01*
X53431267Y-41767553D01*
X53420731Y-41754957D01*
X53410958Y-41741584D01*
X53401924Y-41727467D01*
X53393606Y-41712641D01*
X53385980Y-41697139D01*
X53379020Y-41680996D01*
X53372703Y-41664245D01*
X53367005Y-41646921D01*
X53361901Y-41629058D01*
X53357369Y-41610690D01*
X53356176Y-41605052D01*
X53533741Y-41605052D01*
X53537064Y-41617105D01*
X53540465Y-41628355D01*
X53543980Y-41638805D01*
X53547647Y-41648458D01*
X53553514Y-41661453D01*
X53559930Y-41672676D01*
X53567024Y-41682139D01*
X53574919Y-41689855D01*
X53583741Y-41695835D01*
X53593616Y-41700091D01*
X53604670Y-41702636D01*
X53617028Y-41703482D01*
X53636021Y-41701472D01*
X53652794Y-41695626D01*
X53667483Y-41686216D01*
X53680225Y-41673516D01*
X53691159Y-41657799D01*
X53695990Y-41648895D01*
X53700421Y-41639339D01*
X53704468Y-41629166D01*
X53708149Y-41618409D01*
X53711481Y-41607103D01*
X53714480Y-41595282D01*
X53717165Y-41582980D01*
X53719552Y-41570232D01*
X53721659Y-41557071D01*
X53723502Y-41543531D01*
X53725099Y-41529648D01*
X53726467Y-41515454D01*
X53727624Y-41500985D01*
X53728585Y-41486273D01*
X53729370Y-41471355D01*
X53729994Y-41456263D01*
X53730474Y-41441032D01*
X53730829Y-41425696D01*
X53731076Y-41410289D01*
X53731230Y-41394845D01*
X53731310Y-41379399D01*
X53731333Y-41363984D01*
X53731325Y-41360380D01*
X53731219Y-41350398D01*
X53730967Y-41339560D01*
X53730600Y-41329790D01*
X53533741Y-41605052D01*
X53356176Y-41605052D01*
X53353382Y-41591851D01*
X53349917Y-41572575D01*
X53346951Y-41552896D01*
X53344458Y-41532849D01*
X53342416Y-41512466D01*
X53340798Y-41491783D01*
X53339583Y-41470834D01*
X53338744Y-41449652D01*
X53338259Y-41428271D01*
X53338102Y-41406727D01*
X53338168Y-41396224D01*
X53512492Y-41396224D01*
X53512505Y-41399273D01*
X53512727Y-41409985D01*
X53513159Y-41420968D01*
X53513713Y-41431151D01*
X53705932Y-41159309D01*
X53703973Y-41152892D01*
X53700223Y-41140843D01*
X53696636Y-41129812D01*
X53693138Y-41119769D01*
X53687895Y-41106489D01*
X53682433Y-41095259D01*
X53676501Y-41085975D01*
X53669847Y-41078532D01*
X53659420Y-41071294D01*
X53650106Y-41067745D01*
X53639234Y-41065692D01*
X53626553Y-41065031D01*
X53607924Y-41067344D01*
X53591428Y-41074013D01*
X53576937Y-41084628D01*
X53564321Y-41098782D01*
X53558676Y-41107059D01*
X53553452Y-41116068D01*
X53548633Y-41125757D01*
X53544203Y-41136077D01*
X53540145Y-41146975D01*
X53536444Y-41158402D01*
X53533083Y-41170305D01*
X53530047Y-41182634D01*
X53527319Y-41195338D01*
X53524883Y-41208366D01*
X53522724Y-41221667D01*
X53520825Y-41235190D01*
X53519170Y-41248884D01*
X53517743Y-41262698D01*
X53516529Y-41276581D01*
X53515510Y-41290482D01*
X53514672Y-41304351D01*
X53513997Y-41318135D01*
X53513470Y-41331784D01*
X53513075Y-41345248D01*
X53512796Y-41358475D01*
X53512616Y-41371414D01*
X53512520Y-41384014D01*
X53512492Y-41396224D01*
X53338168Y-41396224D01*
X53338241Y-41384732D01*
X53338677Y-41362699D01*
X53339438Y-41340674D01*
X53340552Y-41318708D01*
X53342046Y-41296848D01*
X53343948Y-41275142D01*
X53346287Y-41253639D01*
X53349089Y-41232387D01*
X53352384Y-41211434D01*
X53356198Y-41190830D01*
X53360560Y-41170621D01*
X53365498Y-41150857D01*
X53371039Y-41131586D01*
X53377211Y-41112856D01*
X53384043Y-41094715D01*
X53391561Y-41077213D01*
X53399794Y-41060396D01*
X53408770Y-41044314D01*
X53418516Y-41029015D01*
X53429061Y-41014548D01*
X53440432Y-41000959D01*
X53452658Y-40988299D01*
X53465765Y-40976615D01*
X53479782Y-40965956D01*
X53494737Y-40956370D01*
X53510658Y-40947905D01*
X53527572Y-40940610D01*
X53545507Y-40934532D01*
X53564491Y-40929721D01*
X53584553Y-40926225D01*
X53605719Y-40924092D01*
X53628018Y-40923370D01*
X53648475Y-40924042D01*
G37*
G36*
X31667027Y-41663914D02*
G01*
X31670107Y-41674286D01*
X31673194Y-41684695D01*
X31676259Y-41695134D01*
X31679273Y-41705596D01*
X31682209Y-41716072D01*
X31685037Y-41726554D01*
X31687731Y-41737035D01*
X31690260Y-41747506D01*
X31692598Y-41757961D01*
X31694716Y-41768390D01*
X31696586Y-41778787D01*
X31698179Y-41789142D01*
X31699467Y-41799449D01*
X31700423Y-41809700D01*
X31701016Y-41819886D01*
X31701221Y-41830000D01*
X31512665Y-41830000D01*
X31512586Y-41822520D01*
X31512177Y-41811415D01*
X31511436Y-41800438D01*
X31510380Y-41789585D01*
X31509025Y-41778846D01*
X31507388Y-41768216D01*
X31505486Y-41757685D01*
X31503336Y-41747249D01*
X31500955Y-41736898D01*
X31498360Y-41726627D01*
X31495568Y-41716427D01*
X31473586Y-41638757D01*
X31454642Y-41639076D01*
X31436665Y-41639327D01*
X31419555Y-41639551D01*
X31403210Y-41639788D01*
X31387527Y-41640079D01*
X31372405Y-41640466D01*
X31357742Y-41640989D01*
X31343435Y-41641688D01*
X31329384Y-41642605D01*
X31315484Y-41643781D01*
X31301636Y-41645255D01*
X31287737Y-41647069D01*
X31273684Y-41649264D01*
X31259376Y-41651881D01*
X31244712Y-41654959D01*
X31229588Y-41658541D01*
X31209071Y-41719846D01*
X31205283Y-41731465D01*
X31201635Y-41742939D01*
X31198168Y-41754226D01*
X31194921Y-41765282D01*
X31191930Y-41776067D01*
X31189236Y-41786537D01*
X31186877Y-41796651D01*
X31184891Y-41806365D01*
X31182892Y-41818625D01*
X31181716Y-41830000D01*
X31003907Y-41830000D01*
X31004571Y-41822052D01*
X31006137Y-41809558D01*
X31008330Y-41796443D01*
X31011087Y-41782784D01*
X31014344Y-41768657D01*
X31016761Y-41759016D01*
X31019352Y-41749224D01*
X31022099Y-41739303D01*
X31024983Y-41729275D01*
X31027984Y-41719163D01*
X31031085Y-41708989D01*
X31034265Y-41698777D01*
X31037505Y-41688548D01*
X31040788Y-41678325D01*
X31099061Y-41498562D01*
X31265003Y-41498562D01*
X31268968Y-41497741D01*
X31282184Y-41495572D01*
X31291975Y-41494350D01*
X31302437Y-41493284D01*
X31313473Y-41492357D01*
X31324985Y-41491551D01*
X31336878Y-41490847D01*
X31349053Y-41490227D01*
X31361415Y-41489673D01*
X31373865Y-41489167D01*
X31386308Y-41488690D01*
X31398646Y-41488224D01*
X31410782Y-41487750D01*
X31422619Y-41487252D01*
X31434061Y-41486710D01*
X31445010Y-41486106D01*
X31441112Y-41467323D01*
X31438778Y-41457636D01*
X31436216Y-41447768D01*
X31433448Y-41437731D01*
X31430495Y-41427538D01*
X31427379Y-41417200D01*
X31424120Y-41406730D01*
X31420740Y-41396141D01*
X31417260Y-41385444D01*
X31413702Y-41374651D01*
X31410088Y-41363776D01*
X31406438Y-41352829D01*
X31402774Y-41341823D01*
X31399118Y-41330771D01*
X31395490Y-41319685D01*
X31391912Y-41308576D01*
X31388406Y-41297457D01*
X31384992Y-41286341D01*
X31381693Y-41275239D01*
X31378529Y-41264163D01*
X31375523Y-41253127D01*
X31372694Y-41242141D01*
X31370066Y-41231219D01*
X31367658Y-41220372D01*
X31365493Y-41209613D01*
X31363592Y-41198954D01*
X31361976Y-41188407D01*
X31360667Y-41177985D01*
X31359685Y-41167699D01*
X31359053Y-41157561D01*
X31358792Y-41147585D01*
X31358232Y-41158464D01*
X31357342Y-41169478D01*
X31356139Y-41180614D01*
X31354642Y-41191858D01*
X31352868Y-41203198D01*
X31350835Y-41214621D01*
X31348560Y-41226114D01*
X31346061Y-41237665D01*
X31343356Y-41249260D01*
X31340463Y-41260886D01*
X31337400Y-41272531D01*
X31334183Y-41284182D01*
X31330831Y-41295825D01*
X31327361Y-41307449D01*
X31323792Y-41319039D01*
X31320141Y-41330584D01*
X31316425Y-41342070D01*
X31312663Y-41353485D01*
X31308871Y-41364815D01*
X31305068Y-41376047D01*
X31301272Y-41387170D01*
X31297500Y-41398170D01*
X31293770Y-41409033D01*
X31290099Y-41419748D01*
X31286506Y-41430301D01*
X31283007Y-41440679D01*
X31279621Y-41450870D01*
X31276366Y-41460861D01*
X31273259Y-41470638D01*
X31270317Y-41480189D01*
X31265003Y-41498562D01*
X31099061Y-41498562D01*
X31285519Y-40923370D01*
X31438660Y-40923370D01*
X31667027Y-41663914D01*
G37*
G36*
X31954989Y-41194480D02*
G01*
X31952744Y-41181800D01*
X31949807Y-41169204D01*
X31946377Y-41156934D01*
X31942655Y-41145234D01*
X31938841Y-41134347D01*
X31935137Y-41124515D01*
X31930964Y-41114082D01*
X31928855Y-41108995D01*
X31770341Y-41141723D01*
X31773282Y-41153260D01*
X31775974Y-41163930D01*
X31778424Y-41173953D01*
X31780642Y-41183550D01*
X31783549Y-41197627D01*
X31785979Y-41211984D01*
X31787347Y-41222079D01*
X31788523Y-41232849D01*
X31789516Y-41244515D01*
X31790333Y-41257297D01*
X31790984Y-41271416D01*
X31791475Y-41287092D01*
X31791816Y-41304545D01*
X31792015Y-41323997D01*
X31792063Y-41334540D01*
X31792079Y-41345666D01*
X31792079Y-41830000D01*
X31963782Y-41830000D01*
X31963782Y-41344933D01*
X31974837Y-41335700D01*
X31986160Y-41327052D01*
X31997689Y-41318991D01*
X32009360Y-41311518D01*
X32021109Y-41304634D01*
X32032874Y-41298342D01*
X32044591Y-41292642D01*
X32056197Y-41287536D01*
X32067628Y-41283026D01*
X32078822Y-41279112D01*
X32089714Y-41275796D01*
X32100241Y-41273080D01*
X32110341Y-41270965D01*
X32124549Y-41268923D01*
X32137438Y-41268241D01*
X32149371Y-41269062D01*
X32159560Y-41271483D01*
X32170649Y-41277099D01*
X32179155Y-41285310D01*
X32185373Y-41295975D01*
X32188712Y-41305497D01*
X32191054Y-41316258D01*
X32192523Y-41328197D01*
X32193244Y-41341254D01*
X32193370Y-41350551D01*
X32193370Y-41677836D01*
X32193659Y-41687834D01*
X32195893Y-41706833D01*
X32200172Y-41724536D01*
X32206299Y-41740984D01*
X32214076Y-41756219D01*
X32223306Y-41770280D01*
X32233791Y-41783209D01*
X32245333Y-41795046D01*
X32257735Y-41805833D01*
X32270800Y-41815609D01*
X32284330Y-41824417D01*
X32298128Y-41832295D01*
X32311996Y-41839287D01*
X32325736Y-41845431D01*
X32339152Y-41850769D01*
X32352045Y-41855342D01*
X32358234Y-41857355D01*
X32437369Y-41720334D01*
X32426780Y-41714677D01*
X32416548Y-41709126D01*
X32406821Y-41703506D01*
X32397750Y-41697640D01*
X32389483Y-41691352D01*
X32382171Y-41684467D01*
X32375964Y-41676807D01*
X32371011Y-41668196D01*
X32367462Y-41658459D01*
X32365466Y-41647418D01*
X32365073Y-41639246D01*
X32365073Y-41283872D01*
X32364802Y-41273558D01*
X32364000Y-41263631D01*
X32360855Y-41244927D01*
X32355746Y-41227727D01*
X32348781Y-41212000D01*
X32340069Y-41197715D01*
X32329717Y-41184838D01*
X32317835Y-41173339D01*
X32304531Y-41163186D01*
X32289913Y-41154346D01*
X32274090Y-41146789D01*
X32257170Y-41140481D01*
X32239261Y-41135392D01*
X32220472Y-41131489D01*
X32210782Y-41129972D01*
X32200912Y-41128741D01*
X32190876Y-41127789D01*
X32180688Y-41127115D01*
X32170361Y-41126713D01*
X32159909Y-41126580D01*
X32145629Y-41126967D01*
X32131068Y-41128095D01*
X32116328Y-41129916D01*
X32101512Y-41132381D01*
X32086721Y-41135441D01*
X32072059Y-41139048D01*
X32057626Y-41143153D01*
X32043527Y-41147707D01*
X32029863Y-41152662D01*
X32016736Y-41157969D01*
X32004248Y-41163580D01*
X31992503Y-41169445D01*
X31981602Y-41175516D01*
X31971648Y-41181745D01*
X31962743Y-41188082D01*
X31954989Y-41194480D01*
G37*
G36*
X32741695Y-41545945D02*
G01*
X32742161Y-41533259D01*
X32742559Y-41520443D01*
X32742901Y-41507440D01*
X32743199Y-41494196D01*
X32743466Y-41480654D01*
X32743713Y-41466759D01*
X32743953Y-41452454D01*
X32744199Y-41437684D01*
X32744461Y-41422394D01*
X32744753Y-41406526D01*
X32745086Y-41390026D01*
X32745473Y-41372838D01*
X32745926Y-41354905D01*
X32746457Y-41336173D01*
X32747078Y-41316585D01*
X32747426Y-41306452D01*
X32747801Y-41296085D01*
X32765033Y-41296098D01*
X32782624Y-41296137D01*
X32800527Y-41296197D01*
X32818697Y-41296275D01*
X32837085Y-41296368D01*
X32855646Y-41296471D01*
X32874331Y-41296581D01*
X32893095Y-41296695D01*
X32911891Y-41296809D01*
X32930671Y-41296919D01*
X32949389Y-41297023D01*
X32967998Y-41297115D01*
X32986450Y-41297193D01*
X33004700Y-41297253D01*
X33022701Y-41297292D01*
X33040404Y-41297306D01*
X33042358Y-41157843D01*
X33031277Y-41157728D01*
X33019699Y-41157595D01*
X33004772Y-41157423D01*
X32987004Y-41157220D01*
X32977213Y-41157109D01*
X32966903Y-41156993D01*
X32956136Y-41156873D01*
X32944977Y-41156750D01*
X32933488Y-41156626D01*
X32921733Y-41156500D01*
X32909775Y-41156374D01*
X32897679Y-41156249D01*
X32885507Y-41156126D01*
X32873323Y-41156007D01*
X32861190Y-41155891D01*
X32849172Y-41155780D01*
X32837332Y-41155675D01*
X32825734Y-41155576D01*
X32814441Y-41155486D01*
X32803517Y-41155404D01*
X32793025Y-41155333D01*
X32783028Y-41155272D01*
X32764776Y-41155187D01*
X32749267Y-41155157D01*
X32749466Y-41141611D01*
X32749652Y-41127214D01*
X32749767Y-41117245D01*
X32749875Y-41107050D01*
X32749975Y-41096690D01*
X32750068Y-41086225D01*
X32750152Y-41075717D01*
X32750228Y-41065225D01*
X32750295Y-41054812D01*
X32750352Y-41044537D01*
X32750400Y-41034462D01*
X32750438Y-41024648D01*
X32750475Y-41010548D01*
X32750488Y-40997376D01*
X32579030Y-40993224D01*
X32579011Y-41007212D01*
X32578981Y-41017057D01*
X32578940Y-41027242D01*
X32578888Y-41037707D01*
X32578829Y-41048388D01*
X32578765Y-41059222D01*
X32578697Y-41070148D01*
X32578629Y-41081102D01*
X32578561Y-41092021D01*
X32578497Y-41102844D01*
X32578438Y-41113508D01*
X32578387Y-41123950D01*
X32578345Y-41134107D01*
X32578315Y-41143916D01*
X32578297Y-41157843D01*
X32568039Y-41157843D01*
X32556984Y-41158056D01*
X32545233Y-41158687D01*
X32533305Y-41159725D01*
X32521721Y-41161159D01*
X32510999Y-41162977D01*
X32500005Y-41165651D01*
X32498429Y-41166147D01*
X32509909Y-41305610D01*
X32520060Y-41302848D01*
X32530431Y-41300621D01*
X32540982Y-41298948D01*
X32551674Y-41297848D01*
X32562470Y-41297340D01*
X32566085Y-41297306D01*
X32575610Y-41297306D01*
X32575295Y-41307574D01*
X32574991Y-41317636D01*
X32574699Y-41327495D01*
X32574144Y-41346623D01*
X32573629Y-41364988D01*
X32573151Y-41382624D01*
X32572707Y-41399561D01*
X32572296Y-41415832D01*
X32571913Y-41431468D01*
X32571558Y-41446502D01*
X32571228Y-41460965D01*
X32570919Y-41474889D01*
X32570630Y-41488305D01*
X32570358Y-41501247D01*
X32570101Y-41513745D01*
X32569855Y-41525831D01*
X32569619Y-41537538D01*
X32569504Y-41543258D01*
X32569504Y-41571591D01*
X32569540Y-41582368D01*
X32569666Y-41592997D01*
X32569910Y-41603483D01*
X32570298Y-41613833D01*
X32570858Y-41624053D01*
X32571616Y-41634149D01*
X32572601Y-41644126D01*
X32573839Y-41653992D01*
X32575358Y-41663752D01*
X32577184Y-41673412D01*
X32579346Y-41682978D01*
X32581869Y-41692456D01*
X32584781Y-41701853D01*
X32588110Y-41711175D01*
X32591883Y-41720427D01*
X32596127Y-41729616D01*
X32600836Y-41738845D01*
X32605848Y-41747582D01*
X32611158Y-41755840D01*
X32622650Y-41770971D01*
X32635270Y-41784343D01*
X32648978Y-41796060D01*
X32663734Y-41806226D01*
X32679496Y-41814945D01*
X32696224Y-41822323D01*
X32713876Y-41828464D01*
X32732413Y-41833473D01*
X32742000Y-41835585D01*
X32751792Y-41837453D01*
X32761786Y-41839090D01*
X32771975Y-41840509D01*
X32782354Y-41841723D01*
X32792919Y-41842746D01*
X32803664Y-41843590D01*
X32814584Y-41844268D01*
X32825674Y-41844793D01*
X32836929Y-41845179D01*
X32848344Y-41845439D01*
X32859913Y-41845585D01*
X32871632Y-41845631D01*
X32882464Y-41845565D01*
X32893154Y-41845355D01*
X32903691Y-41844982D01*
X32914066Y-41844429D01*
X32924267Y-41843677D01*
X32934285Y-41842707D01*
X32944109Y-41841502D01*
X32958459Y-41839214D01*
X32972313Y-41836293D01*
X32985639Y-41832678D01*
X32998399Y-41828308D01*
X33010560Y-41823121D01*
X33022086Y-41817055D01*
X33035959Y-41808496D01*
X33048918Y-41799302D01*
X33060978Y-41789606D01*
X33072152Y-41779540D01*
X33082455Y-41769237D01*
X33091900Y-41758828D01*
X33100501Y-41748447D01*
X33108273Y-41738225D01*
X33115229Y-41728295D01*
X33121384Y-41718790D01*
X33126750Y-41709841D01*
X33133353Y-41697751D01*
X33138262Y-41687658D01*
X33142254Y-41678080D01*
X33000104Y-41610669D01*
X32996928Y-41621259D01*
X32994019Y-41630961D01*
X32990122Y-41641963D01*
X32984935Y-41653566D01*
X32980014Y-41662243D01*
X32974069Y-41670570D01*
X32966972Y-41678253D01*
X32958593Y-41684998D01*
X32952233Y-41688827D01*
X32942120Y-41694100D01*
X32932556Y-41698197D01*
X32921458Y-41701803D01*
X32911160Y-41704195D01*
X32899339Y-41706035D01*
X32889329Y-41706989D01*
X32878226Y-41707527D01*
X32870167Y-41707634D01*
X32859888Y-41707366D01*
X32849315Y-41706840D01*
X32838215Y-41706104D01*
X32828170Y-41705219D01*
X32825715Y-41704947D01*
X32815312Y-41702886D01*
X32805625Y-41700242D01*
X32792422Y-41695067D01*
X32780794Y-41688289D01*
X32770721Y-41679734D01*
X32762181Y-41669227D01*
X32755155Y-41656595D01*
X32751301Y-41646907D01*
X32748105Y-41636145D01*
X32745560Y-41624259D01*
X32743661Y-41611197D01*
X32742401Y-41596907D01*
X32741773Y-41581337D01*
X32741695Y-41573056D01*
X32741695Y-41545945D01*
G37*
G36*
X33539638Y-41126996D02*
G01*
X33558838Y-41128237D01*
X33577222Y-41130293D01*
X33594803Y-41133157D01*
X33611592Y-41136818D01*
X33627604Y-41141268D01*
X33642850Y-41146497D01*
X33657343Y-41152497D01*
X33671095Y-41159257D01*
X33684121Y-41166769D01*
X33696431Y-41175024D01*
X33708039Y-41184012D01*
X33718957Y-41193725D01*
X33729198Y-41204152D01*
X33738776Y-41215286D01*
X33747701Y-41227117D01*
X33755987Y-41239635D01*
X33763648Y-41252831D01*
X33770694Y-41266697D01*
X33777139Y-41281224D01*
X33782996Y-41296401D01*
X33788278Y-41312220D01*
X33792996Y-41328671D01*
X33797164Y-41345746D01*
X33800794Y-41363435D01*
X33803899Y-41381730D01*
X33806492Y-41400620D01*
X33808585Y-41420098D01*
X33810190Y-41440152D01*
X33811322Y-41460776D01*
X33811991Y-41481958D01*
X33812212Y-41503691D01*
X33812144Y-41511475D01*
X33811880Y-41522402D01*
X33811479Y-41533000D01*
X33793373Y-41533296D01*
X33775559Y-41533635D01*
X33758041Y-41534015D01*
X33740824Y-41534437D01*
X33723913Y-41534899D01*
X33707314Y-41535401D01*
X33691031Y-41535942D01*
X33675069Y-41536523D01*
X33659434Y-41537141D01*
X33644130Y-41537798D01*
X33629162Y-41538491D01*
X33614535Y-41539221D01*
X33600255Y-41539987D01*
X33586326Y-41540789D01*
X33572754Y-41541625D01*
X33559542Y-41542495D01*
X33546698Y-41543399D01*
X33534224Y-41544336D01*
X33522127Y-41545306D01*
X33510411Y-41546307D01*
X33499082Y-41547340D01*
X33488144Y-41548403D01*
X33477603Y-41549497D01*
X33467463Y-41550620D01*
X33448407Y-41552953D01*
X33431017Y-41555397D01*
X33415333Y-41557947D01*
X33401395Y-41560600D01*
X33404020Y-41575423D01*
X33407727Y-41589803D01*
X33412449Y-41603669D01*
X33418118Y-41616951D01*
X33424666Y-41629577D01*
X33432024Y-41641477D01*
X33440125Y-41652580D01*
X33448900Y-41662815D01*
X33458283Y-41672111D01*
X33468204Y-41680398D01*
X33478596Y-41687604D01*
X33489391Y-41693659D01*
X33500521Y-41698491D01*
X33511918Y-41702031D01*
X33523514Y-41704206D01*
X33535240Y-41704947D01*
X33548388Y-41704643D01*
X33560682Y-41703730D01*
X33572199Y-41702205D01*
X33583020Y-41700066D01*
X33593223Y-41697310D01*
X33602886Y-41693935D01*
X33612088Y-41689938D01*
X33620908Y-41685316D01*
X33629425Y-41680068D01*
X33637717Y-41674190D01*
X33645863Y-41667681D01*
X33653942Y-41660537D01*
X33662033Y-41652756D01*
X33670213Y-41644336D01*
X33678562Y-41635274D01*
X33687159Y-41625568D01*
X33808792Y-41736454D01*
X33796081Y-41750279D01*
X33783727Y-41763095D01*
X33771522Y-41774918D01*
X33759257Y-41785765D01*
X33746723Y-41795651D01*
X33733710Y-41804594D01*
X33720011Y-41812608D01*
X33705416Y-41819711D01*
X33689717Y-41825917D01*
X33672703Y-41831244D01*
X33654167Y-41835707D01*
X33644263Y-41837620D01*
X33633899Y-41839323D01*
X33623051Y-41840818D01*
X33611691Y-41842107D01*
X33599793Y-41843192D01*
X33587333Y-41844075D01*
X33574282Y-41844759D01*
X33560616Y-41845245D01*
X33546308Y-41845535D01*
X33531332Y-41845631D01*
X33513241Y-41845206D01*
X33495652Y-41843939D01*
X33478571Y-41841843D01*
X33462002Y-41838931D01*
X33445950Y-41835214D01*
X33430419Y-41830706D01*
X33415415Y-41825420D01*
X33400941Y-41819367D01*
X33387003Y-41812561D01*
X33373605Y-41805014D01*
X33360752Y-41796739D01*
X33348449Y-41787748D01*
X33336701Y-41778054D01*
X33325511Y-41767670D01*
X33314885Y-41756608D01*
X33304828Y-41744881D01*
X33295343Y-41732501D01*
X33286437Y-41719481D01*
X33278113Y-41705834D01*
X33270377Y-41691572D01*
X33263232Y-41676708D01*
X33256684Y-41661254D01*
X33250737Y-41645224D01*
X33245397Y-41628629D01*
X33240667Y-41611482D01*
X33236552Y-41593797D01*
X33233058Y-41575585D01*
X33230188Y-41556859D01*
X33227948Y-41537632D01*
X33226342Y-41517916D01*
X33225375Y-41497724D01*
X33225052Y-41477069D01*
X33225348Y-41458442D01*
X33226235Y-41440127D01*
X33227711Y-41422143D01*
X33228486Y-41415519D01*
X33401395Y-41415519D01*
X33415725Y-41413082D01*
X33429809Y-41410889D01*
X33443706Y-41408930D01*
X33457476Y-41407192D01*
X33471175Y-41405663D01*
X33484862Y-41404331D01*
X33498596Y-41403183D01*
X33512434Y-41402208D01*
X33526436Y-41401393D01*
X33540659Y-41400726D01*
X33555162Y-41400196D01*
X33570003Y-41399789D01*
X33585240Y-41399493D01*
X33600933Y-41399297D01*
X33617138Y-41399189D01*
X33633914Y-41399155D01*
X33632744Y-41382319D01*
X33630548Y-41366697D01*
X33627380Y-41352270D01*
X33623290Y-41339022D01*
X33618330Y-41326934D01*
X33612551Y-41315989D01*
X33606005Y-41306170D01*
X33598743Y-41297459D01*
X33590818Y-41289838D01*
X33582280Y-41283290D01*
X33573181Y-41277798D01*
X33563572Y-41273343D01*
X33553506Y-41269909D01*
X33543033Y-41267478D01*
X33532205Y-41266032D01*
X33521074Y-41265554D01*
X33508264Y-41266340D01*
X33496046Y-41268642D01*
X33484446Y-41272382D01*
X33473489Y-41277480D01*
X33463200Y-41283856D01*
X33453604Y-41291430D01*
X33444728Y-41300123D01*
X33436597Y-41309854D01*
X33429235Y-41320544D01*
X33422669Y-41332113D01*
X33416923Y-41344481D01*
X33412024Y-41357569D01*
X33407996Y-41371296D01*
X33404865Y-41385584D01*
X33402656Y-41400351D01*
X33401395Y-41415519D01*
X33228486Y-41415519D01*
X33229775Y-41404507D01*
X33232424Y-41387237D01*
X33235659Y-41370352D01*
X33239476Y-41353871D01*
X33243874Y-41337812D01*
X33248852Y-41322193D01*
X33254407Y-41307032D01*
X33260540Y-41292348D01*
X33267247Y-41278159D01*
X33274527Y-41264483D01*
X33282379Y-41251339D01*
X33290800Y-41238745D01*
X33299790Y-41226720D01*
X33309347Y-41215281D01*
X33319469Y-41204447D01*
X33330154Y-41194237D01*
X33341401Y-41184669D01*
X33353209Y-41175761D01*
X33365575Y-41167531D01*
X33378498Y-41159998D01*
X33391977Y-41153180D01*
X33406009Y-41147095D01*
X33420594Y-41141762D01*
X33435729Y-41137200D01*
X33451413Y-41133426D01*
X33467645Y-41130458D01*
X33484423Y-41128316D01*
X33501744Y-41127017D01*
X33519609Y-41126580D01*
X33539638Y-41126996D01*
G37*
G36*
X34126796Y-41194480D02*
G01*
X34124551Y-41181800D01*
X34121614Y-41169204D01*
X34118184Y-41156934D01*
X34114462Y-41145234D01*
X34110649Y-41134347D01*
X34106944Y-41124515D01*
X34102771Y-41114082D01*
X34100662Y-41108995D01*
X33942149Y-41141723D01*
X33945090Y-41153260D01*
X33947781Y-41163930D01*
X33950232Y-41173953D01*
X33952449Y-41183550D01*
X33955356Y-41197627D01*
X33957786Y-41211984D01*
X33959154Y-41222079D01*
X33960331Y-41232849D01*
X33961323Y-41244515D01*
X33962141Y-41257297D01*
X33962791Y-41271416D01*
X33963283Y-41287092D01*
X33963624Y-41304545D01*
X33963822Y-41323997D01*
X33963871Y-41334540D01*
X33963886Y-41345666D01*
X33963886Y-41830000D01*
X34135589Y-41830000D01*
X34135589Y-41344933D01*
X34146644Y-41335700D01*
X34157967Y-41327052D01*
X34169496Y-41318991D01*
X34181167Y-41311518D01*
X34192917Y-41304634D01*
X34204682Y-41298342D01*
X34216399Y-41292642D01*
X34228005Y-41287536D01*
X34239436Y-41283026D01*
X34250629Y-41279112D01*
X34261521Y-41275796D01*
X34272048Y-41273080D01*
X34282148Y-41270965D01*
X34296356Y-41268923D01*
X34309246Y-41268241D01*
X34321178Y-41269062D01*
X34331368Y-41271483D01*
X34342457Y-41277099D01*
X34350963Y-41285310D01*
X34357180Y-41295975D01*
X34360519Y-41305497D01*
X34362861Y-41316258D01*
X34364330Y-41328197D01*
X34365051Y-41341254D01*
X34365177Y-41350551D01*
X34365177Y-41677836D01*
X34365466Y-41687834D01*
X34367700Y-41706833D01*
X34371980Y-41724536D01*
X34378107Y-41740984D01*
X34385884Y-41756219D01*
X34395113Y-41770280D01*
X34405598Y-41783209D01*
X34417140Y-41795046D01*
X34429543Y-41805833D01*
X34442607Y-41815609D01*
X34456138Y-41824417D01*
X34469935Y-41832295D01*
X34483803Y-41839287D01*
X34497544Y-41845431D01*
X34510959Y-41850769D01*
X34523852Y-41855342D01*
X34530041Y-41857355D01*
X34609176Y-41720334D01*
X34598588Y-41714677D01*
X34588356Y-41709126D01*
X34578629Y-41703506D01*
X34569557Y-41697640D01*
X34561291Y-41691352D01*
X34553979Y-41684467D01*
X34547771Y-41676807D01*
X34542818Y-41668196D01*
X34539269Y-41658459D01*
X34537273Y-41647418D01*
X34536880Y-41639246D01*
X34536880Y-41283872D01*
X34536610Y-41273558D01*
X34535808Y-41263631D01*
X34532663Y-41244927D01*
X34527553Y-41227727D01*
X34520588Y-41212000D01*
X34511876Y-41197715D01*
X34501525Y-41184838D01*
X34489643Y-41173339D01*
X34476338Y-41163186D01*
X34461721Y-41154346D01*
X34445897Y-41146789D01*
X34428977Y-41140481D01*
X34411068Y-41135392D01*
X34392280Y-41131489D01*
X34382589Y-41129972D01*
X34372719Y-41128741D01*
X34362683Y-41127789D01*
X34352495Y-41127115D01*
X34342168Y-41126713D01*
X34331716Y-41126580D01*
X34317436Y-41126967D01*
X34302875Y-41128095D01*
X34288136Y-41129916D01*
X34273319Y-41132381D01*
X34258529Y-41135441D01*
X34243866Y-41139048D01*
X34229434Y-41143153D01*
X34215334Y-41147707D01*
X34201670Y-41152662D01*
X34188543Y-41157969D01*
X34176056Y-41163580D01*
X34164311Y-41169445D01*
X34153410Y-41175516D01*
X34143456Y-41181745D01*
X34134550Y-41188082D01*
X34126796Y-41194480D01*
G37*
G36*
X34850732Y-41194480D02*
G01*
X34848487Y-41181800D01*
X34845550Y-41169204D01*
X34842120Y-41156934D01*
X34838398Y-41145234D01*
X34834585Y-41134347D01*
X34830880Y-41124515D01*
X34826707Y-41114082D01*
X34824598Y-41108995D01*
X34666085Y-41141723D01*
X34669026Y-41153260D01*
X34671717Y-41163930D01*
X34674167Y-41173953D01*
X34676385Y-41183550D01*
X34679292Y-41197627D01*
X34681722Y-41211984D01*
X34683090Y-41222079D01*
X34684266Y-41232849D01*
X34685259Y-41244515D01*
X34686077Y-41257297D01*
X34686727Y-41271416D01*
X34687218Y-41287092D01*
X34687559Y-41304545D01*
X34687758Y-41323997D01*
X34687806Y-41334540D01*
X34687822Y-41345666D01*
X34687822Y-41830000D01*
X34859525Y-41830000D01*
X34859525Y-41344933D01*
X34870580Y-41335700D01*
X34881903Y-41327052D01*
X34893432Y-41318991D01*
X34905103Y-41311518D01*
X34916853Y-41304634D01*
X34928618Y-41298342D01*
X34940335Y-41292642D01*
X34951940Y-41287536D01*
X34963372Y-41283026D01*
X34974565Y-41279112D01*
X34985457Y-41275796D01*
X34995984Y-41273080D01*
X35006084Y-41270965D01*
X35020292Y-41268923D01*
X35033182Y-41268241D01*
X35045114Y-41269062D01*
X35055304Y-41271483D01*
X35066393Y-41277099D01*
X35074899Y-41285310D01*
X35081116Y-41295975D01*
X35084455Y-41305497D01*
X35086797Y-41316258D01*
X35088266Y-41328197D01*
X35088987Y-41341254D01*
X35089113Y-41350551D01*
X35089113Y-41677836D01*
X35089402Y-41687834D01*
X35091636Y-41706833D01*
X35095915Y-41724536D01*
X35102042Y-41740984D01*
X35109819Y-41756219D01*
X35119049Y-41770280D01*
X35129534Y-41783209D01*
X35141076Y-41795046D01*
X35153478Y-41805833D01*
X35166543Y-41815609D01*
X35180073Y-41824417D01*
X35193871Y-41832295D01*
X35207739Y-41839287D01*
X35221479Y-41845431D01*
X35234895Y-41850769D01*
X35247788Y-41855342D01*
X35253977Y-41857355D01*
X35333112Y-41720334D01*
X35322524Y-41714677D01*
X35312291Y-41709126D01*
X35302565Y-41703506D01*
X35293493Y-41697640D01*
X35285226Y-41691352D01*
X35277915Y-41684467D01*
X35271707Y-41676807D01*
X35266754Y-41668196D01*
X35263205Y-41658459D01*
X35261209Y-41647418D01*
X35260816Y-41639246D01*
X35260816Y-41283872D01*
X35260546Y-41273558D01*
X35259744Y-41263631D01*
X35256598Y-41244927D01*
X35251489Y-41227727D01*
X35244524Y-41212000D01*
X35235812Y-41197715D01*
X35225460Y-41184838D01*
X35213578Y-41173339D01*
X35200274Y-41163186D01*
X35185656Y-41154346D01*
X35169833Y-41146789D01*
X35152913Y-41140481D01*
X35135004Y-41135392D01*
X35116215Y-41131489D01*
X35106525Y-41129972D01*
X35096655Y-41128741D01*
X35086619Y-41127789D01*
X35076431Y-41127115D01*
X35066104Y-41126713D01*
X35055652Y-41126580D01*
X35041372Y-41126967D01*
X35026811Y-41128095D01*
X35012071Y-41129916D01*
X34997255Y-41132381D01*
X34982464Y-41135441D01*
X34967802Y-41139048D01*
X34953370Y-41143153D01*
X34939270Y-41147707D01*
X34925606Y-41152662D01*
X34912479Y-41157969D01*
X34899992Y-41163580D01*
X34888246Y-41169445D01*
X34877346Y-41175516D01*
X34867391Y-41181745D01*
X34858486Y-41188082D01*
X34850732Y-41194480D01*
G37*
G36*
X35694795Y-41126850D02*
G01*
X35709039Y-41127658D01*
X35723134Y-41129001D01*
X35737061Y-41130875D01*
X35750796Y-41133279D01*
X35764319Y-41136208D01*
X35777607Y-41139660D01*
X35790640Y-41143631D01*
X35803395Y-41148119D01*
X35815850Y-41153121D01*
X35827985Y-41158634D01*
X35839776Y-41164653D01*
X35851204Y-41171178D01*
X35862246Y-41178203D01*
X35872880Y-41185727D01*
X35883086Y-41193747D01*
X35892840Y-41202259D01*
X35902122Y-41211260D01*
X35910910Y-41220747D01*
X35919182Y-41230717D01*
X35926917Y-41241168D01*
X35934093Y-41252095D01*
X35940688Y-41263497D01*
X35946680Y-41275370D01*
X35952049Y-41287710D01*
X35956772Y-41300516D01*
X35960828Y-41313784D01*
X35964195Y-41327510D01*
X35966852Y-41341692D01*
X35968776Y-41356327D01*
X35969946Y-41371412D01*
X35970341Y-41386943D01*
X35970341Y-41620683D01*
X35970496Y-41632358D01*
X35970974Y-41643408D01*
X35971794Y-41653868D01*
X35972975Y-41663769D01*
X35975466Y-41677650D01*
X35978879Y-41690466D01*
X35983279Y-41702331D01*
X35988731Y-41713357D01*
X35995301Y-41723659D01*
X36003053Y-41733350D01*
X36012052Y-41742544D01*
X36022365Y-41751353D01*
X35936880Y-41853203D01*
X35927165Y-41845986D01*
X35918018Y-41839519D01*
X35909352Y-41833494D01*
X35901078Y-41827606D01*
X35893109Y-41821547D01*
X35885355Y-41815010D01*
X35877730Y-41807690D01*
X35870145Y-41799278D01*
X35862511Y-41789470D01*
X35854741Y-41777957D01*
X35849441Y-41769183D01*
X35844550Y-41774087D01*
X35834647Y-41783372D01*
X35824507Y-41791967D01*
X35814035Y-41799884D01*
X35803137Y-41807132D01*
X35791721Y-41813720D01*
X35779691Y-41819660D01*
X35766955Y-41824960D01*
X35753418Y-41829632D01*
X35738988Y-41833684D01*
X35723569Y-41837128D01*
X35707070Y-41839973D01*
X35689394Y-41842229D01*
X35670450Y-41843906D01*
X35660473Y-41844530D01*
X35650143Y-41845014D01*
X35639449Y-41845357D01*
X35628379Y-41845563D01*
X35616922Y-41845631D01*
X35605954Y-41845371D01*
X35595001Y-41844596D01*
X35584084Y-41843318D01*
X35573226Y-41841544D01*
X35562448Y-41839286D01*
X35551772Y-41836552D01*
X35541221Y-41833353D01*
X35530815Y-41829698D01*
X35520577Y-41825597D01*
X35510529Y-41821059D01*
X35500692Y-41816095D01*
X35491089Y-41810713D01*
X35481741Y-41804925D01*
X35472670Y-41798738D01*
X35463898Y-41792164D01*
X35455447Y-41785211D01*
X35447339Y-41777890D01*
X35439595Y-41770211D01*
X35432238Y-41762182D01*
X35425289Y-41753813D01*
X35418771Y-41745115D01*
X35412704Y-41736097D01*
X35407112Y-41726769D01*
X35402015Y-41717140D01*
X35397436Y-41707220D01*
X35393397Y-41697020D01*
X35389919Y-41686547D01*
X35387024Y-41675813D01*
X35384735Y-41664827D01*
X35383072Y-41653598D01*
X35382059Y-41642137D01*
X35381716Y-41630453D01*
X35381931Y-41619951D01*
X35560990Y-41619951D01*
X35561127Y-41626202D01*
X35562192Y-41637895D01*
X35564250Y-41648540D01*
X35569039Y-41662628D01*
X35575647Y-41674575D01*
X35583825Y-41684510D01*
X35593322Y-41692562D01*
X35603888Y-41698860D01*
X35615274Y-41703533D01*
X35627229Y-41706712D01*
X35639504Y-41708524D01*
X35651849Y-41709099D01*
X35665722Y-41708292D01*
X35679107Y-41705969D01*
X35691969Y-41702284D01*
X35704273Y-41697387D01*
X35715983Y-41691430D01*
X35727064Y-41684563D01*
X35737479Y-41676938D01*
X35747195Y-41668708D01*
X35756175Y-41660022D01*
X35764384Y-41651032D01*
X35771787Y-41641890D01*
X35778347Y-41632747D01*
X35784031Y-41623754D01*
X35790834Y-41610877D01*
X35795464Y-41599190D01*
X35795464Y-41566461D01*
X35790587Y-41561036D01*
X35782385Y-41553203D01*
X35773230Y-41545815D01*
X35763244Y-41538962D01*
X35752550Y-41532732D01*
X35741272Y-41527216D01*
X35729532Y-41522503D01*
X35717455Y-41518681D01*
X35705162Y-41515840D01*
X35692778Y-41514071D01*
X35680425Y-41513461D01*
X35676129Y-41513549D01*
X35662390Y-41514901D01*
X35652715Y-41516737D01*
X35642804Y-41519349D01*
X35632810Y-41522761D01*
X35622886Y-41526998D01*
X35613183Y-41532082D01*
X35603855Y-41538038D01*
X35595053Y-41544890D01*
X35586931Y-41552661D01*
X35579640Y-41561377D01*
X35573332Y-41571060D01*
X35568161Y-41581735D01*
X35564279Y-41593426D01*
X35561838Y-41606156D01*
X35560990Y-41619951D01*
X35381931Y-41619951D01*
X35381956Y-41618716D01*
X35382676Y-41607060D01*
X35383875Y-41595509D01*
X35385552Y-41584085D01*
X35387704Y-41572813D01*
X35390333Y-41561717D01*
X35393436Y-41550819D01*
X35397012Y-41540144D01*
X35401060Y-41529715D01*
X35405580Y-41519556D01*
X35410570Y-41509691D01*
X35416028Y-41500142D01*
X35421955Y-41490934D01*
X35428349Y-41482090D01*
X35435208Y-41473634D01*
X35442533Y-41465589D01*
X35454846Y-41453683D01*
X35467431Y-41442765D01*
X35480303Y-41432806D01*
X35493476Y-41423774D01*
X35506966Y-41415640D01*
X35520787Y-41408372D01*
X35534954Y-41401941D01*
X35549480Y-41396316D01*
X35564382Y-41391466D01*
X35579674Y-41387362D01*
X35595369Y-41383973D01*
X35611484Y-41381268D01*
X35628032Y-41379217D01*
X35645029Y-41377790D01*
X35662488Y-41376956D01*
X35680425Y-41376685D01*
X35684528Y-41376727D01*
X35696849Y-41377339D01*
X35709112Y-41378638D01*
X35721215Y-41380571D01*
X35733058Y-41383083D01*
X35744539Y-41386119D01*
X35755556Y-41389625D01*
X35766008Y-41393547D01*
X35775793Y-41397830D01*
X35784810Y-41402420D01*
X35795464Y-41408925D01*
X35795235Y-41398166D01*
X35794562Y-41387953D01*
X35791973Y-41369111D01*
X35787868Y-41352294D01*
X35782419Y-41337392D01*
X35775801Y-41324300D01*
X35768184Y-41312909D01*
X35759741Y-41303112D01*
X35750645Y-41294802D01*
X35741068Y-41287872D01*
X35731183Y-41282214D01*
X35721162Y-41277721D01*
X35711177Y-41274286D01*
X35701401Y-41271801D01*
X35687506Y-41269620D01*
X35675052Y-41268974D01*
X35660474Y-41269253D01*
X35646234Y-41270101D01*
X35632328Y-41271530D01*
X35618758Y-41273553D01*
X35605520Y-41276183D01*
X35592616Y-41279432D01*
X35580042Y-41283314D01*
X35567799Y-41287841D01*
X35555885Y-41293027D01*
X35544298Y-41298884D01*
X35533039Y-41305425D01*
X35522106Y-41312663D01*
X35511498Y-41320610D01*
X35501213Y-41329281D01*
X35491252Y-41338687D01*
X35481612Y-41348841D01*
X35398080Y-41202540D01*
X35409010Y-41195709D01*
X35419517Y-41189314D01*
X35429628Y-41183338D01*
X35439374Y-41177768D01*
X35448783Y-41172588D01*
X35457883Y-41167783D01*
X35475273Y-41159244D01*
X35491774Y-41152031D01*
X35507616Y-41146027D01*
X35523030Y-41141114D01*
X35538245Y-41137174D01*
X35553492Y-41134091D01*
X35569000Y-41131745D01*
X35585000Y-41130020D01*
X35601722Y-41128797D01*
X35619395Y-41127960D01*
X35638250Y-41127390D01*
X35648192Y-41127168D01*
X35658517Y-41126969D01*
X35669251Y-41126778D01*
X35680425Y-41126580D01*
X35694795Y-41126850D01*
G37*
G36*
X36861095Y-40926301D02*
G01*
X36861095Y-41830000D01*
X37327355Y-41830000D01*
X37339458Y-41829838D01*
X37350715Y-41829373D01*
X37361189Y-41828633D01*
X37370944Y-41827645D01*
X37384368Y-41825761D01*
X37396532Y-41823481D01*
X37407650Y-41820898D01*
X37417939Y-41818109D01*
X37427613Y-41815209D01*
X37439926Y-41811335D01*
X37452038Y-41807658D01*
X37455094Y-41806796D01*
X37406001Y-41670997D01*
X37396059Y-41674529D01*
X37386412Y-41677611D01*
X37374475Y-41681014D01*
X37364415Y-41683520D01*
X37353713Y-41685784D01*
X37342644Y-41687625D01*
X37331487Y-41688863D01*
X37320516Y-41689316D01*
X37035973Y-41690781D01*
X37035989Y-41680334D01*
X37036036Y-41669118D01*
X37036108Y-41657099D01*
X37036202Y-41644241D01*
X37036313Y-41630509D01*
X37036437Y-41615867D01*
X37036569Y-41600279D01*
X37036706Y-41583711D01*
X37036842Y-41566127D01*
X37036975Y-41547491D01*
X37037099Y-41527768D01*
X37037156Y-41517488D01*
X37037209Y-41506923D01*
X37037259Y-41496069D01*
X37037303Y-41484921D01*
X37037342Y-41473474D01*
X37037375Y-41461725D01*
X37037402Y-41449668D01*
X37037422Y-41437300D01*
X37037434Y-41424616D01*
X37037438Y-41411612D01*
X37037438Y-41390607D01*
X37268492Y-41390607D01*
X37268492Y-41251632D01*
X37037438Y-41251632D01*
X37037438Y-41063565D01*
X37399162Y-41063565D01*
X37399162Y-40925568D01*
X37388171Y-40925568D01*
X37378202Y-40925544D01*
X37367286Y-40925474D01*
X37355472Y-40925365D01*
X37342811Y-40925225D01*
X37329351Y-40925058D01*
X37315142Y-40924873D01*
X37300233Y-40924674D01*
X37284673Y-40924469D01*
X37268513Y-40924264D01*
X37251801Y-40924066D01*
X37234586Y-40923880D01*
X37216919Y-40923714D01*
X37198848Y-40923573D01*
X37180423Y-40923465D01*
X37161693Y-40923395D01*
X37142707Y-40923370D01*
X37067480Y-40923370D01*
X37000558Y-40923370D01*
X36990638Y-40923371D01*
X36980851Y-40923376D01*
X36966431Y-40923401D01*
X36952342Y-40923459D01*
X36938604Y-40923567D01*
X36925239Y-40923736D01*
X36912267Y-40923984D01*
X36899709Y-40924322D01*
X36887584Y-40924768D01*
X36875913Y-40925334D01*
X36864718Y-40926035D01*
X36861095Y-40926301D01*
G37*
G36*
X37662944Y-41099225D02*
G01*
X37518108Y-41188618D01*
X37526335Y-41201087D01*
X37534871Y-41214815D01*
X37543679Y-41229727D01*
X37552720Y-41245750D01*
X37561959Y-41262810D01*
X37571356Y-41280834D01*
X37580876Y-41299746D01*
X37590481Y-41319475D01*
X37600132Y-41339945D01*
X37609794Y-41361082D01*
X37619428Y-41382814D01*
X37628997Y-41405066D01*
X37638463Y-41427764D01*
X37647790Y-41450835D01*
X37656940Y-41474204D01*
X37665875Y-41497799D01*
X37674559Y-41521544D01*
X37682953Y-41545366D01*
X37691021Y-41569192D01*
X37698724Y-41592947D01*
X37706026Y-41616558D01*
X37712889Y-41639950D01*
X37719276Y-41663051D01*
X37725150Y-41685786D01*
X37730472Y-41708080D01*
X37735207Y-41729862D01*
X37739315Y-41751056D01*
X37742760Y-41771589D01*
X37745505Y-41791386D01*
X37747512Y-41810375D01*
X37748743Y-41828481D01*
X37749162Y-41845631D01*
X37762150Y-41845597D01*
X37774478Y-41845493D01*
X37786173Y-41845315D01*
X37797258Y-41845061D01*
X37807762Y-41844728D01*
X37817708Y-41844312D01*
X37836032Y-41843223D01*
X37852438Y-41841769D01*
X37867130Y-41839925D01*
X37880314Y-41837669D01*
X37892197Y-41834976D01*
X37902983Y-41831822D01*
X37912879Y-41828183D01*
X37922090Y-41824036D01*
X37930822Y-41819356D01*
X37939280Y-41814119D01*
X37947671Y-41808301D01*
X37956200Y-41801879D01*
X37965073Y-41794829D01*
X37976593Y-41785101D01*
X37987797Y-41774796D01*
X37998682Y-41763930D01*
X38009243Y-41752518D01*
X38019477Y-41740576D01*
X38029383Y-41728118D01*
X38038955Y-41715160D01*
X38048192Y-41701719D01*
X38057089Y-41687808D01*
X38065644Y-41673445D01*
X38073853Y-41658643D01*
X38081714Y-41643420D01*
X38089222Y-41627790D01*
X38096376Y-41611768D01*
X38103170Y-41595370D01*
X38109603Y-41578613D01*
X38115672Y-41561510D01*
X38121371Y-41544078D01*
X38126700Y-41526331D01*
X38131654Y-41508287D01*
X38136230Y-41489959D01*
X38140425Y-41471364D01*
X38144236Y-41452517D01*
X38147660Y-41433433D01*
X38150692Y-41414128D01*
X38153331Y-41394618D01*
X38155573Y-41374917D01*
X38157414Y-41355042D01*
X38158852Y-41335007D01*
X38159883Y-41314829D01*
X38160504Y-41294522D01*
X38160711Y-41274103D01*
X38160655Y-41261859D01*
X38160496Y-41248020D01*
X38160337Y-41238176D01*
X38160142Y-41228026D01*
X38159913Y-41217731D01*
X38159654Y-41207452D01*
X38159368Y-41197349D01*
X38158898Y-41182879D01*
X38158388Y-41169712D01*
X38157851Y-41158392D01*
X38157113Y-41147110D01*
X38156559Y-41142212D01*
X37984856Y-41142212D01*
X37985490Y-41153957D01*
X37985919Y-41164170D01*
X37986280Y-41174977D01*
X37986572Y-41186254D01*
X37986795Y-41197877D01*
X37986949Y-41209725D01*
X37987035Y-41221674D01*
X37987055Y-41230628D01*
X37987047Y-41241837D01*
X37986993Y-41252839D01*
X37986848Y-41263360D01*
X37986509Y-41274440D01*
X37986322Y-41278255D01*
X37985901Y-41291620D01*
X37985408Y-41305009D01*
X37984834Y-41318412D01*
X37984167Y-41331819D01*
X37983395Y-41345219D01*
X37982508Y-41358602D01*
X37981496Y-41371959D01*
X37980346Y-41385279D01*
X37979048Y-41398552D01*
X37977590Y-41411767D01*
X37975963Y-41424914D01*
X37974155Y-41437984D01*
X37972154Y-41450966D01*
X37969950Y-41463849D01*
X37967533Y-41476624D01*
X37964890Y-41489281D01*
X37962011Y-41501808D01*
X37958884Y-41514197D01*
X37955500Y-41526437D01*
X37951846Y-41538517D01*
X37947913Y-41550427D01*
X37943688Y-41562158D01*
X37939161Y-41573699D01*
X37934321Y-41585039D01*
X37929157Y-41596169D01*
X37923658Y-41607079D01*
X37917812Y-41617758D01*
X37911609Y-41628196D01*
X37905039Y-41638382D01*
X37898089Y-41648308D01*
X37890748Y-41657962D01*
X37883007Y-41667334D01*
X37878623Y-41650677D01*
X37874166Y-41633911D01*
X37869626Y-41617040D01*
X37864996Y-41600067D01*
X37860267Y-41582996D01*
X37855429Y-41565832D01*
X37850474Y-41548578D01*
X37845394Y-41531237D01*
X37840179Y-41513814D01*
X37834820Y-41496313D01*
X37829310Y-41478737D01*
X37823639Y-41461091D01*
X37817798Y-41443377D01*
X37811779Y-41425601D01*
X37805573Y-41407765D01*
X37799171Y-41389874D01*
X37792564Y-41371931D01*
X37785744Y-41353941D01*
X37778702Y-41335907D01*
X37771428Y-41317833D01*
X37763915Y-41299723D01*
X37756154Y-41281580D01*
X37748135Y-41263409D01*
X37739850Y-41245213D01*
X37731291Y-41226997D01*
X37722448Y-41208764D01*
X37713312Y-41190518D01*
X37703876Y-41172262D01*
X37694130Y-41154001D01*
X37684065Y-41135739D01*
X37673673Y-41117479D01*
X37662944Y-41099225D01*
G37*
G36*
X38590538Y-41126850D02*
G01*
X38604782Y-41127658D01*
X38618878Y-41129001D01*
X38632804Y-41130875D01*
X38646540Y-41133279D01*
X38660062Y-41136208D01*
X38673351Y-41139660D01*
X38686383Y-41143631D01*
X38699138Y-41148119D01*
X38711593Y-41153121D01*
X38723728Y-41158634D01*
X38735520Y-41164653D01*
X38746947Y-41171178D01*
X38757989Y-41178203D01*
X38768624Y-41185727D01*
X38778829Y-41193747D01*
X38788583Y-41202259D01*
X38797865Y-41211260D01*
X38806653Y-41220747D01*
X38814925Y-41230717D01*
X38822660Y-41241168D01*
X38829836Y-41252095D01*
X38836431Y-41263497D01*
X38842424Y-41275370D01*
X38847792Y-41287710D01*
X38852516Y-41300516D01*
X38856571Y-41313784D01*
X38859938Y-41327510D01*
X38862595Y-41341692D01*
X38864519Y-41356327D01*
X38865690Y-41371412D01*
X38866085Y-41386943D01*
X38866085Y-41620683D01*
X38866240Y-41632358D01*
X38866717Y-41643408D01*
X38867537Y-41653868D01*
X38868718Y-41663769D01*
X38871209Y-41677650D01*
X38874622Y-41690466D01*
X38879022Y-41702331D01*
X38884474Y-41713357D01*
X38891044Y-41723659D01*
X38898796Y-41733350D01*
X38907796Y-41742544D01*
X38918108Y-41751353D01*
X38832623Y-41853203D01*
X38822908Y-41845986D01*
X38813761Y-41839519D01*
X38805095Y-41833494D01*
X38796821Y-41827606D01*
X38788852Y-41821547D01*
X38781099Y-41815010D01*
X38773473Y-41807690D01*
X38765888Y-41799278D01*
X38758254Y-41789470D01*
X38750484Y-41777957D01*
X38745184Y-41769183D01*
X38740293Y-41774087D01*
X38730391Y-41783372D01*
X38720250Y-41791967D01*
X38709778Y-41799884D01*
X38698880Y-41807132D01*
X38687464Y-41813720D01*
X38675434Y-41819660D01*
X38662698Y-41824960D01*
X38649162Y-41829632D01*
X38634731Y-41833684D01*
X38619313Y-41837128D01*
X38602813Y-41839973D01*
X38585137Y-41842229D01*
X38566193Y-41843906D01*
X38556216Y-41844530D01*
X38545886Y-41845014D01*
X38535192Y-41845357D01*
X38524123Y-41845563D01*
X38512665Y-41845631D01*
X38501697Y-41845371D01*
X38490744Y-41844596D01*
X38479827Y-41843318D01*
X38468969Y-41841544D01*
X38458191Y-41839286D01*
X38447516Y-41836552D01*
X38436964Y-41833353D01*
X38426558Y-41829698D01*
X38416320Y-41825597D01*
X38406272Y-41821059D01*
X38396435Y-41816095D01*
X38386832Y-41810713D01*
X38377484Y-41804925D01*
X38368413Y-41798738D01*
X38359641Y-41792164D01*
X38351190Y-41785211D01*
X38343082Y-41777890D01*
X38335338Y-41770211D01*
X38327981Y-41762182D01*
X38321032Y-41753813D01*
X38314514Y-41745115D01*
X38308447Y-41736097D01*
X38302855Y-41726769D01*
X38297758Y-41717140D01*
X38293179Y-41707220D01*
X38289140Y-41697020D01*
X38285662Y-41686547D01*
X38282767Y-41675813D01*
X38280478Y-41664827D01*
X38278816Y-41653598D01*
X38277802Y-41642137D01*
X38277459Y-41630453D01*
X38277675Y-41619951D01*
X38456734Y-41619951D01*
X38456870Y-41626202D01*
X38457935Y-41637895D01*
X38459993Y-41648540D01*
X38464782Y-41662628D01*
X38471390Y-41674575D01*
X38479568Y-41684510D01*
X38489065Y-41692562D01*
X38499631Y-41698860D01*
X38511017Y-41703533D01*
X38522972Y-41706712D01*
X38535247Y-41708524D01*
X38547592Y-41709099D01*
X38561465Y-41708292D01*
X38574850Y-41705969D01*
X38587713Y-41702284D01*
X38600016Y-41697387D01*
X38611726Y-41691430D01*
X38622807Y-41684563D01*
X38633223Y-41676938D01*
X38642938Y-41668708D01*
X38651918Y-41660022D01*
X38660127Y-41651032D01*
X38667530Y-41641890D01*
X38674091Y-41632747D01*
X38679774Y-41623754D01*
X38686577Y-41610877D01*
X38691207Y-41599190D01*
X38691207Y-41566461D01*
X38686330Y-41561036D01*
X38678128Y-41553203D01*
X38668973Y-41545815D01*
X38658987Y-41538962D01*
X38648293Y-41532732D01*
X38637015Y-41527216D01*
X38625275Y-41522503D01*
X38613198Y-41518681D01*
X38600905Y-41515840D01*
X38588521Y-41514071D01*
X38576168Y-41513461D01*
X38571872Y-41513549D01*
X38558134Y-41514901D01*
X38548458Y-41516737D01*
X38538547Y-41519349D01*
X38528554Y-41522761D01*
X38518629Y-41526998D01*
X38508927Y-41532082D01*
X38499598Y-41538038D01*
X38490797Y-41544890D01*
X38482674Y-41552661D01*
X38475383Y-41561377D01*
X38469076Y-41571060D01*
X38463905Y-41581735D01*
X38460022Y-41593426D01*
X38457581Y-41606156D01*
X38456734Y-41619951D01*
X38277675Y-41619951D01*
X38277700Y-41618716D01*
X38278420Y-41607060D01*
X38279618Y-41595509D01*
X38281295Y-41584085D01*
X38283448Y-41572813D01*
X38286076Y-41561717D01*
X38289179Y-41550819D01*
X38292755Y-41540144D01*
X38296804Y-41529715D01*
X38301323Y-41519556D01*
X38306313Y-41509691D01*
X38311772Y-41500142D01*
X38317698Y-41490934D01*
X38324092Y-41482090D01*
X38330952Y-41473634D01*
X38338276Y-41465589D01*
X38350589Y-41453683D01*
X38363174Y-41442765D01*
X38376046Y-41432806D01*
X38389220Y-41423774D01*
X38402710Y-41415640D01*
X38416530Y-41408372D01*
X38430697Y-41401941D01*
X38445224Y-41396316D01*
X38460125Y-41391466D01*
X38475417Y-41387362D01*
X38491112Y-41383973D01*
X38507227Y-41381268D01*
X38523775Y-41379217D01*
X38540772Y-41377790D01*
X38558231Y-41376956D01*
X38576168Y-41376685D01*
X38580271Y-41376727D01*
X38592592Y-41377339D01*
X38604855Y-41378638D01*
X38616959Y-41380571D01*
X38628801Y-41383083D01*
X38640282Y-41386119D01*
X38651299Y-41389625D01*
X38661751Y-41393547D01*
X38671536Y-41397830D01*
X38680554Y-41402420D01*
X38691207Y-41408925D01*
X38690978Y-41398166D01*
X38690305Y-41387953D01*
X38687716Y-41369111D01*
X38683611Y-41352294D01*
X38678163Y-41337392D01*
X38671544Y-41324300D01*
X38663927Y-41312909D01*
X38655484Y-41303112D01*
X38646388Y-41294802D01*
X38636811Y-41287872D01*
X38626926Y-41282214D01*
X38616905Y-41277721D01*
X38606920Y-41274286D01*
X38597144Y-41271801D01*
X38583250Y-41269620D01*
X38570795Y-41268974D01*
X38556218Y-41269253D01*
X38541977Y-41270101D01*
X38528072Y-41271530D01*
X38514501Y-41273553D01*
X38501264Y-41276183D01*
X38488359Y-41279432D01*
X38475785Y-41283314D01*
X38463542Y-41287841D01*
X38451628Y-41293027D01*
X38440042Y-41298884D01*
X38428783Y-41305425D01*
X38417849Y-41312663D01*
X38407241Y-41320610D01*
X38396957Y-41329281D01*
X38386995Y-41338687D01*
X38377355Y-41348841D01*
X38293824Y-41202540D01*
X38304754Y-41195709D01*
X38315260Y-41189314D01*
X38325372Y-41183338D01*
X38335117Y-41177768D01*
X38344526Y-41172588D01*
X38353626Y-41167783D01*
X38371016Y-41159244D01*
X38387517Y-41152031D01*
X38403359Y-41146027D01*
X38418773Y-41141114D01*
X38433989Y-41137174D01*
X38449235Y-41134091D01*
X38464744Y-41131745D01*
X38480743Y-41130020D01*
X38497465Y-41128797D01*
X38515138Y-41127960D01*
X38533993Y-41127390D01*
X38543936Y-41127168D01*
X38554260Y-41126969D01*
X38564994Y-41126778D01*
X38576168Y-41126580D01*
X38590538Y-41126850D01*
G37*
G36*
X39205826Y-40860844D02*
G01*
X39195322Y-40860887D01*
X39184357Y-40861028D01*
X39172983Y-40861287D01*
X39161248Y-40861680D01*
X39149203Y-40862226D01*
X39136897Y-40862943D01*
X39124380Y-40863850D01*
X39111701Y-40864965D01*
X39098911Y-40866307D01*
X39086059Y-40867892D01*
X39073195Y-40869740D01*
X39060368Y-40871869D01*
X39047629Y-40874297D01*
X39035027Y-40877043D01*
X39022611Y-40880124D01*
X39010432Y-40883558D01*
X39030216Y-41010809D01*
X39039907Y-41008729D01*
X39049719Y-41006876D01*
X39059616Y-41005238D01*
X39069558Y-41003802D01*
X39079507Y-41002555D01*
X39089425Y-41001484D01*
X39099274Y-41000576D01*
X39109015Y-40999818D01*
X39123340Y-40998935D01*
X39137208Y-40998318D01*
X39150490Y-40997922D01*
X39163055Y-40997706D01*
X39174775Y-40997624D01*
X39178471Y-40997620D01*
X39205826Y-40997620D01*
X39205697Y-41011053D01*
X39205585Y-41024186D01*
X39205487Y-41037073D01*
X39205403Y-41049770D01*
X39205332Y-41062330D01*
X39205273Y-41074810D01*
X39205224Y-41087263D01*
X39205185Y-41099744D01*
X39205155Y-41112308D01*
X39205132Y-41125010D01*
X39205116Y-41137905D01*
X39205105Y-41151046D01*
X39205099Y-41164490D01*
X39205095Y-41178290D01*
X39205094Y-41192502D01*
X39205094Y-41207180D01*
X39205096Y-41222047D01*
X39205102Y-41236968D01*
X39205112Y-41251941D01*
X39205125Y-41266962D01*
X39205142Y-41282027D01*
X39205161Y-41297133D01*
X39205184Y-41312275D01*
X39205208Y-41327451D01*
X39205235Y-41342656D01*
X39205264Y-41357888D01*
X39205294Y-41373142D01*
X39205326Y-41388415D01*
X39205358Y-41403703D01*
X39205392Y-41419002D01*
X39205426Y-41434310D01*
X39205460Y-41449622D01*
X39205494Y-41464934D01*
X39205528Y-41480244D01*
X39205562Y-41495547D01*
X39205595Y-41510840D01*
X39205626Y-41526120D01*
X39205656Y-41541382D01*
X39205685Y-41556622D01*
X39205712Y-41571839D01*
X39205737Y-41587027D01*
X39205759Y-41602183D01*
X39205778Y-41617303D01*
X39205795Y-41632385D01*
X39205808Y-41647423D01*
X39205818Y-41662416D01*
X39205824Y-41677358D01*
X39205826Y-41692247D01*
X39206007Y-41704055D01*
X39206705Y-41716417D01*
X39208156Y-41729151D01*
X39210592Y-41742075D01*
X39214249Y-41755009D01*
X39219360Y-41767772D01*
X39226160Y-41780182D01*
X39234884Y-41792058D01*
X39241883Y-41799589D01*
X39249911Y-41806750D01*
X39259037Y-41813485D01*
X39269330Y-41819741D01*
X39278655Y-41824161D01*
X39289479Y-41828207D01*
X39301625Y-41831866D01*
X39314916Y-41835124D01*
X39329177Y-41837969D01*
X39339135Y-41839629D01*
X39349393Y-41841095D01*
X39359900Y-41842363D01*
X39370602Y-41843430D01*
X39381448Y-41844292D01*
X39392385Y-41844944D01*
X39403361Y-41845382D01*
X39414323Y-41845603D01*
X39419783Y-41845631D01*
X39435876Y-41845392D01*
X39452312Y-41844665D01*
X39468997Y-41843440D01*
X39485839Y-41841704D01*
X39502746Y-41839446D01*
X39519625Y-41836654D01*
X39536382Y-41833315D01*
X39552926Y-41829419D01*
X39569164Y-41824954D01*
X39585002Y-41819907D01*
X39600350Y-41814267D01*
X39615113Y-41808021D01*
X39629199Y-41801159D01*
X39642515Y-41793669D01*
X39654969Y-41785538D01*
X39666468Y-41776755D01*
X39600279Y-41645596D01*
X39592579Y-41652951D01*
X39584847Y-41659895D01*
X39577050Y-41666421D01*
X39569153Y-41672520D01*
X39561125Y-41678182D01*
X39548763Y-41685837D01*
X39535921Y-41692460D01*
X39522485Y-41698020D01*
X39513145Y-41701122D01*
X39503458Y-41703729D01*
X39493393Y-41705832D01*
X39482917Y-41707423D01*
X39471996Y-41708493D01*
X39460598Y-41709031D01*
X39454710Y-41709099D01*
X39443497Y-41708869D01*
X39433448Y-41708172D01*
X39420425Y-41706236D01*
X39409679Y-41703203D01*
X39398539Y-41697409D01*
X39390597Y-41689552D01*
X39385364Y-41679568D01*
X39382356Y-41667389D01*
X39381266Y-41656776D01*
X39380949Y-41644863D01*
X39380912Y-41629971D01*
X39380886Y-41618879D01*
X39380852Y-41605029D01*
X39380813Y-41588605D01*
X39380769Y-41569792D01*
X39380720Y-41548773D01*
X39380666Y-41525732D01*
X39380609Y-41500853D01*
X39380548Y-41474321D01*
X39380485Y-41446318D01*
X39380419Y-41417030D01*
X39380353Y-41386639D01*
X39380284Y-41355330D01*
X39380216Y-41323287D01*
X39380147Y-41290694D01*
X39380079Y-41257734D01*
X39380012Y-41224592D01*
X39379947Y-41191452D01*
X39379884Y-41158497D01*
X39379823Y-41125911D01*
X39379766Y-41093879D01*
X39379712Y-41062585D01*
X39379663Y-41032211D01*
X39379618Y-41002943D01*
X39379579Y-40974964D01*
X39379546Y-40948458D01*
X39379519Y-40923609D01*
X39379500Y-40900601D01*
X39379487Y-40879618D01*
X39379483Y-40860844D01*
X39205826Y-40860844D01*
G37*
G36*
X40297592Y-41845631D02*
G01*
X40395289Y-41719113D01*
X40385258Y-41714252D01*
X40374986Y-41707913D01*
X40364733Y-41700307D01*
X40354760Y-41691645D01*
X40345328Y-41682135D01*
X40336698Y-41671989D01*
X40329130Y-41661416D01*
X40322886Y-41650626D01*
X40318226Y-41639830D01*
X40315412Y-41629238D01*
X40314689Y-41622393D01*
X40314689Y-41133419D01*
X40142986Y-41133419D01*
X40142986Y-41544968D01*
X40142432Y-41560706D01*
X40140758Y-41575664D01*
X40137952Y-41589817D01*
X40133999Y-41603140D01*
X40128885Y-41615609D01*
X40122597Y-41627198D01*
X40115121Y-41637884D01*
X40106441Y-41647642D01*
X40096546Y-41656446D01*
X40085420Y-41664273D01*
X40073049Y-41671097D01*
X40059421Y-41676894D01*
X40044520Y-41681639D01*
X40028333Y-41685307D01*
X40010846Y-41687874D01*
X39992044Y-41689316D01*
X39981664Y-41689112D01*
X39967951Y-41688018D01*
X39956285Y-41685923D01*
X39946469Y-41682769D01*
X39935908Y-41676813D01*
X39927802Y-41668728D01*
X39921675Y-41658375D01*
X39918093Y-41649036D01*
X39915157Y-41638283D01*
X39912665Y-41626057D01*
X39912565Y-41602612D01*
X39912491Y-41579589D01*
X39912437Y-41556997D01*
X39912401Y-41534845D01*
X39912377Y-41513142D01*
X39912361Y-41491897D01*
X39912350Y-41471117D01*
X39912337Y-41450812D01*
X39912319Y-41430992D01*
X39912293Y-41411663D01*
X39912252Y-41392836D01*
X39912193Y-41374519D01*
X39912112Y-41356721D01*
X39912003Y-41339450D01*
X39911864Y-41322715D01*
X39911688Y-41306526D01*
X39911473Y-41290890D01*
X39911213Y-41275817D01*
X39910904Y-41261316D01*
X39910542Y-41247394D01*
X39910123Y-41234062D01*
X39909641Y-41221327D01*
X39909094Y-41209199D01*
X39908475Y-41197685D01*
X39907781Y-41186796D01*
X39907008Y-41176539D01*
X39905205Y-41157960D01*
X39903032Y-41142016D01*
X39900453Y-41128778D01*
X39726796Y-41147829D01*
X39730155Y-41161666D01*
X39732094Y-41173812D01*
X39733808Y-41188110D01*
X39735312Y-41204404D01*
X39736617Y-41222535D01*
X39737737Y-41242346D01*
X39738232Y-41252832D01*
X39738686Y-41263678D01*
X39739100Y-41274866D01*
X39739476Y-41286375D01*
X39739816Y-41298185D01*
X39740122Y-41310278D01*
X39740394Y-41322632D01*
X39740636Y-41335229D01*
X39740847Y-41348049D01*
X39741031Y-41361071D01*
X39741188Y-41374277D01*
X39741320Y-41387646D01*
X39741430Y-41401159D01*
X39741518Y-41414796D01*
X39741586Y-41428537D01*
X39741636Y-41442363D01*
X39741670Y-41456254D01*
X39741689Y-41470190D01*
X39741695Y-41484152D01*
X39741690Y-41496565D01*
X39741674Y-41508975D01*
X39741650Y-41521366D01*
X39741619Y-41533721D01*
X39741582Y-41546027D01*
X39741541Y-41558267D01*
X39741497Y-41570427D01*
X39741451Y-41582490D01*
X39741405Y-41594441D01*
X39741361Y-41606266D01*
X39741320Y-41617948D01*
X39741283Y-41629472D01*
X39741252Y-41640823D01*
X39741228Y-41651986D01*
X39741212Y-41662945D01*
X39741207Y-41673684D01*
X39741574Y-41684723D01*
X39742658Y-41695269D01*
X39744432Y-41705331D01*
X39746867Y-41714920D01*
X39753613Y-41732710D01*
X39762677Y-41748716D01*
X39773839Y-41763012D01*
X39786879Y-41775672D01*
X39801578Y-41786772D01*
X39817716Y-41796386D01*
X39835073Y-41804588D01*
X39853430Y-41811455D01*
X39862914Y-41814410D01*
X39872566Y-41817060D01*
X39882359Y-41819412D01*
X39892263Y-41821478D01*
X39902253Y-41823265D01*
X39912301Y-41824784D01*
X39922379Y-41826043D01*
X39932459Y-41827053D01*
X39942515Y-41827822D01*
X39952519Y-41828359D01*
X39962443Y-41828675D01*
X39972260Y-41828778D01*
X39978367Y-41828778D01*
X39997317Y-41828221D01*
X40015696Y-41827265D01*
X40033499Y-41825881D01*
X40050724Y-41824042D01*
X40067364Y-41821721D01*
X40083416Y-41818891D01*
X40098875Y-41815523D01*
X40113738Y-41811590D01*
X40128000Y-41807064D01*
X40141656Y-41801919D01*
X40154703Y-41796126D01*
X40167136Y-41789657D01*
X40178950Y-41782487D01*
X40190142Y-41774585D01*
X40200707Y-41765927D01*
X40210642Y-41756482D01*
X40215075Y-41766015D01*
X40220270Y-41775353D01*
X40226231Y-41784453D01*
X40232958Y-41793276D01*
X40240455Y-41801780D01*
X40248724Y-41809925D01*
X40257768Y-41817668D01*
X40267588Y-41824970D01*
X40278188Y-41831788D01*
X40289569Y-41838083D01*
X40297592Y-41841967D01*
X40297592Y-41845631D01*
G37*
G36*
X40762346Y-41126850D02*
G01*
X40776589Y-41127658D01*
X40790685Y-41129001D01*
X40804611Y-41130875D01*
X40818347Y-41133279D01*
X40831870Y-41136208D01*
X40845158Y-41139660D01*
X40858190Y-41143631D01*
X40870945Y-41148119D01*
X40883401Y-41153121D01*
X40895535Y-41158634D01*
X40907327Y-41164653D01*
X40918755Y-41171178D01*
X40929797Y-41178203D01*
X40940431Y-41185727D01*
X40950636Y-41193747D01*
X40960391Y-41202259D01*
X40969673Y-41211260D01*
X40978461Y-41220747D01*
X40986733Y-41230717D01*
X40994467Y-41241168D01*
X41001643Y-41252095D01*
X41008238Y-41263497D01*
X41014231Y-41275370D01*
X41019600Y-41287710D01*
X41024323Y-41300516D01*
X41028379Y-41313784D01*
X41031746Y-41327510D01*
X41034402Y-41341692D01*
X41036327Y-41356327D01*
X41037497Y-41371412D01*
X41037892Y-41386943D01*
X41037892Y-41620683D01*
X41038047Y-41632358D01*
X41038525Y-41643408D01*
X41039344Y-41653868D01*
X41040525Y-41663769D01*
X41043017Y-41677650D01*
X41046430Y-41690466D01*
X41050830Y-41702331D01*
X41056282Y-41713357D01*
X41062851Y-41723659D01*
X41070603Y-41733350D01*
X41079603Y-41742544D01*
X41089916Y-41751353D01*
X41004431Y-41853203D01*
X40994715Y-41845986D01*
X40985569Y-41839519D01*
X40976902Y-41833494D01*
X40968629Y-41827606D01*
X40960659Y-41821547D01*
X40952906Y-41815010D01*
X40945281Y-41807690D01*
X40937695Y-41799278D01*
X40930061Y-41789470D01*
X40922291Y-41777957D01*
X40916992Y-41769183D01*
X40912100Y-41774087D01*
X40902198Y-41783372D01*
X40892057Y-41791967D01*
X40881585Y-41799884D01*
X40870688Y-41807132D01*
X40859271Y-41813720D01*
X40847242Y-41819660D01*
X40834506Y-41824960D01*
X40820969Y-41829632D01*
X40806538Y-41833684D01*
X40791120Y-41837128D01*
X40774620Y-41839973D01*
X40756945Y-41842229D01*
X40738001Y-41843906D01*
X40728023Y-41844530D01*
X40717693Y-41845014D01*
X40707000Y-41845357D01*
X40695930Y-41845563D01*
X40684473Y-41845631D01*
X40673505Y-41845371D01*
X40662551Y-41844596D01*
X40651635Y-41843318D01*
X40640777Y-41841544D01*
X40629999Y-41839286D01*
X40619323Y-41836552D01*
X40608771Y-41833353D01*
X40598366Y-41829698D01*
X40588128Y-41825597D01*
X40578079Y-41821059D01*
X40568243Y-41816095D01*
X40558639Y-41810713D01*
X40549291Y-41804925D01*
X40540220Y-41798738D01*
X40531449Y-41792164D01*
X40522998Y-41785211D01*
X40514889Y-41777890D01*
X40507146Y-41770211D01*
X40499789Y-41762182D01*
X40492840Y-41753813D01*
X40486321Y-41745115D01*
X40480255Y-41736097D01*
X40474662Y-41726769D01*
X40469566Y-41717140D01*
X40464987Y-41707220D01*
X40460947Y-41697020D01*
X40457469Y-41686547D01*
X40454575Y-41675813D01*
X40452285Y-41664827D01*
X40450623Y-41653598D01*
X40449609Y-41642137D01*
X40449267Y-41630453D01*
X40449482Y-41619951D01*
X40628541Y-41619951D01*
X40628678Y-41626202D01*
X40629742Y-41637895D01*
X40631801Y-41648540D01*
X40636590Y-41662628D01*
X40643198Y-41674575D01*
X40651375Y-41684510D01*
X40660872Y-41692562D01*
X40671439Y-41698860D01*
X40682824Y-41703533D01*
X40694780Y-41706712D01*
X40707055Y-41708524D01*
X40719399Y-41709099D01*
X40733272Y-41708292D01*
X40746658Y-41705969D01*
X40759520Y-41702284D01*
X40771824Y-41697387D01*
X40783534Y-41691430D01*
X40794614Y-41684563D01*
X40805030Y-41676938D01*
X40814746Y-41668708D01*
X40823726Y-41660022D01*
X40831935Y-41651032D01*
X40839337Y-41641890D01*
X40845898Y-41632747D01*
X40851582Y-41623754D01*
X40858384Y-41610877D01*
X40863014Y-41599190D01*
X40863014Y-41566461D01*
X40858137Y-41561036D01*
X40849936Y-41553203D01*
X40840780Y-41545815D01*
X40830794Y-41538962D01*
X40820101Y-41532732D01*
X40808822Y-41527216D01*
X40797083Y-41522503D01*
X40785005Y-41518681D01*
X40772713Y-41515840D01*
X40760329Y-41514071D01*
X40747976Y-41513461D01*
X40743679Y-41513549D01*
X40729941Y-41514901D01*
X40720266Y-41516737D01*
X40710355Y-41519349D01*
X40700361Y-41522761D01*
X40690437Y-41526998D01*
X40680734Y-41532082D01*
X40671406Y-41538038D01*
X40662604Y-41544890D01*
X40654481Y-41552661D01*
X40647190Y-41561377D01*
X40640883Y-41571060D01*
X40635712Y-41581735D01*
X40631830Y-41593426D01*
X40629389Y-41606156D01*
X40628541Y-41619951D01*
X40449482Y-41619951D01*
X40449507Y-41618716D01*
X40450227Y-41607060D01*
X40451426Y-41595509D01*
X40453102Y-41584085D01*
X40455255Y-41572813D01*
X40457883Y-41561717D01*
X40460986Y-41550819D01*
X40464562Y-41540144D01*
X40468611Y-41529715D01*
X40473131Y-41519556D01*
X40478120Y-41509691D01*
X40483579Y-41500142D01*
X40489506Y-41490934D01*
X40495900Y-41482090D01*
X40502759Y-41473634D01*
X40510083Y-41465589D01*
X40522396Y-41453683D01*
X40534981Y-41442765D01*
X40547853Y-41432806D01*
X40561027Y-41423774D01*
X40574517Y-41415640D01*
X40588338Y-41408372D01*
X40602504Y-41401941D01*
X40617031Y-41396316D01*
X40631933Y-41391466D01*
X40647224Y-41387362D01*
X40662920Y-41383973D01*
X40679034Y-41381268D01*
X40695583Y-41379217D01*
X40712579Y-41377790D01*
X40730039Y-41376956D01*
X40747976Y-41376685D01*
X40752078Y-41376727D01*
X40764399Y-41377339D01*
X40776662Y-41378638D01*
X40788766Y-41380571D01*
X40800609Y-41383083D01*
X40812090Y-41386119D01*
X40823106Y-41389625D01*
X40833558Y-41393547D01*
X40843344Y-41397830D01*
X40852361Y-41402420D01*
X40863014Y-41408925D01*
X40862785Y-41398166D01*
X40862113Y-41387953D01*
X40859523Y-41369111D01*
X40855418Y-41352294D01*
X40849970Y-41337392D01*
X40843351Y-41324300D01*
X40835734Y-41312909D01*
X40827292Y-41303112D01*
X40818196Y-41294802D01*
X40808619Y-41287872D01*
X40798733Y-41282214D01*
X40788712Y-41277721D01*
X40778727Y-41274286D01*
X40768952Y-41271801D01*
X40755057Y-41269620D01*
X40742602Y-41268974D01*
X40728025Y-41269253D01*
X40713784Y-41270101D01*
X40699879Y-41271530D01*
X40686308Y-41273553D01*
X40673071Y-41276183D01*
X40660166Y-41279432D01*
X40647593Y-41283314D01*
X40635349Y-41287841D01*
X40623435Y-41293027D01*
X40611849Y-41298884D01*
X40600590Y-41305425D01*
X40589657Y-41312663D01*
X40579049Y-41320610D01*
X40568764Y-41329281D01*
X40558802Y-41338687D01*
X40549162Y-41348841D01*
X40465631Y-41202540D01*
X40476561Y-41195709D01*
X40487067Y-41189314D01*
X40497179Y-41183338D01*
X40506925Y-41177768D01*
X40516333Y-41172588D01*
X40525433Y-41167783D01*
X40542823Y-41159244D01*
X40559324Y-41152031D01*
X40575167Y-41146027D01*
X40590581Y-41141114D01*
X40605796Y-41137174D01*
X40621043Y-41134091D01*
X40636551Y-41131745D01*
X40652551Y-41130020D01*
X40669272Y-41128797D01*
X40686946Y-41127960D01*
X40705800Y-41127390D01*
X40715743Y-41127168D01*
X40726067Y-41126969D01*
X40736802Y-41126778D01*
X40747976Y-41126580D01*
X40762346Y-41126850D01*
G37*
G36*
X41428925Y-41545945D02*
G01*
X41429391Y-41533259D01*
X41429788Y-41520443D01*
X41430130Y-41507440D01*
X41430428Y-41494196D01*
X41430695Y-41480654D01*
X41430943Y-41466759D01*
X41431183Y-41452454D01*
X41431428Y-41437684D01*
X41431691Y-41422394D01*
X41431983Y-41406526D01*
X41432316Y-41390026D01*
X41432703Y-41372838D01*
X41433156Y-41354905D01*
X41433687Y-41336173D01*
X41434308Y-41316585D01*
X41434656Y-41306452D01*
X41435031Y-41296085D01*
X41452262Y-41296098D01*
X41469853Y-41296137D01*
X41487757Y-41296197D01*
X41505926Y-41296275D01*
X41524315Y-41296368D01*
X41542875Y-41296471D01*
X41561561Y-41296581D01*
X41580325Y-41296695D01*
X41599120Y-41296809D01*
X41617901Y-41296919D01*
X41636618Y-41297023D01*
X41655227Y-41297115D01*
X41673680Y-41297193D01*
X41691930Y-41297253D01*
X41709930Y-41297292D01*
X41727634Y-41297306D01*
X41729588Y-41157843D01*
X41718507Y-41157728D01*
X41706928Y-41157595D01*
X41692001Y-41157423D01*
X41674233Y-41157220D01*
X41664443Y-41157109D01*
X41654132Y-41156993D01*
X41643366Y-41156873D01*
X41632206Y-41156750D01*
X41620717Y-41156626D01*
X41608962Y-41156500D01*
X41597005Y-41156374D01*
X41584908Y-41156249D01*
X41572736Y-41156126D01*
X41560552Y-41156007D01*
X41548419Y-41155891D01*
X41536401Y-41155780D01*
X41524562Y-41155675D01*
X41512963Y-41155576D01*
X41501671Y-41155486D01*
X41490746Y-41155404D01*
X41480254Y-41155333D01*
X41470258Y-41155272D01*
X41452005Y-41155187D01*
X41436496Y-41155157D01*
X41436696Y-41141611D01*
X41436881Y-41127214D01*
X41436996Y-41117245D01*
X41437104Y-41107050D01*
X41437205Y-41096690D01*
X41437297Y-41086225D01*
X41437382Y-41075717D01*
X41437458Y-41065225D01*
X41437524Y-41054812D01*
X41437582Y-41044537D01*
X41437630Y-41034462D01*
X41437668Y-41024648D01*
X41437705Y-41010548D01*
X41437718Y-40997376D01*
X41266259Y-40993224D01*
X41266241Y-41007212D01*
X41266211Y-41017057D01*
X41266169Y-41027242D01*
X41266118Y-41037707D01*
X41266059Y-41048388D01*
X41265995Y-41059222D01*
X41265927Y-41070148D01*
X41265858Y-41081102D01*
X41265791Y-41092021D01*
X41265727Y-41102844D01*
X41265668Y-41113508D01*
X41265616Y-41123950D01*
X41265574Y-41134107D01*
X41265544Y-41143916D01*
X41265526Y-41157843D01*
X41255268Y-41157843D01*
X41244214Y-41158056D01*
X41232463Y-41158687D01*
X41220535Y-41159725D01*
X41208950Y-41161159D01*
X41198229Y-41162977D01*
X41187235Y-41165651D01*
X41185659Y-41166147D01*
X41197138Y-41305610D01*
X41207290Y-41302848D01*
X41217660Y-41300621D01*
X41228211Y-41298948D01*
X41238904Y-41297848D01*
X41249699Y-41297340D01*
X41253314Y-41297306D01*
X41262840Y-41297306D01*
X41262525Y-41307574D01*
X41262221Y-41317636D01*
X41261928Y-41327495D01*
X41261373Y-41346623D01*
X41260858Y-41364988D01*
X41260380Y-41382624D01*
X41259937Y-41399561D01*
X41259525Y-41415832D01*
X41259143Y-41431468D01*
X41258788Y-41446502D01*
X41258458Y-41460965D01*
X41258149Y-41474889D01*
X41257860Y-41488305D01*
X41257588Y-41501247D01*
X41257330Y-41513745D01*
X41257085Y-41525831D01*
X41256849Y-41537538D01*
X41256734Y-41543258D01*
X41256734Y-41571591D01*
X41256770Y-41582368D01*
X41256896Y-41592997D01*
X41257139Y-41603483D01*
X41257527Y-41613833D01*
X41258087Y-41624053D01*
X41258846Y-41634149D01*
X41259831Y-41644126D01*
X41261069Y-41653992D01*
X41262588Y-41663752D01*
X41264414Y-41673412D01*
X41266575Y-41682978D01*
X41269098Y-41692456D01*
X41272011Y-41701853D01*
X41275340Y-41711175D01*
X41279113Y-41720427D01*
X41283356Y-41729616D01*
X41288066Y-41738845D01*
X41293078Y-41747582D01*
X41298388Y-41755840D01*
X41309879Y-41770971D01*
X41322500Y-41784343D01*
X41336208Y-41796060D01*
X41350963Y-41806226D01*
X41366725Y-41814945D01*
X41383453Y-41822323D01*
X41401106Y-41828464D01*
X41419642Y-41833473D01*
X41429229Y-41835585D01*
X41439022Y-41837453D01*
X41449015Y-41839090D01*
X41459204Y-41840509D01*
X41469584Y-41841723D01*
X41480148Y-41842746D01*
X41490893Y-41843590D01*
X41501813Y-41844268D01*
X41512903Y-41844793D01*
X41524158Y-41845179D01*
X41535573Y-41845439D01*
X41547143Y-41845585D01*
X41558862Y-41845631D01*
X41569694Y-41845565D01*
X41580384Y-41845355D01*
X41590921Y-41844982D01*
X41601295Y-41844429D01*
X41611497Y-41843677D01*
X41621515Y-41842707D01*
X41631339Y-41841502D01*
X41645688Y-41839214D01*
X41659543Y-41836293D01*
X41672868Y-41832678D01*
X41685629Y-41828308D01*
X41697790Y-41823121D01*
X41709316Y-41817055D01*
X41723188Y-41808496D01*
X41736148Y-41799302D01*
X41748207Y-41789606D01*
X41759382Y-41779540D01*
X41769684Y-41769237D01*
X41779129Y-41758828D01*
X41787731Y-41748447D01*
X41795503Y-41738225D01*
X41802459Y-41728295D01*
X41808613Y-41718790D01*
X41813980Y-41709841D01*
X41820583Y-41697751D01*
X41825492Y-41687658D01*
X41829483Y-41678080D01*
X41687334Y-41610669D01*
X41684158Y-41621259D01*
X41681249Y-41630961D01*
X41677352Y-41641963D01*
X41672164Y-41653566D01*
X41667244Y-41662243D01*
X41661299Y-41670570D01*
X41654201Y-41678253D01*
X41645823Y-41684998D01*
X41639462Y-41688827D01*
X41629349Y-41694100D01*
X41619785Y-41698197D01*
X41608688Y-41701803D01*
X41598389Y-41704195D01*
X41586568Y-41706035D01*
X41576559Y-41706989D01*
X41565456Y-41707527D01*
X41557397Y-41707634D01*
X41547118Y-41707366D01*
X41536544Y-41706840D01*
X41525445Y-41706104D01*
X41515400Y-41705219D01*
X41512944Y-41704947D01*
X41502542Y-41702886D01*
X41492855Y-41700242D01*
X41479652Y-41695067D01*
X41468024Y-41688289D01*
X41457950Y-41679734D01*
X41449411Y-41669227D01*
X41442384Y-41656595D01*
X41438531Y-41646907D01*
X41435335Y-41636145D01*
X41432790Y-41624259D01*
X41430891Y-41611197D01*
X41429630Y-41596907D01*
X41429003Y-41581337D01*
X41428925Y-41573056D01*
X41428925Y-41545945D01*
G37*
G36*
X42100837Y-40860844D02*
G01*
X42101570Y-41029127D01*
X42296475Y-41029127D01*
X42295010Y-40860844D01*
X42100837Y-40860844D01*
G37*
G36*
X42100837Y-41142212D02*
G01*
X42090508Y-41142326D01*
X42080040Y-41142669D01*
X42069436Y-41143239D01*
X42058701Y-41144036D01*
X42047839Y-41145059D01*
X42036853Y-41146307D01*
X42025748Y-41147781D01*
X42014528Y-41149478D01*
X42003195Y-41151398D01*
X41991755Y-41153541D01*
X41980212Y-41155906D01*
X41968568Y-41158492D01*
X41956828Y-41161298D01*
X41944997Y-41164324D01*
X41933078Y-41167569D01*
X41921074Y-41171032D01*
X41940858Y-41298039D01*
X41952993Y-41295369D01*
X41965013Y-41292942D01*
X41976879Y-41290748D01*
X41988558Y-41288776D01*
X42000011Y-41287018D01*
X42011204Y-41285463D01*
X42022100Y-41284103D01*
X42032663Y-41282926D01*
X42042856Y-41281924D01*
X42052644Y-41281087D01*
X42066487Y-41280120D01*
X42079215Y-41279469D01*
X42090706Y-41279103D01*
X42100837Y-41278988D01*
X42100837Y-41692735D01*
X42101024Y-41704419D01*
X42101739Y-41716679D01*
X42103213Y-41729332D01*
X42105680Y-41742194D01*
X42109370Y-41755082D01*
X42114515Y-41767813D01*
X42121348Y-41780201D01*
X42130100Y-41792066D01*
X42137116Y-41799593D01*
X42145156Y-41806751D01*
X42154289Y-41813485D01*
X42164584Y-41819741D01*
X42173866Y-41824161D01*
X42184688Y-41828207D01*
X42196867Y-41831866D01*
X42210218Y-41835124D01*
X42224556Y-41837969D01*
X42234571Y-41839629D01*
X42244889Y-41841095D01*
X42255453Y-41842363D01*
X42266209Y-41843430D01*
X42277104Y-41844292D01*
X42288081Y-41844944D01*
X42299086Y-41845382D01*
X42310064Y-41845603D01*
X42315526Y-41845631D01*
X42331620Y-41845392D01*
X42348055Y-41844665D01*
X42364740Y-41843440D01*
X42381583Y-41841704D01*
X42398489Y-41839446D01*
X42415368Y-41836654D01*
X42432125Y-41833315D01*
X42448669Y-41829419D01*
X42464907Y-41824954D01*
X42480746Y-41819907D01*
X42496093Y-41814267D01*
X42510856Y-41808021D01*
X42524942Y-41801159D01*
X42538258Y-41793669D01*
X42550712Y-41785538D01*
X42562212Y-41776755D01*
X42496022Y-41647062D01*
X42488323Y-41654279D01*
X42480591Y-41661087D01*
X42472793Y-41667480D01*
X42464896Y-41673447D01*
X42452794Y-41681586D01*
X42440285Y-41688726D01*
X42427257Y-41694841D01*
X42413599Y-41699903D01*
X42404090Y-41702680D01*
X42394218Y-41704970D01*
X42383952Y-41706765D01*
X42373257Y-41708056D01*
X42362102Y-41708837D01*
X42350453Y-41709099D01*
X42339232Y-41708875D01*
X42329160Y-41708195D01*
X42316079Y-41706306D01*
X42305253Y-41703347D01*
X42293985Y-41697689D01*
X42285905Y-41690016D01*
X42280545Y-41680260D01*
X42277434Y-41668356D01*
X42276295Y-41657979D01*
X42275959Y-41646329D01*
X42275928Y-41632321D01*
X42275891Y-41615797D01*
X42275869Y-41605442D01*
X42275845Y-41593801D01*
X42275818Y-41580957D01*
X42275789Y-41566992D01*
X42275759Y-41551987D01*
X42275727Y-41536025D01*
X42275694Y-41519187D01*
X42275661Y-41501557D01*
X42275627Y-41483216D01*
X42275593Y-41464246D01*
X42275558Y-41444729D01*
X42275524Y-41424748D01*
X42275491Y-41404384D01*
X42275458Y-41383720D01*
X42275427Y-41362838D01*
X42275396Y-41341819D01*
X42275368Y-41320747D01*
X42275341Y-41299702D01*
X42275316Y-41278768D01*
X42275294Y-41258026D01*
X42275274Y-41237559D01*
X42275258Y-41217448D01*
X42275244Y-41197776D01*
X42275235Y-41178624D01*
X42275228Y-41160075D01*
X42275226Y-41142212D01*
X42100837Y-41142212D01*
G37*
G36*
X42940531Y-41126719D02*
G01*
X42952633Y-41127134D01*
X42964399Y-41127826D01*
X42975835Y-41128792D01*
X42986946Y-41130033D01*
X42997739Y-41131547D01*
X43008219Y-41133334D01*
X43018392Y-41135392D01*
X43028265Y-41137721D01*
X43037843Y-41140320D01*
X43056136Y-41146325D01*
X43073320Y-41153400D01*
X43089440Y-41161537D01*
X43104545Y-41170731D01*
X43118680Y-41180974D01*
X43131893Y-41192260D01*
X43144231Y-41204581D01*
X43155740Y-41217932D01*
X43166467Y-41232304D01*
X43176459Y-41247692D01*
X43185764Y-41264089D01*
X43190845Y-41274708D01*
X43195560Y-41285830D01*
X43199913Y-41297403D01*
X43203910Y-41309377D01*
X43207557Y-41321698D01*
X43210858Y-41334315D01*
X43213820Y-41347176D01*
X43216447Y-41360229D01*
X43218744Y-41373422D01*
X43220719Y-41386704D01*
X43222374Y-41400022D01*
X43223717Y-41413325D01*
X43224752Y-41426561D01*
X43225484Y-41439677D01*
X43225920Y-41452622D01*
X43226064Y-41465345D01*
X43225869Y-41483949D01*
X43225272Y-41502419D01*
X43224256Y-41520725D01*
X43222802Y-41538837D01*
X43220892Y-41556724D01*
X43218508Y-41574357D01*
X43215632Y-41591707D01*
X43212245Y-41608742D01*
X43208330Y-41625434D01*
X43203868Y-41641752D01*
X43198842Y-41657666D01*
X43193233Y-41673146D01*
X43187023Y-41688164D01*
X43180194Y-41702687D01*
X43172727Y-41716688D01*
X43164606Y-41730135D01*
X43155811Y-41742999D01*
X43146325Y-41755249D01*
X43136130Y-41766857D01*
X43125206Y-41777792D01*
X43113537Y-41788024D01*
X43101104Y-41797523D01*
X43087889Y-41806260D01*
X43073874Y-41814204D01*
X43059040Y-41821325D01*
X43043370Y-41827594D01*
X43026846Y-41832981D01*
X43009449Y-41837455D01*
X42991162Y-41840987D01*
X42971966Y-41843547D01*
X42951842Y-41845105D01*
X42930774Y-41845631D01*
X42929553Y-41845631D01*
X42910047Y-41845253D01*
X42891275Y-41844127D01*
X42873229Y-41842264D01*
X42855902Y-41839677D01*
X42839286Y-41836376D01*
X42823375Y-41832374D01*
X42808159Y-41827683D01*
X42793632Y-41822313D01*
X42779786Y-41816278D01*
X42766614Y-41809588D01*
X42754108Y-41802255D01*
X42742261Y-41794291D01*
X42731064Y-41785708D01*
X42720512Y-41776518D01*
X42710596Y-41766731D01*
X42701308Y-41756360D01*
X42692641Y-41745417D01*
X42684588Y-41733913D01*
X42677141Y-41721860D01*
X42670293Y-41709270D01*
X42664036Y-41696154D01*
X42658362Y-41682525D01*
X42653264Y-41668393D01*
X42648735Y-41653771D01*
X42644766Y-41638670D01*
X42641352Y-41623102D01*
X42638483Y-41607079D01*
X42636152Y-41590612D01*
X42634353Y-41573713D01*
X42633077Y-41556395D01*
X42632317Y-41538668D01*
X42632065Y-41520544D01*
X42632215Y-41507843D01*
X42804256Y-41507843D01*
X42804383Y-41518621D01*
X42804762Y-41529197D01*
X42805393Y-41539562D01*
X42806275Y-41549706D01*
X42807408Y-41559619D01*
X42808790Y-41569294D01*
X42812301Y-41587890D01*
X42816802Y-41605420D01*
X42822288Y-41621810D01*
X42828753Y-41636987D01*
X42836191Y-41650878D01*
X42844596Y-41663409D01*
X42853964Y-41674508D01*
X42864287Y-41684100D01*
X42875560Y-41692113D01*
X42887778Y-41698473D01*
X42900934Y-41703106D01*
X42915024Y-41705940D01*
X42930041Y-41706901D01*
X42933510Y-41706808D01*
X42943271Y-41706222D01*
X42954958Y-41704672D01*
X42965414Y-41702161D01*
X42974952Y-41698597D01*
X42983882Y-41693888D01*
X42992518Y-41687942D01*
X43001171Y-41680668D01*
X43010153Y-41671974D01*
X43013086Y-41668479D01*
X43021102Y-41656742D01*
X43025821Y-41647914D01*
X43030063Y-41638318D01*
X43033848Y-41627986D01*
X43037197Y-41616947D01*
X43040130Y-41605231D01*
X43042668Y-41592870D01*
X43044831Y-41579894D01*
X43046639Y-41566332D01*
X43048113Y-41552216D01*
X43049274Y-41537576D01*
X43050141Y-41522442D01*
X43050735Y-41506845D01*
X43051077Y-41490815D01*
X43051186Y-41474382D01*
X43051186Y-41463147D01*
X43050981Y-41452929D01*
X43050638Y-41442847D01*
X43050147Y-41432913D01*
X43049503Y-41423139D01*
X43047721Y-41404121D01*
X43045232Y-41385893D01*
X43041977Y-41368554D01*
X43037894Y-41352203D01*
X43032923Y-41336938D01*
X43027006Y-41322860D01*
X43020081Y-41310066D01*
X43012088Y-41298657D01*
X43002967Y-41288732D01*
X42992659Y-41280388D01*
X42981103Y-41273726D01*
X42968239Y-41268845D01*
X42954006Y-41265844D01*
X42938346Y-41264822D01*
X42928871Y-41265106D01*
X42911167Y-41267356D01*
X42895071Y-41271786D01*
X42880522Y-41278322D01*
X42867459Y-41286892D01*
X42855821Y-41297421D01*
X42845546Y-41309836D01*
X42836575Y-41324064D01*
X42828844Y-41340033D01*
X42822294Y-41357667D01*
X42819442Y-41367086D01*
X42816862Y-41376895D01*
X42814547Y-41387083D01*
X42812488Y-41397642D01*
X42810679Y-41408562D01*
X42809111Y-41419835D01*
X42807777Y-41431451D01*
X42806670Y-41443402D01*
X42805780Y-41455677D01*
X42805102Y-41468268D01*
X42804627Y-41481165D01*
X42804348Y-41494360D01*
X42804256Y-41507843D01*
X42632215Y-41507843D01*
X42632348Y-41496614D01*
X42633197Y-41473414D01*
X42634614Y-41450947D01*
X42636600Y-41429214D01*
X42639156Y-41408217D01*
X42642284Y-41387958D01*
X42645984Y-41368439D01*
X42650257Y-41349662D01*
X42655106Y-41331628D01*
X42660531Y-41314341D01*
X42666533Y-41297801D01*
X42673114Y-41282011D01*
X42680274Y-41266972D01*
X42688016Y-41252687D01*
X42696339Y-41239157D01*
X42705246Y-41226384D01*
X42714738Y-41214370D01*
X42724816Y-41203118D01*
X42735480Y-41192629D01*
X42746733Y-41182904D01*
X42758575Y-41173947D01*
X42771008Y-41165758D01*
X42784033Y-41158340D01*
X42797650Y-41151695D01*
X42811862Y-41145825D01*
X42826670Y-41140730D01*
X42842074Y-41136415D01*
X42858076Y-41132879D01*
X42874677Y-41130126D01*
X42891879Y-41128157D01*
X42909682Y-41126975D01*
X42928087Y-41126580D01*
X42940531Y-41126719D01*
G37*
G36*
X43537962Y-41194480D02*
G01*
X43535717Y-41181800D01*
X43532779Y-41169204D01*
X43529349Y-41156934D01*
X43525628Y-41145234D01*
X43521814Y-41134347D01*
X43518109Y-41124515D01*
X43513937Y-41114082D01*
X43511828Y-41108995D01*
X43353314Y-41141723D01*
X43356255Y-41153260D01*
X43358947Y-41163930D01*
X43361397Y-41173953D01*
X43363614Y-41183550D01*
X43366522Y-41197627D01*
X43368952Y-41211984D01*
X43370320Y-41222079D01*
X43371496Y-41232849D01*
X43372489Y-41244515D01*
X43373306Y-41257297D01*
X43373957Y-41271416D01*
X43374448Y-41287092D01*
X43374789Y-41304545D01*
X43374987Y-41323997D01*
X43375036Y-41334540D01*
X43375052Y-41345666D01*
X43375052Y-41830000D01*
X43546755Y-41830000D01*
X43546755Y-41344933D01*
X43557809Y-41335700D01*
X43569133Y-41327052D01*
X43580662Y-41318991D01*
X43592333Y-41311518D01*
X43604082Y-41304634D01*
X43615847Y-41298342D01*
X43627564Y-41292642D01*
X43639170Y-41287536D01*
X43650601Y-41283026D01*
X43661794Y-41279112D01*
X43672686Y-41275796D01*
X43683214Y-41273080D01*
X43693313Y-41270965D01*
X43707522Y-41268923D01*
X43720411Y-41268241D01*
X43732344Y-41269062D01*
X43742533Y-41271483D01*
X43753622Y-41277099D01*
X43762128Y-41285310D01*
X43768346Y-41295975D01*
X43771685Y-41305497D01*
X43774026Y-41316258D01*
X43775496Y-41328197D01*
X43776216Y-41341254D01*
X43776343Y-41350551D01*
X43776343Y-41677836D01*
X43776631Y-41687834D01*
X43778866Y-41706833D01*
X43783145Y-41724536D01*
X43789272Y-41740984D01*
X43797049Y-41756219D01*
X43806279Y-41770280D01*
X43816763Y-41783209D01*
X43828306Y-41795046D01*
X43840708Y-41805833D01*
X43853773Y-41815609D01*
X43867303Y-41824417D01*
X43881101Y-41832295D01*
X43894968Y-41839287D01*
X43908709Y-41845431D01*
X43922125Y-41850769D01*
X43935018Y-41855342D01*
X43941207Y-41857355D01*
X44020341Y-41720334D01*
X44009753Y-41714677D01*
X43999521Y-41709126D01*
X43989794Y-41703506D01*
X43980723Y-41697640D01*
X43972456Y-41691352D01*
X43965144Y-41684467D01*
X43958937Y-41676807D01*
X43953984Y-41668196D01*
X43950434Y-41658459D01*
X43948439Y-41647418D01*
X43948046Y-41639246D01*
X43948046Y-41283872D01*
X43947775Y-41273558D01*
X43946973Y-41263631D01*
X43943828Y-41244927D01*
X43938719Y-41227727D01*
X43931754Y-41212000D01*
X43923041Y-41197715D01*
X43912690Y-41184838D01*
X43900808Y-41173339D01*
X43887504Y-41163186D01*
X43872886Y-41154346D01*
X43857063Y-41146789D01*
X43840143Y-41140481D01*
X43822234Y-41135392D01*
X43803445Y-41131489D01*
X43793754Y-41129972D01*
X43783884Y-41128741D01*
X43773848Y-41127789D01*
X43763660Y-41127115D01*
X43753334Y-41126713D01*
X43742882Y-41126580D01*
X43728602Y-41126967D01*
X43714041Y-41128095D01*
X43699301Y-41129916D01*
X43684485Y-41132381D01*
X43669694Y-41135441D01*
X43655031Y-41139048D01*
X43640599Y-41143153D01*
X43626500Y-41147707D01*
X43612835Y-41152662D01*
X43599709Y-41157969D01*
X43587221Y-41163580D01*
X43575476Y-41169445D01*
X43564575Y-41175516D01*
X43554621Y-41181745D01*
X43545716Y-41188082D01*
X43537962Y-41194480D01*
G37*
G36*
X45047575Y-40923553D02*
G01*
X45061423Y-40924107D01*
X45074994Y-40925036D01*
X45088276Y-40926346D01*
X45101257Y-40928043D01*
X45113924Y-40930130D01*
X45126266Y-40932615D01*
X45138271Y-40935502D01*
X45149927Y-40938796D01*
X45161222Y-40942504D01*
X45172143Y-40946629D01*
X45182680Y-40951178D01*
X45192819Y-40956156D01*
X45202549Y-40961567D01*
X45211858Y-40967419D01*
X45220734Y-40973715D01*
X45229165Y-40980461D01*
X45237139Y-40987662D01*
X45244643Y-40995324D01*
X45251667Y-41003453D01*
X45258198Y-41012052D01*
X45264223Y-41021129D01*
X45269732Y-41030687D01*
X45274712Y-41040733D01*
X45279150Y-41051271D01*
X45283036Y-41062307D01*
X45286357Y-41073847D01*
X45289101Y-41085895D01*
X45291256Y-41098457D01*
X45292810Y-41111539D01*
X45293751Y-41125145D01*
X45294068Y-41139281D01*
X45293655Y-41157707D01*
X45292435Y-41174581D01*
X45290439Y-41190001D01*
X45287695Y-41204062D01*
X45284232Y-41216863D01*
X45280080Y-41228500D01*
X45275269Y-41239071D01*
X45269827Y-41248671D01*
X45263784Y-41257398D01*
X45257169Y-41265350D01*
X45250012Y-41272622D01*
X45242342Y-41279312D01*
X45234188Y-41285517D01*
X45225580Y-41291334D01*
X45216546Y-41296859D01*
X45207117Y-41302191D01*
X45217540Y-41305195D01*
X45227871Y-41308444D01*
X45238092Y-41311946D01*
X45248190Y-41315709D01*
X45258148Y-41319742D01*
X45267950Y-41324053D01*
X45277582Y-41328650D01*
X45287027Y-41333542D01*
X45296270Y-41338736D01*
X45305295Y-41344242D01*
X45314087Y-41350068D01*
X45322630Y-41356222D01*
X45330908Y-41362713D01*
X45338906Y-41369548D01*
X45346608Y-41376737D01*
X45353999Y-41384287D01*
X45361063Y-41392207D01*
X45367784Y-41400505D01*
X45374147Y-41409190D01*
X45380136Y-41418270D01*
X45385736Y-41427754D01*
X45390931Y-41437649D01*
X45395705Y-41447965D01*
X45400043Y-41458708D01*
X45403928Y-41469889D01*
X45407347Y-41481515D01*
X45410282Y-41493594D01*
X45412719Y-41506136D01*
X45414641Y-41519148D01*
X45416034Y-41532638D01*
X45416881Y-41546615D01*
X45417166Y-41561088D01*
X45416817Y-41580223D01*
X45415786Y-41598487D01*
X45414096Y-41615899D01*
X45411770Y-41632479D01*
X45408831Y-41648248D01*
X45405302Y-41663225D01*
X45401208Y-41677430D01*
X45396570Y-41690884D01*
X45391412Y-41703606D01*
X45385758Y-41715617D01*
X45379630Y-41726936D01*
X45373052Y-41737583D01*
X45366047Y-41747578D01*
X45358639Y-41756942D01*
X45350849Y-41765694D01*
X45342703Y-41773854D01*
X45334222Y-41781443D01*
X45325430Y-41788480D01*
X45316351Y-41794985D01*
X45307007Y-41800978D01*
X45297421Y-41806480D01*
X45287618Y-41811509D01*
X45277619Y-41816087D01*
X45267449Y-41820234D01*
X45257131Y-41823968D01*
X45246687Y-41827311D01*
X45236141Y-41830281D01*
X45225516Y-41832900D01*
X45214836Y-41835187D01*
X45204123Y-41837163D01*
X45193401Y-41838846D01*
X45182693Y-41840258D01*
X45172577Y-41841470D01*
X45162394Y-41842540D01*
X45152172Y-41843461D01*
X45141935Y-41844227D01*
X45131710Y-41844832D01*
X45121522Y-41845272D01*
X45111397Y-41845540D01*
X45101360Y-41845631D01*
X45091959Y-41845595D01*
X45078256Y-41845423D01*
X45064899Y-41845135D01*
X45051743Y-41844763D01*
X45038638Y-41844340D01*
X45025439Y-41843895D01*
X45011997Y-41843461D01*
X44998166Y-41843068D01*
X44983797Y-41842749D01*
X44973847Y-41842592D01*
X44963550Y-41842492D01*
X44952861Y-41842456D01*
X44926971Y-41842456D01*
X44794347Y-41842456D01*
X44794362Y-41829704D01*
X44794407Y-41816847D01*
X44794480Y-41803864D01*
X44794578Y-41790729D01*
X44794700Y-41777419D01*
X44794843Y-41763910D01*
X44795006Y-41750180D01*
X44795187Y-41736203D01*
X44795383Y-41721956D01*
X44795593Y-41707416D01*
X44795601Y-41706901D01*
X44968004Y-41706901D01*
X44977239Y-41707511D01*
X44989045Y-41708291D01*
X45000334Y-41709012D01*
X45011180Y-41709655D01*
X45021652Y-41710200D01*
X45031823Y-41710628D01*
X45041764Y-41710917D01*
X45053977Y-41711053D01*
X45065540Y-41710900D01*
X45077238Y-41710448D01*
X45087188Y-41709849D01*
X45097403Y-41709055D01*
X45107963Y-41708070D01*
X45118946Y-41706901D01*
X45123934Y-41706115D01*
X45134262Y-41703696D01*
X45147225Y-41699444D01*
X45156897Y-41695399D01*
X45167091Y-41690252D01*
X45177547Y-41683886D01*
X45188005Y-41676188D01*
X45198206Y-41667041D01*
X45207889Y-41656330D01*
X45216795Y-41643941D01*
X45224665Y-41629759D01*
X45231237Y-41613667D01*
X45236254Y-41595550D01*
X45238097Y-41585697D01*
X45239454Y-41575294D01*
X45240292Y-41564328D01*
X45240579Y-41552784D01*
X45240357Y-41541841D01*
X45239700Y-41531401D01*
X45237134Y-41511986D01*
X45232983Y-41494458D01*
X45227351Y-41478736D01*
X45220343Y-41464739D01*
X45212062Y-41452384D01*
X45202612Y-41441592D01*
X45192096Y-41432281D01*
X45180619Y-41424369D01*
X45168284Y-41417775D01*
X45155194Y-41412419D01*
X45141454Y-41408219D01*
X45127168Y-41405093D01*
X45112438Y-41402961D01*
X45097369Y-41401742D01*
X45082065Y-41401353D01*
X45076185Y-41401370D01*
X45066404Y-41401489D01*
X45056571Y-41401754D01*
X45045648Y-41402155D01*
X45034935Y-41402479D01*
X45023873Y-41402684D01*
X45013452Y-41402783D01*
X45000732Y-41402819D01*
X44970690Y-41402819D01*
X44970556Y-41418322D01*
X44970427Y-41433330D01*
X44970303Y-41447855D01*
X44970184Y-41461906D01*
X44970070Y-41475496D01*
X44969961Y-41488634D01*
X44969856Y-41501331D01*
X44969755Y-41513598D01*
X44969659Y-41525446D01*
X44969565Y-41536885D01*
X44969476Y-41547927D01*
X44969389Y-41558581D01*
X44969306Y-41568859D01*
X44969226Y-41578771D01*
X44969072Y-41597541D01*
X44968927Y-41614978D01*
X44968789Y-41631167D01*
X44968656Y-41646193D01*
X44968527Y-41660144D01*
X44968398Y-41673104D01*
X44968269Y-41685160D01*
X44968139Y-41696397D01*
X44968004Y-41706901D01*
X44795601Y-41706901D01*
X44795815Y-41692558D01*
X44796047Y-41677360D01*
X44796287Y-41661797D01*
X44796533Y-41645846D01*
X44796782Y-41629483D01*
X44797034Y-41612684D01*
X44797285Y-41595426D01*
X44797535Y-41577685D01*
X44797780Y-41559437D01*
X44798020Y-41540659D01*
X44798252Y-41521326D01*
X44798474Y-41501415D01*
X44798684Y-41480903D01*
X44798881Y-41459766D01*
X44799061Y-41437979D01*
X44799224Y-41415520D01*
X44799368Y-41392364D01*
X44799489Y-41368488D01*
X44799588Y-41343869D01*
X44799660Y-41318482D01*
X44799705Y-41292303D01*
X44799720Y-41265310D01*
X44799715Y-41253527D01*
X44799697Y-41241809D01*
X44799667Y-41230161D01*
X44799624Y-41218583D01*
X44799569Y-41207081D01*
X44799500Y-41195655D01*
X44799417Y-41184310D01*
X44799320Y-41173047D01*
X44799208Y-41161871D01*
X44799081Y-41150783D01*
X44798938Y-41139787D01*
X44798780Y-41128885D01*
X44798606Y-41118081D01*
X44798414Y-41107377D01*
X44798206Y-41096775D01*
X44797980Y-41086280D01*
X44797736Y-41075894D01*
X44797474Y-41065619D01*
X44797458Y-41065031D01*
X44970690Y-41065031D01*
X44971190Y-41072096D01*
X44971820Y-41084128D01*
X44972167Y-41093985D01*
X44972400Y-41104049D01*
X44972541Y-41114318D01*
X44972614Y-41124794D01*
X44972640Y-41135476D01*
X44972644Y-41146364D01*
X44972639Y-41153587D01*
X44972612Y-41164542D01*
X44972568Y-41175627D01*
X44972511Y-41186828D01*
X44972446Y-41198131D01*
X44972377Y-41209520D01*
X44972310Y-41220982D01*
X44972250Y-41232502D01*
X44972201Y-41244065D01*
X44972168Y-41255657D01*
X44972156Y-41267264D01*
X44998046Y-41267264D01*
X45012513Y-41266966D01*
X45022525Y-41266290D01*
X45032678Y-41265067D01*
X45042839Y-41263158D01*
X45052877Y-41260421D01*
X45062660Y-41256717D01*
X45072057Y-41251904D01*
X45080936Y-41245841D01*
X45089165Y-41238389D01*
X45096613Y-41229407D01*
X45103148Y-41218753D01*
X45108638Y-41206288D01*
X45112951Y-41191871D01*
X45115957Y-41175361D01*
X45117523Y-41156617D01*
X45117725Y-41146364D01*
X45117725Y-41140502D01*
X45117555Y-41133528D01*
X45116257Y-41120837D01*
X45113803Y-41109733D01*
X45110343Y-41100110D01*
X45103595Y-41088221D01*
X45095426Y-41079069D01*
X45086339Y-41072297D01*
X45076841Y-41067547D01*
X45064407Y-41063742D01*
X45053335Y-41062048D01*
X45043230Y-41061612D01*
X45040300Y-41061612D01*
X45029553Y-41061612D01*
X45022382Y-41061649D01*
X45011906Y-41061871D01*
X45001081Y-41062371D01*
X44991247Y-41063090D01*
X44981439Y-41063990D01*
X44970690Y-41065031D01*
X44797458Y-41065031D01*
X44797194Y-41055458D01*
X44796894Y-41045415D01*
X44796575Y-41035492D01*
X44796235Y-41025693D01*
X44795496Y-41006474D01*
X44794672Y-40987781D01*
X44793760Y-40969639D01*
X44792757Y-40952069D01*
X44791660Y-40935094D01*
X44802487Y-40934278D01*
X44814208Y-40933398D01*
X44826732Y-40932470D01*
X44839967Y-40931510D01*
X44853824Y-40930535D01*
X44868210Y-40929560D01*
X44883037Y-40928601D01*
X44898211Y-40927675D01*
X44913644Y-40926797D01*
X44929243Y-40925985D01*
X44944917Y-40925253D01*
X44960577Y-40924618D01*
X44976131Y-40924096D01*
X44991488Y-40923704D01*
X45006558Y-40923456D01*
X45021249Y-40923370D01*
X45033461Y-40923370D01*
X45047575Y-40923553D01*
G37*
G36*
X45836274Y-41126719D02*
G01*
X45848376Y-41127134D01*
X45860142Y-41127826D01*
X45871578Y-41128792D01*
X45882689Y-41130033D01*
X45893482Y-41131547D01*
X45903962Y-41133334D01*
X45914136Y-41135392D01*
X45924008Y-41137721D01*
X45933586Y-41140320D01*
X45951879Y-41146325D01*
X45969063Y-41153400D01*
X45985184Y-41161537D01*
X46000288Y-41170731D01*
X46014424Y-41180974D01*
X46027637Y-41192260D01*
X46039974Y-41204581D01*
X46051483Y-41217932D01*
X46062210Y-41232304D01*
X46072203Y-41247692D01*
X46081507Y-41264089D01*
X46086588Y-41274708D01*
X46091303Y-41285830D01*
X46095656Y-41297403D01*
X46099653Y-41309377D01*
X46103300Y-41321698D01*
X46106601Y-41334315D01*
X46109563Y-41347176D01*
X46112190Y-41360229D01*
X46114488Y-41373422D01*
X46116462Y-41386704D01*
X46118117Y-41400022D01*
X46119460Y-41413325D01*
X46120495Y-41426561D01*
X46121227Y-41439677D01*
X46121663Y-41452622D01*
X46121807Y-41465345D01*
X46121612Y-41483949D01*
X46121016Y-41502419D01*
X46119999Y-41520725D01*
X46118545Y-41538837D01*
X46116635Y-41556724D01*
X46114251Y-41574357D01*
X46111375Y-41591707D01*
X46107988Y-41608742D01*
X46104073Y-41625434D01*
X46099611Y-41641752D01*
X46094585Y-41657666D01*
X46088976Y-41673146D01*
X46082766Y-41688164D01*
X46075937Y-41702687D01*
X46068471Y-41716688D01*
X46060349Y-41730135D01*
X46051555Y-41742999D01*
X46042068Y-41755249D01*
X46031873Y-41766857D01*
X46020949Y-41777792D01*
X46009280Y-41788024D01*
X45996847Y-41797523D01*
X45983632Y-41806260D01*
X45969617Y-41814204D01*
X45954783Y-41821325D01*
X45939114Y-41827594D01*
X45922589Y-41832981D01*
X45905193Y-41837455D01*
X45886905Y-41840987D01*
X45867709Y-41843547D01*
X45847586Y-41845105D01*
X45826517Y-41845631D01*
X45825296Y-41845631D01*
X45805790Y-41845253D01*
X45787018Y-41844127D01*
X45768972Y-41842264D01*
X45751645Y-41839677D01*
X45735030Y-41836376D01*
X45719118Y-41832374D01*
X45703902Y-41827683D01*
X45689375Y-41822313D01*
X45675529Y-41816278D01*
X45662357Y-41809588D01*
X45649851Y-41802255D01*
X45638004Y-41794291D01*
X45626808Y-41785708D01*
X45616255Y-41776518D01*
X45606339Y-41766731D01*
X45597051Y-41756360D01*
X45588385Y-41745417D01*
X45580331Y-41733913D01*
X45572885Y-41721860D01*
X45566036Y-41709270D01*
X45559779Y-41696154D01*
X45554105Y-41682525D01*
X45549007Y-41668393D01*
X45544478Y-41653771D01*
X45540510Y-41638670D01*
X45537095Y-41623102D01*
X45534226Y-41607079D01*
X45531896Y-41590612D01*
X45530096Y-41573713D01*
X45528820Y-41556395D01*
X45528060Y-41538668D01*
X45527808Y-41520544D01*
X45527958Y-41507843D01*
X45700000Y-41507843D01*
X45700126Y-41518621D01*
X45700505Y-41529197D01*
X45701136Y-41539562D01*
X45702018Y-41549706D01*
X45703151Y-41559619D01*
X45704533Y-41569294D01*
X45708044Y-41587890D01*
X45712546Y-41605420D01*
X45718031Y-41621810D01*
X45724496Y-41636987D01*
X45731934Y-41650878D01*
X45740340Y-41663409D01*
X45749707Y-41674508D01*
X45760030Y-41684100D01*
X45771303Y-41692113D01*
X45783521Y-41698473D01*
X45796678Y-41703106D01*
X45810767Y-41705940D01*
X45825785Y-41706901D01*
X45829254Y-41706808D01*
X45839014Y-41706222D01*
X45850701Y-41704672D01*
X45861157Y-41702161D01*
X45870695Y-41698597D01*
X45879625Y-41693888D01*
X45888261Y-41687942D01*
X45896914Y-41680668D01*
X45905896Y-41671974D01*
X45908829Y-41668479D01*
X45916846Y-41656742D01*
X45921564Y-41647914D01*
X45925806Y-41638318D01*
X45929591Y-41627986D01*
X45932940Y-41616947D01*
X45935873Y-41605231D01*
X45938411Y-41592870D01*
X45940574Y-41579894D01*
X45942382Y-41566332D01*
X45943857Y-41552216D01*
X45945017Y-41537576D01*
X45945884Y-41522442D01*
X45946478Y-41506845D01*
X45946820Y-41490815D01*
X45946929Y-41474382D01*
X45946929Y-41463147D01*
X45946725Y-41452929D01*
X45946381Y-41442847D01*
X45945891Y-41432913D01*
X45945246Y-41423139D01*
X45943464Y-41404121D01*
X45940976Y-41385893D01*
X45937720Y-41368554D01*
X45933637Y-41352203D01*
X45928667Y-41336938D01*
X45922749Y-41322860D01*
X45915824Y-41310066D01*
X45907831Y-41298657D01*
X45898711Y-41288732D01*
X45888402Y-41280388D01*
X45876846Y-41273726D01*
X45863982Y-41268845D01*
X45849749Y-41265844D01*
X45834089Y-41264822D01*
X45824614Y-41265106D01*
X45806910Y-41267356D01*
X45790814Y-41271786D01*
X45776265Y-41278322D01*
X45763202Y-41286892D01*
X45751564Y-41297421D01*
X45741290Y-41309836D01*
X45732318Y-41324064D01*
X45724587Y-41340033D01*
X45718037Y-41357667D01*
X45715185Y-41367086D01*
X45712605Y-41376895D01*
X45710290Y-41387083D01*
X45708232Y-41397642D01*
X45706422Y-41408562D01*
X45704855Y-41419835D01*
X45703521Y-41431451D01*
X45702413Y-41443402D01*
X45701524Y-41455677D01*
X45700845Y-41468268D01*
X45700370Y-41481165D01*
X45700091Y-41494360D01*
X45700000Y-41507843D01*
X45527958Y-41507843D01*
X45528091Y-41496614D01*
X45528940Y-41473414D01*
X45530358Y-41450947D01*
X45532343Y-41429214D01*
X45534900Y-41408217D01*
X45538027Y-41387958D01*
X45541727Y-41368439D01*
X45546001Y-41349662D01*
X45550849Y-41331628D01*
X45556274Y-41314341D01*
X45562276Y-41297801D01*
X45568857Y-41282011D01*
X45576017Y-41266972D01*
X45583759Y-41252687D01*
X45592082Y-41239157D01*
X45600990Y-41226384D01*
X45610481Y-41214370D01*
X45620559Y-41203118D01*
X45631223Y-41192629D01*
X45642476Y-41182904D01*
X45654318Y-41173947D01*
X45666751Y-41165758D01*
X45679776Y-41158340D01*
X45693393Y-41151695D01*
X45707606Y-41145825D01*
X45722413Y-41140730D01*
X45737817Y-41136415D01*
X45753819Y-41132879D01*
X45770420Y-41130126D01*
X45787622Y-41128157D01*
X45805425Y-41126975D01*
X45823831Y-41126580D01*
X45836274Y-41126719D01*
G37*
G36*
X46553832Y-41126850D02*
G01*
X46568076Y-41127658D01*
X46582171Y-41129001D01*
X46596098Y-41130875D01*
X46609833Y-41133279D01*
X46623356Y-41136208D01*
X46636644Y-41139660D01*
X46649677Y-41143631D01*
X46662431Y-41148119D01*
X46674887Y-41153121D01*
X46687021Y-41158634D01*
X46698813Y-41164653D01*
X46710241Y-41171178D01*
X46721283Y-41178203D01*
X46731917Y-41185727D01*
X46742123Y-41193747D01*
X46751877Y-41202259D01*
X46761159Y-41211260D01*
X46769947Y-41220747D01*
X46778219Y-41230717D01*
X46785954Y-41241168D01*
X46793130Y-41252095D01*
X46799725Y-41263497D01*
X46805717Y-41275370D01*
X46811086Y-41287710D01*
X46815809Y-41300516D01*
X46819865Y-41313784D01*
X46823232Y-41327510D01*
X46825889Y-41341692D01*
X46827813Y-41356327D01*
X46828983Y-41371412D01*
X46829378Y-41386943D01*
X46829378Y-41620683D01*
X46829533Y-41632358D01*
X46830011Y-41643408D01*
X46830831Y-41653868D01*
X46832012Y-41663769D01*
X46834503Y-41677650D01*
X46837916Y-41690466D01*
X46842316Y-41702331D01*
X46847768Y-41713357D01*
X46854338Y-41723659D01*
X46862090Y-41733350D01*
X46871089Y-41742544D01*
X46881402Y-41751353D01*
X46795917Y-41853203D01*
X46786202Y-41845986D01*
X46777055Y-41839519D01*
X46768389Y-41833494D01*
X46760115Y-41827606D01*
X46752146Y-41821547D01*
X46744392Y-41815010D01*
X46736767Y-41807690D01*
X46729182Y-41799278D01*
X46721548Y-41789470D01*
X46713778Y-41777957D01*
X46708478Y-41769183D01*
X46703587Y-41774087D01*
X46693684Y-41783372D01*
X46683544Y-41791967D01*
X46673072Y-41799884D01*
X46662174Y-41807132D01*
X46650758Y-41813720D01*
X46638728Y-41819660D01*
X46625992Y-41824960D01*
X46612455Y-41829632D01*
X46598025Y-41833684D01*
X46582606Y-41837128D01*
X46566107Y-41839973D01*
X46548431Y-41842229D01*
X46529487Y-41843906D01*
X46519510Y-41844530D01*
X46509180Y-41845014D01*
X46498486Y-41845357D01*
X46487416Y-41845563D01*
X46475959Y-41845631D01*
X46464991Y-41845371D01*
X46454038Y-41844596D01*
X46443121Y-41843318D01*
X46432263Y-41841544D01*
X46421485Y-41839286D01*
X46410809Y-41836552D01*
X46400258Y-41833353D01*
X46389852Y-41829698D01*
X46379614Y-41825597D01*
X46369566Y-41821059D01*
X46359729Y-41816095D01*
X46350126Y-41810713D01*
X46340778Y-41804925D01*
X46331707Y-41798738D01*
X46322935Y-41792164D01*
X46314484Y-41785211D01*
X46306376Y-41777890D01*
X46298632Y-41770211D01*
X46291275Y-41762182D01*
X46284326Y-41753813D01*
X46277808Y-41745115D01*
X46271741Y-41736097D01*
X46266149Y-41726769D01*
X46261052Y-41717140D01*
X46256473Y-41707220D01*
X46252434Y-41697020D01*
X46248956Y-41686547D01*
X46246061Y-41675813D01*
X46243772Y-41664827D01*
X46242109Y-41653598D01*
X46241096Y-41642137D01*
X46240753Y-41630453D01*
X46240968Y-41619951D01*
X46420027Y-41619951D01*
X46420164Y-41626202D01*
X46421229Y-41637895D01*
X46423287Y-41648540D01*
X46428076Y-41662628D01*
X46434684Y-41674575D01*
X46442862Y-41684510D01*
X46452359Y-41692562D01*
X46462925Y-41698860D01*
X46474311Y-41703533D01*
X46486266Y-41706712D01*
X46498541Y-41708524D01*
X46510886Y-41709099D01*
X46524759Y-41708292D01*
X46538144Y-41705969D01*
X46551006Y-41702284D01*
X46563310Y-41697387D01*
X46575020Y-41691430D01*
X46586101Y-41684563D01*
X46596516Y-41676938D01*
X46606232Y-41668708D01*
X46615212Y-41660022D01*
X46623421Y-41651032D01*
X46630824Y-41641890D01*
X46637384Y-41632747D01*
X46643068Y-41623754D01*
X46649871Y-41610877D01*
X46654501Y-41599190D01*
X46654501Y-41566461D01*
X46649624Y-41561036D01*
X46641422Y-41553203D01*
X46632267Y-41545815D01*
X46622281Y-41538962D01*
X46611587Y-41532732D01*
X46600309Y-41527216D01*
X46588569Y-41522503D01*
X46576492Y-41518681D01*
X46564199Y-41515840D01*
X46551815Y-41514071D01*
X46539462Y-41513461D01*
X46535166Y-41513549D01*
X46521427Y-41514901D01*
X46511752Y-41516737D01*
X46501841Y-41519349D01*
X46491847Y-41522761D01*
X46481923Y-41526998D01*
X46472220Y-41532082D01*
X46462892Y-41538038D01*
X46454090Y-41544890D01*
X46445968Y-41552661D01*
X46438677Y-41561377D01*
X46432369Y-41571060D01*
X46427198Y-41581735D01*
X46423316Y-41593426D01*
X46420875Y-41606156D01*
X46420027Y-41619951D01*
X46240968Y-41619951D01*
X46240993Y-41618716D01*
X46241713Y-41607060D01*
X46242912Y-41595509D01*
X46244589Y-41584085D01*
X46246741Y-41572813D01*
X46249370Y-41561717D01*
X46252473Y-41550819D01*
X46256049Y-41540144D01*
X46260097Y-41529715D01*
X46264617Y-41519556D01*
X46269607Y-41509691D01*
X46275065Y-41500142D01*
X46280992Y-41490934D01*
X46287386Y-41482090D01*
X46294245Y-41473634D01*
X46301570Y-41465589D01*
X46313882Y-41453683D01*
X46326468Y-41442765D01*
X46339340Y-41432806D01*
X46352513Y-41423774D01*
X46366003Y-41415640D01*
X46379824Y-41408372D01*
X46393991Y-41401941D01*
X46408517Y-41396316D01*
X46423419Y-41391466D01*
X46438711Y-41387362D01*
X46454406Y-41383973D01*
X46470521Y-41381268D01*
X46487069Y-41379217D01*
X46504066Y-41377790D01*
X46521525Y-41376956D01*
X46539462Y-41376685D01*
X46543565Y-41376727D01*
X46555886Y-41377339D01*
X46568149Y-41378638D01*
X46580252Y-41380571D01*
X46592095Y-41383083D01*
X46603576Y-41386119D01*
X46614593Y-41389625D01*
X46625045Y-41393547D01*
X46634830Y-41397830D01*
X46643847Y-41402420D01*
X46654501Y-41408925D01*
X46654272Y-41398166D01*
X46653599Y-41387953D01*
X46651010Y-41369111D01*
X46646905Y-41352294D01*
X46641456Y-41337392D01*
X46634838Y-41324300D01*
X46627221Y-41312909D01*
X46618778Y-41303112D01*
X46609682Y-41294802D01*
X46600105Y-41287872D01*
X46590220Y-41282214D01*
X46580199Y-41277721D01*
X46570214Y-41274286D01*
X46560438Y-41271801D01*
X46546543Y-41269620D01*
X46534089Y-41268974D01*
X46519511Y-41269253D01*
X46505271Y-41270101D01*
X46491365Y-41271530D01*
X46477795Y-41273553D01*
X46464557Y-41276183D01*
X46451653Y-41279432D01*
X46439079Y-41283314D01*
X46426836Y-41287841D01*
X46414922Y-41293027D01*
X46403335Y-41298884D01*
X46392076Y-41305425D01*
X46381143Y-41312663D01*
X46370535Y-41320610D01*
X46360250Y-41329281D01*
X46350289Y-41338687D01*
X46340648Y-41348841D01*
X46257117Y-41202540D01*
X46268047Y-41195709D01*
X46278554Y-41189314D01*
X46288665Y-41183338D01*
X46298411Y-41177768D01*
X46307820Y-41172588D01*
X46316920Y-41167783D01*
X46334310Y-41159244D01*
X46350811Y-41152031D01*
X46366653Y-41146027D01*
X46382067Y-41141114D01*
X46397282Y-41137174D01*
X46412529Y-41134091D01*
X46428037Y-41131745D01*
X46444037Y-41130020D01*
X46460759Y-41128797D01*
X46478432Y-41127960D01*
X46497287Y-41127390D01*
X46507229Y-41127168D01*
X46517554Y-41126969D01*
X46528288Y-41126778D01*
X46539462Y-41126580D01*
X46553832Y-41126850D01*
G37*
G36*
X47202581Y-41233314D02*
G01*
X47198065Y-41220708D01*
X47193225Y-41209203D01*
X47188078Y-41198706D01*
X47182638Y-41189122D01*
X47176920Y-41180356D01*
X47170940Y-41172315D01*
X47161510Y-41161404D01*
X47151573Y-41151591D01*
X47141182Y-41142557D01*
X47130385Y-41133984D01*
X47119234Y-41125552D01*
X47107779Y-41116943D01*
X47100000Y-41110949D01*
X46998883Y-41237466D01*
X47006731Y-41244423D01*
X47014317Y-41251207D01*
X47021606Y-41257846D01*
X47031912Y-41267592D01*
X47041361Y-41277167D01*
X47049841Y-41286662D01*
X47057239Y-41296172D01*
X47063440Y-41305788D01*
X47068332Y-41315605D01*
X47071800Y-41325715D01*
X47073732Y-41336210D01*
X47074110Y-41343468D01*
X47074110Y-41830000D01*
X47246301Y-41830000D01*
X47246301Y-41443119D01*
X47252428Y-41431347D01*
X47258490Y-41420025D01*
X47264485Y-41409149D01*
X47270413Y-41398712D01*
X47276273Y-41388711D01*
X47282063Y-41379140D01*
X47287783Y-41369993D01*
X47293432Y-41361267D01*
X47299009Y-41352956D01*
X47309941Y-41337558D01*
X47320572Y-41323761D01*
X47330895Y-41311523D01*
X47340901Y-41300805D01*
X47350583Y-41291567D01*
X47359932Y-41283769D01*
X47368940Y-41277370D01*
X47377601Y-41272331D01*
X47389922Y-41267233D01*
X47401416Y-41264970D01*
X47405059Y-41264822D01*
X47414971Y-41265543D01*
X47425831Y-41268562D01*
X47434261Y-41273595D01*
X47441817Y-41282163D01*
X47446583Y-41292591D01*
X47449117Y-41304164D01*
X47449979Y-41316166D01*
X47450000Y-41318555D01*
X47449864Y-41329306D01*
X47449487Y-41339189D01*
X47448778Y-41349085D01*
X47620969Y-41347620D01*
X47620969Y-41326859D01*
X47620760Y-41314810D01*
X47620135Y-41303117D01*
X47619100Y-41291782D01*
X47617661Y-41280807D01*
X47615823Y-41270194D01*
X47613591Y-41259944D01*
X47610971Y-41250060D01*
X47607967Y-41240542D01*
X47600834Y-41222614D01*
X47592234Y-41206174D01*
X47582211Y-41191234D01*
X47570808Y-41177810D01*
X47558068Y-41165914D01*
X47544035Y-41155560D01*
X47528752Y-41146762D01*
X47512262Y-41139533D01*
X47494609Y-41133886D01*
X47475835Y-41129836D01*
X47466042Y-41128414D01*
X47455985Y-41127396D01*
X47445669Y-41126784D01*
X47435101Y-41126580D01*
X47424888Y-41126696D01*
X47414900Y-41127044D01*
X47405135Y-41127619D01*
X47386255Y-41129448D01*
X47368220Y-41132162D01*
X47351003Y-41135745D01*
X47334574Y-41140177D01*
X47318906Y-41145440D01*
X47303970Y-41151515D01*
X47289738Y-41158384D01*
X47276181Y-41166027D01*
X47263272Y-41174427D01*
X47250982Y-41183564D01*
X47239283Y-41193421D01*
X47228147Y-41203978D01*
X47217545Y-41215218D01*
X47207449Y-41227120D01*
X47202581Y-41233314D01*
G37*
G36*
X48292882Y-40866950D02*
G01*
X48292002Y-40875779D01*
X48290660Y-40889491D01*
X48289321Y-40903747D01*
X48288446Y-40913542D01*
X48287596Y-40923562D01*
X48286782Y-40933801D01*
X48286012Y-40944253D01*
X48285297Y-40954911D01*
X48284646Y-40965768D01*
X48284068Y-40976819D01*
X48283574Y-40988056D01*
X48283172Y-40999474D01*
X48282874Y-41011066D01*
X48282688Y-41022825D01*
X48282623Y-41034745D01*
X48282620Y-41052833D01*
X48282610Y-41071267D01*
X48282593Y-41090021D01*
X48282571Y-41109070D01*
X48282543Y-41128387D01*
X48282511Y-41147947D01*
X48282474Y-41167723D01*
X48282433Y-41187690D01*
X48282388Y-41207823D01*
X48282340Y-41228094D01*
X48282290Y-41248479D01*
X48282237Y-41268950D01*
X48282182Y-41289483D01*
X48282127Y-41310052D01*
X48282070Y-41330630D01*
X48282013Y-41351192D01*
X48281956Y-41371712D01*
X48281899Y-41392163D01*
X48281843Y-41412520D01*
X48281789Y-41432758D01*
X48281736Y-41452850D01*
X48281685Y-41472770D01*
X48281638Y-41492492D01*
X48281593Y-41511991D01*
X48281552Y-41531241D01*
X48281515Y-41550216D01*
X48281482Y-41568889D01*
X48281455Y-41587235D01*
X48281432Y-41605228D01*
X48281416Y-41622843D01*
X48281406Y-41640052D01*
X48281402Y-41656831D01*
X48281402Y-41673928D01*
X48281422Y-41679337D01*
X48281577Y-41690178D01*
X48281877Y-41701027D01*
X48282312Y-41711862D01*
X48282873Y-41722657D01*
X48283549Y-41733389D01*
X48284330Y-41744033D01*
X48285206Y-41754564D01*
X48286167Y-41764958D01*
X48287203Y-41775192D01*
X48288305Y-41785240D01*
X48289462Y-41795079D01*
X48291278Y-41809390D01*
X48293162Y-41823093D01*
X48295080Y-41836106D01*
X48160990Y-41849783D01*
X48160645Y-41849285D01*
X48155057Y-41840718D01*
X48149880Y-41832083D01*
X48144162Y-41821592D01*
X48138625Y-41809934D01*
X48135024Y-41800839D01*
X48131538Y-41788798D01*
X48130216Y-41777487D01*
X48125032Y-41784210D01*
X48116013Y-41794021D01*
X48105490Y-41803385D01*
X48097633Y-41809310D01*
X48089099Y-41814934D01*
X48079882Y-41820216D01*
X48069979Y-41825115D01*
X48059387Y-41829590D01*
X48048101Y-41833601D01*
X48036117Y-41837107D01*
X48023432Y-41840067D01*
X48010041Y-41842440D01*
X47995941Y-41844186D01*
X47981127Y-41845263D01*
X47965596Y-41845631D01*
X47949731Y-41845313D01*
X47934330Y-41844358D01*
X47919396Y-41842766D01*
X47904933Y-41840538D01*
X47890942Y-41837674D01*
X47877426Y-41834174D01*
X47864387Y-41830039D01*
X47851829Y-41825267D01*
X47839753Y-41819861D01*
X47828162Y-41813819D01*
X47817059Y-41807142D01*
X47806447Y-41799830D01*
X47796327Y-41791883D01*
X47786703Y-41783302D01*
X47777576Y-41774087D01*
X47768950Y-41764237D01*
X47760827Y-41753754D01*
X47753210Y-41742636D01*
X47746101Y-41730885D01*
X47739502Y-41718501D01*
X47733417Y-41705483D01*
X47727847Y-41691832D01*
X47722796Y-41677549D01*
X47718266Y-41662632D01*
X47714259Y-41647083D01*
X47710778Y-41630902D01*
X47707826Y-41614088D01*
X47705405Y-41596643D01*
X47703517Y-41578565D01*
X47702165Y-41559856D01*
X47701353Y-41540516D01*
X47701081Y-41520544D01*
X47701234Y-41507110D01*
X47875226Y-41507110D01*
X47875344Y-41519534D01*
X47875697Y-41531528D01*
X47876283Y-41543095D01*
X47877102Y-41554236D01*
X47878153Y-41564954D01*
X47879433Y-41575252D01*
X47882680Y-41594595D01*
X47886832Y-41612284D01*
X47891880Y-41628337D01*
X47897815Y-41642773D01*
X47904627Y-41655610D01*
X47912306Y-41666867D01*
X47920843Y-41676563D01*
X47930228Y-41684717D01*
X47940451Y-41691346D01*
X47951502Y-41696470D01*
X47963373Y-41700106D01*
X47976052Y-41702275D01*
X47989532Y-41702993D01*
X47997387Y-41702616D01*
X48009387Y-41700618D01*
X48021562Y-41696864D01*
X48033818Y-41691314D01*
X48046059Y-41683925D01*
X48054165Y-41677958D01*
X48062193Y-41671144D01*
X48070115Y-41663471D01*
X48077904Y-41654926D01*
X48085531Y-41645497D01*
X48092967Y-41635172D01*
X48100185Y-41623940D01*
X48107156Y-41611787D01*
X48113852Y-41598702D01*
X48113852Y-41361786D01*
X48109415Y-41354309D01*
X48101951Y-41342687D01*
X48093568Y-41330874D01*
X48087498Y-41323057D01*
X48081063Y-41315401D01*
X48074282Y-41308006D01*
X48067171Y-41300969D01*
X48059748Y-41294391D01*
X48052030Y-41288370D01*
X48039940Y-41280598D01*
X48027286Y-41274633D01*
X48014127Y-41270811D01*
X48000523Y-41269462D01*
X47988731Y-41270084D01*
X47977047Y-41272030D01*
X47965560Y-41275424D01*
X47954361Y-41280388D01*
X47943540Y-41287045D01*
X47933186Y-41295518D01*
X47923391Y-41305930D01*
X47914244Y-41318402D01*
X47905836Y-41333059D01*
X47898256Y-41350022D01*
X47894805Y-41359407D01*
X47891595Y-41369414D01*
X47888637Y-41380060D01*
X47885942Y-41391358D01*
X47883523Y-41403326D01*
X47881389Y-41415978D01*
X47879553Y-41429328D01*
X47878026Y-41443394D01*
X47876818Y-41458190D01*
X47875941Y-41473731D01*
X47875407Y-41490033D01*
X47875226Y-41507110D01*
X47701234Y-41507110D01*
X47701363Y-41495711D01*
X47702206Y-41471724D01*
X47703608Y-41448577D01*
X47705567Y-41426268D01*
X47708081Y-41404793D01*
X47711147Y-41384148D01*
X47714763Y-41364330D01*
X47718926Y-41345334D01*
X47723635Y-41327157D01*
X47728886Y-41309795D01*
X47734679Y-41293245D01*
X47741009Y-41277503D01*
X47747876Y-41262564D01*
X47755276Y-41248426D01*
X47763207Y-41235085D01*
X47771667Y-41222537D01*
X47780654Y-41210778D01*
X47790166Y-41199805D01*
X47800199Y-41189613D01*
X47810752Y-41180200D01*
X47821822Y-41171560D01*
X47833408Y-41163692D01*
X47845506Y-41156591D01*
X47858114Y-41150253D01*
X47871230Y-41144674D01*
X47884853Y-41139851D01*
X47898978Y-41135781D01*
X47913605Y-41132459D01*
X47928730Y-41129881D01*
X47944352Y-41128045D01*
X47960468Y-41126946D01*
X47977076Y-41126580D01*
X47984298Y-41126707D01*
X47998257Y-41127683D01*
X48011569Y-41129537D01*
X48024240Y-41132170D01*
X48036273Y-41135481D01*
X48047673Y-41139367D01*
X48058443Y-41143729D01*
X48068589Y-41148466D01*
X48078115Y-41153476D01*
X48087024Y-41158660D01*
X48099243Y-41166538D01*
X48110100Y-41174237D01*
X48119608Y-41181417D01*
X48130216Y-41189595D01*
X48129094Y-41184693D01*
X48126990Y-41175130D01*
X48124171Y-41161283D01*
X48121738Y-41147858D01*
X48119671Y-41134662D01*
X48117953Y-41121499D01*
X48116563Y-41108175D01*
X48115482Y-41094497D01*
X48114691Y-41080269D01*
X48114315Y-41070383D01*
X48114054Y-41060108D01*
X48113901Y-41049388D01*
X48113852Y-41038164D01*
X48113862Y-41032339D01*
X48113941Y-41020642D01*
X48114099Y-41008906D01*
X48114335Y-40997161D01*
X48114647Y-40985432D01*
X48115034Y-40973750D01*
X48115495Y-40962140D01*
X48116030Y-40950632D01*
X48116637Y-40939253D01*
X48117315Y-40928031D01*
X48118062Y-40916994D01*
X48118879Y-40906170D01*
X48119763Y-40895586D01*
X48120714Y-40885272D01*
X48121731Y-40875254D01*
X48123377Y-40860844D01*
X48292882Y-40866950D01*
G37*
D11*
%TO.C,J10*%
X150250000Y-80400000D02*
X150750000Y-80400000D01*
X150750000Y-80400000D02*
X150500000Y-79900000D01*
X150500000Y-79900000D02*
X150250000Y-80400000D01*
%TO.C,J4*%
X123750000Y-67600000D02*
X123250000Y-67600000D01*
X123250000Y-67600000D02*
X123500000Y-68100000D01*
X123500000Y-68100000D02*
X123750000Y-67600000D01*
%TO.C,J7*%
X96250000Y-80400000D02*
X96750000Y-80400000D01*
X96750000Y-80400000D02*
X96500000Y-79900000D01*
X96500000Y-79900000D02*
X96250000Y-80400000D01*
%TO.C,R1*%
X41663641Y-50380000D02*
X41356359Y-50380000D01*
X41663641Y-49620000D02*
X41356359Y-49620000D01*
%TO.C,J1*%
X42750000Y-67600000D02*
X42250000Y-67600000D01*
X42250000Y-67600000D02*
X42500000Y-68100000D01*
X42500000Y-68100000D02*
X42750000Y-67600000D01*
%TO.C,J8*%
X69250000Y-80400000D02*
X69750000Y-80400000D01*
X69750000Y-80400000D02*
X69500000Y-79900000D01*
X69500000Y-79900000D02*
X69250000Y-80400000D01*
%TO.C,J9*%
X42250000Y-80400000D02*
X42750000Y-80400000D01*
X42750000Y-80400000D02*
X42500000Y-79900000D01*
X42500000Y-79900000D02*
X42250000Y-80400000D01*
%TO.C,J6*%
X123250000Y-80400000D02*
X123750000Y-80400000D01*
X123750000Y-80400000D02*
X123500000Y-79900000D01*
X123500000Y-79900000D02*
X123250000Y-80400000D01*
%TO.C,J2*%
X96750000Y-67600000D02*
X96250000Y-67600000D01*
X96250000Y-67600000D02*
X96500000Y-68100000D01*
X96500000Y-68100000D02*
X96750000Y-67600000D01*
%TO.C,J3*%
X69750000Y-67600000D02*
X69250000Y-67600000D01*
X69250000Y-67600000D02*
X69500000Y-68100000D01*
X69500000Y-68100000D02*
X69750000Y-67600000D01*
%TO.C,J5*%
X150750000Y-67600000D02*
X150250000Y-67600000D01*
X150250000Y-67600000D02*
X150500000Y-68100000D01*
X150500000Y-68100000D02*
X150750000Y-67600000D01*
%TO.C,R2*%
X43356359Y-49620000D02*
X43663641Y-49620000D01*
X43356359Y-50380000D02*
X43663641Y-50380000D01*
%TD*%
%LPC*%
D12*
%TO.C,REF\u002A\u002A*%
X137000000Y-81000000D03*
X137000000Y-81000000D03*
%TD*%
%TO.C,REF\u002A\u002A*%
X110000000Y-101000000D03*
X110000000Y-101000000D03*
%TD*%
%TO.C,REF\u002A\u002A*%
X137000000Y-85000000D03*
X137000000Y-85000000D03*
%TD*%
%TO.C,REF\u002A\u002A*%
X110000000Y-71000000D03*
%TD*%
%TO.C,REF\u002A\u002A*%
X83000000Y-89000000D03*
X83000000Y-89000000D03*
%TD*%
%TO.C,REF\u002A\u002A*%
X110000000Y-49000000D03*
X110000000Y-49000000D03*
%TD*%
%TO.C,REF\u002A\u002A*%
X56000000Y-107000000D03*
X56000000Y-107000000D03*
%TD*%
D13*
%TO.C,H9*%
X140750000Y-64000000D03*
X141409010Y-62409010D03*
X141409010Y-65590990D03*
X143000000Y-61750000D03*
D14*
X143000000Y-64000000D03*
D13*
X143000000Y-66250000D03*
X144590990Y-62409010D03*
X144590990Y-65590990D03*
X145250000Y-64000000D03*
%TD*%
D12*
%TO.C,REF\u002A\u002A*%
X83000000Y-93000000D03*
X83000000Y-93000000D03*
%TD*%
%TO.C,REF\u002A\u002A*%
X56000000Y-45000000D03*
X56000000Y-45000000D03*
%TD*%
%TO.C,REF\u002A\u002A*%
X137000000Y-63000000D03*
X137000000Y-63000000D03*
%TD*%
D13*
%TO.C,H11*%
X32750000Y-84000000D03*
X33409010Y-82409010D03*
X33409010Y-85590990D03*
X35000000Y-81750000D03*
D14*
X35000000Y-84000000D03*
D13*
X35000000Y-86250000D03*
X36590990Y-82409010D03*
X36590990Y-85590990D03*
X37250000Y-84000000D03*
%TD*%
D12*
%TO.C,REF\u002A\u002A*%
X56000000Y-65000000D03*
X56000000Y-65000000D03*
%TD*%
%TO.C,REF\u002A\u002A*%
X137000000Y-101000000D03*
X137000000Y-101000000D03*
%TD*%
%TO.C,REF\u002A\u002A*%
X110000000Y-97000000D03*
X110000000Y-97000000D03*
%TD*%
D13*
%TO.C,H19*%
X140750000Y-84000000D03*
X141409010Y-82409010D03*
X141409010Y-85590990D03*
X143000000Y-81750000D03*
D14*
X143000000Y-84000000D03*
D13*
X143000000Y-86250000D03*
X144590990Y-82409010D03*
X144590990Y-85590990D03*
X145250000Y-84000000D03*
%TD*%
D12*
%TO.C,REF\u002A\u002A*%
X34000000Y-74000000D03*
%TD*%
%TO.C,REF\u002A\u002A*%
X83000000Y-95000000D03*
X83000000Y-95000000D03*
%TD*%
%TO.C,REF\u002A\u002A*%
X56000000Y-63000000D03*
X56000000Y-63000000D03*
%TD*%
D13*
%TO.C,H10*%
X155750000Y-64000000D03*
X156409010Y-62409010D03*
X156409010Y-65590990D03*
X158000000Y-61750000D03*
D14*
X158000000Y-64000000D03*
D13*
X158000000Y-66250000D03*
X159590990Y-62409010D03*
X159590990Y-65590990D03*
X160250000Y-64000000D03*
%TD*%
D12*
%TO.C,REF\u002A\u002A*%
X56000000Y-77000000D03*
X56000000Y-77000000D03*
%TD*%
%TO.C,REF\u002A\u002A*%
X137000000Y-45000000D03*
X137000000Y-45000000D03*
%TD*%
%TO.C,REF\u002A\u002A*%
X56000000Y-43000000D03*
X56000000Y-43000000D03*
%TD*%
%TO.C,REF\u002A\u002A*%
X110000000Y-51000000D03*
X110000000Y-51000000D03*
%TD*%
%TO.C,REF\u002A\u002A*%
X137000000Y-95000000D03*
X137000000Y-95000000D03*
%TD*%
%TO.C,REF\u002A\u002A*%
X83000000Y-63000000D03*
X83000000Y-63000000D03*
%TD*%
%TO.C,REF\u002A\u002A*%
X83000000Y-51000000D03*
X83000000Y-51000000D03*
%TD*%
D15*
%TO.C,J10*%
X150500000Y-77500000D03*
D16*
X147007500Y-77500000D03*
X153992500Y-77500000D03*
%TD*%
D12*
%TO.C,REF\u002A\u002A*%
X137000000Y-53000000D03*
X137000000Y-53000000D03*
%TD*%
%TO.C,REF\u002A\u002A*%
X83000000Y-49000000D03*
X83000000Y-49000000D03*
%TD*%
%TO.C,REF\u002A\u002A*%
X110000000Y-81000000D03*
X110000000Y-81000000D03*
%TD*%
%TO.C,REF\u002A\u002A*%
X137000000Y-105000000D03*
X137000000Y-105000000D03*
%TD*%
%TO.C,REF\u002A\u002A*%
X83000000Y-101000000D03*
X83000000Y-101000000D03*
%TD*%
%TO.C,REF\u002A\u002A*%
X56000000Y-85000000D03*
X56000000Y-85000000D03*
%TD*%
%TO.C,REF\u002A\u002A*%
X56000000Y-49000000D03*
X56000000Y-49000000D03*
%TD*%
%TO.C,REF\u002A\u002A*%
X56000000Y-79000000D03*
X56000000Y-79000000D03*
%TD*%
%TO.C,REF\u002A\u002A*%
X137000000Y-97000000D03*
X137000000Y-97000000D03*
%TD*%
%TO.C,REF\u002A\u002A*%
X110000000Y-65000000D03*
X110000000Y-65000000D03*
%TD*%
%TO.C,REF\u002A\u002A*%
X56000000Y-91000000D03*
X56000000Y-91000000D03*
%TD*%
%TO.C,REF\u002A\u002A*%
X83000000Y-103000000D03*
X83000000Y-103000000D03*
%TD*%
D13*
%TO.C,H3*%
X59750000Y-64000000D03*
X60409010Y-62409010D03*
X60409010Y-65590990D03*
X62000000Y-61750000D03*
D14*
X62000000Y-64000000D03*
D13*
X62000000Y-66250000D03*
X63590990Y-62409010D03*
X63590990Y-65590990D03*
X64250000Y-64000000D03*
%TD*%
D12*
%TO.C,REF\u002A\u002A*%
X110000000Y-79000000D03*
X110000000Y-79000000D03*
%TD*%
%TO.C,REF\u002A\u002A*%
X61000000Y-74000000D03*
%TD*%
D15*
%TO.C,J4*%
X123500000Y-70500000D03*
D16*
X126992500Y-70500000D03*
X120007500Y-70500000D03*
%TD*%
D12*
%TO.C,REF\u002A\u002A*%
X56000000Y-41000000D03*
X56000000Y-41000000D03*
%TD*%
%TO.C,REF\u002A\u002A*%
X83000000Y-77000000D03*
X83000000Y-77000000D03*
%TD*%
%TO.C,REF\u002A\u002A*%
X137000000Y-91000000D03*
X137000000Y-91000000D03*
%TD*%
%TO.C,REF\u002A\u002A*%
X137000000Y-103000000D03*
X137000000Y-103000000D03*
%TD*%
%TO.C,REF\u002A\u002A*%
X110000000Y-103000000D03*
X110000000Y-103000000D03*
%TD*%
%TO.C,REF\u002A\u002A*%
X56000000Y-71000000D03*
%TD*%
D15*
%TO.C,J7*%
X96500000Y-77500000D03*
D16*
X93007500Y-77500000D03*
X99992500Y-77500000D03*
%TD*%
D12*
%TO.C,REF\u002A\u002A*%
X56000000Y-67000000D03*
X56000000Y-67000000D03*
%TD*%
D17*
%TO.C,R1*%
X42020000Y-50000000D03*
X41000000Y-50000000D03*
%TD*%
D12*
%TO.C,REF\u002A\u002A*%
X137000000Y-107000000D03*
X137000000Y-107000000D03*
%TD*%
D13*
%TO.C,H6*%
X101750000Y-64000000D03*
X102409010Y-62409010D03*
X102409010Y-65590990D03*
X104000000Y-61750000D03*
D14*
X104000000Y-64000000D03*
D13*
X104000000Y-66250000D03*
X105590990Y-62409010D03*
X105590990Y-65590990D03*
X106250000Y-64000000D03*
%TD*%
D12*
%TO.C,REF\u002A\u002A*%
X110000000Y-105000000D03*
X110000000Y-105000000D03*
%TD*%
%TO.C,REF\u002A\u002A*%
X83000000Y-45000000D03*
X83000000Y-45000000D03*
%TD*%
%TO.C,REF\u002A\u002A*%
X132000000Y-74000000D03*
%TD*%
%TO.C,REF\u002A\u002A*%
X56000000Y-99000000D03*
X56000000Y-99000000D03*
%TD*%
%TO.C,REF\u002A\u002A*%
X137000000Y-87000000D03*
X137000000Y-87000000D03*
%TD*%
%TO.C,REF\u002A\u002A*%
X56000000Y-55000000D03*
X56000000Y-55000000D03*
%TD*%
%TO.C,REF\u002A\u002A*%
X110000000Y-107000000D03*
X110000000Y-107000000D03*
%TD*%
%TO.C,REF\u002A\u002A*%
X83000000Y-57000000D03*
X83000000Y-57000000D03*
%TD*%
D13*
%TO.C,H20*%
X155750000Y-84000000D03*
X156409010Y-82409010D03*
X156409010Y-85590990D03*
X158000000Y-81750000D03*
D14*
X158000000Y-84000000D03*
D13*
X158000000Y-86250000D03*
X159590990Y-82409010D03*
X159590990Y-85590990D03*
X160250000Y-84000000D03*
%TD*%
D12*
%TO.C,REF\u002A\u002A*%
X83000000Y-91000000D03*
X83000000Y-91000000D03*
%TD*%
%TO.C,REF\u002A\u002A*%
X137000000Y-77000000D03*
X137000000Y-77000000D03*
%TD*%
%TO.C,REF\u002A\u002A*%
X83000000Y-99000000D03*
X83000000Y-99000000D03*
%TD*%
%TO.C,REF\u002A\u002A*%
X110000000Y-87000000D03*
X110000000Y-87000000D03*
%TD*%
%TO.C,REF\u002A\u002A*%
X56000000Y-47000000D03*
X56000000Y-47000000D03*
%TD*%
%TO.C,REF\u002A\u002A*%
X56000000Y-61000000D03*
X56000000Y-61000000D03*
%TD*%
%TO.C,REF\u002A\u002A*%
X59000000Y-74000000D03*
%TD*%
%TO.C,REF\u002A\u002A*%
X83000000Y-69000000D03*
X83000000Y-69000000D03*
%TD*%
%TO.C,REF\u002A\u002A*%
X137000000Y-57000000D03*
X137000000Y-57000000D03*
%TD*%
%TO.C,REF\u002A\u002A*%
X56000000Y-69000000D03*
X56000000Y-69000000D03*
%TD*%
%TO.C,REF\u002A\u002A*%
X137000000Y-89000000D03*
X137000000Y-89000000D03*
%TD*%
%TO.C,REF\u002A\u002A*%
X107000000Y-74000000D03*
%TD*%
%TO.C,REF\u002A\u002A*%
X137000000Y-61000000D03*
X137000000Y-61000000D03*
%TD*%
%TO.C,REF\u002A\u002A*%
X110000000Y-77000000D03*
X110000000Y-77000000D03*
%TD*%
D13*
%TO.C,H8*%
X128750000Y-64000000D03*
X129409010Y-62409010D03*
X129409010Y-65590990D03*
X131000000Y-61750000D03*
D14*
X131000000Y-64000000D03*
D13*
X131000000Y-66250000D03*
X132590990Y-62409010D03*
X132590990Y-65590990D03*
X133250000Y-64000000D03*
%TD*%
%TO.C,H15*%
X86750000Y-84000000D03*
X87409010Y-82409010D03*
X87409010Y-85590990D03*
X89000000Y-81750000D03*
D14*
X89000000Y-84000000D03*
D13*
X89000000Y-86250000D03*
X90590990Y-82409010D03*
X90590990Y-85590990D03*
X91250000Y-84000000D03*
%TD*%
D12*
%TO.C,REF\u002A\u002A*%
X110000000Y-43000000D03*
X110000000Y-43000000D03*
%TD*%
%TO.C,REF\u002A\u002A*%
X56000000Y-51000000D03*
X56000000Y-51000000D03*
%TD*%
%TO.C,REF\u002A\u002A*%
X105000000Y-74000000D03*
%TD*%
D13*
%TO.C,H12*%
X47750000Y-84000000D03*
X48409010Y-82409010D03*
X48409010Y-85590990D03*
X50000000Y-81750000D03*
D14*
X50000000Y-84000000D03*
D13*
X50000000Y-86250000D03*
X51590990Y-82409010D03*
X51590990Y-85590990D03*
X52250000Y-84000000D03*
%TD*%
D12*
%TO.C,REF\u002A\u002A*%
X110000000Y-91000000D03*
X110000000Y-91000000D03*
%TD*%
%TO.C,REF\u002A\u002A*%
X80000000Y-74000000D03*
%TD*%
%TO.C,REF\u002A\u002A*%
X83000000Y-59000000D03*
X83000000Y-59000000D03*
%TD*%
D13*
%TO.C,H16*%
X101750000Y-84000000D03*
X102409010Y-82409010D03*
X102409010Y-85590990D03*
X104000000Y-81750000D03*
D14*
X104000000Y-84000000D03*
D13*
X104000000Y-86250000D03*
X105590990Y-82409010D03*
X105590990Y-85590990D03*
X106250000Y-84000000D03*
%TD*%
D12*
%TO.C,REF\u002A\u002A*%
X110000000Y-69000000D03*
X110000000Y-69000000D03*
%TD*%
%TO.C,REF\u002A\u002A*%
X86000000Y-74000000D03*
%TD*%
%TO.C,REF\u002A\u002A*%
X83000000Y-85000000D03*
X83000000Y-85000000D03*
%TD*%
%TO.C,REF\u002A\u002A*%
X56000000Y-57000000D03*
X56000000Y-57000000D03*
%TD*%
%TO.C,REF\u002A\u002A*%
X51000000Y-74000000D03*
%TD*%
%TO.C,REF\u002A\u002A*%
X83000000Y-83000000D03*
X83000000Y-83000000D03*
%TD*%
%TO.C,REF\u002A\u002A*%
X137000000Y-55000000D03*
X137000000Y-55000000D03*
%TD*%
%TO.C,REF\u002A\u002A*%
X83000000Y-107000000D03*
X83000000Y-107000000D03*
%TD*%
D13*
%TO.C,H13*%
X59750000Y-83759010D03*
X60409010Y-82168020D03*
X60409010Y-85350000D03*
X62000000Y-81509010D03*
D14*
X62000000Y-83759010D03*
D13*
X62000000Y-86009010D03*
X63590990Y-82168020D03*
X63590990Y-85350000D03*
X64250000Y-83759010D03*
%TD*%
D15*
%TO.C,J1*%
X42500000Y-70500000D03*
D16*
X45992500Y-70500000D03*
X39007500Y-70500000D03*
%TD*%
D12*
%TO.C,REF\u002A\u002A*%
X137000000Y-69000000D03*
X137000000Y-69000000D03*
%TD*%
%TO.C,REF\u002A\u002A*%
X110000000Y-41000000D03*
X110000000Y-41000000D03*
%TD*%
D15*
%TO.C,J8*%
X69500000Y-77500000D03*
D16*
X66007500Y-77500000D03*
X72992500Y-77500000D03*
%TD*%
D15*
%TO.C,J9*%
X42500000Y-77500000D03*
D16*
X39007500Y-77500000D03*
X45992500Y-77500000D03*
%TD*%
D15*
%TO.C,J6*%
X123500000Y-77500000D03*
D16*
X120007500Y-77500000D03*
X126992500Y-77500000D03*
%TD*%
D12*
%TO.C,REF\u002A\u002A*%
X110000000Y-55000000D03*
X110000000Y-55000000D03*
%TD*%
%TO.C,REF\u002A\u002A*%
X137000000Y-65000000D03*
X137000000Y-65000000D03*
%TD*%
%TO.C,REF\u002A\u002A*%
X137000000Y-99000000D03*
X137000000Y-99000000D03*
%TD*%
%TO.C,REF\u002A\u002A*%
X53000000Y-74000000D03*
%TD*%
%TO.C,REF\u002A\u002A*%
X88000000Y-74000000D03*
%TD*%
%TO.C,REF\u002A\u002A*%
X159000000Y-74000000D03*
%TD*%
%TO.C,REF\u002A\u002A*%
X137000000Y-47000000D03*
X137000000Y-47000000D03*
%TD*%
%TO.C,REF\u002A\u002A*%
X56000000Y-105000000D03*
X56000000Y-105000000D03*
%TD*%
%TO.C,REF\u002A\u002A*%
X142000000Y-74000000D03*
%TD*%
%TO.C,REF\u002A\u002A*%
X56000000Y-59000000D03*
X56000000Y-59000000D03*
%TD*%
D15*
%TO.C,J2*%
X96500000Y-70500000D03*
D16*
X99992500Y-70500000D03*
X93007500Y-70500000D03*
%TD*%
D12*
%TO.C,REF\u002A\u002A*%
X56000000Y-53000000D03*
X56000000Y-53000000D03*
%TD*%
%TO.C,REF\u002A\u002A*%
X137000000Y-51000000D03*
X137000000Y-51000000D03*
%TD*%
%TO.C,REF\u002A\u002A*%
X110000000Y-45000000D03*
X110000000Y-45000000D03*
%TD*%
D13*
%TO.C,H1*%
X32750000Y-64000000D03*
X33409010Y-62409010D03*
X33409010Y-65590990D03*
X35000000Y-61750000D03*
D14*
X35000000Y-64000000D03*
D13*
X35000000Y-66250000D03*
X36590990Y-62409010D03*
X36590990Y-65590990D03*
X37250000Y-64000000D03*
%TD*%
D12*
%TO.C,REF\u002A\u002A*%
X137000000Y-59000000D03*
X137000000Y-59000000D03*
%TD*%
%TO.C,REF\u002A\u002A*%
X137000000Y-67000000D03*
X137000000Y-67000000D03*
%TD*%
D13*
%TO.C,H18*%
X128750000Y-84000000D03*
X129409010Y-82409010D03*
X129409010Y-85590990D03*
X131000000Y-81750000D03*
D14*
X131000000Y-84000000D03*
D13*
X131000000Y-86250000D03*
X132590990Y-82409010D03*
X132590990Y-85590990D03*
X133250000Y-84000000D03*
%TD*%
D12*
%TO.C,REF\u002A\u002A*%
X83000000Y-79000000D03*
X83000000Y-79000000D03*
%TD*%
%TO.C,REF\u002A\u002A*%
X78000000Y-74000000D03*
%TD*%
%TO.C,REF\u002A\u002A*%
X110000000Y-53000000D03*
X110000000Y-53000000D03*
%TD*%
%TO.C,REF\u002A\u002A*%
X110000000Y-93000000D03*
X110000000Y-93000000D03*
%TD*%
%TO.C,REF\u002A\u002A*%
X137000000Y-79000000D03*
X137000000Y-79000000D03*
%TD*%
D13*
%TO.C,H14*%
X74750000Y-84000000D03*
X75409010Y-82409010D03*
X75409010Y-85590990D03*
X77000000Y-81750000D03*
D14*
X77000000Y-84000000D03*
D13*
X77000000Y-86250000D03*
X78590990Y-82409010D03*
X78590990Y-85590990D03*
X79250000Y-84000000D03*
%TD*%
D15*
%TO.C,J3*%
X69500000Y-70500000D03*
D16*
X72992500Y-70500000D03*
X66007500Y-70500000D03*
%TD*%
D13*
%TO.C,H17*%
X113750000Y-84000000D03*
X114409010Y-82409010D03*
X114409010Y-85590990D03*
X116000000Y-81750000D03*
D14*
X116000000Y-84000000D03*
D13*
X116000000Y-86250000D03*
X117590990Y-82409010D03*
X117590990Y-85590990D03*
X118250000Y-84000000D03*
%TD*%
D12*
%TO.C,REF\u002A\u002A*%
X32000000Y-74000000D03*
%TD*%
%TO.C,REF\u002A\u002A*%
X56000000Y-89000000D03*
X56000000Y-89000000D03*
%TD*%
D13*
%TO.C,H4*%
X74750000Y-64000000D03*
X75409010Y-62409010D03*
X75409010Y-65590990D03*
X77000000Y-61750000D03*
D14*
X77000000Y-64000000D03*
D13*
X77000000Y-66250000D03*
X78590990Y-62409010D03*
X78590990Y-65590990D03*
X79250000Y-64000000D03*
%TD*%
D12*
%TO.C,REF\u002A\u002A*%
X83000000Y-87000000D03*
X83000000Y-87000000D03*
%TD*%
%TO.C,REF\u002A\u002A*%
X110000000Y-67000000D03*
X110000000Y-67000000D03*
%TD*%
%TO.C,REF\u002A\u002A*%
X110000000Y-47000000D03*
X110000000Y-47000000D03*
%TD*%
%TO.C,REF\u002A\u002A*%
X137000000Y-93000000D03*
X137000000Y-93000000D03*
%TD*%
%TO.C,REF\u002A\u002A*%
X83000000Y-43000000D03*
X83000000Y-43000000D03*
%TD*%
%TO.C,REF\u002A\u002A*%
X83000000Y-97000000D03*
X83000000Y-97000000D03*
%TD*%
%TO.C,REF\u002A\u002A*%
X83000000Y-81000000D03*
X83000000Y-81000000D03*
%TD*%
%TO.C,REF\u002A\u002A*%
X137000000Y-43000000D03*
X137000000Y-43000000D03*
%TD*%
%TO.C,REF\u002A\u002A*%
X83000000Y-55000000D03*
X83000000Y-55000000D03*
%TD*%
%TO.C,REF\u002A\u002A*%
X83000000Y-41000000D03*
X83000000Y-41000000D03*
%TD*%
%TO.C,REF\u002A\u002A*%
X110000000Y-89000000D03*
X110000000Y-89000000D03*
%TD*%
%TO.C,REF\u002A\u002A*%
X110000000Y-61000000D03*
X110000000Y-61000000D03*
%TD*%
%TO.C,REF\u002A\u002A*%
X56000000Y-97000000D03*
X56000000Y-97000000D03*
%TD*%
D13*
%TO.C,H2*%
X47750000Y-64000000D03*
X48409010Y-62409010D03*
X48409010Y-65590990D03*
X50000000Y-61750000D03*
D14*
X50000000Y-64000000D03*
D13*
X50000000Y-66250000D03*
X51590990Y-62409010D03*
X51590990Y-65590990D03*
X52250000Y-64000000D03*
%TD*%
D12*
%TO.C,REF\u002A\u002A*%
X140000000Y-74000000D03*
%TD*%
%TO.C,REF\u002A\u002A*%
X110000000Y-83000000D03*
X110000000Y-83000000D03*
%TD*%
%TO.C,REF\u002A\u002A*%
X115000000Y-74000000D03*
%TD*%
%TO.C,REF\u002A\u002A*%
X56000000Y-101000000D03*
X56000000Y-101000000D03*
%TD*%
%TO.C,REF\u002A\u002A*%
X110000000Y-95000000D03*
X110000000Y-95000000D03*
%TD*%
D18*
%TO.C,AE10*%
X150500000Y-97000000D03*
X150500000Y-107300000D03*
%TD*%
D12*
%TO.C,REF\u002A\u002A*%
X83000000Y-53000000D03*
X83000000Y-53000000D03*
%TD*%
%TO.C,REF\u002A\u002A*%
X110000000Y-59000000D03*
X110000000Y-59000000D03*
%TD*%
%TO.C,REF\u002A\u002A*%
X137000000Y-71000000D03*
%TD*%
%TO.C,REF\u002A\u002A*%
X83000000Y-65000000D03*
X83000000Y-65000000D03*
%TD*%
%TO.C,REF\u002A\u002A*%
X83000000Y-47000000D03*
X83000000Y-47000000D03*
%TD*%
%TO.C,REF\u002A\u002A*%
X113000000Y-74000000D03*
%TD*%
%TO.C,REF\u002A\u002A*%
X110000000Y-85000000D03*
X110000000Y-85000000D03*
%TD*%
D15*
%TO.C,J5*%
X150500000Y-70500000D03*
D16*
X153992500Y-70500000D03*
X147007500Y-70500000D03*
%TD*%
D13*
%TO.C,H7*%
X113750000Y-64000000D03*
X114409010Y-62409010D03*
X114409010Y-65590990D03*
X116000000Y-61750000D03*
D14*
X116000000Y-64000000D03*
D13*
X116000000Y-66250000D03*
X117590990Y-62409010D03*
X117590990Y-65590990D03*
X118250000Y-64000000D03*
%TD*%
D12*
%TO.C,REF\u002A\u002A*%
X56000000Y-81000000D03*
X56000000Y-81000000D03*
%TD*%
%TO.C,REF\u002A\u002A*%
X83000000Y-71000000D03*
%TD*%
%TO.C,REF\u002A\u002A*%
X110000000Y-57000000D03*
X110000000Y-57000000D03*
%TD*%
%TO.C,REF\u002A\u002A*%
X83000000Y-105000000D03*
X83000000Y-105000000D03*
%TD*%
%TO.C,REF\u002A\u002A*%
X83000000Y-67000000D03*
X83000000Y-67000000D03*
%TD*%
%TO.C,REF\u002A\u002A*%
X56000000Y-83000000D03*
X56000000Y-83000000D03*
%TD*%
%TO.C,REF\u002A\u002A*%
X110000000Y-63000000D03*
X110000000Y-63000000D03*
%TD*%
D13*
%TO.C,H5*%
X86750000Y-64000000D03*
X87409010Y-62409010D03*
X87409010Y-65590990D03*
X89000000Y-61750000D03*
D14*
X89000000Y-64000000D03*
D13*
X89000000Y-66250000D03*
X90590990Y-62409010D03*
X90590990Y-65590990D03*
X91250000Y-64000000D03*
%TD*%
D12*
%TO.C,REF\u002A\u002A*%
X56000000Y-103000000D03*
X56000000Y-103000000D03*
%TD*%
%TO.C,REF\u002A\u002A*%
X56000000Y-95000000D03*
X56000000Y-95000000D03*
%TD*%
%TO.C,REF\u002A\u002A*%
X110000000Y-99000000D03*
X110000000Y-99000000D03*
%TD*%
%TO.C,REF\u002A\u002A*%
X137000000Y-83000000D03*
X137000000Y-83000000D03*
%TD*%
%TO.C,REF\u002A\u002A*%
X83000000Y-61000000D03*
X83000000Y-61000000D03*
%TD*%
%TO.C,REF\u002A\u002A*%
X137000000Y-49000000D03*
X137000000Y-49000000D03*
%TD*%
%TO.C,REF\u002A\u002A*%
X56000000Y-87000000D03*
X56000000Y-87000000D03*
%TD*%
%TO.C,REF\u002A\u002A*%
X134000000Y-74000000D03*
%TD*%
D19*
%TO.C,R2*%
X43000000Y-50000000D03*
X44020000Y-50000000D03*
%TD*%
D12*
%TO.C,REF\u002A\u002A*%
X161000000Y-74000000D03*
%TD*%
%TO.C,REF\u002A\u002A*%
X137000000Y-41000000D03*
X137000000Y-41000000D03*
%TD*%
%TO.C,REF\u002A\u002A*%
X56000000Y-93000000D03*
X56000000Y-93000000D03*
%TD*%
M02*
