%TF.GenerationSoftware,KiCad,Pcbnew,7.0.1*%
%TF.CreationDate,2023-05-09T18:35:19+02:00*%
%TF.ProjectId,antenna-evaluation-board,616e7465-6e6e-4612-9d65-76616c756174,rev?*%
%TF.SameCoordinates,Original*%
%TF.FileFunction,Profile,NP*%
%FSLAX46Y46*%
G04 Gerber Fmt 4.6, Leading zero omitted, Abs format (unit mm)*
G04 Created by KiCad (PCBNEW 7.0.1) date 2023-05-09 18:35:19*
%MOMM*%
%LPD*%
G01*
G04 APERTURE LIST*
%TA.AperFunction,Profile*%
%ADD10C,0.100000*%
%TD*%
G04 APERTURE END LIST*
D10*
X30000000Y-40000000D02*
X30000000Y-108000000D01*
X118000000Y-73000000D02*
G75*
G03*
X118000000Y-75000000I0J-1000000D01*
G01*
X111000000Y-74000000D02*
G75*
G03*
X111000000Y-74000000I-1000000J0D01*
G01*
X75000000Y-75000000D02*
G75*
G03*
X75000000Y-73000000I0J1000000D01*
G01*
X102000000Y-73000000D02*
X91000000Y-73000000D01*
X48000000Y-73000000D02*
X37000000Y-73000000D01*
X162000000Y-109000000D02*
G75*
G03*
X163000000Y-108000000I0J1000000D01*
G01*
X163000000Y-40000000D02*
G75*
G03*
X162000000Y-39000000I-1000000J0D01*
G01*
X162000000Y-39000000D02*
X31000000Y-39000000D01*
X129000000Y-75000000D02*
G75*
G03*
X129000000Y-73000000I0J1000000D01*
G01*
X37000000Y-75000000D02*
X48000000Y-75000000D01*
X37000000Y-73000000D02*
G75*
G03*
X37000000Y-75000000I0J-1000000D01*
G01*
X118000000Y-75000000D02*
X129000000Y-75000000D01*
X31000000Y-39000000D02*
G75*
G03*
X30000000Y-40000000I0J-1000000D01*
G01*
X156000000Y-75000000D02*
G75*
G03*
X156000000Y-73000000I0J1000000D01*
G01*
X102000000Y-75000000D02*
G75*
G03*
X102000000Y-73000000I0J1000000D01*
G01*
X75000000Y-73000000D02*
X64000000Y-73000000D01*
X91000000Y-75000000D02*
X102000000Y-75000000D01*
X129000000Y-73000000D02*
X118000000Y-73000000D01*
X31000000Y-109000000D02*
X162000000Y-109000000D01*
X145000000Y-75000000D02*
X156000000Y-75000000D01*
X64000000Y-73000000D02*
G75*
G03*
X64000000Y-75000000I0J-1000000D01*
G01*
X30000000Y-108000000D02*
G75*
G03*
X31000000Y-109000000I1000000J0D01*
G01*
X91000000Y-73000000D02*
G75*
G03*
X91000000Y-75000000I0J-1000000D01*
G01*
X48000000Y-75000000D02*
G75*
G03*
X48000000Y-73000000I0J1000000D01*
G01*
X138000000Y-74000000D02*
G75*
G03*
X138000000Y-74000000I-1000000J0D01*
G01*
X163000000Y-108000000D02*
X163000000Y-40000000D01*
X64000000Y-75000000D02*
X75000000Y-75000000D01*
X156000000Y-73000000D02*
X145000000Y-73000000D01*
X84000000Y-74000000D02*
G75*
G03*
X84000000Y-74000000I-1000000J0D01*
G01*
X57000000Y-74000000D02*
G75*
G03*
X57000000Y-74000000I-1000000J0D01*
G01*
X145000000Y-73000000D02*
G75*
G03*
X145000000Y-75000000I0J-1000000D01*
G01*
M02*
