M48
; DRILL file {KiCad 7.0.1} date 2023-05-09T18:35:22 CEST
; FORMAT={-:-/ absolute / metric / decimal}
; #@! TF.CreationDate,2023-05-09T18:35:22+02:00
; #@! TF.GenerationSoftware,Kicad,Pcbnew,7.0.1
; #@! TF.FileFunction,NonPlated,1,4,NPTH
FMAT,2
METRIC
; #@! TA.AperFunction,NonPlated,NPTH,ComponentDrill
T1C1.000
%
G90
G05
T1
X32.0Y-74.0
X34.0Y-74.0
X51.0Y-74.0
X53.0Y-74.0
X56.0Y-41.0
X56.0Y-41.0
X56.0Y-43.0
X56.0Y-43.0
X56.0Y-45.0
X56.0Y-45.0
X56.0Y-47.0
X56.0Y-47.0
X56.0Y-49.0
X56.0Y-49.0
X56.0Y-51.0
X56.0Y-51.0
X56.0Y-53.0
X56.0Y-53.0
X56.0Y-55.0
X56.0Y-55.0
X56.0Y-57.0
X56.0Y-57.0
X56.0Y-59.0
X56.0Y-59.0
X56.0Y-61.0
X56.0Y-61.0
X56.0Y-63.0
X56.0Y-63.0
X56.0Y-65.0
X56.0Y-65.0
X56.0Y-67.0
X56.0Y-67.0
X56.0Y-69.0
X56.0Y-69.0
X56.0Y-71.0
X56.0Y-77.0
X56.0Y-77.0
X56.0Y-79.0
X56.0Y-79.0
X56.0Y-81.0
X56.0Y-81.0
X56.0Y-83.0
X56.0Y-83.0
X56.0Y-85.0
X56.0Y-85.0
X56.0Y-87.0
X56.0Y-87.0
X56.0Y-89.0
X56.0Y-89.0
X56.0Y-91.0
X56.0Y-91.0
X56.0Y-93.0
X56.0Y-93.0
X56.0Y-95.0
X56.0Y-95.0
X56.0Y-97.0
X56.0Y-97.0
X56.0Y-99.0
X56.0Y-99.0
X56.0Y-101.0
X56.0Y-101.0
X56.0Y-103.0
X56.0Y-103.0
X56.0Y-105.0
X56.0Y-105.0
X56.0Y-107.0
X56.0Y-107.0
X59.0Y-74.0
X61.0Y-74.0
X78.0Y-74.0
X80.0Y-74.0
X83.0Y-41.0
X83.0Y-41.0
X83.0Y-43.0
X83.0Y-43.0
X83.0Y-45.0
X83.0Y-45.0
X83.0Y-47.0
X83.0Y-47.0
X83.0Y-49.0
X83.0Y-49.0
X83.0Y-51.0
X83.0Y-51.0
X83.0Y-53.0
X83.0Y-53.0
X83.0Y-55.0
X83.0Y-55.0
X83.0Y-57.0
X83.0Y-57.0
X83.0Y-59.0
X83.0Y-59.0
X83.0Y-61.0
X83.0Y-61.0
X83.0Y-63.0
X83.0Y-63.0
X83.0Y-65.0
X83.0Y-65.0
X83.0Y-67.0
X83.0Y-67.0
X83.0Y-69.0
X83.0Y-69.0
X83.0Y-71.0
X83.0Y-77.0
X83.0Y-77.0
X83.0Y-79.0
X83.0Y-79.0
X83.0Y-81.0
X83.0Y-81.0
X83.0Y-83.0
X83.0Y-83.0
X83.0Y-85.0
X83.0Y-85.0
X83.0Y-87.0
X83.0Y-87.0
X83.0Y-89.0
X83.0Y-89.0
X83.0Y-91.0
X83.0Y-91.0
X83.0Y-93.0
X83.0Y-93.0
X83.0Y-95.0
X83.0Y-95.0
X83.0Y-97.0
X83.0Y-97.0
X83.0Y-99.0
X83.0Y-99.0
X83.0Y-101.0
X83.0Y-101.0
X83.0Y-103.0
X83.0Y-103.0
X83.0Y-105.0
X83.0Y-105.0
X83.0Y-107.0
X83.0Y-107.0
X86.0Y-74.0
X88.0Y-74.0
X105.0Y-74.0
X107.0Y-74.0
X110.0Y-41.0
X110.0Y-41.0
X110.0Y-43.0
X110.0Y-43.0
X110.0Y-45.0
X110.0Y-45.0
X110.0Y-47.0
X110.0Y-47.0
X110.0Y-49.0
X110.0Y-49.0
X110.0Y-51.0
X110.0Y-51.0
X110.0Y-53.0
X110.0Y-53.0
X110.0Y-55.0
X110.0Y-55.0
X110.0Y-57.0
X110.0Y-57.0
X110.0Y-59.0
X110.0Y-59.0
X110.0Y-61.0
X110.0Y-61.0
X110.0Y-63.0
X110.0Y-63.0
X110.0Y-65.0
X110.0Y-65.0
X110.0Y-67.0
X110.0Y-67.0
X110.0Y-69.0
X110.0Y-69.0
X110.0Y-71.0
X110.0Y-77.0
X110.0Y-77.0
X110.0Y-79.0
X110.0Y-79.0
X110.0Y-81.0
X110.0Y-81.0
X110.0Y-83.0
X110.0Y-83.0
X110.0Y-85.0
X110.0Y-85.0
X110.0Y-87.0
X110.0Y-87.0
X110.0Y-89.0
X110.0Y-89.0
X110.0Y-91.0
X110.0Y-91.0
X110.0Y-93.0
X110.0Y-93.0
X110.0Y-95.0
X110.0Y-95.0
X110.0Y-97.0
X110.0Y-97.0
X110.0Y-99.0
X110.0Y-99.0
X110.0Y-101.0
X110.0Y-101.0
X110.0Y-103.0
X110.0Y-103.0
X110.0Y-105.0
X110.0Y-105.0
X110.0Y-107.0
X110.0Y-107.0
X113.0Y-74.0
X115.0Y-74.0
X132.0Y-74.0
X134.0Y-74.0
X137.0Y-41.0
X137.0Y-41.0
X137.0Y-43.0
X137.0Y-43.0
X137.0Y-45.0
X137.0Y-45.0
X137.0Y-47.0
X137.0Y-47.0
X137.0Y-49.0
X137.0Y-49.0
X137.0Y-51.0
X137.0Y-51.0
X137.0Y-53.0
X137.0Y-53.0
X137.0Y-55.0
X137.0Y-55.0
X137.0Y-57.0
X137.0Y-57.0
X137.0Y-59.0
X137.0Y-59.0
X137.0Y-61.0
X137.0Y-61.0
X137.0Y-63.0
X137.0Y-63.0
X137.0Y-65.0
X137.0Y-65.0
X137.0Y-67.0
X137.0Y-67.0
X137.0Y-69.0
X137.0Y-69.0
X137.0Y-71.0
X137.0Y-77.0
X137.0Y-77.0
X137.0Y-79.0
X137.0Y-79.0
X137.0Y-81.0
X137.0Y-81.0
X137.0Y-83.0
X137.0Y-83.0
X137.0Y-85.0
X137.0Y-85.0
X137.0Y-87.0
X137.0Y-87.0
X137.0Y-89.0
X137.0Y-89.0
X137.0Y-91.0
X137.0Y-91.0
X137.0Y-93.0
X137.0Y-93.0
X137.0Y-95.0
X137.0Y-95.0
X137.0Y-97.0
X137.0Y-97.0
X137.0Y-99.0
X137.0Y-99.0
X137.0Y-101.0
X137.0Y-101.0
X137.0Y-103.0
X137.0Y-103.0
X137.0Y-105.0
X137.0Y-105.0
X137.0Y-107.0
X137.0Y-107.0
X140.0Y-74.0
X142.0Y-74.0
X159.0Y-74.0
X161.0Y-74.0
T0
M30
