M48
; DRILL file {KiCad 7.0.1} date 2023-05-05T11:57:28 CEST
; FORMAT={-:-/ absolute / metric / decimal}
; #@! TF.CreationDate,2023-05-05T11:57:28+02:00
; #@! TF.GenerationSoftware,Kicad,Pcbnew,7.0.1
; #@! TF.FileFunction,Plated,1,4,PTH
FMAT,2
METRIC
; #@! TA.AperFunction,Plated,PTH,ViaDrill
T1C0.254
; #@! TA.AperFunction,Plated,PTH,ComponentDrill
T2C0.300
; #@! TA.AperFunction,Plated,PTH,ComponentDrill
T3C0.460
; #@! TA.AperFunction,Plated,PTH,ComponentDrill
T4C0.500
; #@! TA.AperFunction,Plated,PTH,ComponentDrill
T5C3.000
%
G90
G05
T1
X31.0Y-40.0
X31.0Y-41.0
X31.0Y-42.0
X31.0Y-43.0
X31.0Y-44.0
X31.0Y-45.0
X31.0Y-46.0
X31.0Y-47.0
X31.0Y-48.0
X31.0Y-49.0
X31.0Y-50.0
X31.0Y-51.0
X31.0Y-52.0
X31.0Y-53.0
X31.0Y-54.0
X31.0Y-55.0
X31.0Y-56.0
X31.0Y-57.0
X31.0Y-58.0
X31.0Y-59.0
X31.0Y-60.0
X31.0Y-61.0
X31.0Y-62.0
X31.0Y-63.0
X31.0Y-64.0
X31.0Y-65.0
X31.0Y-66.0
X31.0Y-67.0
X31.0Y-68.0
X31.0Y-69.0
X31.0Y-70.0
X31.0Y-71.0
X31.0Y-72.0
X31.0Y-75.0
X31.0Y-76.0
X31.0Y-77.0
X31.0Y-78.0
X31.0Y-79.0
X31.0Y-80.0
X31.0Y-81.0
X31.0Y-82.0
X31.0Y-83.0
X31.0Y-84.0
X31.0Y-85.0
X31.0Y-86.0
X31.0Y-87.0
X31.0Y-88.0
X31.0Y-89.0
X31.0Y-90.0
X31.0Y-91.0
X31.0Y-92.0
X31.0Y-93.0
X31.0Y-94.0
X31.0Y-95.0
X31.0Y-96.0
X31.0Y-97.0
X32.0Y-40.0
X32.0Y-72.0
X32.0Y-75.0
X32.0Y-97.0
X33.0Y-40.0
X33.0Y-72.0
X33.0Y-75.0
X33.0Y-97.0
X34.0Y-40.0
X34.0Y-72.0
X34.0Y-75.0
X34.0Y-97.0
X35.0Y-40.0
X35.0Y-72.0
X35.0Y-75.0
X35.0Y-97.0
X36.0Y-40.0
X36.0Y-72.0
X36.0Y-75.0
X36.0Y-97.0
X37.0Y-40.0
X37.0Y-68.0
X37.0Y-69.0
X37.0Y-70.0
X37.0Y-71.0
X37.0Y-72.0
X37.0Y-75.0
X37.0Y-76.0
X37.0Y-77.0
X37.0Y-78.0
X37.0Y-79.0
X37.0Y-97.0
X38.0Y-40.0
X38.0Y-96.0
X39.0Y-40.0
X39.0Y-96.0
X40.0Y-40.0
X40.0Y-97.0
X41.0Y-40.0
X41.0Y-97.0
X41.0Y-98.0
X41.0Y-99.0
X41.0Y-100.0
X41.0Y-102.0
X41.0Y-103.0
X41.0Y-104.0
X41.0Y-105.0
X41.0Y-106.0
X41.0Y-107.0
X42.0Y-40.0
X42.0Y-107.0
X43.0Y-40.0
X43.0Y-107.0
X44.0Y-40.0
X44.0Y-107.0
X45.0Y-40.0
X45.0Y-107.0
X46.0Y-40.0
X46.0Y-107.0
X47.0Y-40.0
X47.0Y-107.0
X48.0Y-40.0
X48.0Y-68.0
X48.0Y-69.0
X48.0Y-70.0
X48.0Y-71.0
X48.0Y-72.0
X48.0Y-75.0
X48.0Y-76.0
X48.0Y-77.0
X48.0Y-78.0
X48.0Y-79.0
X48.0Y-107.0
X49.0Y-40.0
X49.0Y-72.0
X49.0Y-75.0
X49.0Y-107.0
X50.0Y-40.0
X50.0Y-72.0
X50.0Y-75.0
X50.0Y-107.0
X51.0Y-40.0
X51.0Y-72.0
X51.0Y-75.0
X51.0Y-107.0
X52.0Y-40.0
X52.0Y-72.0
X52.0Y-75.0
X52.0Y-107.0
X53.0Y-40.0
X53.0Y-72.0
X53.0Y-75.0
X53.0Y-107.0
X54.0Y-40.0
X54.0Y-41.0
X54.0Y-42.0
X54.0Y-43.0
X54.0Y-44.0
X54.0Y-45.0
X54.0Y-46.0
X54.0Y-47.0
X54.0Y-48.0
X54.0Y-49.0
X54.0Y-50.0
X54.0Y-51.0
X54.0Y-52.0
X54.0Y-53.0
X54.0Y-54.0
X54.0Y-55.0
X54.0Y-56.0
X54.0Y-57.0
X54.0Y-58.0
X54.0Y-59.0
X54.0Y-60.0
X54.0Y-61.0
X54.0Y-62.0
X54.0Y-63.0
X54.0Y-64.0
X54.0Y-65.0
X54.0Y-66.0
X54.0Y-67.0
X54.0Y-68.0
X54.0Y-69.0
X54.0Y-70.0
X54.0Y-71.0
X54.0Y-72.0
X54.0Y-75.0
X54.0Y-76.0
X54.0Y-77.0
X54.0Y-78.0
X54.0Y-79.0
X54.0Y-80.0
X54.0Y-81.0
X54.0Y-82.0
X54.0Y-83.0
X54.0Y-84.0
X54.0Y-85.0
X54.0Y-86.0
X54.0Y-87.0
X54.0Y-88.0
X54.0Y-89.0
X54.0Y-90.0
X54.0Y-91.0
X54.0Y-92.0
X54.0Y-93.0
X54.0Y-94.0
X54.0Y-95.0
X54.0Y-96.0
X54.0Y-97.0
X54.0Y-98.0
X54.0Y-99.0
X54.0Y-100.0
X54.0Y-101.0
X54.0Y-102.0
X54.0Y-103.0
X54.0Y-104.0
X54.0Y-105.0
X54.0Y-106.0
X54.0Y-107.0
X57.0Y-51.0
X57.0Y-52.0
X57.0Y-53.0
X57.0Y-54.0
X57.0Y-55.0
X57.0Y-56.0
X57.0Y-57.0
X57.0Y-58.0
X57.0Y-59.0
X57.0Y-60.0
X57.0Y-61.0
X57.0Y-62.0
X57.0Y-63.0
X57.0Y-64.0
X57.0Y-65.0
X57.0Y-66.0
X57.0Y-67.0
X57.0Y-68.0
X57.0Y-69.0
X57.0Y-70.0
X57.0Y-71.0
X57.0Y-72.0
X57.0Y-75.0
X57.0Y-76.0
X57.0Y-77.0
X57.0Y-78.0
X57.0Y-79.0
X57.0Y-80.0
X57.0Y-81.0
X57.0Y-82.0
X57.0Y-83.0
X57.0Y-84.0
X57.0Y-85.0
X57.0Y-86.0
X57.0Y-87.0
X57.0Y-88.0
X57.0Y-89.0
X57.0Y-90.0
X57.0Y-91.0
X57.0Y-92.0
X57.0Y-93.0
X57.0Y-94.0
X57.0Y-95.0
X57.0Y-96.0
X57.0Y-97.0
X58.0Y-51.0
X58.0Y-72.0
X58.0Y-75.0
X58.0Y-97.0
X59.0Y-51.0
X59.0Y-72.0
X59.0Y-75.0
X59.0Y-97.0
X60.0Y-51.0
X60.0Y-72.0
X60.0Y-75.0
X60.0Y-97.0
X61.0Y-51.0
X61.0Y-72.0
X61.0Y-75.0
X61.0Y-97.0
X62.0Y-51.0
X62.0Y-72.0
X62.0Y-75.0
X62.0Y-97.0
X63.0Y-51.0
X63.0Y-68.0
X63.0Y-69.0
X63.0Y-70.0
X63.0Y-71.0
X63.0Y-72.0
X63.0Y-75.0
X63.0Y-76.0
X63.0Y-77.0
X63.0Y-78.0
X63.0Y-79.0
X63.0Y-97.0
X64.0Y-51.0
X64.0Y-96.0
X65.0Y-51.0
X65.0Y-96.0
X66.0Y-51.0
X66.0Y-97.0
X67.0Y-51.0
X67.0Y-97.0
X67.0Y-98.0
X67.0Y-99.0
X67.0Y-100.0
X67.0Y-102.0
X67.0Y-103.0
X67.0Y-104.0
X67.0Y-105.0
X67.0Y-106.0
X67.0Y-107.0
X68.0Y-107.0
X69.0Y-107.0
X70.0Y-51.0
X70.0Y-107.0
X71.0Y-51.0
X71.0Y-107.0
X72.0Y-51.0
X72.0Y-107.0
X73.0Y-51.0
X73.0Y-107.0
X74.0Y-51.0
X74.0Y-68.0
X74.0Y-69.0
X74.0Y-70.0
X74.0Y-71.0
X74.0Y-72.0
X74.0Y-75.0
X74.0Y-76.0
X74.0Y-77.0
X74.0Y-78.0
X74.0Y-79.0
X74.0Y-107.0
X75.0Y-51.0
X75.0Y-72.0
X75.0Y-75.0
X75.0Y-107.0
X76.0Y-51.0
X76.0Y-72.0
X76.0Y-75.0
X76.0Y-107.0
X77.0Y-51.0
X77.0Y-72.0
X77.0Y-75.0
X77.0Y-107.0
X78.0Y-51.0
X78.0Y-72.0
X78.0Y-75.0
X78.0Y-107.0
X79.0Y-51.0
X79.0Y-72.0
X79.0Y-75.0
X79.0Y-107.0
X80.0Y-51.0
X80.0Y-52.0
X80.0Y-53.0
X80.0Y-54.0
X80.0Y-55.0
X80.0Y-56.0
X80.0Y-57.0
X80.0Y-58.0
X80.0Y-59.0
X80.0Y-60.0
X80.0Y-61.0
X80.0Y-62.0
X80.0Y-63.0
X80.0Y-64.0
X80.0Y-65.0
X80.0Y-66.0
X80.0Y-67.0
X80.0Y-68.0
X80.0Y-69.0
X80.0Y-70.0
X80.0Y-71.0
X80.0Y-72.0
X80.0Y-75.0
X80.0Y-76.0
X80.0Y-77.0
X80.0Y-78.0
X80.0Y-79.0
X80.0Y-80.0
X80.0Y-81.0
X80.0Y-82.0
X80.0Y-83.0
X80.0Y-84.0
X80.0Y-85.0
X80.0Y-86.0
X80.0Y-87.0
X80.0Y-88.0
X80.0Y-89.0
X80.0Y-90.0
X80.0Y-91.0
X80.0Y-92.0
X80.0Y-93.0
X80.0Y-94.0
X80.0Y-95.0
X80.0Y-96.0
X80.0Y-97.0
X80.0Y-98.0
X80.0Y-99.0
X80.0Y-100.0
X80.0Y-101.0
X80.0Y-102.0
X80.0Y-103.0
X80.0Y-104.0
X80.0Y-105.0
X80.0Y-106.0
X80.0Y-107.0
X83.0Y-51.0
X83.0Y-52.0
X83.0Y-53.0
X83.0Y-54.0
X83.0Y-55.0
X83.0Y-56.0
X83.0Y-57.0
X83.0Y-58.0
X83.0Y-59.0
X83.0Y-60.0
X83.0Y-61.0
X83.0Y-62.0
X83.0Y-63.0
X83.0Y-64.0
X83.0Y-65.0
X83.0Y-66.0
X83.0Y-67.0
X83.0Y-68.0
X83.0Y-69.0
X83.0Y-70.0
X83.0Y-71.0
X83.0Y-72.0
X83.0Y-75.0
X83.0Y-76.0
X83.0Y-77.0
X83.0Y-78.0
X83.0Y-79.0
X83.0Y-80.0
X83.0Y-81.0
X83.0Y-82.0
X83.0Y-83.0
X83.0Y-84.0
X83.0Y-85.0
X83.0Y-86.0
X83.0Y-87.0
X83.0Y-88.0
X83.0Y-89.0
X83.0Y-90.0
X83.0Y-91.0
X83.0Y-92.0
X83.0Y-93.0
X83.0Y-94.0
X83.0Y-95.0
X83.0Y-96.0
X83.0Y-97.0
X83.0Y-98.0
X83.0Y-99.0
X83.0Y-100.0
X83.0Y-101.0
X83.0Y-102.0
X83.0Y-103.0
X83.0Y-104.0
X83.0Y-105.0
X83.0Y-106.0
X83.0Y-107.0
X84.0Y-51.0
X84.0Y-72.0
X84.0Y-75.0
X84.0Y-107.0
X85.0Y-51.0
X85.0Y-72.0
X85.0Y-75.0
X85.0Y-107.0
X86.0Y-51.0
X86.0Y-72.0
X86.0Y-75.0
X86.0Y-107.0
X87.0Y-51.0
X87.0Y-72.0
X87.0Y-75.0
X87.0Y-107.0
X88.0Y-51.0
X88.0Y-72.0
X88.0Y-75.0
X88.0Y-107.0
X89.0Y-51.0
X89.0Y-68.0
X89.0Y-69.0
X89.0Y-70.0
X89.0Y-71.0
X89.0Y-72.0
X89.0Y-75.0
X89.0Y-76.0
X89.0Y-77.0
X89.0Y-78.0
X89.0Y-79.0
X89.0Y-107.0
X90.0Y-51.0
X90.0Y-107.0
X91.0Y-51.0
X91.0Y-107.0
X92.0Y-51.0
X92.0Y-107.0
X93.0Y-51.0
X93.0Y-107.0
X94.0Y-51.0
X94.0Y-107.0
X95.0Y-51.0
X95.0Y-99.0
X95.0Y-100.0
X95.0Y-107.0
X96.0Y-51.0
X96.0Y-97.0
X96.0Y-98.0
X96.0Y-101.0
X96.0Y-102.0
X96.0Y-103.0
X96.0Y-104.0
X96.0Y-105.0
X96.0Y-106.0
X96.0Y-107.0
X97.0Y-51.0
X97.0Y-97.0
X98.0Y-51.0
X98.0Y-97.0
X99.0Y-51.0
X99.0Y-97.0
X100.0Y-51.0
X100.0Y-68.0
X100.0Y-69.0
X100.0Y-70.0
X100.0Y-71.0
X100.0Y-72.0
X100.0Y-75.0
X100.0Y-76.0
X100.0Y-77.0
X100.0Y-78.0
X100.0Y-79.0
X101.0Y-51.0
X101.0Y-72.0
X101.0Y-75.0
X101.0Y-97.0
X102.0Y-72.0
X102.0Y-75.0
X102.0Y-97.0
X103.0Y-51.0
X103.0Y-72.0
X103.0Y-75.0
X103.0Y-97.0
X104.0Y-51.0
X104.0Y-72.0
X104.0Y-75.0
X104.0Y-97.0
X105.0Y-51.0
X105.0Y-72.0
X105.0Y-75.0
X105.0Y-97.0
X106.0Y-51.0
X106.0Y-52.0
X106.0Y-53.0
X106.0Y-54.0
X106.0Y-55.0
X106.0Y-56.0
X106.0Y-57.0
X106.0Y-58.0
X106.0Y-59.0
X106.0Y-60.0
X106.0Y-61.0
X106.0Y-62.0
X106.0Y-63.0
X106.0Y-64.0
X106.0Y-65.0
X106.0Y-66.0
X106.0Y-67.0
X106.0Y-68.0
X106.0Y-69.0
X106.0Y-70.0
X106.0Y-71.0
X106.0Y-72.0
X106.0Y-75.0
X106.0Y-76.0
X106.0Y-77.0
X106.0Y-78.0
X106.0Y-79.0
X106.0Y-80.0
X106.0Y-81.0
X106.0Y-82.0
X106.0Y-83.0
X106.0Y-84.0
X106.0Y-85.0
X106.0Y-86.0
X106.0Y-87.0
X106.0Y-88.0
X106.0Y-89.0
X106.0Y-90.0
X106.0Y-91.0
X106.0Y-92.0
X106.0Y-93.0
X106.0Y-94.0
X106.0Y-95.0
X106.0Y-96.0
X106.0Y-97.0
X109.0Y-51.0
X109.0Y-52.0
X109.0Y-53.0
X109.0Y-54.0
X109.0Y-55.0
X109.0Y-56.0
X109.0Y-57.0
X109.0Y-58.0
X109.0Y-59.0
X109.0Y-60.0
X109.0Y-61.0
X109.0Y-62.0
X109.0Y-63.0
X109.0Y-64.0
X109.0Y-65.0
X109.0Y-66.0
X109.0Y-67.0
X109.0Y-68.0
X109.0Y-69.0
X109.0Y-70.0
X109.0Y-71.0
X109.0Y-72.0
X109.0Y-75.0
X109.0Y-76.0
X109.0Y-77.0
X109.0Y-78.0
X109.0Y-79.0
X109.0Y-80.0
X109.0Y-81.0
X109.0Y-82.0
X109.0Y-83.0
X109.0Y-84.0
X109.0Y-85.0
X109.0Y-86.0
X109.0Y-87.0
X109.0Y-88.0
X109.0Y-89.0
X109.0Y-90.0
X109.0Y-91.0
X109.0Y-92.0
X109.0Y-93.0
X109.0Y-94.0
X109.0Y-95.0
X109.0Y-96.0
X109.0Y-97.0
X109.0Y-98.0
X109.0Y-99.0
X109.0Y-100.0
X109.0Y-101.0
X109.0Y-102.0
X109.0Y-103.0
X109.0Y-104.0
X109.0Y-105.0
X109.0Y-106.0
X109.0Y-107.0
X110.0Y-51.0
X110.0Y-72.0
X110.0Y-75.0
X110.0Y-107.0
X111.0Y-51.0
X111.0Y-72.0
X111.0Y-75.0
X111.0Y-107.0
X112.0Y-51.0
X112.0Y-72.0
X112.0Y-75.0
X112.0Y-107.0
X113.0Y-51.0
X113.0Y-72.0
X113.0Y-75.0
X113.0Y-107.0
X114.0Y-51.0
X114.0Y-72.0
X114.0Y-75.0
X114.0Y-107.0
X115.0Y-51.0
X115.0Y-68.0
X115.0Y-69.0
X115.0Y-70.0
X115.0Y-71.0
X115.0Y-72.0
X115.0Y-75.0
X115.0Y-76.0
X115.0Y-77.0
X115.0Y-78.0
X115.0Y-79.0
X115.0Y-107.0
X116.0Y-51.0
X116.0Y-107.0
X117.0Y-51.0
X117.0Y-107.0
X118.0Y-51.0
X118.0Y-107.0
X119.0Y-51.0
X119.0Y-107.0
X120.0Y-51.0
X120.0Y-107.0
X121.0Y-51.0
X121.0Y-99.0
X121.0Y-100.0
X121.0Y-107.0
X122.0Y-51.0
X122.0Y-97.0
X122.0Y-97.75
X122.0Y-101.0
X122.0Y-102.0
X122.0Y-103.0
X122.0Y-104.0
X122.0Y-105.0
X122.0Y-106.0
X122.0Y-107.0
X123.0Y-51.0
X123.0Y-97.0
X124.0Y-97.0
X125.0Y-51.0
X125.0Y-97.0
X126.0Y-51.0
X126.0Y-68.0
X126.0Y-69.0
X126.0Y-70.0
X126.0Y-71.0
X126.0Y-72.0
X126.0Y-75.0
X126.0Y-76.0
X126.0Y-77.0
X126.0Y-78.0
X126.0Y-79.0
X127.0Y-51.0
X127.0Y-72.0
X127.0Y-75.0
X127.0Y-97.0
X128.0Y-51.0
X128.0Y-72.0
X128.0Y-75.0
X128.0Y-97.0
X129.0Y-51.0
X129.0Y-72.0
X129.0Y-75.0
X129.0Y-97.0
X130.0Y-51.0
X130.0Y-72.0
X130.0Y-75.0
X130.0Y-97.0
X131.0Y-51.0
X131.0Y-72.0
X131.0Y-75.0
X131.0Y-97.0
X132.0Y-51.0
X132.0Y-52.0
X132.0Y-53.0
X132.0Y-54.0
X132.0Y-55.0
X132.0Y-56.0
X132.0Y-57.0
X132.0Y-58.0
X132.0Y-59.0
X132.0Y-60.0
X132.0Y-61.0
X132.0Y-62.0
X132.0Y-63.0
X132.0Y-64.0
X132.0Y-65.0
X132.0Y-66.0
X132.0Y-67.0
X132.0Y-68.0
X132.0Y-69.0
X132.0Y-70.0
X132.0Y-71.0
X132.0Y-72.0
X132.0Y-75.0
X132.0Y-76.0
X132.0Y-77.0
X132.0Y-78.0
X132.0Y-79.0
X132.0Y-80.0
X132.0Y-81.0
X132.0Y-82.0
X132.0Y-83.0
X132.0Y-84.0
X132.0Y-85.0
X132.0Y-86.0
X132.0Y-87.0
X132.0Y-88.0
X132.0Y-89.0
X132.0Y-90.0
X132.0Y-91.0
X132.0Y-92.0
X132.0Y-93.0
X132.0Y-94.0
X132.0Y-95.0
X132.0Y-96.0
X132.0Y-97.0
X135.0Y-46.0
X135.0Y-47.0
X135.0Y-48.0
X135.0Y-49.0
X135.0Y-50.0
X135.0Y-51.0
X135.0Y-52.0
X135.0Y-53.0
X135.0Y-54.0
X135.0Y-55.0
X135.0Y-56.0
X135.0Y-57.0
X135.0Y-58.0
X135.0Y-59.0
X135.0Y-60.0
X135.0Y-61.0
X135.0Y-62.0
X135.0Y-63.0
X135.0Y-64.0
X135.0Y-65.0
X135.0Y-66.0
X135.0Y-67.0
X135.0Y-68.0
X135.0Y-69.0
X135.0Y-70.0
X135.0Y-71.0
X135.0Y-72.0
X135.0Y-75.0
X135.0Y-76.0
X135.0Y-77.0
X135.0Y-78.0
X135.0Y-79.0
X135.0Y-80.0
X135.0Y-81.0
X135.0Y-82.0
X135.0Y-83.0
X135.0Y-84.0
X135.0Y-85.0
X135.0Y-86.0
X135.0Y-87.0
X135.0Y-88.0
X135.0Y-89.0
X135.0Y-90.0
X135.0Y-91.0
X135.0Y-92.0
X135.0Y-93.0
X135.0Y-94.0
X135.0Y-95.0
X136.0Y-46.0
X136.0Y-72.0
X136.0Y-75.0
X136.0Y-95.0
X137.0Y-46.0
X137.0Y-72.0
X137.0Y-75.0
X137.0Y-95.0
X138.0Y-46.0
X138.0Y-72.0
X138.0Y-75.0
X138.0Y-95.0
X139.0Y-46.0
X139.0Y-72.0
X139.0Y-75.0
X139.0Y-95.0
X140.0Y-46.0
X140.0Y-72.0
X140.0Y-75.0
X140.0Y-95.0
X141.0Y-46.0
X141.0Y-68.0
X141.0Y-69.0
X141.0Y-70.0
X141.0Y-71.0
X141.0Y-72.0
X141.0Y-75.0
X141.0Y-76.0
X141.0Y-77.0
X141.0Y-78.0
X141.0Y-79.0
X141.0Y-95.0
X142.0Y-46.0
X142.0Y-47.0
X142.0Y-48.0
X142.0Y-49.0
X142.0Y-50.0
X142.0Y-51.0
X142.0Y-95.0
X143.0Y-51.0
X143.0Y-95.0
X144.0Y-51.0
X144.0Y-95.0
X145.0Y-51.0
X146.0Y-51.0
X147.0Y-51.0
X148.0Y-51.0
X149.0Y-51.0
X149.0Y-95.0
X150.0Y-51.0
X150.0Y-95.0
X151.0Y-51.0
X151.0Y-95.0
X152.0Y-51.0
X152.0Y-68.0
X152.0Y-69.0
X152.0Y-70.0
X152.0Y-71.0
X152.0Y-72.0
X152.0Y-75.0
X152.0Y-76.0
X152.0Y-77.0
X152.0Y-78.0
X152.0Y-79.0
X152.0Y-95.0
X153.0Y-51.0
X153.0Y-72.0
X153.0Y-75.0
X153.0Y-95.0
X154.0Y-51.0
X154.0Y-72.0
X154.0Y-75.0
X154.0Y-95.0
X155.0Y-72.0
X155.0Y-75.0
X155.0Y-95.0
X156.0Y-51.0
X156.0Y-72.0
X156.0Y-75.0
X156.0Y-95.0
X157.0Y-51.0
X157.0Y-72.0
X157.0Y-75.0
X157.0Y-95.0
X158.0Y-51.0
X158.0Y-52.0
X158.0Y-53.0
X158.0Y-54.0
X158.0Y-55.0
X158.0Y-56.0
X158.0Y-57.0
X158.0Y-58.0
X158.0Y-59.0
X158.0Y-60.0
X158.0Y-61.0
X158.0Y-62.0
X158.0Y-63.0
X158.0Y-64.0
X158.0Y-65.0
X158.0Y-66.0
X158.0Y-67.0
X158.0Y-68.0
X158.0Y-69.0
X158.0Y-70.0
X158.0Y-71.0
X158.0Y-72.0
X158.0Y-75.0
X158.0Y-76.0
X158.0Y-77.0
X158.0Y-78.0
X158.0Y-79.0
X158.0Y-80.0
X158.0Y-81.0
X158.0Y-82.0
X158.0Y-83.0
X158.0Y-84.0
X158.0Y-85.0
X158.0Y-86.0
X158.0Y-87.0
X158.0Y-88.0
X158.0Y-89.0
X158.0Y-90.0
X158.0Y-91.0
X158.0Y-92.0
X158.0Y-93.0
X158.0Y-94.0
X158.0Y-95.0
T2
X38.75Y-98.0
X64.25Y-98.0
X64.75Y-107.0
X70.6Y-50.0
X97.0Y-99.25
X106.0Y-50.0
X123.0Y-99.75
X130.0Y-50.0
X132.0Y-99.25
X157.75Y-50.0
T3
X39.008Y-67.555
X39.008Y-79.485
X45.992Y-67.555
X45.992Y-79.485
X65.007Y-67.555
X65.007Y-79.485
X71.992Y-67.555
X71.992Y-79.485
X91.007Y-67.555
X91.007Y-79.485
X97.992Y-67.555
X97.992Y-79.485
X117.007Y-67.555
X117.007Y-79.485
X123.992Y-67.555
X123.992Y-79.485
X143.007Y-67.555
X143.007Y-79.485
X149.993Y-67.555
X149.993Y-79.485
T4
X32.75Y-64.0
X32.75Y-83.0
X33.409Y-62.409
X33.409Y-65.591
X33.409Y-81.409
X33.409Y-84.591
X35.0Y-61.75
X35.0Y-66.25
X35.0Y-80.75
X35.0Y-85.25
X36.591Y-62.409
X36.591Y-65.591
X36.591Y-81.409
X36.591Y-84.591
X37.25Y-64.0
X37.25Y-83.0
X47.75Y-64.0
X47.75Y-83.0
X48.409Y-62.409
X48.409Y-65.591
X48.409Y-81.409
X48.409Y-84.591
X50.0Y-61.75
X50.0Y-66.25
X50.0Y-80.75
X50.0Y-85.25
X51.591Y-62.409
X51.591Y-65.591
X51.591Y-81.409
X51.591Y-84.591
X52.25Y-64.0
X52.25Y-83.0
X58.75Y-64.0
X58.75Y-82.759
X59.409Y-62.409
X59.409Y-65.591
X59.409Y-81.168
X59.409Y-84.35
X61.0Y-61.75
X61.0Y-66.25
X61.0Y-80.509
X61.0Y-85.009
X62.591Y-62.409
X62.591Y-65.591
X62.591Y-81.168
X62.591Y-84.35
X63.25Y-64.0
X63.25Y-82.759
X73.75Y-64.0
X73.75Y-83.0
X74.409Y-62.409
X74.409Y-65.591
X74.409Y-81.409
X74.409Y-84.591
X76.0Y-61.75
X76.0Y-66.25
X76.0Y-80.75
X76.0Y-85.25
X77.591Y-62.409
X77.591Y-65.591
X77.591Y-81.409
X77.591Y-84.591
X78.25Y-64.0
X78.25Y-83.0
X84.75Y-64.0
X84.75Y-83.0
X85.409Y-62.409
X85.409Y-65.591
X85.409Y-81.409
X85.409Y-84.591
X87.0Y-61.75
X87.0Y-66.25
X87.0Y-80.75
X87.0Y-85.25
X88.591Y-62.409
X88.591Y-65.591
X88.591Y-81.409
X88.591Y-84.591
X89.25Y-64.0
X89.25Y-83.0
X99.75Y-64.0
X99.75Y-83.0
X100.409Y-62.409
X100.409Y-65.591
X100.409Y-81.409
X100.409Y-84.591
X102.0Y-61.75
X102.0Y-66.25
X102.0Y-80.75
X102.0Y-85.25
X103.591Y-62.409
X103.591Y-65.591
X103.591Y-81.409
X103.591Y-84.591
X104.25Y-64.0
X104.25Y-83.0
X110.75Y-64.0
X110.75Y-83.0
X111.409Y-62.409
X111.409Y-65.591
X111.409Y-81.409
X111.409Y-84.591
X113.0Y-61.75
X113.0Y-66.25
X113.0Y-80.75
X113.0Y-85.25
X114.591Y-62.409
X114.591Y-65.591
X114.591Y-81.409
X114.591Y-84.591
X115.25Y-64.0
X115.25Y-83.0
X125.75Y-64.0
X125.75Y-83.0
X126.409Y-62.409
X126.409Y-65.591
X126.409Y-81.409
X126.409Y-84.591
X128.0Y-61.75
X128.0Y-66.25
X128.0Y-80.75
X128.0Y-85.25
X129.591Y-62.409
X129.591Y-65.591
X129.591Y-81.409
X129.591Y-84.591
X130.25Y-64.0
X130.25Y-83.0
X136.75Y-64.0
X136.75Y-83.0
X137.409Y-62.409
X137.409Y-65.591
X137.409Y-81.409
X137.409Y-84.591
X139.0Y-61.75
X139.0Y-66.25
X139.0Y-80.75
X139.0Y-85.25
X140.591Y-62.409
X140.591Y-65.591
X140.591Y-81.409
X140.591Y-84.591
X141.25Y-64.0
X141.25Y-83.0
X151.75Y-64.0
X151.75Y-83.0
X152.409Y-62.409
X152.409Y-65.591
X152.409Y-81.409
X152.409Y-84.591
X154.0Y-61.75
X154.0Y-66.25
X154.0Y-80.75
X154.0Y-85.25
X155.591Y-62.409
X155.591Y-65.591
X155.591Y-81.409
X155.591Y-84.591
X156.25Y-64.0
X156.25Y-83.0
T5
X35.0Y-64.0
X35.0Y-83.0
X50.0Y-64.0
X50.0Y-83.0
X61.0Y-64.0
X61.0Y-82.759
X76.0Y-64.0
X76.0Y-83.0
X87.0Y-64.0
X87.0Y-83.0
X102.0Y-64.0
X102.0Y-83.0
X113.0Y-64.0
X113.0Y-83.0
X128.0Y-64.0
X128.0Y-83.0
X139.0Y-64.0
X139.0Y-83.0
X154.0Y-64.0
X154.0Y-83.0
T0
M30
