M48
; DRILL file {KiCad 7.0.1} date 2023-05-09T18:35:22 CEST
; FORMAT={-:-/ absolute / metric / decimal}
; #@! TF.CreationDate,2023-05-09T18:35:22+02:00
; #@! TF.GenerationSoftware,Kicad,Pcbnew,7.0.1
; #@! TF.FileFunction,Plated,1,4,PTH
FMAT,2
METRIC
; #@! TA.AperFunction,Plated,PTH,ViaDrill
T1C0.254
; #@! TA.AperFunction,Plated,PTH,ComponentDrill
T2C0.300
; #@! TA.AperFunction,Plated,PTH,ComponentDrill
T3C0.460
; #@! TA.AperFunction,Plated,PTH,ComponentDrill
T4C0.500
; #@! TA.AperFunction,Plated,PTH,ComponentDrill
T5C3.000
%
G90
G05
T1
X31.0Y-40.0
X31.0Y-41.0
X31.0Y-42.0
X31.0Y-43.0
X31.0Y-44.0
X31.0Y-45.0
X31.0Y-46.0
X31.0Y-47.0
X31.0Y-48.0
X31.0Y-49.0
X31.0Y-50.0
X31.0Y-51.0
X31.0Y-52.0
X31.0Y-53.0
X31.0Y-54.0
X31.0Y-55.0
X31.0Y-56.0
X31.0Y-57.0
X31.0Y-58.0
X31.0Y-59.0
X31.0Y-60.0
X31.0Y-61.0
X31.0Y-62.0
X31.0Y-63.0
X31.0Y-64.0
X31.0Y-65.0
X31.0Y-66.0
X31.0Y-67.0
X31.0Y-68.0
X31.0Y-69.0
X31.0Y-70.0
X31.0Y-71.0
X31.0Y-72.0
X31.0Y-76.0
X31.0Y-77.0
X31.0Y-78.0
X31.0Y-79.0
X31.0Y-80.0
X31.0Y-81.0
X31.0Y-82.0
X31.0Y-83.0
X31.0Y-84.0
X31.0Y-85.0
X31.0Y-86.0
X31.0Y-87.0
X31.0Y-88.0
X31.0Y-89.0
X31.0Y-90.0
X31.0Y-91.0
X31.0Y-92.0
X31.0Y-93.0
X31.0Y-94.0
X31.0Y-95.0
X31.0Y-96.0
X31.0Y-97.0
X31.0Y-98.0
X32.0Y-40.0
X32.0Y-72.0
X32.0Y-76.0
X32.0Y-98.0
X33.0Y-40.0
X33.0Y-72.0
X33.0Y-76.0
X33.0Y-98.0
X34.0Y-40.0
X34.0Y-72.0
X34.0Y-76.0
X34.0Y-98.0
X35.0Y-40.0
X35.0Y-72.0
X35.0Y-76.0
X35.0Y-98.0
X36.0Y-40.0
X36.0Y-72.0
X36.0Y-76.0
X36.0Y-98.0
X37.0Y-40.0
X37.0Y-68.0
X37.0Y-69.0
X37.0Y-70.0
X37.0Y-71.0
X37.0Y-72.0
X37.0Y-76.0
X37.0Y-77.0
X37.0Y-78.0
X37.0Y-79.0
X37.0Y-80.0
X37.0Y-98.0
X38.0Y-40.0
X38.0Y-97.0
X39.0Y-40.0
X39.0Y-97.0
X40.0Y-40.0
X40.0Y-98.0
X41.0Y-40.0
X41.0Y-98.0
X41.0Y-99.0
X41.0Y-100.0
X41.0Y-101.0
X41.0Y-103.0
X41.0Y-104.0
X41.0Y-105.0
X41.0Y-106.0
X41.0Y-107.0
X41.0Y-108.0
X42.0Y-40.0
X42.0Y-108.0
X43.0Y-40.0
X43.0Y-108.0
X44.0Y-40.0
X44.0Y-108.0
X45.0Y-40.0
X45.0Y-108.0
X46.0Y-40.0
X46.0Y-108.0
X47.0Y-40.0
X47.0Y-108.0
X48.0Y-40.0
X48.0Y-68.0
X48.0Y-69.0
X48.0Y-70.0
X48.0Y-71.0
X48.0Y-72.0
X48.0Y-76.0
X48.0Y-77.0
X48.0Y-78.0
X48.0Y-79.0
X48.0Y-80.0
X48.0Y-108.0
X49.0Y-40.0
X49.0Y-72.0
X49.0Y-76.0
X49.0Y-108.0
X50.0Y-40.0
X50.0Y-72.0
X50.0Y-76.0
X50.0Y-108.0
X51.0Y-40.0
X51.0Y-72.0
X51.0Y-76.0
X51.0Y-108.0
X52.0Y-40.0
X52.0Y-72.0
X52.0Y-76.0
X52.0Y-108.0
X53.0Y-40.0
X53.0Y-72.0
X53.0Y-76.0
X53.0Y-108.0
X54.0Y-40.0
X54.0Y-41.0
X54.0Y-42.0
X54.0Y-43.0
X54.0Y-44.0
X54.0Y-45.0
X54.0Y-46.0
X54.0Y-47.0
X54.0Y-48.0
X54.0Y-49.0
X54.0Y-50.0
X54.0Y-51.0
X54.0Y-52.0
X54.0Y-53.0
X54.0Y-54.0
X54.0Y-55.0
X54.0Y-56.0
X54.0Y-57.0
X54.0Y-58.0
X54.0Y-59.0
X54.0Y-60.0
X54.0Y-61.0
X54.0Y-62.0
X54.0Y-63.0
X54.0Y-64.0
X54.0Y-65.0
X54.0Y-66.0
X54.0Y-67.0
X54.0Y-68.0
X54.0Y-69.0
X54.0Y-70.0
X54.0Y-71.0
X54.0Y-72.0
X54.0Y-76.0
X54.0Y-77.0
X54.0Y-78.0
X54.0Y-79.0
X54.0Y-80.0
X54.0Y-81.0
X54.0Y-82.0
X54.0Y-83.0
X54.0Y-84.0
X54.0Y-85.0
X54.0Y-86.0
X54.0Y-87.0
X54.0Y-88.0
X54.0Y-89.0
X54.0Y-90.0
X54.0Y-91.0
X54.0Y-92.0
X54.0Y-93.0
X54.0Y-94.0
X54.0Y-95.0
X54.0Y-96.0
X54.0Y-97.0
X54.0Y-98.0
X54.0Y-99.0
X54.0Y-100.0
X54.0Y-101.0
X54.0Y-102.0
X54.0Y-103.0
X54.0Y-104.0
X54.0Y-105.0
X54.0Y-106.0
X54.0Y-107.0
X54.0Y-108.0
X58.0Y-51.0
X58.0Y-52.0
X58.0Y-53.0
X58.0Y-54.0
X58.0Y-55.0
X58.0Y-56.0
X58.0Y-57.0
X58.0Y-58.0
X58.0Y-59.0
X58.0Y-60.0
X58.0Y-61.0
X58.0Y-62.0
X58.0Y-63.0
X58.0Y-64.0
X58.0Y-65.0
X58.0Y-66.0
X58.0Y-67.0
X58.0Y-68.0
X58.0Y-69.0
X58.0Y-70.0
X58.0Y-71.0
X58.0Y-72.0
X58.0Y-76.0
X58.0Y-77.0
X58.0Y-78.0
X58.0Y-79.0
X58.0Y-80.0
X58.0Y-81.0
X58.0Y-82.0
X58.0Y-83.0
X58.0Y-84.0
X58.0Y-85.0
X58.0Y-86.0
X58.0Y-87.0
X58.0Y-88.0
X58.0Y-89.0
X58.0Y-90.0
X58.0Y-91.0
X58.0Y-92.0
X58.0Y-93.0
X58.0Y-94.0
X58.0Y-95.0
X58.0Y-96.0
X58.0Y-97.0
X58.0Y-98.0
X59.0Y-51.0
X59.0Y-72.0
X59.0Y-76.0
X59.0Y-98.0
X60.0Y-51.0
X60.0Y-72.0
X60.0Y-76.0
X60.0Y-98.0
X61.0Y-51.0
X61.0Y-72.0
X61.0Y-76.0
X61.0Y-98.0
X62.0Y-51.0
X62.0Y-72.0
X62.0Y-76.0
X62.0Y-98.0
X63.0Y-51.0
X63.0Y-72.0
X63.0Y-76.0
X63.0Y-98.0
X64.0Y-51.0
X64.0Y-68.0
X64.0Y-69.0
X64.0Y-70.0
X64.0Y-71.0
X64.0Y-72.0
X64.0Y-76.0
X64.0Y-77.0
X64.0Y-78.0
X64.0Y-79.0
X64.0Y-80.0
X64.0Y-98.0
X65.0Y-51.0
X65.0Y-97.0
X66.0Y-51.0
X66.0Y-97.0
X67.0Y-51.0
X67.0Y-98.0
X68.0Y-51.0
X68.0Y-98.0
X68.0Y-99.0
X68.0Y-100.0
X68.0Y-101.0
X68.0Y-103.0
X68.0Y-104.0
X68.0Y-105.0
X68.0Y-106.0
X68.0Y-107.0
X68.0Y-108.0
X69.0Y-108.0
X70.0Y-108.0
X71.0Y-51.0
X71.0Y-108.0
X72.0Y-51.0
X72.0Y-108.0
X73.0Y-51.0
X73.0Y-108.0
X74.0Y-51.0
X74.0Y-108.0
X75.0Y-51.0
X75.0Y-68.0
X75.0Y-69.0
X75.0Y-70.0
X75.0Y-71.0
X75.0Y-72.0
X75.0Y-76.0
X75.0Y-77.0
X75.0Y-78.0
X75.0Y-79.0
X75.0Y-80.0
X75.0Y-108.0
X76.0Y-51.0
X76.0Y-72.0
X76.0Y-76.0
X76.0Y-108.0
X77.0Y-51.0
X77.0Y-72.0
X77.0Y-76.0
X77.0Y-108.0
X78.0Y-51.0
X78.0Y-72.0
X78.0Y-76.0
X78.0Y-108.0
X79.0Y-51.0
X79.0Y-72.0
X79.0Y-76.0
X79.0Y-108.0
X80.0Y-51.0
X80.0Y-72.0
X80.0Y-76.0
X80.0Y-108.0
X81.0Y-51.0
X81.0Y-52.0
X81.0Y-53.0
X81.0Y-54.0
X81.0Y-55.0
X81.0Y-56.0
X81.0Y-57.0
X81.0Y-58.0
X81.0Y-59.0
X81.0Y-60.0
X81.0Y-61.0
X81.0Y-62.0
X81.0Y-63.0
X81.0Y-64.0
X81.0Y-65.0
X81.0Y-66.0
X81.0Y-67.0
X81.0Y-68.0
X81.0Y-69.0
X81.0Y-70.0
X81.0Y-71.0
X81.0Y-72.0
X81.0Y-76.0
X81.0Y-77.0
X81.0Y-78.0
X81.0Y-79.0
X81.0Y-80.0
X81.0Y-81.0
X81.0Y-82.0
X81.0Y-83.0
X81.0Y-84.0
X81.0Y-85.0
X81.0Y-86.0
X81.0Y-87.0
X81.0Y-88.0
X81.0Y-89.0
X81.0Y-90.0
X81.0Y-91.0
X81.0Y-92.0
X81.0Y-93.0
X81.0Y-94.0
X81.0Y-95.0
X81.0Y-96.0
X81.0Y-97.0
X81.0Y-98.0
X81.0Y-99.0
X81.0Y-100.0
X81.0Y-101.0
X81.0Y-102.0
X81.0Y-103.0
X81.0Y-104.0
X81.0Y-105.0
X81.0Y-106.0
X81.0Y-107.0
X81.0Y-108.0
X85.0Y-51.0
X85.0Y-52.0
X85.0Y-53.0
X85.0Y-54.0
X85.0Y-55.0
X85.0Y-56.0
X85.0Y-57.0
X85.0Y-58.0
X85.0Y-59.0
X85.0Y-60.0
X85.0Y-61.0
X85.0Y-62.0
X85.0Y-63.0
X85.0Y-64.0
X85.0Y-65.0
X85.0Y-66.0
X85.0Y-67.0
X85.0Y-68.0
X85.0Y-69.0
X85.0Y-70.0
X85.0Y-71.0
X85.0Y-72.0
X85.0Y-76.0
X85.0Y-77.0
X85.0Y-78.0
X85.0Y-79.0
X85.0Y-80.0
X85.0Y-81.0
X85.0Y-82.0
X85.0Y-83.0
X85.0Y-84.0
X85.0Y-85.0
X85.0Y-86.0
X85.0Y-87.0
X85.0Y-88.0
X85.0Y-89.0
X85.0Y-90.0
X85.0Y-91.0
X85.0Y-92.0
X85.0Y-93.0
X85.0Y-94.0
X85.0Y-95.0
X85.0Y-96.0
X85.0Y-97.0
X85.0Y-98.0
X85.0Y-99.0
X85.0Y-100.0
X85.0Y-101.0
X85.0Y-102.0
X85.0Y-103.0
X85.0Y-104.0
X85.0Y-105.0
X85.0Y-106.0
X85.0Y-107.0
X85.0Y-108.0
X86.0Y-51.0
X86.0Y-72.0
X86.0Y-76.0
X86.0Y-108.0
X87.0Y-51.0
X87.0Y-72.0
X87.0Y-76.0
X87.0Y-108.0
X88.0Y-51.0
X88.0Y-72.0
X88.0Y-76.0
X88.0Y-108.0
X89.0Y-51.0
X89.0Y-72.0
X89.0Y-76.0
X89.0Y-108.0
X90.0Y-51.0
X90.0Y-72.0
X90.0Y-76.0
X90.0Y-108.0
X91.0Y-51.0
X91.0Y-68.0
X91.0Y-69.0
X91.0Y-70.0
X91.0Y-71.0
X91.0Y-72.0
X91.0Y-76.0
X91.0Y-77.0
X91.0Y-78.0
X91.0Y-79.0
X91.0Y-80.0
X91.0Y-108.0
X92.0Y-51.0
X92.0Y-108.0
X93.0Y-51.0
X93.0Y-108.0
X94.0Y-51.0
X94.0Y-108.0
X95.0Y-51.0
X95.0Y-108.0
X96.0Y-51.0
X96.0Y-108.0
X97.0Y-51.0
X97.0Y-100.0
X97.0Y-101.0
X97.0Y-108.0
X98.0Y-51.0
X98.0Y-98.0
X98.0Y-99.0
X98.0Y-102.0
X98.0Y-103.0
X98.0Y-104.0
X98.0Y-105.0
X98.0Y-106.0
X98.0Y-107.0
X98.0Y-108.0
X99.0Y-51.0
X99.0Y-98.0
X100.0Y-51.0
X100.0Y-98.0
X101.0Y-51.0
X101.0Y-98.0
X102.0Y-51.0
X102.0Y-68.0
X102.0Y-69.0
X102.0Y-70.0
X102.0Y-71.0
X102.0Y-72.0
X102.0Y-76.0
X102.0Y-77.0
X102.0Y-78.0
X102.0Y-79.0
X102.0Y-80.0
X103.0Y-51.0
X103.0Y-72.0
X103.0Y-76.0
X103.0Y-98.0
X104.0Y-72.0
X104.0Y-76.0
X104.0Y-98.0
X105.0Y-51.0
X105.0Y-72.0
X105.0Y-76.0
X105.0Y-98.0
X106.0Y-51.0
X106.0Y-72.0
X106.0Y-76.0
X106.0Y-98.0
X107.0Y-51.0
X107.0Y-72.0
X107.0Y-76.0
X107.0Y-98.0
X108.0Y-51.0
X108.0Y-52.0
X108.0Y-53.0
X108.0Y-54.0
X108.0Y-55.0
X108.0Y-56.0
X108.0Y-57.0
X108.0Y-58.0
X108.0Y-59.0
X108.0Y-60.0
X108.0Y-61.0
X108.0Y-62.0
X108.0Y-63.0
X108.0Y-64.0
X108.0Y-65.0
X108.0Y-66.0
X108.0Y-67.0
X108.0Y-68.0
X108.0Y-69.0
X108.0Y-70.0
X108.0Y-71.0
X108.0Y-72.0
X108.0Y-76.0
X108.0Y-77.0
X108.0Y-78.0
X108.0Y-79.0
X108.0Y-80.0
X108.0Y-81.0
X108.0Y-82.0
X108.0Y-83.0
X108.0Y-84.0
X108.0Y-85.0
X108.0Y-86.0
X108.0Y-87.0
X108.0Y-88.0
X108.0Y-89.0
X108.0Y-90.0
X108.0Y-91.0
X108.0Y-92.0
X108.0Y-93.0
X108.0Y-94.0
X108.0Y-95.0
X108.0Y-96.0
X108.0Y-97.0
X108.0Y-98.0
X112.0Y-51.0
X112.0Y-52.0
X112.0Y-53.0
X112.0Y-54.0
X112.0Y-55.0
X112.0Y-56.0
X112.0Y-57.0
X112.0Y-58.0
X112.0Y-59.0
X112.0Y-60.0
X112.0Y-61.0
X112.0Y-62.0
X112.0Y-63.0
X112.0Y-64.0
X112.0Y-65.0
X112.0Y-66.0
X112.0Y-67.0
X112.0Y-68.0
X112.0Y-69.0
X112.0Y-70.0
X112.0Y-71.0
X112.0Y-72.0
X112.0Y-76.0
X112.0Y-77.0
X112.0Y-78.0
X112.0Y-79.0
X112.0Y-80.0
X112.0Y-81.0
X112.0Y-82.0
X112.0Y-83.0
X112.0Y-84.0
X112.0Y-85.0
X112.0Y-86.0
X112.0Y-87.0
X112.0Y-88.0
X112.0Y-89.0
X112.0Y-90.0
X112.0Y-91.0
X112.0Y-92.0
X112.0Y-93.0
X112.0Y-94.0
X112.0Y-95.0
X112.0Y-96.0
X112.0Y-97.0
X112.0Y-98.0
X112.0Y-99.0
X112.0Y-100.0
X112.0Y-101.0
X112.0Y-102.0
X112.0Y-103.0
X112.0Y-104.0
X112.0Y-105.0
X112.0Y-106.0
X112.0Y-107.0
X112.0Y-108.0
X113.0Y-51.0
X113.0Y-72.0
X113.0Y-76.0
X113.0Y-108.0
X114.0Y-51.0
X114.0Y-72.0
X114.0Y-76.0
X114.0Y-108.0
X115.0Y-51.0
X115.0Y-72.0
X115.0Y-76.0
X115.0Y-108.0
X116.0Y-51.0
X116.0Y-72.0
X116.0Y-76.0
X116.0Y-108.0
X117.0Y-51.0
X117.0Y-72.0
X117.0Y-76.0
X117.0Y-108.0
X118.0Y-51.0
X118.0Y-68.0
X118.0Y-69.0
X118.0Y-70.0
X118.0Y-71.0
X118.0Y-72.0
X118.0Y-76.0
X118.0Y-77.0
X118.0Y-78.0
X118.0Y-79.0
X118.0Y-80.0
X118.0Y-108.0
X119.0Y-51.0
X119.0Y-108.0
X120.0Y-51.0
X120.0Y-108.0
X121.0Y-51.0
X121.0Y-108.0
X122.0Y-51.0
X122.0Y-108.0
X123.0Y-51.0
X123.0Y-108.0
X124.0Y-51.0
X124.0Y-100.0
X124.0Y-101.0
X124.0Y-108.0
X125.0Y-51.0
X125.0Y-98.0
X125.0Y-98.75
X125.0Y-102.0
X125.0Y-103.0
X125.0Y-104.0
X125.0Y-105.0
X125.0Y-106.0
X125.0Y-107.0
X125.0Y-108.0
X126.0Y-51.0
X126.0Y-98.0
X127.0Y-98.0
X128.0Y-51.0
X128.0Y-98.0
X129.0Y-51.0
X129.0Y-68.0
X129.0Y-69.0
X129.0Y-70.0
X129.0Y-71.0
X129.0Y-72.0
X129.0Y-76.0
X129.0Y-77.0
X129.0Y-78.0
X129.0Y-79.0
X129.0Y-80.0
X130.0Y-51.0
X130.0Y-72.0
X130.0Y-76.0
X130.0Y-98.0
X131.0Y-51.0
X131.0Y-72.0
X131.0Y-76.0
X131.0Y-98.0
X132.0Y-51.0
X132.0Y-72.0
X132.0Y-76.0
X132.0Y-98.0
X133.0Y-51.0
X133.0Y-72.0
X133.0Y-76.0
X133.0Y-98.0
X134.0Y-51.0
X134.0Y-72.0
X134.0Y-76.0
X134.0Y-98.0
X135.0Y-51.0
X135.0Y-52.0
X135.0Y-53.0
X135.0Y-54.0
X135.0Y-55.0
X135.0Y-56.0
X135.0Y-57.0
X135.0Y-58.0
X135.0Y-59.0
X135.0Y-60.0
X135.0Y-61.0
X135.0Y-62.0
X135.0Y-63.0
X135.0Y-64.0
X135.0Y-65.0
X135.0Y-66.0
X135.0Y-67.0
X135.0Y-68.0
X135.0Y-69.0
X135.0Y-70.0
X135.0Y-71.0
X135.0Y-72.0
X135.0Y-76.0
X135.0Y-77.0
X135.0Y-78.0
X135.0Y-79.0
X135.0Y-80.0
X135.0Y-81.0
X135.0Y-82.0
X135.0Y-83.0
X135.0Y-84.0
X135.0Y-85.0
X135.0Y-86.0
X135.0Y-87.0
X135.0Y-88.0
X135.0Y-89.0
X135.0Y-90.0
X135.0Y-91.0
X135.0Y-92.0
X135.0Y-93.0
X135.0Y-94.0
X135.0Y-95.0
X135.0Y-96.0
X135.0Y-97.0
X135.0Y-98.0
X139.0Y-46.0
X139.0Y-47.0
X139.0Y-48.0
X139.0Y-49.0
X139.0Y-50.0
X139.0Y-51.0
X139.0Y-52.0
X139.0Y-53.0
X139.0Y-54.0
X139.0Y-55.0
X139.0Y-56.0
X139.0Y-57.0
X139.0Y-58.0
X139.0Y-59.0
X139.0Y-60.0
X139.0Y-61.0
X139.0Y-62.0
X139.0Y-63.0
X139.0Y-64.0
X139.0Y-65.0
X139.0Y-66.0
X139.0Y-67.0
X139.0Y-68.0
X139.0Y-69.0
X139.0Y-70.0
X139.0Y-71.0
X139.0Y-72.0
X139.0Y-76.0
X139.0Y-77.0
X139.0Y-78.0
X139.0Y-79.0
X139.0Y-80.0
X139.0Y-81.0
X139.0Y-82.0
X139.0Y-83.0
X139.0Y-84.0
X139.0Y-85.0
X139.0Y-86.0
X139.0Y-87.0
X139.0Y-88.0
X139.0Y-89.0
X139.0Y-90.0
X139.0Y-91.0
X139.0Y-92.0
X139.0Y-93.0
X139.0Y-94.0
X139.0Y-95.0
X139.0Y-96.0
X140.0Y-46.0
X140.0Y-72.0
X140.0Y-76.0
X140.0Y-96.0
X141.0Y-46.0
X141.0Y-72.0
X141.0Y-76.0
X141.0Y-96.0
X142.0Y-46.0
X142.0Y-72.0
X142.0Y-76.0
X142.0Y-96.0
X143.0Y-46.0
X143.0Y-72.0
X143.0Y-76.0
X143.0Y-96.0
X144.0Y-46.0
X144.0Y-72.0
X144.0Y-76.0
X144.0Y-96.0
X145.0Y-46.0
X145.0Y-68.0
X145.0Y-69.0
X145.0Y-70.0
X145.0Y-71.0
X145.0Y-72.0
X145.0Y-76.0
X145.0Y-77.0
X145.0Y-78.0
X145.0Y-79.0
X145.0Y-80.0
X145.0Y-96.0
X146.0Y-46.0
X146.0Y-47.0
X146.0Y-48.0
X146.0Y-49.0
X146.0Y-50.0
X146.0Y-51.0
X146.0Y-96.0
X147.0Y-51.0
X147.0Y-96.0
X148.0Y-51.0
X148.0Y-96.0
X149.0Y-51.0
X150.0Y-51.0
X151.0Y-51.0
X152.0Y-51.0
X153.0Y-51.0
X153.0Y-96.0
X154.0Y-51.0
X154.0Y-96.0
X155.0Y-51.0
X155.0Y-96.0
X156.0Y-51.0
X156.0Y-68.0
X156.0Y-69.0
X156.0Y-70.0
X156.0Y-71.0
X156.0Y-72.0
X156.0Y-76.0
X156.0Y-77.0
X156.0Y-78.0
X156.0Y-79.0
X156.0Y-80.0
X156.0Y-96.0
X157.0Y-51.0
X157.0Y-72.0
X157.0Y-76.0
X157.0Y-96.0
X158.0Y-51.0
X158.0Y-72.0
X158.0Y-76.0
X158.0Y-96.0
X159.0Y-72.0
X159.0Y-76.0
X159.0Y-96.0
X160.0Y-51.0
X160.0Y-72.0
X160.0Y-76.0
X160.0Y-96.0
X161.0Y-51.0
X161.0Y-72.0
X161.0Y-76.0
X161.0Y-96.0
X162.0Y-51.0
X162.0Y-52.0
X162.0Y-53.0
X162.0Y-54.0
X162.0Y-55.0
X162.0Y-56.0
X162.0Y-57.0
X162.0Y-58.0
X162.0Y-59.0
X162.0Y-60.0
X162.0Y-61.0
X162.0Y-62.0
X162.0Y-63.0
X162.0Y-64.0
X162.0Y-65.0
X162.0Y-66.0
X162.0Y-67.0
X162.0Y-68.0
X162.0Y-69.0
X162.0Y-70.0
X162.0Y-71.0
X162.0Y-72.0
X162.0Y-76.0
X162.0Y-77.0
X162.0Y-78.0
X162.0Y-79.0
X162.0Y-80.0
X162.0Y-81.0
X162.0Y-82.0
X162.0Y-83.0
X162.0Y-84.0
X162.0Y-85.0
X162.0Y-86.0
X162.0Y-87.0
X162.0Y-88.0
X162.0Y-89.0
X162.0Y-90.0
X162.0Y-91.0
X162.0Y-92.0
X162.0Y-93.0
X162.0Y-94.0
X162.0Y-95.0
X162.0Y-96.0
T2
X38.75Y-99.0
X65.25Y-99.0
X65.75Y-108.0
X71.6Y-50.0
X99.0Y-100.25
X108.0Y-50.0
X126.0Y-100.75
X133.0Y-50.0
X135.0Y-100.25
X161.75Y-50.0
T3
X39.008Y-67.515
X39.008Y-80.485
X45.992Y-67.515
X45.992Y-80.485
X66.007Y-67.515
X66.007Y-80.485
X72.992Y-67.515
X72.992Y-80.485
X93.007Y-67.515
X93.007Y-80.485
X99.992Y-67.515
X99.992Y-80.485
X120.007Y-67.515
X120.007Y-80.485
X126.992Y-67.515
X126.992Y-80.485
X147.007Y-67.515
X147.007Y-80.485
X153.993Y-67.515
X153.993Y-80.485
T4
X32.75Y-64.0
X32.75Y-84.0
X33.409Y-62.409
X33.409Y-65.591
X33.409Y-82.409
X33.409Y-85.591
X35.0Y-61.75
X35.0Y-66.25
X35.0Y-81.75
X35.0Y-86.25
X36.591Y-62.409
X36.591Y-65.591
X36.591Y-82.409
X36.591Y-85.591
X37.25Y-64.0
X37.25Y-84.0
X47.75Y-64.0
X47.75Y-84.0
X48.409Y-62.409
X48.409Y-65.591
X48.409Y-82.409
X48.409Y-85.591
X50.0Y-61.75
X50.0Y-66.25
X50.0Y-81.75
X50.0Y-86.25
X51.591Y-62.409
X51.591Y-65.591
X51.591Y-82.409
X51.591Y-85.591
X52.25Y-64.0
X52.25Y-84.0
X59.75Y-64.0
X59.75Y-83.759
X60.409Y-62.409
X60.409Y-65.591
X60.409Y-82.168
X60.409Y-85.35
X62.0Y-61.75
X62.0Y-66.25
X62.0Y-81.509
X62.0Y-86.009
X63.591Y-62.409
X63.591Y-65.591
X63.591Y-82.168
X63.591Y-85.35
X64.25Y-64.0
X64.25Y-83.759
X74.75Y-64.0
X74.75Y-84.0
X75.409Y-62.409
X75.409Y-65.591
X75.409Y-82.409
X75.409Y-85.591
X77.0Y-61.75
X77.0Y-66.25
X77.0Y-81.75
X77.0Y-86.25
X78.591Y-62.409
X78.591Y-65.591
X78.591Y-82.409
X78.591Y-85.591
X79.25Y-64.0
X79.25Y-84.0
X86.75Y-64.0
X86.75Y-84.0
X87.409Y-62.409
X87.409Y-65.591
X87.409Y-82.409
X87.409Y-85.591
X89.0Y-61.75
X89.0Y-66.25
X89.0Y-81.75
X89.0Y-86.25
X90.591Y-62.409
X90.591Y-65.591
X90.591Y-82.409
X90.591Y-85.591
X91.25Y-64.0
X91.25Y-84.0
X101.75Y-64.0
X101.75Y-84.0
X102.409Y-62.409
X102.409Y-65.591
X102.409Y-82.409
X102.409Y-85.591
X104.0Y-61.75
X104.0Y-66.25
X104.0Y-81.75
X104.0Y-86.25
X105.591Y-62.409
X105.591Y-65.591
X105.591Y-82.409
X105.591Y-85.591
X106.25Y-64.0
X106.25Y-84.0
X113.75Y-64.0
X113.75Y-84.0
X114.409Y-62.409
X114.409Y-65.591
X114.409Y-82.409
X114.409Y-85.591
X116.0Y-61.75
X116.0Y-66.25
X116.0Y-81.75
X116.0Y-86.25
X117.591Y-62.409
X117.591Y-65.591
X117.591Y-82.409
X117.591Y-85.591
X118.25Y-64.0
X118.25Y-84.0
X128.75Y-64.0
X128.75Y-84.0
X129.409Y-62.409
X129.409Y-65.591
X129.409Y-82.409
X129.409Y-85.591
X131.0Y-61.75
X131.0Y-66.25
X131.0Y-81.75
X131.0Y-86.25
X132.591Y-62.409
X132.591Y-65.591
X132.591Y-82.409
X132.591Y-85.591
X133.25Y-64.0
X133.25Y-84.0
X140.75Y-64.0
X140.75Y-84.0
X141.409Y-62.409
X141.409Y-65.591
X141.409Y-82.409
X141.409Y-85.591
X143.0Y-61.75
X143.0Y-66.25
X143.0Y-81.75
X143.0Y-86.25
X144.591Y-62.409
X144.591Y-65.591
X144.591Y-82.409
X144.591Y-85.591
X145.25Y-64.0
X145.25Y-84.0
X155.75Y-64.0
X155.75Y-84.0
X156.409Y-62.409
X156.409Y-65.591
X156.409Y-82.409
X156.409Y-85.591
X158.0Y-61.75
X158.0Y-66.25
X158.0Y-81.75
X158.0Y-86.25
X159.591Y-62.409
X159.591Y-65.591
X159.591Y-82.409
X159.591Y-85.591
X160.25Y-64.0
X160.25Y-84.0
T5
X35.0Y-64.0
X35.0Y-84.0
X50.0Y-64.0
X50.0Y-84.0
X62.0Y-64.0
X62.0Y-83.759
X77.0Y-64.0
X77.0Y-84.0
X89.0Y-64.0
X89.0Y-84.0
X104.0Y-64.0
X104.0Y-84.0
X116.0Y-64.0
X116.0Y-84.0
X131.0Y-64.0
X131.0Y-84.0
X143.0Y-64.0
X143.0Y-84.0
X158.0Y-64.0
X158.0Y-84.0
T0
M30
