%TF.GenerationSoftware,KiCad,Pcbnew,7.0.1*%
%TF.CreationDate,2023-05-05T11:57:27+02:00*%
%TF.ProjectId,antenna-evaluation-board,616e7465-6e6e-4612-9d65-76616c756174,rev?*%
%TF.SameCoordinates,Original*%
%TF.FileFunction,Copper,L4,Bot*%
%TF.FilePolarity,Positive*%
%FSLAX46Y46*%
G04 Gerber Fmt 4.6, Leading zero omitted, Abs format (unit mm)*
G04 Created by KiCad (PCBNEW 7.0.1) date 2023-05-05 11:57:27*
%MOMM*%
%LPD*%
G01*
G04 APERTURE LIST*
%TA.AperFunction,ComponentPad*%
%ADD10C,0.800000*%
%TD*%
%TA.AperFunction,ComponentPad*%
%ADD11C,6.000000*%
%TD*%
%TA.AperFunction,ComponentPad*%
%ADD12C,0.970000*%
%TD*%
%TA.AperFunction,SMDPad,CuDef*%
%ADD13R,0.460000X0.890000*%
%TD*%
%TA.AperFunction,SMDPad,CuDef*%
%ADD14R,2.665000X4.190000*%
%TD*%
%TA.AperFunction,ComponentPad*%
%ADD15R,1.000000X1.000000*%
%TD*%
%TA.AperFunction,ConnectorPad*%
%ADD16R,11.000000X0.500000*%
%TD*%
%TA.AperFunction,ConnectorPad*%
%ADD17R,0.500000X10.500000*%
%TD*%
%TA.AperFunction,ComponentPad*%
%ADD18R,0.900000X0.500000*%
%TD*%
%TA.AperFunction,ConnectorPad*%
%ADD19R,0.500000X11.000000*%
%TD*%
%TA.AperFunction,ConnectorPad*%
%ADD20R,10.500000X0.500000*%
%TD*%
%TA.AperFunction,ComponentPad*%
%ADD21R,1.070000X1.000000*%
%TD*%
%TA.AperFunction,ComponentPad*%
%ADD22R,3.000000X1.000000*%
%TD*%
%TA.AperFunction,ViaPad*%
%ADD23C,0.508000*%
%TD*%
G04 APERTURE END LIST*
%TO.C,AE8*%
G36*
X32750000Y-97500000D02*
G01*
X33250000Y-97500000D01*
X33250000Y-101500000D01*
X32750000Y-101500000D01*
X32750000Y-97500000D01*
G37*
G36*
X34250000Y-97500000D02*
G01*
X34750000Y-97500000D01*
X34750000Y-101500000D01*
X34250000Y-101500000D01*
X34250000Y-97500000D01*
G37*
G36*
X35750000Y-97500000D02*
G01*
X36250000Y-97500000D01*
X36250000Y-101500000D01*
X35750000Y-101500000D01*
X35750000Y-97500000D01*
G37*
%TA.AperFunction,EtchedComponent*%
G36*
X40750000Y-107500000D02*
G01*
X30250000Y-107500000D01*
X30250000Y-107000000D01*
X32250000Y-107000000D01*
X32250000Y-106500000D01*
X36750000Y-106500000D01*
X36750000Y-107000000D01*
X40250000Y-107000000D01*
X40250000Y-105000000D01*
X30750000Y-105000000D01*
X30750000Y-104750000D01*
X40250000Y-104750000D01*
X40250000Y-104500000D01*
X31250000Y-104500000D01*
X31250000Y-103500000D01*
X30250000Y-103500000D01*
X30250000Y-98000000D01*
X32500000Y-98000000D01*
X32500000Y-101750000D01*
X33500000Y-101750000D01*
X33500000Y-98000000D01*
X33997271Y-98000000D01*
X34000000Y-101750000D01*
X35000000Y-101750000D01*
X35000000Y-98000000D01*
X35500000Y-98000000D01*
X35500000Y-101750000D01*
X36500000Y-101750000D01*
X36500000Y-98000000D01*
X37000000Y-98000000D01*
X37000000Y-100750000D01*
X40250000Y-100750000D01*
X40250000Y-100250000D01*
X37250000Y-100250000D01*
X37250000Y-98750000D01*
X40250000Y-98750000D01*
X40250000Y-98500000D01*
X37250000Y-98500000D01*
X37250000Y-97500000D01*
X30250000Y-97500000D01*
X30250000Y-97000000D01*
X40750000Y-97000000D01*
X40750000Y-107500000D01*
G37*
%TD.AperFunction*%
%TO.C,AE7*%
G36*
X58750000Y-97500000D02*
G01*
X59250000Y-97500000D01*
X59250000Y-101500000D01*
X58750000Y-101500000D01*
X58750000Y-97500000D01*
G37*
G36*
X60250000Y-97500000D02*
G01*
X60750000Y-97500000D01*
X60750000Y-101500000D01*
X60250000Y-101500000D01*
X60250000Y-97500000D01*
G37*
G36*
X61750000Y-97500000D02*
G01*
X62250000Y-97500000D01*
X62250000Y-101500000D01*
X61750000Y-101500000D01*
X61750000Y-97500000D01*
G37*
%TA.AperFunction,EtchedComponent*%
G36*
X66750000Y-107500000D02*
G01*
X56250000Y-107500000D01*
X56250000Y-106500000D01*
X58250000Y-106500000D01*
X58250000Y-106000000D01*
X62750000Y-106000000D01*
X62750000Y-106500000D01*
X66250000Y-106500000D01*
X66250000Y-105000000D01*
X57250000Y-105000000D01*
X57250000Y-104750000D01*
X66250000Y-104750000D01*
X66250000Y-104500000D01*
X57250000Y-104500000D01*
X57250000Y-103500000D01*
X56250000Y-103500000D01*
X56250000Y-98000000D01*
X58500000Y-98000000D01*
X58500000Y-101750000D01*
X59500000Y-101750000D01*
X59500000Y-98000000D01*
X59997271Y-98000000D01*
X60000000Y-101750000D01*
X61000000Y-101750000D01*
X61000000Y-98000000D01*
X61500000Y-98000000D01*
X61500000Y-101750000D01*
X62500000Y-101750000D01*
X62500000Y-98000000D01*
X63000000Y-98000000D01*
X63000000Y-100750000D01*
X66250000Y-100750000D01*
X66250000Y-100250000D01*
X63250000Y-100250000D01*
X63250000Y-98750000D01*
X66250000Y-98750000D01*
X66250000Y-98500000D01*
X63250000Y-98500000D01*
X63250000Y-97500000D01*
X56250000Y-97500000D01*
X56250000Y-97000000D01*
X66750000Y-97000000D01*
X66750000Y-107500000D01*
G37*
%TD.AperFunction*%
%TO.C,AE6*%
G36*
X96500000Y-105250000D02*
G01*
X100500000Y-105250000D01*
X100500000Y-104750000D01*
X96500000Y-104750000D01*
X96500000Y-105250000D01*
G37*
G36*
X96500000Y-103750000D02*
G01*
X100500000Y-103750000D01*
X100500000Y-103250000D01*
X96500000Y-103250000D01*
X96500000Y-103750000D01*
G37*
G36*
X96500000Y-102250000D02*
G01*
X100500000Y-102250000D01*
X100500000Y-101750000D01*
X96500000Y-101750000D01*
X96500000Y-102250000D01*
G37*
%TA.AperFunction,EtchedComponent*%
G36*
X106500000Y-107750000D02*
G01*
X106000000Y-107750000D01*
X106000000Y-105750000D01*
X105500000Y-105750000D01*
X105500000Y-101250000D01*
X106000000Y-101250000D01*
X106000000Y-97750000D01*
X104000000Y-97750000D01*
X104000000Y-107250000D01*
X103750000Y-107250000D01*
X103750000Y-97750000D01*
X103500000Y-97750000D01*
X103500000Y-106750000D01*
X102500000Y-106750000D01*
X102500000Y-107750000D01*
X97000000Y-107750000D01*
X97000000Y-105500000D01*
X100750000Y-105500000D01*
X100750000Y-104500000D01*
X97000000Y-104500000D01*
X97000000Y-104002729D01*
X100750000Y-104000000D01*
X100750000Y-103000000D01*
X97000000Y-103000000D01*
X97000000Y-102500000D01*
X100750000Y-102500000D01*
X100750000Y-101500000D01*
X97000000Y-101500000D01*
X97000000Y-101000000D01*
X99750000Y-101000000D01*
X99750000Y-97750000D01*
X99250000Y-97750000D01*
X99250000Y-100750000D01*
X97750000Y-100750000D01*
X97750000Y-97750000D01*
X97500000Y-97750000D01*
X97500000Y-100750000D01*
X96500000Y-100750000D01*
X96500000Y-107750000D01*
X96000000Y-107750000D01*
X96000000Y-97250000D01*
X106500000Y-97250000D01*
X106500000Y-107750000D01*
G37*
%TD.AperFunction*%
%TO.C,AE5*%
G36*
X122500000Y-105250000D02*
G01*
X126500000Y-105250000D01*
X126500000Y-104750000D01*
X122500000Y-104750000D01*
X122500000Y-105250000D01*
G37*
G36*
X122500000Y-103750000D02*
G01*
X126500000Y-103750000D01*
X126500000Y-103250000D01*
X122500000Y-103250000D01*
X122500000Y-103750000D01*
G37*
G36*
X122500000Y-102250000D02*
G01*
X126500000Y-102250000D01*
X126500000Y-101750000D01*
X122500000Y-101750000D01*
X122500000Y-102250000D01*
G37*
%TA.AperFunction,EtchedComponent*%
G36*
X132500000Y-107750000D02*
G01*
X131500000Y-107750000D01*
X131500000Y-105750000D01*
X131000000Y-105750000D01*
X131000000Y-101250000D01*
X131500000Y-101250000D01*
X131500000Y-97750000D01*
X130000000Y-97750000D01*
X130000000Y-106750000D01*
X129750000Y-106750000D01*
X129750000Y-97750000D01*
X129500000Y-97750000D01*
X129500000Y-106750000D01*
X128500000Y-106750000D01*
X128500000Y-107750000D01*
X123000000Y-107750000D01*
X123000000Y-105500000D01*
X126750000Y-105500000D01*
X126750000Y-104500000D01*
X123000000Y-104500000D01*
X123000000Y-104002729D01*
X126750000Y-104000000D01*
X126750000Y-103000000D01*
X123000000Y-103000000D01*
X123000000Y-102500000D01*
X126750000Y-102500000D01*
X126750000Y-101500000D01*
X123000000Y-101500000D01*
X123000000Y-101000000D01*
X125750000Y-101000000D01*
X125750000Y-97750000D01*
X125250000Y-97750000D01*
X125250000Y-100750000D01*
X123750000Y-100750000D01*
X123750000Y-97750000D01*
X123500000Y-97750000D01*
X123500000Y-100750000D01*
X122500000Y-100750000D01*
X122500000Y-107750000D01*
X122000000Y-107750000D01*
X122000000Y-97250000D01*
X132500000Y-97250000D01*
X132500000Y-107750000D01*
G37*
%TD.AperFunction*%
%TD*%
D10*
%TO.P,H9,1,1*%
%TO.N,GND*%
X136750000Y-64000000D03*
X137409010Y-62409010D03*
X137409010Y-65590990D03*
X139000000Y-61750000D03*
D11*
X139000000Y-64000000D03*
D10*
X139000000Y-66250000D03*
X140590990Y-62409010D03*
X140590990Y-65590990D03*
X141250000Y-64000000D03*
%TD*%
%TO.P,H11,1,1*%
%TO.N,GND*%
X32750000Y-83000000D03*
X33409010Y-81409010D03*
X33409010Y-84590990D03*
X35000000Y-80750000D03*
D11*
X35000000Y-83000000D03*
D10*
X35000000Y-85250000D03*
X36590990Y-81409010D03*
X36590990Y-84590990D03*
X37250000Y-83000000D03*
%TD*%
%TO.P,H19,1,1*%
%TO.N,GND*%
X136750000Y-83000000D03*
X137409010Y-81409010D03*
X137409010Y-84590990D03*
X139000000Y-80750000D03*
D11*
X139000000Y-83000000D03*
D10*
X139000000Y-85250000D03*
X140590990Y-81409010D03*
X140590990Y-84590990D03*
X141250000Y-83000000D03*
%TD*%
%TO.P,H10,1,1*%
%TO.N,GND*%
X151750000Y-64000000D03*
X152409010Y-62409010D03*
X152409010Y-65590990D03*
X154000000Y-61750000D03*
D11*
X154000000Y-64000000D03*
D10*
X154000000Y-66250000D03*
X155590990Y-62409010D03*
X155590990Y-65590990D03*
X156250000Y-64000000D03*
%TD*%
D12*
%TO.P,J10,2,Ext*%
%TO.N,GND*%
X143007500Y-79485000D03*
X149992500Y-79485000D03*
D13*
X143007500Y-79040000D03*
X149992500Y-79040000D03*
D14*
X143007500Y-76500000D03*
X149992500Y-76500000D03*
%TD*%
D10*
%TO.P,H3,1,1*%
%TO.N,GND*%
X58750000Y-64000000D03*
X59409010Y-62409010D03*
X59409010Y-65590990D03*
X61000000Y-61750000D03*
D11*
X61000000Y-64000000D03*
D10*
X61000000Y-66250000D03*
X62590990Y-62409010D03*
X62590990Y-65590990D03*
X63250000Y-64000000D03*
%TD*%
D15*
%TO.P,AE4,2*%
%TO.N,GND*%
X157750000Y-50000000D03*
%TD*%
D12*
%TO.P,J4,2,Ext*%
%TO.N,GND*%
X123992500Y-67555000D03*
X117007500Y-67555000D03*
D13*
X123992500Y-68000000D03*
X117007500Y-68000000D03*
D14*
X123992500Y-70540000D03*
X117007500Y-70540000D03*
%TD*%
D12*
%TO.P,J7,2,Ext*%
%TO.N,GND*%
X91007500Y-79485000D03*
X97992500Y-79485000D03*
D13*
X91007500Y-79040000D03*
X97992500Y-79040000D03*
D14*
X91007500Y-76500000D03*
X97992500Y-76500000D03*
%TD*%
D10*
%TO.P,H6,1,1*%
%TO.N,GND*%
X99750000Y-64000000D03*
X100409010Y-62409010D03*
X100409010Y-65590990D03*
X102000000Y-61750000D03*
D11*
X102000000Y-64000000D03*
D10*
X102000000Y-66250000D03*
X103590990Y-62409010D03*
X103590990Y-65590990D03*
X104250000Y-64000000D03*
%TD*%
D15*
%TO.P,AE8,*%
%TO.N,*%
X38750000Y-98000000D03*
D16*
%TO.P,AE8,2*%
%TO.N,GND*%
X35750000Y-96750000D03*
D17*
X41000000Y-102250000D03*
%TD*%
D10*
%TO.P,H20,1,1*%
%TO.N,GND*%
X151750000Y-83000000D03*
X152409010Y-81409010D03*
X152409010Y-84590990D03*
X154000000Y-80750000D03*
D11*
X154000000Y-83000000D03*
D10*
X154000000Y-85250000D03*
X155590990Y-81409010D03*
X155590990Y-84590990D03*
X156250000Y-83000000D03*
%TD*%
D18*
%TO.P,AE2,2*%
%TO.N,GND*%
X70600000Y-50000000D03*
%TD*%
D10*
%TO.P,H8,1,1*%
%TO.N,GND*%
X125750000Y-64000000D03*
X126409010Y-62409010D03*
X126409010Y-65590990D03*
X128000000Y-61750000D03*
D11*
X128000000Y-64000000D03*
D10*
X128000000Y-66250000D03*
X129590990Y-62409010D03*
X129590990Y-65590990D03*
X130250000Y-64000000D03*
%TD*%
%TO.P,H15,1,1*%
%TO.N,GND*%
X84750000Y-83000000D03*
X85409010Y-81409010D03*
X85409010Y-84590990D03*
X87000000Y-80750000D03*
D11*
X87000000Y-83000000D03*
D10*
X87000000Y-85250000D03*
X88590990Y-81409010D03*
X88590990Y-84590990D03*
X89250000Y-83000000D03*
%TD*%
%TO.P,H12,1,1*%
%TO.N,GND*%
X47750000Y-83000000D03*
X48409010Y-81409010D03*
X48409010Y-84590990D03*
X50000000Y-80750000D03*
D11*
X50000000Y-83000000D03*
D10*
X50000000Y-85250000D03*
X51590990Y-81409010D03*
X51590990Y-84590990D03*
X52250000Y-83000000D03*
%TD*%
%TO.P,H16,1,1*%
%TO.N,GND*%
X99750000Y-83000000D03*
X100409010Y-81409010D03*
X100409010Y-84590990D03*
X102000000Y-80750000D03*
D11*
X102000000Y-83000000D03*
D10*
X102000000Y-85250000D03*
X103590990Y-81409010D03*
X103590990Y-84590990D03*
X104250000Y-83000000D03*
%TD*%
D15*
%TO.P,AE7,*%
%TO.N,*%
X64250000Y-98000000D03*
X64750000Y-107000000D03*
D16*
%TO.P,AE7,2*%
%TO.N,GND*%
X61750000Y-96750000D03*
D17*
X67000000Y-102250000D03*
%TD*%
D10*
%TO.P,H13,1,1*%
%TO.N,GND*%
X58750000Y-82759010D03*
X59409010Y-81168020D03*
X59409010Y-84350000D03*
X61000000Y-80509010D03*
D11*
X61000000Y-82759010D03*
D10*
X61000000Y-85009010D03*
X62590990Y-81168020D03*
X62590990Y-84350000D03*
X63250000Y-82759010D03*
%TD*%
D12*
%TO.P,J1,2,Ext*%
%TO.N,GND*%
X45992500Y-67555000D03*
X39007500Y-67555000D03*
D13*
X45992500Y-68000000D03*
X39007500Y-68000000D03*
D14*
X45992500Y-70540000D03*
X39007500Y-70540000D03*
%TD*%
D15*
%TO.P,AE6,*%
%TO.N,*%
X97000000Y-99250000D03*
D19*
%TO.P,AE6,2*%
%TO.N,GND*%
X95750000Y-102250000D03*
D20*
X101250000Y-97000000D03*
%TD*%
D12*
%TO.P,J8,2,Ext*%
%TO.N,GND*%
X65007500Y-79485000D03*
X71992500Y-79485000D03*
D13*
X65007500Y-79040000D03*
X71992500Y-79040000D03*
D14*
X65007500Y-76500000D03*
X71992500Y-76500000D03*
%TD*%
D12*
%TO.P,J9,2,Ext*%
%TO.N,GND*%
X39007500Y-79485000D03*
X45992500Y-79485000D03*
D13*
X39007500Y-79040000D03*
X45992500Y-79040000D03*
D14*
X39007500Y-76500000D03*
X45992500Y-76500000D03*
%TD*%
D12*
%TO.P,J6,2,Ext*%
%TO.N,GND*%
X117007500Y-79485000D03*
X123992500Y-79485000D03*
D13*
X117007500Y-79040000D03*
X123992500Y-79040000D03*
D14*
X117007500Y-76500000D03*
X123992500Y-76500000D03*
%TD*%
D15*
%TO.P,AE5,*%
%TO.N,*%
X123000000Y-99750000D03*
X132000000Y-99250000D03*
D19*
%TO.P,AE5,2*%
%TO.N,GND*%
X121750000Y-102250000D03*
D20*
X127250000Y-97000000D03*
%TD*%
D12*
%TO.P,J2,2,Ext*%
%TO.N,GND*%
X97992500Y-67555000D03*
X91007500Y-67555000D03*
D13*
X97992500Y-68000000D03*
X91007500Y-68000000D03*
D14*
X97992500Y-70540000D03*
X91007500Y-70540000D03*
%TD*%
D10*
%TO.P,H1,1,1*%
%TO.N,GND*%
X32750000Y-64000000D03*
X33409010Y-62409010D03*
X33409010Y-65590990D03*
X35000000Y-61750000D03*
D11*
X35000000Y-64000000D03*
D10*
X35000000Y-66250000D03*
X36590990Y-62409010D03*
X36590990Y-65590990D03*
X37250000Y-64000000D03*
%TD*%
%TO.P,H18,1,1*%
%TO.N,GND*%
X125750000Y-83000000D03*
X126409010Y-81409010D03*
X126409010Y-84590990D03*
X128000000Y-80750000D03*
D11*
X128000000Y-83000000D03*
D10*
X128000000Y-85250000D03*
X129590990Y-81409010D03*
X129590990Y-84590990D03*
X130250000Y-83000000D03*
%TD*%
%TO.P,H14,1,1*%
%TO.N,GND*%
X73750000Y-83000000D03*
X74409010Y-81409010D03*
X74409010Y-84590990D03*
X76000000Y-80750000D03*
D11*
X76000000Y-83000000D03*
D10*
X76000000Y-85250000D03*
X77590990Y-81409010D03*
X77590990Y-84590990D03*
X78250000Y-83000000D03*
%TD*%
D12*
%TO.P,J3,2,Ext*%
%TO.N,GND*%
X71992500Y-67555000D03*
X65007500Y-67555000D03*
D13*
X71992500Y-68000000D03*
X65007500Y-68000000D03*
D14*
X71992500Y-70540000D03*
X65007500Y-70540000D03*
%TD*%
D10*
%TO.P,H17,1,1*%
%TO.N,GND*%
X110750000Y-83000000D03*
X111409010Y-81409010D03*
X111409010Y-84590990D03*
X113000000Y-80750000D03*
D11*
X113000000Y-83000000D03*
D10*
X113000000Y-85250000D03*
X114590990Y-81409010D03*
X114590990Y-84590990D03*
X115250000Y-83000000D03*
%TD*%
%TO.P,H4,1,1*%
%TO.N,GND*%
X73750000Y-64000000D03*
X74409010Y-62409010D03*
X74409010Y-65590990D03*
X76000000Y-61750000D03*
D11*
X76000000Y-64000000D03*
D10*
X76000000Y-66250000D03*
X77590990Y-62409010D03*
X77590990Y-65590990D03*
X78250000Y-64000000D03*
%TD*%
D21*
%TO.P,AE1,2*%
%TO.N,GND*%
X106000000Y-50000000D03*
%TD*%
D10*
%TO.P,H2,1,1*%
%TO.N,GND*%
X47750000Y-64000000D03*
X48409010Y-62409010D03*
X48409010Y-65590990D03*
X50000000Y-61750000D03*
D11*
X50000000Y-64000000D03*
D10*
X50000000Y-66250000D03*
X51590990Y-62409010D03*
X51590990Y-65590990D03*
X52250000Y-64000000D03*
%TD*%
D22*
%TO.P,AE3,2*%
%TO.N,GND*%
X130000000Y-50000000D03*
%TD*%
D12*
%TO.P,J5,2,Ext*%
%TO.N,GND*%
X149992500Y-67555000D03*
X143007500Y-67555000D03*
D13*
X149992500Y-68000000D03*
X143007500Y-68000000D03*
D14*
X149992500Y-70540000D03*
X143007500Y-70540000D03*
%TD*%
D10*
%TO.P,H7,1,1*%
%TO.N,GND*%
X110750000Y-64000000D03*
X111409010Y-62409010D03*
X111409010Y-65590990D03*
X113000000Y-61750000D03*
D11*
X113000000Y-64000000D03*
D10*
X113000000Y-66250000D03*
X114590990Y-62409010D03*
X114590990Y-65590990D03*
X115250000Y-64000000D03*
%TD*%
%TO.P,H5,1,1*%
%TO.N,GND*%
X84750000Y-64000000D03*
X85409010Y-62409010D03*
X85409010Y-65590990D03*
X87000000Y-61750000D03*
D11*
X87000000Y-64000000D03*
D10*
X87000000Y-66250000D03*
X88590990Y-62409010D03*
X88590990Y-65590990D03*
X89250000Y-64000000D03*
%TD*%
D23*
%TO.N,GND*%
X112000000Y-72000000D03*
X31000000Y-43000000D03*
X158000000Y-67000000D03*
X115000000Y-77000000D03*
X132000000Y-78000000D03*
X67000000Y-97000000D03*
X158000000Y-62000000D03*
X54000000Y-106000000D03*
X74000000Y-71000000D03*
X67000000Y-51000000D03*
X122000000Y-102000000D03*
X140000000Y-95000000D03*
X135000000Y-49000000D03*
X158000000Y-61000000D03*
X57000000Y-84000000D03*
X31000000Y-54000000D03*
X31000000Y-94000000D03*
X109000000Y-72000000D03*
X31000000Y-58000000D03*
X80000000Y-62000000D03*
X158000000Y-79000000D03*
X158000000Y-75000000D03*
X158000000Y-56000000D03*
X123000000Y-97000000D03*
X83000000Y-56000000D03*
X141000000Y-95000000D03*
X153000000Y-95000000D03*
X48000000Y-70000000D03*
X31000000Y-87000000D03*
X80000000Y-81000000D03*
X31000000Y-47000000D03*
X77000000Y-51000000D03*
X83000000Y-101000000D03*
X80000000Y-70000000D03*
X135000000Y-83000000D03*
X52000000Y-107000000D03*
X106000000Y-78000000D03*
X89000000Y-68000000D03*
X83000000Y-98000000D03*
X33000000Y-40000000D03*
X155000000Y-75000000D03*
X57000000Y-83000000D03*
X158000000Y-65000000D03*
X110000000Y-107000000D03*
X37000000Y-97000000D03*
X135000000Y-64000000D03*
X89000000Y-78000000D03*
X57000000Y-89000000D03*
X106000000Y-72000000D03*
X41000000Y-106000000D03*
X57000000Y-79000000D03*
X45000000Y-107000000D03*
X109000000Y-87000000D03*
X112000000Y-107000000D03*
X109000000Y-63000000D03*
X80000000Y-98000000D03*
X83000000Y-64000000D03*
X87000000Y-51000000D03*
X54000000Y-100000000D03*
X144000000Y-95000000D03*
X106000000Y-91000000D03*
X54000000Y-48000000D03*
X132000000Y-90000000D03*
X57000000Y-67000000D03*
X83000000Y-88000000D03*
X54000000Y-91000000D03*
X126000000Y-76000000D03*
X54000000Y-55000000D03*
X63000000Y-75000000D03*
X109000000Y-104000000D03*
X33000000Y-72000000D03*
X80000000Y-76000000D03*
X109000000Y-75000000D03*
X48000000Y-40000000D03*
X132000000Y-89000000D03*
X35000000Y-40000000D03*
X158000000Y-57000000D03*
X106000000Y-75000000D03*
X158000000Y-51000000D03*
X76000000Y-75000000D03*
X54000000Y-47000000D03*
X54000000Y-77000000D03*
X85000000Y-75000000D03*
X156000000Y-75000000D03*
X83000000Y-53000000D03*
X127000000Y-51000000D03*
X83000000Y-78000000D03*
X64000000Y-51000000D03*
X150000000Y-51000000D03*
X113000000Y-75000000D03*
X115000000Y-76000000D03*
X80000000Y-104000000D03*
X109000000Y-53000000D03*
X34000000Y-40000000D03*
X100000000Y-69000000D03*
X104000000Y-97000000D03*
X70000000Y-107000000D03*
X132000000Y-59000000D03*
X76000000Y-72000000D03*
X132000000Y-65000000D03*
X158000000Y-63000000D03*
X142000000Y-50000000D03*
X158000000Y-59000000D03*
X37000000Y-68000000D03*
X31000000Y-80000000D03*
X113000000Y-107000000D03*
X135000000Y-72000000D03*
X96000000Y-51000000D03*
X80000000Y-51000000D03*
X158000000Y-88000000D03*
X34000000Y-72000000D03*
X135000000Y-68000000D03*
X83000000Y-72000000D03*
X36000000Y-97000000D03*
X80000000Y-77000000D03*
X142000000Y-47000000D03*
X73000000Y-51000000D03*
X54000000Y-85000000D03*
X135000000Y-46000000D03*
X83000000Y-63000000D03*
X54000000Y-92000000D03*
X101000000Y-72000000D03*
X80000000Y-52000000D03*
X57000000Y-71000000D03*
X80000000Y-61000000D03*
X96000000Y-97000000D03*
X57000000Y-90000000D03*
X96000000Y-103000000D03*
X53000000Y-75000000D03*
X54000000Y-90000000D03*
X135000000Y-75000000D03*
X79000000Y-72000000D03*
X122000000Y-101000000D03*
X115000000Y-68000000D03*
X106000000Y-71000000D03*
X121000000Y-99000000D03*
X135000000Y-60000000D03*
X106000000Y-84000000D03*
X41000000Y-102000000D03*
X114000000Y-51000000D03*
X100000000Y-78000000D03*
X109000000Y-69000000D03*
X151000000Y-51000000D03*
X152000000Y-71000000D03*
X158000000Y-53000000D03*
X74000000Y-75000000D03*
X100000000Y-68000000D03*
X111000000Y-72000000D03*
X132000000Y-55000000D03*
X142000000Y-49000000D03*
X152000000Y-72000000D03*
X127000000Y-75000000D03*
X132000000Y-86000000D03*
X109000000Y-89000000D03*
X109000000Y-77000000D03*
X153000000Y-51000000D03*
X100000000Y-51000000D03*
X31000000Y-92000000D03*
X115000000Y-71000000D03*
X83000000Y-71000000D03*
X61000000Y-72000000D03*
X127000000Y-97000000D03*
X63000000Y-71000000D03*
X106000000Y-90000000D03*
X106000000Y-79000000D03*
X132000000Y-66000000D03*
X158000000Y-81000000D03*
X154000000Y-95000000D03*
X158000000Y-82000000D03*
X78000000Y-75000000D03*
X117000000Y-51000000D03*
X109000000Y-96000000D03*
X126000000Y-79000000D03*
X37000000Y-71000000D03*
X57000000Y-65000000D03*
X59000000Y-97000000D03*
X106000000Y-63000000D03*
X145000000Y-51000000D03*
X54000000Y-50000000D03*
X106000000Y-52000000D03*
X141000000Y-79000000D03*
X53000000Y-40000000D03*
X136000000Y-95000000D03*
X98000000Y-97000000D03*
X89000000Y-76000000D03*
X100000000Y-79000000D03*
X32000000Y-72000000D03*
X132000000Y-88000000D03*
X74000000Y-69000000D03*
X83000000Y-58000000D03*
X135000000Y-47000000D03*
X158000000Y-83000000D03*
X132000000Y-81000000D03*
X75000000Y-107000000D03*
X106000000Y-65000000D03*
X132000000Y-79000000D03*
X156000000Y-95000000D03*
X39000000Y-96000000D03*
X57000000Y-54000000D03*
X48000000Y-71000000D03*
X118000000Y-51000000D03*
X80000000Y-94000000D03*
X83000000Y-102000000D03*
X142000000Y-46000000D03*
X109000000Y-70000000D03*
X106000000Y-62000000D03*
X109000000Y-93000000D03*
X67000000Y-106000000D03*
X48000000Y-68000000D03*
X31000000Y-64000000D03*
X36000000Y-75000000D03*
X86000000Y-72000000D03*
X54000000Y-54000000D03*
X138000000Y-46000000D03*
X109000000Y-103000000D03*
X48000000Y-69000000D03*
X83000000Y-103000000D03*
X89000000Y-70000000D03*
X109000000Y-84000000D03*
X158000000Y-71000000D03*
X80000000Y-95000000D03*
X31000000Y-55000000D03*
X115000000Y-75000000D03*
X124000000Y-97000000D03*
X122000000Y-105000000D03*
X115000000Y-69000000D03*
X99000000Y-51000000D03*
X65000000Y-96000000D03*
X106000000Y-68000000D03*
X31000000Y-66000000D03*
X31000000Y-57000000D03*
X83000000Y-79000000D03*
X158000000Y-89000000D03*
X106000000Y-80000000D03*
X152000000Y-51000000D03*
X109000000Y-95000000D03*
X47000000Y-40000000D03*
X37000000Y-72000000D03*
X83000000Y-61000000D03*
X57000000Y-95000000D03*
X132000000Y-82000000D03*
X158000000Y-77000000D03*
X57000000Y-68000000D03*
X89000000Y-79000000D03*
X137000000Y-46000000D03*
X155000000Y-72000000D03*
X121000000Y-100000000D03*
X132000000Y-96000000D03*
X71000000Y-107000000D03*
X80000000Y-56000000D03*
X158000000Y-94000000D03*
X57000000Y-72000000D03*
X54000000Y-59000000D03*
X80000000Y-82000000D03*
X100000000Y-76000000D03*
X73000000Y-107000000D03*
X53000000Y-72000000D03*
X67000000Y-99000000D03*
X129000000Y-51000000D03*
X135000000Y-69000000D03*
X135000000Y-63000000D03*
X136000000Y-46000000D03*
X139000000Y-72000000D03*
X135000000Y-76000000D03*
X106000000Y-96000000D03*
X83000000Y-107000000D03*
X54000000Y-72000000D03*
X57000000Y-70000000D03*
X83000000Y-93000000D03*
X106000000Y-97000000D03*
X31000000Y-70000000D03*
X80000000Y-90000000D03*
X41000000Y-103000000D03*
X54000000Y-56000000D03*
X135000000Y-89000000D03*
X42000000Y-107000000D03*
X83000000Y-94000000D03*
X130000000Y-75000000D03*
X109000000Y-52000000D03*
X132000000Y-77000000D03*
X152000000Y-76000000D03*
X31000000Y-77000000D03*
X54000000Y-68000000D03*
X103000000Y-75000000D03*
X135000000Y-70000000D03*
X96000000Y-104000000D03*
X31000000Y-48000000D03*
X141000000Y-78000000D03*
X31000000Y-65000000D03*
X83000000Y-87000000D03*
X158000000Y-68000000D03*
X135000000Y-58000000D03*
X135000000Y-92000000D03*
X58000000Y-97000000D03*
X109000000Y-79000000D03*
X79000000Y-51000000D03*
X49000000Y-75000000D03*
X106000000Y-66000000D03*
X128000000Y-75000000D03*
X158000000Y-64000000D03*
X31000000Y-46000000D03*
X158000000Y-80000000D03*
X59000000Y-75000000D03*
X135000000Y-80000000D03*
X84000000Y-72000000D03*
X80000000Y-64000000D03*
X53000000Y-107000000D03*
X111000000Y-75000000D03*
X158000000Y-86000000D03*
X33000000Y-97000000D03*
X86000000Y-107000000D03*
X131000000Y-97000000D03*
X54000000Y-97000000D03*
X158000000Y-70000000D03*
X132000000Y-87000000D03*
X106000000Y-81000000D03*
X135000000Y-95000000D03*
X90000000Y-51000000D03*
X128000000Y-72000000D03*
X48000000Y-78000000D03*
X31000000Y-68000000D03*
X31000000Y-85000000D03*
X111000000Y-107000000D03*
X43000000Y-40000000D03*
X149000000Y-95000000D03*
X135000000Y-84000000D03*
X31000000Y-71000000D03*
X158000000Y-92000000D03*
X115000000Y-78000000D03*
X130000000Y-51000000D03*
X135000000Y-56000000D03*
X80000000Y-55000000D03*
X80000000Y-68000000D03*
X132000000Y-68000000D03*
X66000000Y-97000000D03*
X89000000Y-77000000D03*
X54000000Y-64000000D03*
X90000000Y-107000000D03*
X135000000Y-67000000D03*
X62000000Y-97000000D03*
X109000000Y-76000000D03*
X41000000Y-97000000D03*
X54000000Y-78000000D03*
X74000000Y-78000000D03*
X58000000Y-75000000D03*
X74000000Y-77000000D03*
X106000000Y-76000000D03*
X135000000Y-59000000D03*
X155000000Y-95000000D03*
X110000000Y-72000000D03*
X120000000Y-51000000D03*
X85000000Y-107000000D03*
X54000000Y-83000000D03*
X57000000Y-75000000D03*
X141000000Y-76000000D03*
X83000000Y-51000000D03*
X115000000Y-51000000D03*
X140000000Y-75000000D03*
X54000000Y-82000000D03*
X54000000Y-71000000D03*
X76000000Y-51000000D03*
X156000000Y-51000000D03*
X80000000Y-89000000D03*
X80000000Y-99000000D03*
X58000000Y-51000000D03*
X54000000Y-62000000D03*
X50000000Y-40000000D03*
X109000000Y-91000000D03*
X89000000Y-71000000D03*
X80000000Y-57000000D03*
X80000000Y-102000000D03*
X83000000Y-104000000D03*
X57000000Y-91000000D03*
X97000000Y-97000000D03*
X83000000Y-68000000D03*
X67000000Y-105000000D03*
X80000000Y-96000000D03*
X96000000Y-106000000D03*
X153000000Y-72000000D03*
X61000000Y-97000000D03*
X51000000Y-75000000D03*
X135000000Y-71000000D03*
X152000000Y-69000000D03*
X57000000Y-81000000D03*
X77000000Y-72000000D03*
X126000000Y-51000000D03*
X54000000Y-66000000D03*
X109000000Y-107000000D03*
X72000000Y-107000000D03*
X38000000Y-40000000D03*
X57000000Y-55000000D03*
X93000000Y-107000000D03*
X80000000Y-93000000D03*
X93000000Y-51000000D03*
X44000000Y-107000000D03*
X33000000Y-75000000D03*
X121000000Y-107000000D03*
X54000000Y-63000000D03*
X63000000Y-78000000D03*
X34000000Y-75000000D03*
X132000000Y-84000000D03*
X41000000Y-105000000D03*
X49000000Y-107000000D03*
X54000000Y-95000000D03*
X150000000Y-95000000D03*
X41000000Y-104000000D03*
X54000000Y-67000000D03*
X135000000Y-79000000D03*
X75000000Y-75000000D03*
X106000000Y-57000000D03*
X103000000Y-51000000D03*
X31000000Y-79000000D03*
X83000000Y-76000000D03*
X109000000Y-56000000D03*
X152000000Y-79000000D03*
X74000000Y-70000000D03*
X152000000Y-70000000D03*
X57000000Y-87000000D03*
X31000000Y-42000000D03*
X54000000Y-60000000D03*
X121000000Y-51000000D03*
X142000000Y-51000000D03*
X54000000Y-103000000D03*
X109000000Y-82000000D03*
X144000000Y-51000000D03*
X45000000Y-40000000D03*
X83000000Y-59000000D03*
X54000000Y-98000000D03*
X71000000Y-51000000D03*
X31000000Y-63000000D03*
X83000000Y-85000000D03*
X38000000Y-96000000D03*
X109000000Y-100000000D03*
X31000000Y-83000000D03*
X58000000Y-72000000D03*
X41000000Y-107000000D03*
X83000000Y-70000000D03*
X48000000Y-79000000D03*
X94000000Y-51000000D03*
X135000000Y-94000000D03*
X139000000Y-95000000D03*
X135000000Y-54000000D03*
X80000000Y-72000000D03*
X109000000Y-86000000D03*
X52000000Y-72000000D03*
X31000000Y-45000000D03*
X74000000Y-51000000D03*
X60000000Y-51000000D03*
X106000000Y-95000000D03*
X54000000Y-88000000D03*
X65000000Y-51000000D03*
X158000000Y-72000000D03*
X132000000Y-57000000D03*
X122000000Y-104000000D03*
X149000000Y-51000000D03*
X54000000Y-49000000D03*
X57000000Y-57000000D03*
X57000000Y-61000000D03*
X116000000Y-51000000D03*
X83000000Y-80000000D03*
X31000000Y-59000000D03*
X80000000Y-69000000D03*
X106000000Y-94000000D03*
X106000000Y-53000000D03*
X62000000Y-75000000D03*
X114000000Y-75000000D03*
X106000000Y-87000000D03*
X104000000Y-51000000D03*
X115000000Y-107000000D03*
X106000000Y-89000000D03*
X157000000Y-72000000D03*
X135000000Y-86000000D03*
X48000000Y-77000000D03*
X132000000Y-51000000D03*
X54000000Y-96000000D03*
X141000000Y-72000000D03*
X143000000Y-51000000D03*
X49000000Y-72000000D03*
X139000000Y-75000000D03*
X88000000Y-75000000D03*
X31000000Y-75000000D03*
X109000000Y-85000000D03*
X100000000Y-72000000D03*
X59000000Y-51000000D03*
X109000000Y-64000000D03*
X41000000Y-99000000D03*
X106000000Y-82000000D03*
X57000000Y-85000000D03*
X91000000Y-107000000D03*
X80000000Y-92000000D03*
X46000000Y-40000000D03*
X158000000Y-52000000D03*
X72000000Y-51000000D03*
X83000000Y-106000000D03*
X106000000Y-77000000D03*
X109000000Y-59000000D03*
X48000000Y-107000000D03*
X31000000Y-96000000D03*
X154000000Y-51000000D03*
X31000000Y-51000000D03*
X54000000Y-57000000D03*
X106000000Y-58000000D03*
X154000000Y-75000000D03*
X109000000Y-58000000D03*
X52000000Y-75000000D03*
X31000000Y-56000000D03*
X63000000Y-76000000D03*
X135000000Y-88000000D03*
X115000000Y-72000000D03*
X54000000Y-86000000D03*
X35000000Y-75000000D03*
X106000000Y-69000000D03*
X80000000Y-63000000D03*
X87000000Y-75000000D03*
X122000000Y-51000000D03*
X132000000Y-91000000D03*
X47000000Y-107000000D03*
X106000000Y-54000000D03*
X141000000Y-69000000D03*
X67000000Y-100000000D03*
X31000000Y-60000000D03*
X63000000Y-51000000D03*
X80000000Y-105000000D03*
X100000000Y-71000000D03*
X89000000Y-69000000D03*
X106000000Y-59000000D03*
X60000000Y-72000000D03*
X63000000Y-97000000D03*
X83000000Y-75000000D03*
X142000000Y-48000000D03*
X64000000Y-96000000D03*
X80000000Y-67000000D03*
X129000000Y-72000000D03*
X80000000Y-60000000D03*
X57000000Y-86000000D03*
X135000000Y-82000000D03*
X132000000Y-67000000D03*
X52000000Y-40000000D03*
X141000000Y-77000000D03*
X127000000Y-72000000D03*
X80000000Y-66000000D03*
X109000000Y-81000000D03*
X132000000Y-94000000D03*
X126000000Y-71000000D03*
X95000000Y-100000000D03*
X83000000Y-67000000D03*
X80000000Y-103000000D03*
X143000000Y-95000000D03*
X137000000Y-72000000D03*
X37000000Y-76000000D03*
X132000000Y-75000000D03*
X109000000Y-62000000D03*
X57000000Y-56000000D03*
X83000000Y-97000000D03*
X129000000Y-75000000D03*
X31000000Y-52000000D03*
X146000000Y-51000000D03*
X83000000Y-57000000D03*
X135000000Y-81000000D03*
X48000000Y-75000000D03*
X36000000Y-72000000D03*
X111000000Y-51000000D03*
X95000000Y-107000000D03*
X83000000Y-91000000D03*
X74000000Y-107000000D03*
X54000000Y-51000000D03*
X135000000Y-55000000D03*
X42000000Y-40000000D03*
X80000000Y-71000000D03*
X54000000Y-94000000D03*
X158000000Y-90000000D03*
X105000000Y-51000000D03*
X141000000Y-75000000D03*
X115000000Y-79000000D03*
X130000000Y-72000000D03*
X135000000Y-53000000D03*
X31000000Y-53000000D03*
X115000000Y-70000000D03*
X31000000Y-90000000D03*
X67000000Y-103000000D03*
X57000000Y-88000000D03*
X122000000Y-106000000D03*
X54000000Y-76000000D03*
X57000000Y-66000000D03*
X152000000Y-68000000D03*
X70000000Y-51000000D03*
X83000000Y-100000000D03*
X95000000Y-99000000D03*
X31000000Y-49000000D03*
X100000000Y-77000000D03*
X37000000Y-40000000D03*
X132000000Y-52000000D03*
X69000000Y-107000000D03*
X158000000Y-66000000D03*
X126000000Y-68000000D03*
X131000000Y-72000000D03*
X37000000Y-78000000D03*
X75000000Y-51000000D03*
X85000000Y-72000000D03*
X51000000Y-107000000D03*
X106000000Y-85000000D03*
X88000000Y-107000000D03*
X132000000Y-61000000D03*
X135000000Y-66000000D03*
X54000000Y-104000000D03*
X106000000Y-70000000D03*
X41000000Y-40000000D03*
X89000000Y-75000000D03*
X136000000Y-72000000D03*
X39000000Y-40000000D03*
X54000000Y-105000000D03*
X122000000Y-97750000D03*
X31000000Y-50000000D03*
X102000000Y-97000000D03*
X31000000Y-69000000D03*
X109000000Y-67000000D03*
X62000000Y-51000000D03*
X132000000Y-62000000D03*
X119000000Y-107000000D03*
X37000000Y-69000000D03*
X83000000Y-62000000D03*
X57000000Y-76000000D03*
X96000000Y-102000000D03*
X125000000Y-97000000D03*
X40000000Y-40000000D03*
X152000000Y-75000000D03*
X98000000Y-51000000D03*
X35000000Y-72000000D03*
X32000000Y-97000000D03*
X75000000Y-72000000D03*
X80000000Y-107000000D03*
X152000000Y-95000000D03*
X57000000Y-80000000D03*
X74000000Y-76000000D03*
X74000000Y-79000000D03*
X109000000Y-60000000D03*
X50000000Y-75000000D03*
X37000000Y-70000000D03*
X92000000Y-107000000D03*
X78000000Y-51000000D03*
X74000000Y-68000000D03*
X114000000Y-107000000D03*
X131000000Y-75000000D03*
X106000000Y-64000000D03*
X83000000Y-86000000D03*
X94000000Y-107000000D03*
X158000000Y-78000000D03*
X80000000Y-100000000D03*
X101000000Y-97000000D03*
X131000000Y-51000000D03*
X80000000Y-78000000D03*
X80000000Y-59000000D03*
X67000000Y-98000000D03*
X135000000Y-62000000D03*
X57000000Y-59000000D03*
X119000000Y-51000000D03*
X76000000Y-107000000D03*
X51000000Y-72000000D03*
X63000000Y-79000000D03*
X31000000Y-78000000D03*
X129000000Y-97000000D03*
X57000000Y-97000000D03*
X126000000Y-72000000D03*
X141000000Y-68000000D03*
X80000000Y-65000000D03*
X110000000Y-75000000D03*
X54000000Y-102000000D03*
X116000000Y-107000000D03*
X31000000Y-93000000D03*
X96000000Y-101000000D03*
X158000000Y-91000000D03*
X128000000Y-51000000D03*
X60000000Y-75000000D03*
X113000000Y-72000000D03*
X57000000Y-92000000D03*
X135000000Y-90000000D03*
X100000000Y-75000000D03*
X83000000Y-69000000D03*
X37000000Y-77000000D03*
X109000000Y-51000000D03*
X106000000Y-93000000D03*
X57000000Y-62000000D03*
X57000000Y-51000000D03*
X109000000Y-105000000D03*
X104000000Y-72000000D03*
X109000000Y-54000000D03*
X57000000Y-93000000D03*
X83000000Y-52000000D03*
X110000000Y-51000000D03*
X57000000Y-64000000D03*
X118000000Y-107000000D03*
X105000000Y-97000000D03*
X109000000Y-83000000D03*
X141000000Y-46000000D03*
X106000000Y-86000000D03*
X80000000Y-101000000D03*
X37000000Y-79000000D03*
X74000000Y-72000000D03*
X138000000Y-95000000D03*
X80000000Y-86000000D03*
X126000000Y-78000000D03*
X80000000Y-58000000D03*
X154000000Y-72000000D03*
X57000000Y-60000000D03*
X99000000Y-97000000D03*
X157000000Y-51000000D03*
X57000000Y-69000000D03*
X48000000Y-76000000D03*
X132000000Y-76000000D03*
X57000000Y-63000000D03*
X130000000Y-97000000D03*
X57000000Y-52000000D03*
X34000000Y-97000000D03*
X48000000Y-72000000D03*
X96000000Y-98000000D03*
X63000000Y-72000000D03*
X106000000Y-83000000D03*
X135000000Y-57000000D03*
X132000000Y-63000000D03*
X109000000Y-97000000D03*
X83000000Y-81000000D03*
X31000000Y-88000000D03*
X101000000Y-51000000D03*
X123000000Y-51000000D03*
X96000000Y-105000000D03*
X106000000Y-56000000D03*
X109000000Y-66000000D03*
X126000000Y-75000000D03*
X132000000Y-95000000D03*
X80000000Y-87000000D03*
X91000000Y-51000000D03*
X43000000Y-107000000D03*
X92000000Y-51000000D03*
X152000000Y-78000000D03*
X105000000Y-72000000D03*
X80000000Y-97000000D03*
X95000000Y-51000000D03*
X50000000Y-72000000D03*
X135000000Y-48000000D03*
X158000000Y-58000000D03*
X44000000Y-40000000D03*
X128000000Y-97000000D03*
X105000000Y-75000000D03*
X109000000Y-80000000D03*
X157000000Y-75000000D03*
X61000000Y-75000000D03*
X141000000Y-71000000D03*
X36000000Y-40000000D03*
X113000000Y-51000000D03*
X83000000Y-55000000D03*
X106000000Y-92000000D03*
X135000000Y-61000000D03*
X80000000Y-75000000D03*
X83000000Y-90000000D03*
X40000000Y-97000000D03*
X41000000Y-100000000D03*
X132000000Y-60000000D03*
X54000000Y-46000000D03*
X77000000Y-75000000D03*
X122000000Y-103000000D03*
X84000000Y-107000000D03*
X57000000Y-77000000D03*
X63000000Y-68000000D03*
X63000000Y-77000000D03*
X109000000Y-71000000D03*
X79000000Y-75000000D03*
X54000000Y-53000000D03*
X83000000Y-82000000D03*
X87000000Y-107000000D03*
X54000000Y-89000000D03*
X83000000Y-105000000D03*
X80000000Y-54000000D03*
X112000000Y-75000000D03*
X66000000Y-51000000D03*
X152000000Y-77000000D03*
X54000000Y-70000000D03*
X86000000Y-75000000D03*
X137000000Y-95000000D03*
X54000000Y-40000000D03*
X83000000Y-99000000D03*
X135000000Y-93000000D03*
X89000000Y-72000000D03*
X109000000Y-106000000D03*
X101000000Y-75000000D03*
X135000000Y-50000000D03*
X57000000Y-53000000D03*
X31000000Y-67000000D03*
X117000000Y-107000000D03*
X140000000Y-72000000D03*
X109000000Y-68000000D03*
X109000000Y-102000000D03*
X54000000Y-61000000D03*
X132000000Y-80000000D03*
X80000000Y-106000000D03*
X31000000Y-89000000D03*
X132000000Y-92000000D03*
X158000000Y-55000000D03*
X151000000Y-95000000D03*
X78000000Y-107000000D03*
X67000000Y-102000000D03*
X109000000Y-98000000D03*
X158000000Y-76000000D03*
X132000000Y-58000000D03*
X32000000Y-75000000D03*
X132000000Y-93000000D03*
X54000000Y-80000000D03*
X31000000Y-97000000D03*
X153000000Y-75000000D03*
X102000000Y-72000000D03*
X135000000Y-85000000D03*
X54000000Y-45000000D03*
X83000000Y-77000000D03*
X83000000Y-96000000D03*
X87000000Y-72000000D03*
X158000000Y-95000000D03*
X135000000Y-91000000D03*
X84000000Y-51000000D03*
X77000000Y-107000000D03*
X54000000Y-75000000D03*
X147000000Y-51000000D03*
X54000000Y-81000000D03*
X120000000Y-107000000D03*
X132000000Y-97000000D03*
X80000000Y-88000000D03*
X89000000Y-51000000D03*
X109000000Y-57000000D03*
X80000000Y-85000000D03*
X109000000Y-88000000D03*
X83000000Y-65000000D03*
X158000000Y-69000000D03*
X86000000Y-51000000D03*
X138000000Y-75000000D03*
X106000000Y-61000000D03*
X54000000Y-44000000D03*
X32000000Y-40000000D03*
X158000000Y-54000000D03*
X132000000Y-83000000D03*
X132000000Y-71000000D03*
X59000000Y-72000000D03*
X122000000Y-107000000D03*
X79000000Y-107000000D03*
X88000000Y-51000000D03*
X132000000Y-85000000D03*
X109000000Y-90000000D03*
X60000000Y-97000000D03*
X54000000Y-65000000D03*
X83000000Y-84000000D03*
X158000000Y-87000000D03*
X57000000Y-96000000D03*
X54000000Y-87000000D03*
X126000000Y-70000000D03*
X63000000Y-69000000D03*
X83000000Y-95000000D03*
X83000000Y-54000000D03*
X132000000Y-69000000D03*
X125000000Y-51000000D03*
X41000000Y-98000000D03*
X114000000Y-72000000D03*
X80000000Y-79000000D03*
X97000000Y-51000000D03*
X96000000Y-107000000D03*
X54000000Y-99000000D03*
X50000000Y-107000000D03*
X104000000Y-75000000D03*
X54000000Y-101000000D03*
X68000000Y-107000000D03*
X135000000Y-87000000D03*
X31000000Y-76000000D03*
X132000000Y-54000000D03*
X112000000Y-51000000D03*
X84000000Y-75000000D03*
X106000000Y-60000000D03*
X89000000Y-107000000D03*
X139000000Y-46000000D03*
X137000000Y-75000000D03*
X31000000Y-41000000D03*
X57000000Y-58000000D03*
X78000000Y-72000000D03*
X31000000Y-61000000D03*
X37000000Y-75000000D03*
X54000000Y-43000000D03*
X54000000Y-84000000D03*
X83000000Y-89000000D03*
X158000000Y-85000000D03*
X148000000Y-51000000D03*
X83000000Y-83000000D03*
X106000000Y-67000000D03*
X132000000Y-56000000D03*
X106000000Y-88000000D03*
X109000000Y-92000000D03*
X141000000Y-70000000D03*
X61000000Y-51000000D03*
X57000000Y-78000000D03*
X109000000Y-101000000D03*
X31000000Y-44000000D03*
X46000000Y-107000000D03*
X31000000Y-62000000D03*
X54000000Y-93000000D03*
X35000000Y-97000000D03*
X57000000Y-82000000D03*
X132000000Y-70000000D03*
X109000000Y-61000000D03*
X158000000Y-93000000D03*
X67000000Y-107000000D03*
X54000000Y-52000000D03*
X80000000Y-53000000D03*
X122000000Y-97000000D03*
X106000000Y-51000000D03*
X67000000Y-104000000D03*
X156000000Y-72000000D03*
X109000000Y-78000000D03*
X135000000Y-77000000D03*
X132000000Y-72000000D03*
X31000000Y-72000000D03*
X31000000Y-86000000D03*
X80000000Y-84000000D03*
X109000000Y-94000000D03*
X158000000Y-60000000D03*
X49000000Y-40000000D03*
X126000000Y-77000000D03*
X140000000Y-46000000D03*
X158000000Y-84000000D03*
X31000000Y-81000000D03*
X54000000Y-42000000D03*
X157000000Y-95000000D03*
X54000000Y-107000000D03*
X85000000Y-51000000D03*
X109000000Y-65000000D03*
X100000000Y-70000000D03*
X31000000Y-91000000D03*
X31000000Y-82000000D03*
X88000000Y-72000000D03*
X51000000Y-40000000D03*
X136000000Y-75000000D03*
X31000000Y-95000000D03*
X80000000Y-91000000D03*
X109000000Y-99000000D03*
X80000000Y-83000000D03*
X83000000Y-66000000D03*
X102000000Y-75000000D03*
X103000000Y-72000000D03*
X135000000Y-52000000D03*
X132000000Y-64000000D03*
X138000000Y-72000000D03*
X80000000Y-80000000D03*
X54000000Y-41000000D03*
X54000000Y-58000000D03*
X54000000Y-79000000D03*
X63000000Y-70000000D03*
X126000000Y-69000000D03*
X57000000Y-94000000D03*
X31000000Y-84000000D03*
X62000000Y-72000000D03*
X54000000Y-69000000D03*
X109000000Y-55000000D03*
X103000000Y-97000000D03*
X106000000Y-55000000D03*
X132000000Y-53000000D03*
X83000000Y-60000000D03*
X135000000Y-78000000D03*
X31000000Y-40000000D03*
X142000000Y-95000000D03*
X83000000Y-92000000D03*
X135000000Y-65000000D03*
X135000000Y-51000000D03*
%TD*%
%TA.AperFunction,Conductor*%
%TO.N,GND*%
G36*
X110245519Y-74018954D02*
G01*
X110326300Y-74072930D01*
X110438076Y-74184705D01*
X110438077Y-74184706D01*
X110582453Y-74281175D01*
X110742876Y-74347624D01*
X110785452Y-74356093D01*
X110913177Y-74381500D01*
X114926000Y-74381500D01*
X115021288Y-74400454D01*
X115102070Y-74454430D01*
X115156046Y-74535212D01*
X115175000Y-74630500D01*
X115175000Y-76249999D01*
X115175001Y-76250000D01*
X118839999Y-76250000D01*
X118840000Y-76249999D01*
X118840000Y-74630500D01*
X118858954Y-74535212D01*
X118912930Y-74454430D01*
X118993712Y-74400454D01*
X119089000Y-74381500D01*
X121911000Y-74381500D01*
X122006288Y-74400454D01*
X122087070Y-74454430D01*
X122141046Y-74535212D01*
X122160000Y-74630500D01*
X122160000Y-76249999D01*
X122160001Y-76250000D01*
X125824999Y-76250000D01*
X125825000Y-76249999D01*
X125825000Y-74630500D01*
X125843954Y-74535212D01*
X125897930Y-74454430D01*
X125978712Y-74400454D01*
X126074000Y-74381500D01*
X130086823Y-74381500D01*
X130189002Y-74361174D01*
X130257124Y-74347624D01*
X130417547Y-74281175D01*
X130561923Y-74184706D01*
X130617811Y-74128817D01*
X130673700Y-74072930D01*
X130754481Y-74018954D01*
X130849769Y-74000000D01*
X131150231Y-74000000D01*
X131245519Y-74018954D01*
X131326300Y-74072930D01*
X131438076Y-74184705D01*
X131438077Y-74184706D01*
X131582453Y-74281175D01*
X131742876Y-74347624D01*
X131785452Y-74356093D01*
X131913177Y-74381500D01*
X131913180Y-74381500D01*
X131945149Y-74381500D01*
X131986020Y-74381500D01*
X132013898Y-74383066D01*
X132031218Y-74385017D01*
X132109749Y-74393865D01*
X132164109Y-74406273D01*
X132241875Y-74433485D01*
X132292109Y-74457676D01*
X132361871Y-74501510D01*
X132405466Y-74536275D01*
X132463724Y-74594533D01*
X132498489Y-74638128D01*
X132542323Y-74707890D01*
X132566514Y-74758124D01*
X132593726Y-74835890D01*
X132606134Y-74890251D01*
X132616934Y-74986100D01*
X132618500Y-75013980D01*
X132618500Y-75086823D01*
X132652375Y-75257122D01*
X132718824Y-75417546D01*
X132815294Y-75561923D01*
X132927070Y-75673700D01*
X132981046Y-75754481D01*
X133000000Y-75849769D01*
X133000000Y-76150231D01*
X132981046Y-76245519D01*
X132927070Y-76326300D01*
X132815294Y-76438076D01*
X132718824Y-76582453D01*
X132652375Y-76742877D01*
X132618500Y-76913177D01*
X132618500Y-95086823D01*
X132652375Y-95257122D01*
X132718824Y-95417546D01*
X132815294Y-95561923D01*
X132927070Y-95673700D01*
X132981046Y-95754481D01*
X133000000Y-95849769D01*
X133000000Y-96150231D01*
X132981046Y-96245519D01*
X132927070Y-96326300D01*
X132815294Y-96438076D01*
X132718824Y-96582453D01*
X132667640Y-96706025D01*
X132630074Y-96768701D01*
X132575931Y-96817773D01*
X132509875Y-96849015D01*
X132437594Y-96859737D01*
X122050312Y-96859737D01*
X122011358Y-96856671D01*
X122000000Y-96854871D01*
X121969286Y-96859736D01*
X121969284Y-96859736D01*
X121969284Y-96859737D01*
X121917143Y-96867995D01*
X121877895Y-96874211D01*
X121767752Y-96930333D01*
X121680333Y-97017752D01*
X121624210Y-97127898D01*
X121604871Y-97249998D01*
X121606671Y-97261358D01*
X121609737Y-97300312D01*
X121609737Y-107369500D01*
X121590783Y-107464788D01*
X121536807Y-107545570D01*
X121456025Y-107599546D01*
X121360737Y-107618500D01*
X109013980Y-107618500D01*
X108986102Y-107616934D01*
X108955117Y-107613442D01*
X108890251Y-107606134D01*
X108835890Y-107593726D01*
X108758124Y-107566514D01*
X108707890Y-107542323D01*
X108638128Y-107498489D01*
X108594533Y-107463724D01*
X108536275Y-107405466D01*
X108501510Y-107361871D01*
X108457676Y-107292109D01*
X108433485Y-107241875D01*
X108406273Y-107164109D01*
X108393865Y-107109746D01*
X108383066Y-107013898D01*
X108381500Y-106986020D01*
X108381500Y-96913177D01*
X108347624Y-96742877D01*
X108281175Y-96582453D01*
X108184705Y-96438076D01*
X108072930Y-96326300D01*
X108018954Y-96245519D01*
X108000000Y-96150231D01*
X108000000Y-95849769D01*
X108018954Y-95754481D01*
X108072930Y-95673700D01*
X108128817Y-95617811D01*
X108184706Y-95561923D01*
X108281175Y-95417547D01*
X108347624Y-95257124D01*
X108361174Y-95189002D01*
X108381500Y-95086823D01*
X108381500Y-85646702D01*
X110706851Y-85646702D01*
X110939931Y-85835448D01*
X111247600Y-86035249D01*
X111574459Y-86201793D01*
X111916957Y-86333265D01*
X112271318Y-86428216D01*
X112633641Y-86485602D01*
X113000000Y-86504803D01*
X113366358Y-86485602D01*
X113728681Y-86428216D01*
X114083042Y-86333265D01*
X114425540Y-86201793D01*
X114752399Y-86035249D01*
X115060072Y-85835444D01*
X115293147Y-85646702D01*
X125706851Y-85646702D01*
X125939931Y-85835448D01*
X126247600Y-86035249D01*
X126574459Y-86201793D01*
X126916957Y-86333265D01*
X127271318Y-86428216D01*
X127633641Y-86485602D01*
X128000000Y-86504803D01*
X128366358Y-86485602D01*
X128728681Y-86428216D01*
X129083042Y-86333265D01*
X129425540Y-86201793D01*
X129752399Y-86035249D01*
X130060072Y-85835444D01*
X130293147Y-85646702D01*
X130293147Y-85646701D01*
X128000000Y-83353554D01*
X125706851Y-85646702D01*
X115293147Y-85646702D01*
X115293147Y-85646701D01*
X113000000Y-83353554D01*
X110706851Y-85646702D01*
X108381500Y-85646702D01*
X108381500Y-83000000D01*
X109495196Y-83000000D01*
X109514397Y-83366358D01*
X109571783Y-83728681D01*
X109666734Y-84083042D01*
X109798206Y-84425540D01*
X109964750Y-84752399D01*
X110164555Y-85060073D01*
X110353296Y-85293147D01*
X112646443Y-83000000D01*
X113353554Y-83000000D01*
X115646701Y-85293147D01*
X115646702Y-85293147D01*
X115835444Y-85060072D01*
X116035249Y-84752399D01*
X116201793Y-84425540D01*
X116333265Y-84083042D01*
X116428216Y-83728681D01*
X116485602Y-83366358D01*
X116504803Y-83000000D01*
X124495196Y-83000000D01*
X124514397Y-83366358D01*
X124571783Y-83728681D01*
X124666734Y-84083042D01*
X124798206Y-84425540D01*
X124964750Y-84752399D01*
X125164555Y-85060073D01*
X125353296Y-85293147D01*
X127646443Y-83000000D01*
X128353554Y-83000000D01*
X130646701Y-85293147D01*
X130646702Y-85293147D01*
X130835444Y-85060072D01*
X131035249Y-84752399D01*
X131201793Y-84425540D01*
X131333265Y-84083042D01*
X131428216Y-83728681D01*
X131485602Y-83366358D01*
X131504803Y-83000000D01*
X131485602Y-82633641D01*
X131428216Y-82271318D01*
X131333265Y-81916957D01*
X131201793Y-81574459D01*
X131035249Y-81247601D01*
X130835444Y-80939927D01*
X130646702Y-80706851D01*
X128353554Y-83000000D01*
X127646443Y-83000000D01*
X127646444Y-82999999D01*
X125353296Y-80706851D01*
X125164551Y-80939933D01*
X124964750Y-81247601D01*
X124798206Y-81574459D01*
X124666734Y-81916957D01*
X124571783Y-82271318D01*
X124514397Y-82633641D01*
X124495196Y-83000000D01*
X116504803Y-83000000D01*
X116485602Y-82633641D01*
X116428216Y-82271318D01*
X116333265Y-81916957D01*
X116201793Y-81574459D01*
X116035249Y-81247601D01*
X115835444Y-80939927D01*
X115646702Y-80706851D01*
X113353554Y-83000000D01*
X112646443Y-83000000D01*
X112646444Y-82999999D01*
X110353296Y-80706851D01*
X110164551Y-80939933D01*
X109964750Y-81247601D01*
X109798206Y-81574459D01*
X109666734Y-81916957D01*
X109571783Y-82271318D01*
X109514397Y-82633641D01*
X109495196Y-83000000D01*
X108381500Y-83000000D01*
X108381500Y-80353296D01*
X110706851Y-80353296D01*
X112999999Y-82646444D01*
X115293147Y-80353296D01*
X115271777Y-80335991D01*
X116510060Y-80335991D01*
X116628735Y-80399426D01*
X116814403Y-80455747D01*
X117007500Y-80474766D01*
X117200596Y-80455747D01*
X117386266Y-80399425D01*
X117504938Y-80335992D01*
X117504937Y-80335991D01*
X123495060Y-80335991D01*
X123613735Y-80399426D01*
X123799403Y-80455747D01*
X123992500Y-80474766D01*
X124185596Y-80455747D01*
X124371266Y-80399425D01*
X124457565Y-80353296D01*
X125706851Y-80353296D01*
X127999999Y-82646444D01*
X130293147Y-80353296D01*
X130060073Y-80164555D01*
X129752399Y-79964750D01*
X129425540Y-79798206D01*
X129083042Y-79666734D01*
X128728681Y-79571783D01*
X128366358Y-79514397D01*
X128000000Y-79495196D01*
X127633641Y-79514397D01*
X127271318Y-79571783D01*
X126916957Y-79666734D01*
X126574459Y-79798206D01*
X126247601Y-79964750D01*
X125939933Y-80164551D01*
X125706851Y-80353296D01*
X124457565Y-80353296D01*
X124489938Y-80335992D01*
X123992499Y-79838553D01*
X123495060Y-80335991D01*
X117504937Y-80335991D01*
X117007499Y-79838553D01*
X116510060Y-80335991D01*
X115271777Y-80335991D01*
X115060073Y-80164555D01*
X114752399Y-79964750D01*
X114425540Y-79798206D01*
X114083042Y-79666734D01*
X113728681Y-79571783D01*
X113366358Y-79514397D01*
X113000000Y-79495196D01*
X112633641Y-79514397D01*
X112271318Y-79571783D01*
X111916957Y-79666734D01*
X111574459Y-79798206D01*
X111247601Y-79964750D01*
X110939933Y-80164551D01*
X110706851Y-80353296D01*
X108381500Y-80353296D01*
X108381500Y-78642831D01*
X115175000Y-78642831D01*
X115181401Y-78702373D01*
X115231647Y-78837090D01*
X115317810Y-78952189D01*
X115432909Y-79038352D01*
X115567626Y-79088598D01*
X115627169Y-79095000D01*
X115781416Y-79095000D01*
X115862996Y-79108743D01*
X115935570Y-79148456D01*
X115991128Y-79209754D01*
X116023536Y-79285872D01*
X116029217Y-79368406D01*
X116017733Y-79484999D01*
X116036752Y-79678095D01*
X116093074Y-79863766D01*
X116156506Y-79982438D01*
X116831429Y-79307516D01*
X116912211Y-79253540D01*
X117007499Y-79234586D01*
X117102787Y-79253540D01*
X117183568Y-79307516D01*
X117858491Y-79982439D01*
X117858492Y-79982438D01*
X117921925Y-79863766D01*
X117978247Y-79678096D01*
X117997266Y-79484999D01*
X117985783Y-79368406D01*
X117991464Y-79285872D01*
X118023872Y-79209754D01*
X118079430Y-79148456D01*
X118152004Y-79108743D01*
X118233584Y-79095000D01*
X118387831Y-79095000D01*
X118447373Y-79088598D01*
X118582090Y-79038352D01*
X118697189Y-78952189D01*
X118783352Y-78837090D01*
X118833598Y-78702373D01*
X118840000Y-78642831D01*
X122160000Y-78642831D01*
X122166401Y-78702373D01*
X122216647Y-78837090D01*
X122302810Y-78952189D01*
X122417909Y-79038352D01*
X122552626Y-79088598D01*
X122612169Y-79095000D01*
X122766416Y-79095000D01*
X122847996Y-79108743D01*
X122920570Y-79148456D01*
X122976128Y-79209754D01*
X123008536Y-79285872D01*
X123014217Y-79368406D01*
X123002733Y-79484999D01*
X123021752Y-79678095D01*
X123078074Y-79863766D01*
X123141506Y-79982438D01*
X123816429Y-79307516D01*
X123897211Y-79253540D01*
X123992499Y-79234586D01*
X124087787Y-79253540D01*
X124168568Y-79307516D01*
X124843491Y-79982439D01*
X124843492Y-79982438D01*
X124906925Y-79863766D01*
X124963247Y-79678096D01*
X124982266Y-79484999D01*
X124970783Y-79368406D01*
X124976464Y-79285872D01*
X125008872Y-79209754D01*
X125064430Y-79148456D01*
X125137004Y-79108743D01*
X125218584Y-79095000D01*
X125372831Y-79095000D01*
X125432373Y-79088598D01*
X125567090Y-79038352D01*
X125682189Y-78952189D01*
X125768352Y-78837090D01*
X125818598Y-78702373D01*
X125825000Y-78642831D01*
X125825000Y-76750001D01*
X125824999Y-76750000D01*
X122160001Y-76750000D01*
X122160000Y-76750001D01*
X122160000Y-78642831D01*
X118840000Y-78642831D01*
X118840000Y-76750001D01*
X118839999Y-76750000D01*
X115175001Y-76750000D01*
X115175000Y-76750001D01*
X115175000Y-78642831D01*
X108381500Y-78642831D01*
X108381500Y-76913177D01*
X108347624Y-76742877D01*
X108281175Y-76582453D01*
X108184705Y-76438076D01*
X108072930Y-76326300D01*
X108018954Y-76245519D01*
X108000000Y-76150231D01*
X108000000Y-75849769D01*
X108018954Y-75754481D01*
X108072930Y-75673700D01*
X108128817Y-75617811D01*
X108184706Y-75561923D01*
X108281175Y-75417547D01*
X108347624Y-75257124D01*
X108361174Y-75189002D01*
X108381500Y-75086823D01*
X108381500Y-75013980D01*
X108383064Y-74986118D01*
X108393866Y-74890240D01*
X108406273Y-74835890D01*
X108433485Y-74758124D01*
X108457676Y-74707890D01*
X108501510Y-74638128D01*
X108536271Y-74594537D01*
X108594537Y-74536271D01*
X108638128Y-74501510D01*
X108707890Y-74457676D01*
X108758124Y-74433485D01*
X108835890Y-74406273D01*
X108890240Y-74393866D01*
X108986118Y-74383064D01*
X109013980Y-74381500D01*
X109086823Y-74381500D01*
X109189002Y-74361174D01*
X109257124Y-74347624D01*
X109417547Y-74281175D01*
X109561923Y-74184706D01*
X109617811Y-74128817D01*
X109673700Y-74072930D01*
X109754481Y-74018954D01*
X109849769Y-74000000D01*
X110150231Y-74000000D01*
X110245519Y-74018954D01*
G37*
%TD.AperFunction*%
%TD*%
%TA.AperFunction,Conductor*%
%TO.N,GND*%
G36*
X32245519Y-74018954D02*
G01*
X32326300Y-74072930D01*
X32438076Y-74184705D01*
X32438077Y-74184706D01*
X32582453Y-74281175D01*
X32742876Y-74347624D01*
X32785452Y-74356093D01*
X32913177Y-74381500D01*
X36926000Y-74381500D01*
X37021288Y-74400454D01*
X37102070Y-74454430D01*
X37156046Y-74535212D01*
X37175000Y-74630500D01*
X37175000Y-76249999D01*
X37175001Y-76250000D01*
X40839999Y-76250000D01*
X40840000Y-76249999D01*
X40840000Y-74630500D01*
X40858954Y-74535212D01*
X40912930Y-74454430D01*
X40993712Y-74400454D01*
X41089000Y-74381500D01*
X43911000Y-74381500D01*
X44006288Y-74400454D01*
X44087070Y-74454430D01*
X44141046Y-74535212D01*
X44160000Y-74630500D01*
X44160000Y-76249999D01*
X44160001Y-76250000D01*
X47824999Y-76250000D01*
X47825000Y-76249999D01*
X47825000Y-74630500D01*
X47843954Y-74535212D01*
X47897930Y-74454430D01*
X47978712Y-74400454D01*
X48074000Y-74381500D01*
X52086823Y-74381500D01*
X52189002Y-74361174D01*
X52257124Y-74347624D01*
X52417547Y-74281175D01*
X52561923Y-74184706D01*
X52617811Y-74128817D01*
X52673700Y-74072930D01*
X52754481Y-74018954D01*
X52849769Y-74000000D01*
X53150231Y-74000000D01*
X53245519Y-74018954D01*
X53326300Y-74072930D01*
X53438076Y-74184705D01*
X53438077Y-74184706D01*
X53582453Y-74281175D01*
X53742876Y-74347624D01*
X53785452Y-74356093D01*
X53913177Y-74381500D01*
X53913180Y-74381500D01*
X53945149Y-74381500D01*
X53986020Y-74381500D01*
X54013898Y-74383066D01*
X54031218Y-74385017D01*
X54109749Y-74393865D01*
X54164109Y-74406273D01*
X54241875Y-74433485D01*
X54292109Y-74457676D01*
X54361871Y-74501510D01*
X54405466Y-74536275D01*
X54463724Y-74594533D01*
X54498489Y-74638128D01*
X54542323Y-74707890D01*
X54566514Y-74758124D01*
X54593726Y-74835890D01*
X54606134Y-74890251D01*
X54616934Y-74986100D01*
X54618500Y-75013980D01*
X54618500Y-75086823D01*
X54652375Y-75257122D01*
X54718824Y-75417546D01*
X54815294Y-75561923D01*
X54927070Y-75673700D01*
X54981046Y-75754481D01*
X55000000Y-75849769D01*
X55000000Y-76150231D01*
X54981046Y-76245519D01*
X54927070Y-76326300D01*
X54815294Y-76438076D01*
X54718824Y-76582453D01*
X54652375Y-76742877D01*
X54618500Y-76913177D01*
X54618500Y-95086823D01*
X54652375Y-95257122D01*
X54718824Y-95417546D01*
X54815294Y-95561923D01*
X54927070Y-95673700D01*
X54981046Y-95754481D01*
X55000000Y-95849769D01*
X55000000Y-96150231D01*
X54981046Y-96245519D01*
X54927070Y-96326300D01*
X54815294Y-96438076D01*
X54718824Y-96582453D01*
X54652375Y-96742877D01*
X54618500Y-96913177D01*
X54618500Y-106986020D01*
X54616934Y-107013900D01*
X54606134Y-107109748D01*
X54593726Y-107164109D01*
X54566514Y-107241875D01*
X54542323Y-107292109D01*
X54498489Y-107361871D01*
X54463724Y-107405466D01*
X54405466Y-107463724D01*
X54361871Y-107498489D01*
X54292109Y-107542323D01*
X54241875Y-107566514D01*
X54164109Y-107593726D01*
X54109748Y-107606134D01*
X54038743Y-107614134D01*
X54013897Y-107616934D01*
X53986020Y-107618500D01*
X41389263Y-107618500D01*
X41293975Y-107599546D01*
X41213193Y-107545570D01*
X41159217Y-107464788D01*
X41140263Y-107369500D01*
X41140263Y-97050312D01*
X41143329Y-97011358D01*
X41145128Y-96999998D01*
X41125789Y-96877898D01*
X41069666Y-96767752D01*
X41069665Y-96767750D01*
X40982250Y-96680335D01*
X40982247Y-96680333D01*
X40872104Y-96624211D01*
X40839127Y-96618988D01*
X40780716Y-96609737D01*
X40780714Y-96609736D01*
X40780713Y-96609736D01*
X40749999Y-96604871D01*
X40738642Y-96606671D01*
X40699688Y-96609737D01*
X30630500Y-96609737D01*
X30535212Y-96590783D01*
X30454430Y-96536807D01*
X30400454Y-96456025D01*
X30381500Y-96360737D01*
X30381500Y-85646702D01*
X32706851Y-85646702D01*
X32939931Y-85835448D01*
X33247600Y-86035249D01*
X33574459Y-86201793D01*
X33916957Y-86333265D01*
X34271318Y-86428216D01*
X34633641Y-86485602D01*
X35000000Y-86504803D01*
X35366358Y-86485602D01*
X35728681Y-86428216D01*
X36083042Y-86333265D01*
X36425540Y-86201793D01*
X36752399Y-86035249D01*
X37060072Y-85835444D01*
X37293147Y-85646702D01*
X47706851Y-85646702D01*
X47939931Y-85835448D01*
X48247600Y-86035249D01*
X48574459Y-86201793D01*
X48916957Y-86333265D01*
X49271318Y-86428216D01*
X49633641Y-86485602D01*
X50000000Y-86504803D01*
X50366358Y-86485602D01*
X50728681Y-86428216D01*
X51083042Y-86333265D01*
X51425540Y-86201793D01*
X51752399Y-86035249D01*
X52060072Y-85835444D01*
X52293147Y-85646702D01*
X52293147Y-85646701D01*
X50000000Y-83353554D01*
X47706851Y-85646702D01*
X37293147Y-85646702D01*
X37293147Y-85646701D01*
X35000000Y-83353554D01*
X32706851Y-85646702D01*
X30381500Y-85646702D01*
X30381500Y-83000000D01*
X31495196Y-83000000D01*
X31514397Y-83366358D01*
X31571783Y-83728681D01*
X31666734Y-84083042D01*
X31798206Y-84425540D01*
X31964750Y-84752399D01*
X32164555Y-85060073D01*
X32353296Y-85293147D01*
X34646443Y-83000000D01*
X35353554Y-83000000D01*
X37646701Y-85293147D01*
X37646702Y-85293147D01*
X37835444Y-85060072D01*
X38035249Y-84752399D01*
X38201793Y-84425540D01*
X38333265Y-84083042D01*
X38428216Y-83728681D01*
X38485602Y-83366358D01*
X38504803Y-83000000D01*
X46495196Y-83000000D01*
X46514397Y-83366358D01*
X46571783Y-83728681D01*
X46666734Y-84083042D01*
X46798206Y-84425540D01*
X46964750Y-84752399D01*
X47164555Y-85060073D01*
X47353296Y-85293147D01*
X49646443Y-83000000D01*
X50353554Y-83000000D01*
X52646701Y-85293147D01*
X52646702Y-85293147D01*
X52835444Y-85060072D01*
X53035249Y-84752399D01*
X53201793Y-84425540D01*
X53333265Y-84083042D01*
X53428216Y-83728681D01*
X53485602Y-83366358D01*
X53504803Y-83000000D01*
X53485602Y-82633641D01*
X53428216Y-82271318D01*
X53333265Y-81916957D01*
X53201793Y-81574459D01*
X53035249Y-81247601D01*
X52835444Y-80939927D01*
X52646702Y-80706851D01*
X50353554Y-83000000D01*
X49646443Y-83000000D01*
X49646444Y-82999999D01*
X47353296Y-80706851D01*
X47164551Y-80939933D01*
X46964750Y-81247601D01*
X46798206Y-81574459D01*
X46666734Y-81916957D01*
X46571783Y-82271318D01*
X46514397Y-82633641D01*
X46495196Y-83000000D01*
X38504803Y-83000000D01*
X38485602Y-82633641D01*
X38428216Y-82271318D01*
X38333265Y-81916957D01*
X38201793Y-81574459D01*
X38035249Y-81247601D01*
X37835444Y-80939927D01*
X37646702Y-80706851D01*
X35353554Y-83000000D01*
X34646443Y-83000000D01*
X34646444Y-82999999D01*
X32353296Y-80706851D01*
X32164551Y-80939933D01*
X31964750Y-81247601D01*
X31798206Y-81574459D01*
X31666734Y-81916957D01*
X31571783Y-82271318D01*
X31514397Y-82633641D01*
X31495196Y-83000000D01*
X30381500Y-83000000D01*
X30381500Y-80353296D01*
X32706851Y-80353296D01*
X34999999Y-82646444D01*
X37293147Y-80353296D01*
X37271777Y-80335991D01*
X38510060Y-80335991D01*
X38628735Y-80399426D01*
X38814403Y-80455747D01*
X39007500Y-80474766D01*
X39200596Y-80455747D01*
X39386266Y-80399425D01*
X39504938Y-80335992D01*
X39504937Y-80335991D01*
X45495060Y-80335991D01*
X45613735Y-80399426D01*
X45799403Y-80455747D01*
X45992500Y-80474766D01*
X46185596Y-80455747D01*
X46371266Y-80399425D01*
X46457565Y-80353296D01*
X47706851Y-80353296D01*
X49999999Y-82646444D01*
X52293147Y-80353296D01*
X52060073Y-80164555D01*
X51752399Y-79964750D01*
X51425540Y-79798206D01*
X51083042Y-79666734D01*
X50728681Y-79571783D01*
X50366358Y-79514397D01*
X50000000Y-79495196D01*
X49633641Y-79514397D01*
X49271318Y-79571783D01*
X48916957Y-79666734D01*
X48574459Y-79798206D01*
X48247601Y-79964750D01*
X47939933Y-80164551D01*
X47706851Y-80353296D01*
X46457565Y-80353296D01*
X46489938Y-80335992D01*
X45992499Y-79838553D01*
X45495060Y-80335991D01*
X39504937Y-80335991D01*
X39007499Y-79838553D01*
X38510060Y-80335991D01*
X37271777Y-80335991D01*
X37060073Y-80164555D01*
X36752399Y-79964750D01*
X36425540Y-79798206D01*
X36083042Y-79666734D01*
X35728681Y-79571783D01*
X35366358Y-79514397D01*
X35000000Y-79495196D01*
X34633641Y-79514397D01*
X34271318Y-79571783D01*
X33916957Y-79666734D01*
X33574459Y-79798206D01*
X33247601Y-79964750D01*
X32939933Y-80164551D01*
X32706851Y-80353296D01*
X30381500Y-80353296D01*
X30381500Y-78642831D01*
X37175000Y-78642831D01*
X37181401Y-78702373D01*
X37231647Y-78837090D01*
X37317810Y-78952189D01*
X37432909Y-79038352D01*
X37567626Y-79088598D01*
X37627169Y-79095000D01*
X37781416Y-79095000D01*
X37862996Y-79108743D01*
X37935570Y-79148456D01*
X37991128Y-79209754D01*
X38023536Y-79285872D01*
X38029217Y-79368406D01*
X38017733Y-79484999D01*
X38036752Y-79678095D01*
X38093074Y-79863766D01*
X38156506Y-79982438D01*
X38831429Y-79307516D01*
X38912211Y-79253540D01*
X39007499Y-79234586D01*
X39102787Y-79253540D01*
X39183568Y-79307516D01*
X39858491Y-79982439D01*
X39858492Y-79982438D01*
X39921925Y-79863766D01*
X39978247Y-79678096D01*
X39997266Y-79484999D01*
X39985783Y-79368406D01*
X39991464Y-79285872D01*
X40023872Y-79209754D01*
X40079430Y-79148456D01*
X40152004Y-79108743D01*
X40233584Y-79095000D01*
X40387831Y-79095000D01*
X40447373Y-79088598D01*
X40582090Y-79038352D01*
X40697189Y-78952189D01*
X40783352Y-78837090D01*
X40833598Y-78702373D01*
X40840000Y-78642831D01*
X44160000Y-78642831D01*
X44166401Y-78702373D01*
X44216647Y-78837090D01*
X44302810Y-78952189D01*
X44417909Y-79038352D01*
X44552626Y-79088598D01*
X44612169Y-79095000D01*
X44766416Y-79095000D01*
X44847996Y-79108743D01*
X44920570Y-79148456D01*
X44976128Y-79209754D01*
X45008536Y-79285872D01*
X45014217Y-79368406D01*
X45002733Y-79484999D01*
X45021752Y-79678095D01*
X45078074Y-79863766D01*
X45141506Y-79982438D01*
X45816429Y-79307516D01*
X45897211Y-79253540D01*
X45992499Y-79234586D01*
X46087787Y-79253540D01*
X46168568Y-79307516D01*
X46843491Y-79982439D01*
X46843492Y-79982438D01*
X46906925Y-79863766D01*
X46963247Y-79678096D01*
X46982266Y-79484999D01*
X46970783Y-79368406D01*
X46976464Y-79285872D01*
X47008872Y-79209754D01*
X47064430Y-79148456D01*
X47137004Y-79108743D01*
X47218584Y-79095000D01*
X47372831Y-79095000D01*
X47432373Y-79088598D01*
X47567090Y-79038352D01*
X47682189Y-78952189D01*
X47768352Y-78837090D01*
X47818598Y-78702373D01*
X47825000Y-78642831D01*
X47825000Y-76750001D01*
X47824999Y-76750000D01*
X44160001Y-76750000D01*
X44160000Y-76750001D01*
X44160000Y-78642831D01*
X40840000Y-78642831D01*
X40840000Y-76750001D01*
X40839999Y-76750000D01*
X37175001Y-76750000D01*
X37175000Y-76750001D01*
X37175000Y-78642831D01*
X30381500Y-78642831D01*
X30381500Y-75013980D01*
X30383064Y-74986118D01*
X30393866Y-74890240D01*
X30406273Y-74835890D01*
X30433485Y-74758124D01*
X30457676Y-74707890D01*
X30501510Y-74638128D01*
X30536271Y-74594537D01*
X30594537Y-74536271D01*
X30638128Y-74501510D01*
X30707890Y-74457676D01*
X30758124Y-74433485D01*
X30835890Y-74406273D01*
X30890240Y-74393866D01*
X30986118Y-74383064D01*
X31013980Y-74381500D01*
X31086823Y-74381500D01*
X31189002Y-74361174D01*
X31257124Y-74347624D01*
X31417547Y-74281175D01*
X31561923Y-74184706D01*
X31617811Y-74128817D01*
X31673700Y-74072930D01*
X31754481Y-74018954D01*
X31849769Y-74000000D01*
X32150231Y-74000000D01*
X32245519Y-74018954D01*
G37*
%TD.AperFunction*%
%TD*%
%TA.AperFunction,Conductor*%
%TO.N,GND*%
G36*
X58245519Y-74018954D02*
G01*
X58326300Y-74072930D01*
X58438076Y-74184705D01*
X58438077Y-74184706D01*
X58582453Y-74281175D01*
X58742876Y-74347624D01*
X58785452Y-74356093D01*
X58913177Y-74381500D01*
X62926000Y-74381500D01*
X63021288Y-74400454D01*
X63102070Y-74454430D01*
X63156046Y-74535212D01*
X63175000Y-74630500D01*
X63175000Y-76249999D01*
X63175001Y-76250000D01*
X66839999Y-76250000D01*
X66840000Y-76249999D01*
X66840000Y-74630500D01*
X66858954Y-74535212D01*
X66912930Y-74454430D01*
X66993712Y-74400454D01*
X67089000Y-74381500D01*
X69911000Y-74381500D01*
X70006288Y-74400454D01*
X70087070Y-74454430D01*
X70141046Y-74535212D01*
X70160000Y-74630500D01*
X70160000Y-76249999D01*
X70160001Y-76250000D01*
X73824999Y-76250000D01*
X73825000Y-76249999D01*
X73825000Y-74630500D01*
X73843954Y-74535212D01*
X73897930Y-74454430D01*
X73978712Y-74400454D01*
X74074000Y-74381500D01*
X78086823Y-74381500D01*
X78189002Y-74361174D01*
X78257124Y-74347624D01*
X78417547Y-74281175D01*
X78561923Y-74184706D01*
X78617811Y-74128817D01*
X78673700Y-74072930D01*
X78754481Y-74018954D01*
X78849769Y-74000000D01*
X79150231Y-74000000D01*
X79245519Y-74018954D01*
X79326300Y-74072930D01*
X79438076Y-74184705D01*
X79438077Y-74184706D01*
X79582453Y-74281175D01*
X79742876Y-74347624D01*
X79785452Y-74356093D01*
X79913177Y-74381500D01*
X79913180Y-74381500D01*
X79945149Y-74381500D01*
X79986020Y-74381500D01*
X80013898Y-74383066D01*
X80031218Y-74385017D01*
X80109749Y-74393865D01*
X80164109Y-74406273D01*
X80241875Y-74433485D01*
X80292109Y-74457676D01*
X80361871Y-74501510D01*
X80405466Y-74536275D01*
X80463724Y-74594533D01*
X80498489Y-74638128D01*
X80542323Y-74707890D01*
X80566514Y-74758124D01*
X80593726Y-74835890D01*
X80606134Y-74890251D01*
X80616934Y-74986100D01*
X80618500Y-75013980D01*
X80618500Y-75086823D01*
X80652375Y-75257122D01*
X80718824Y-75417546D01*
X80815294Y-75561923D01*
X80927070Y-75673700D01*
X80981046Y-75754481D01*
X81000000Y-75849769D01*
X81000000Y-76150231D01*
X80981046Y-76245519D01*
X80927070Y-76326300D01*
X80815294Y-76438076D01*
X80718824Y-76582453D01*
X80652375Y-76742877D01*
X80618500Y-76913177D01*
X80618500Y-95086823D01*
X80652375Y-95257122D01*
X80718824Y-95417546D01*
X80815294Y-95561923D01*
X80927070Y-95673700D01*
X80981046Y-95754481D01*
X81000000Y-95849769D01*
X81000000Y-96150231D01*
X80981046Y-96245519D01*
X80927070Y-96326300D01*
X80815294Y-96438076D01*
X80718824Y-96582453D01*
X80652375Y-96742877D01*
X80618500Y-96913177D01*
X80618500Y-106986020D01*
X80616934Y-107013900D01*
X80606134Y-107109748D01*
X80593726Y-107164109D01*
X80566514Y-107241875D01*
X80542323Y-107292109D01*
X80498489Y-107361871D01*
X80463724Y-107405466D01*
X80405466Y-107463724D01*
X80361871Y-107498489D01*
X80292109Y-107542323D01*
X80241875Y-107566514D01*
X80164109Y-107593726D01*
X80109748Y-107606134D01*
X80038743Y-107614134D01*
X80013897Y-107616934D01*
X79986020Y-107618500D01*
X67389263Y-107618500D01*
X67293975Y-107599546D01*
X67213193Y-107545570D01*
X67159217Y-107464788D01*
X67140263Y-107369500D01*
X67140263Y-97050312D01*
X67143329Y-97011358D01*
X67145128Y-96999998D01*
X67125789Y-96877898D01*
X67069666Y-96767752D01*
X67069665Y-96767750D01*
X66982250Y-96680335D01*
X66982247Y-96680333D01*
X66872104Y-96624211D01*
X66839127Y-96618988D01*
X66780716Y-96609737D01*
X66780714Y-96609736D01*
X66780713Y-96609736D01*
X66749999Y-96604871D01*
X66738642Y-96606671D01*
X66699688Y-96609737D01*
X56432499Y-96609737D01*
X56352461Y-96596523D01*
X56280918Y-96558282D01*
X56225463Y-96499074D01*
X56184705Y-96438076D01*
X56072930Y-96326300D01*
X56018954Y-96245519D01*
X56000000Y-96150231D01*
X56000000Y-95849769D01*
X56018954Y-95754481D01*
X56072930Y-95673700D01*
X56128817Y-95617811D01*
X56184706Y-95561923D01*
X56281175Y-95417547D01*
X56347624Y-95257124D01*
X56361174Y-95189002D01*
X56381500Y-95086823D01*
X56381500Y-85405712D01*
X58706851Y-85405712D01*
X58939931Y-85594458D01*
X59247600Y-85794259D01*
X59574459Y-85960803D01*
X59916957Y-86092275D01*
X60271318Y-86187226D01*
X60633641Y-86244612D01*
X61000000Y-86263813D01*
X61366358Y-86244612D01*
X61728681Y-86187226D01*
X62083042Y-86092275D01*
X62425540Y-85960803D01*
X62752399Y-85794259D01*
X62979617Y-85646702D01*
X73706851Y-85646702D01*
X73939931Y-85835448D01*
X74247600Y-86035249D01*
X74574459Y-86201793D01*
X74916957Y-86333265D01*
X75271318Y-86428216D01*
X75633641Y-86485602D01*
X76000000Y-86504803D01*
X76366358Y-86485602D01*
X76728681Y-86428216D01*
X77083042Y-86333265D01*
X77425540Y-86201793D01*
X77752399Y-86035249D01*
X78060072Y-85835444D01*
X78293147Y-85646702D01*
X78293147Y-85646701D01*
X76000000Y-83353554D01*
X73706851Y-85646702D01*
X62979617Y-85646702D01*
X63060072Y-85594454D01*
X63293147Y-85405712D01*
X63293147Y-85405711D01*
X61000000Y-83112564D01*
X58706851Y-85405712D01*
X56381500Y-85405712D01*
X56381500Y-82759009D01*
X57495196Y-82759009D01*
X57514397Y-83125368D01*
X57571783Y-83487691D01*
X57666734Y-83842052D01*
X57798206Y-84184550D01*
X57964750Y-84511409D01*
X58164555Y-84819083D01*
X58353296Y-85052157D01*
X60646443Y-82759010D01*
X61353554Y-82759010D01*
X63646701Y-85052157D01*
X63646702Y-85052157D01*
X63835444Y-84819082D01*
X64035249Y-84511409D01*
X64201793Y-84184550D01*
X64333265Y-83842052D01*
X64428216Y-83487691D01*
X64485602Y-83125368D01*
X64492173Y-83000000D01*
X72495196Y-83000000D01*
X72514397Y-83366358D01*
X72571783Y-83728681D01*
X72666734Y-84083042D01*
X72798206Y-84425540D01*
X72964750Y-84752399D01*
X73164555Y-85060073D01*
X73353296Y-85293147D01*
X75646443Y-83000000D01*
X76353554Y-83000000D01*
X78646701Y-85293147D01*
X78646702Y-85293147D01*
X78835444Y-85060072D01*
X79035249Y-84752399D01*
X79201793Y-84425540D01*
X79333265Y-84083042D01*
X79428216Y-83728681D01*
X79485602Y-83366358D01*
X79504803Y-83000000D01*
X79485602Y-82633641D01*
X79428216Y-82271318D01*
X79333265Y-81916957D01*
X79201793Y-81574459D01*
X79035249Y-81247601D01*
X78835444Y-80939927D01*
X78646702Y-80706851D01*
X76353554Y-83000000D01*
X75646443Y-83000000D01*
X75646444Y-82999999D01*
X73353296Y-80706851D01*
X73164551Y-80939933D01*
X72964750Y-81247601D01*
X72798206Y-81574459D01*
X72666734Y-81916957D01*
X72571783Y-82271318D01*
X72514397Y-82633641D01*
X72495196Y-83000000D01*
X64492173Y-83000000D01*
X64504803Y-82759010D01*
X64485602Y-82392651D01*
X64428216Y-82030328D01*
X64333265Y-81675967D01*
X64201793Y-81333469D01*
X64035249Y-81006611D01*
X63835444Y-80698937D01*
X63646702Y-80465861D01*
X61353554Y-82759010D01*
X60646443Y-82759010D01*
X60646444Y-82759009D01*
X58353296Y-80465861D01*
X58164551Y-80698943D01*
X57964750Y-81006611D01*
X57798206Y-81333469D01*
X57666734Y-81675967D01*
X57571783Y-82030328D01*
X57514397Y-82392651D01*
X57495196Y-82759009D01*
X56381500Y-82759009D01*
X56381500Y-80112306D01*
X58706851Y-80112306D01*
X60999999Y-82405454D01*
X63069462Y-80335991D01*
X64510060Y-80335991D01*
X64628735Y-80399426D01*
X64814403Y-80455747D01*
X65007500Y-80474766D01*
X65200596Y-80455747D01*
X65386266Y-80399425D01*
X65504938Y-80335992D01*
X65504937Y-80335991D01*
X71495060Y-80335991D01*
X71613735Y-80399426D01*
X71799403Y-80455747D01*
X71992500Y-80474766D01*
X72185596Y-80455747D01*
X72371266Y-80399425D01*
X72457565Y-80353296D01*
X73706851Y-80353296D01*
X75999999Y-82646444D01*
X78293147Y-80353296D01*
X78060073Y-80164555D01*
X77752399Y-79964750D01*
X77425540Y-79798206D01*
X77083042Y-79666734D01*
X76728681Y-79571783D01*
X76366358Y-79514397D01*
X76000000Y-79495196D01*
X75633641Y-79514397D01*
X75271318Y-79571783D01*
X74916957Y-79666734D01*
X74574459Y-79798206D01*
X74247601Y-79964750D01*
X73939933Y-80164551D01*
X73706851Y-80353296D01*
X72457565Y-80353296D01*
X72489938Y-80335992D01*
X71992499Y-79838553D01*
X71495060Y-80335991D01*
X65504937Y-80335991D01*
X65007499Y-79838553D01*
X64510060Y-80335991D01*
X63069462Y-80335991D01*
X63293147Y-80112306D01*
X63060073Y-79923565D01*
X62752399Y-79723760D01*
X62425540Y-79557216D01*
X62083042Y-79425744D01*
X61728681Y-79330793D01*
X61366358Y-79273407D01*
X61000000Y-79254206D01*
X60633641Y-79273407D01*
X60271318Y-79330793D01*
X59916957Y-79425744D01*
X59574459Y-79557216D01*
X59247601Y-79723760D01*
X58939933Y-79923561D01*
X58706851Y-80112306D01*
X56381500Y-80112306D01*
X56381500Y-78642831D01*
X63175000Y-78642831D01*
X63181401Y-78702373D01*
X63231647Y-78837090D01*
X63317810Y-78952189D01*
X63432909Y-79038352D01*
X63567626Y-79088598D01*
X63627169Y-79095000D01*
X63781416Y-79095000D01*
X63862996Y-79108743D01*
X63935570Y-79148456D01*
X63991128Y-79209754D01*
X64023536Y-79285872D01*
X64029217Y-79368406D01*
X64017733Y-79484999D01*
X64036752Y-79678095D01*
X64093074Y-79863766D01*
X64156506Y-79982438D01*
X64831429Y-79307516D01*
X64912211Y-79253540D01*
X65007499Y-79234586D01*
X65102787Y-79253540D01*
X65183568Y-79307516D01*
X65858491Y-79982439D01*
X65858492Y-79982438D01*
X65921925Y-79863766D01*
X65978247Y-79678096D01*
X65997266Y-79484999D01*
X65985783Y-79368406D01*
X65991464Y-79285872D01*
X66023872Y-79209754D01*
X66079430Y-79148456D01*
X66152004Y-79108743D01*
X66233584Y-79095000D01*
X66387831Y-79095000D01*
X66447373Y-79088598D01*
X66582090Y-79038352D01*
X66697189Y-78952189D01*
X66783352Y-78837090D01*
X66833598Y-78702373D01*
X66840000Y-78642831D01*
X70160000Y-78642831D01*
X70166401Y-78702373D01*
X70216647Y-78837090D01*
X70302810Y-78952189D01*
X70417909Y-79038352D01*
X70552626Y-79088598D01*
X70612169Y-79095000D01*
X70766416Y-79095000D01*
X70847996Y-79108743D01*
X70920570Y-79148456D01*
X70976128Y-79209754D01*
X71008536Y-79285872D01*
X71014217Y-79368406D01*
X71002733Y-79484999D01*
X71021752Y-79678095D01*
X71078074Y-79863766D01*
X71141506Y-79982438D01*
X71816429Y-79307516D01*
X71897211Y-79253540D01*
X71992499Y-79234586D01*
X72087787Y-79253540D01*
X72168568Y-79307516D01*
X72843491Y-79982439D01*
X72843492Y-79982438D01*
X72906925Y-79863766D01*
X72963247Y-79678096D01*
X72982266Y-79484999D01*
X72970783Y-79368406D01*
X72976464Y-79285872D01*
X73008872Y-79209754D01*
X73064430Y-79148456D01*
X73137004Y-79108743D01*
X73218584Y-79095000D01*
X73372831Y-79095000D01*
X73432373Y-79088598D01*
X73567090Y-79038352D01*
X73682189Y-78952189D01*
X73768352Y-78837090D01*
X73818598Y-78702373D01*
X73825000Y-78642831D01*
X73825000Y-76750001D01*
X73824999Y-76750000D01*
X70160001Y-76750000D01*
X70160000Y-76750001D01*
X70160000Y-78642831D01*
X66840000Y-78642831D01*
X66840000Y-76750001D01*
X66839999Y-76750000D01*
X63175001Y-76750000D01*
X63175000Y-76750001D01*
X63175000Y-78642831D01*
X56381500Y-78642831D01*
X56381500Y-76913177D01*
X56347624Y-76742877D01*
X56281175Y-76582453D01*
X56184705Y-76438076D01*
X56072930Y-76326300D01*
X56018954Y-76245519D01*
X56000000Y-76150231D01*
X56000000Y-75849769D01*
X56018954Y-75754481D01*
X56072930Y-75673700D01*
X56128817Y-75617811D01*
X56184706Y-75561923D01*
X56281175Y-75417547D01*
X56347624Y-75257124D01*
X56361174Y-75189002D01*
X56381500Y-75086823D01*
X56381500Y-75013980D01*
X56383064Y-74986118D01*
X56393866Y-74890240D01*
X56406273Y-74835890D01*
X56433485Y-74758124D01*
X56457676Y-74707890D01*
X56501510Y-74638128D01*
X56536271Y-74594537D01*
X56594537Y-74536271D01*
X56638128Y-74501510D01*
X56707890Y-74457676D01*
X56758124Y-74433485D01*
X56835890Y-74406273D01*
X56890240Y-74393866D01*
X56986118Y-74383064D01*
X57013980Y-74381500D01*
X57086823Y-74381500D01*
X57189002Y-74361174D01*
X57257124Y-74347624D01*
X57417547Y-74281175D01*
X57561923Y-74184706D01*
X57617811Y-74128817D01*
X57673700Y-74072930D01*
X57754481Y-74018954D01*
X57849769Y-74000000D01*
X58150231Y-74000000D01*
X58245519Y-74018954D01*
G37*
%TD.AperFunction*%
%TD*%
%TA.AperFunction,Conductor*%
%TO.N,GND*%
G36*
X142688000Y-44766613D02*
G01*
X142733387Y-44812000D01*
X142750000Y-44874000D01*
X142750000Y-50000000D01*
X158494500Y-50000000D01*
X158556500Y-50016613D01*
X158601887Y-50062000D01*
X158618500Y-50124000D01*
X158618500Y-71993039D01*
X158617720Y-72006923D01*
X158604557Y-72123746D01*
X158598378Y-72150817D01*
X158561864Y-72255167D01*
X158549817Y-72280184D01*
X158490994Y-72373800D01*
X158473681Y-72395509D01*
X158395509Y-72473681D01*
X158373800Y-72490994D01*
X158280184Y-72549817D01*
X158255167Y-72561864D01*
X158150817Y-72598378D01*
X158123746Y-72604557D01*
X158006923Y-72617720D01*
X157993039Y-72618500D01*
X157913178Y-72618500D01*
X157742878Y-72652374D01*
X157582452Y-72718825D01*
X157438078Y-72815293D01*
X157315292Y-72938078D01*
X157310742Y-72944889D01*
X157266093Y-72985358D01*
X157207639Y-73000000D01*
X156792361Y-73000000D01*
X156733907Y-72985358D01*
X156689258Y-72944889D01*
X156684707Y-72938078D01*
X156646616Y-72899987D01*
X156561923Y-72815294D01*
X156417547Y-72718825D01*
X156257121Y-72652374D01*
X156086822Y-72618500D01*
X156086820Y-72618500D01*
X156063661Y-72618500D01*
X151949000Y-72618500D01*
X151887000Y-72601887D01*
X151841613Y-72556500D01*
X151825000Y-72494500D01*
X151825000Y-70790000D01*
X148160000Y-70790000D01*
X148160000Y-72494500D01*
X148143387Y-72556500D01*
X148098000Y-72601887D01*
X148036000Y-72618500D01*
X144964000Y-72618500D01*
X144902000Y-72601887D01*
X144856613Y-72556500D01*
X144840000Y-72494500D01*
X144840000Y-70790000D01*
X141175000Y-70790000D01*
X141175000Y-72494500D01*
X141158387Y-72556500D01*
X141113000Y-72601887D01*
X141051000Y-72618500D01*
X136913178Y-72618500D01*
X136742878Y-72652374D01*
X136582452Y-72718825D01*
X136438078Y-72815293D01*
X136315292Y-72938078D01*
X136310742Y-72944889D01*
X136266093Y-72985358D01*
X136207639Y-73000000D01*
X135792361Y-73000000D01*
X135733907Y-72985358D01*
X135689258Y-72944889D01*
X135684707Y-72938078D01*
X135646616Y-72899987D01*
X135561923Y-72815294D01*
X135417547Y-72718825D01*
X135257121Y-72652374D01*
X135086822Y-72618500D01*
X135086820Y-72618500D01*
X135006961Y-72618500D01*
X134993077Y-72617720D01*
X134876253Y-72604557D01*
X134849182Y-72598378D01*
X134744832Y-72561864D01*
X134719815Y-72549817D01*
X134626199Y-72490994D01*
X134604490Y-72473681D01*
X134526318Y-72395509D01*
X134509005Y-72373800D01*
X134450182Y-72280184D01*
X134438137Y-72255171D01*
X134401619Y-72150811D01*
X134395443Y-72123750D01*
X134382280Y-72006922D01*
X134381500Y-71993039D01*
X134381500Y-71913178D01*
X134347625Y-71742878D01*
X134332570Y-71706534D01*
X134281175Y-71582453D01*
X134184706Y-71438077D01*
X134061923Y-71315294D01*
X134061922Y-71315293D01*
X134061921Y-71315292D01*
X134055111Y-71310742D01*
X134014642Y-71266093D01*
X134000000Y-71207639D01*
X134000000Y-70792361D01*
X134014642Y-70733907D01*
X134055111Y-70689258D01*
X134058655Y-70686888D01*
X134061923Y-70684706D01*
X134184706Y-70561923D01*
X134281175Y-70417547D01*
X134334006Y-70290000D01*
X141175000Y-70290000D01*
X142757500Y-70290000D01*
X142757500Y-67976362D01*
X142766939Y-67928909D01*
X142777500Y-67913104D01*
X142777500Y-67894000D01*
X142794113Y-67832000D01*
X142839500Y-67786613D01*
X142864882Y-67779811D01*
X142868947Y-67769999D01*
X143146052Y-67769999D01*
X143150117Y-67779811D01*
X143175500Y-67786613D01*
X143220887Y-67832000D01*
X143237500Y-67894000D01*
X143237500Y-67913104D01*
X143248061Y-67928909D01*
X143257500Y-67976362D01*
X143257500Y-70290000D01*
X144840000Y-70290000D01*
X148160000Y-70290000D01*
X149742500Y-70290000D01*
X149742500Y-67976362D01*
X149751939Y-67928909D01*
X149762500Y-67913104D01*
X149762500Y-67894000D01*
X149779113Y-67832000D01*
X149824500Y-67786613D01*
X149849882Y-67779811D01*
X149853947Y-67769999D01*
X150131052Y-67769999D01*
X150135117Y-67779811D01*
X150160500Y-67786613D01*
X150205887Y-67832000D01*
X150222500Y-67894000D01*
X150222500Y-67913104D01*
X150233061Y-67928909D01*
X150242500Y-67976362D01*
X150242500Y-70290000D01*
X151825000Y-70290000D01*
X151825000Y-68397176D01*
X151818597Y-68337624D01*
X151768352Y-68202910D01*
X151682188Y-68087811D01*
X151567089Y-68001647D01*
X151432375Y-67951402D01*
X151372824Y-67945000D01*
X151070712Y-67945000D01*
X151014960Y-67931760D01*
X150971114Y-67894867D01*
X150948538Y-67842199D01*
X150952051Y-67785005D01*
X150963248Y-67748092D01*
X150982265Y-67554999D01*
X150963248Y-67361907D01*
X150906924Y-67176232D01*
X150843491Y-67057560D01*
X150131052Y-67769999D01*
X149853947Y-67769999D01*
X149141507Y-67057560D01*
X149141506Y-67057560D01*
X149078076Y-67176230D01*
X149021751Y-67361907D01*
X149002734Y-67554999D01*
X149021751Y-67748092D01*
X149032949Y-67785005D01*
X149036462Y-67842199D01*
X149013886Y-67894867D01*
X148970040Y-67931760D01*
X148914288Y-67945000D01*
X148612176Y-67945000D01*
X148552624Y-67951402D01*
X148417910Y-68001647D01*
X148302811Y-68087811D01*
X148216647Y-68202910D01*
X148166402Y-68337624D01*
X148160000Y-68397176D01*
X148160000Y-70290000D01*
X144840000Y-70290000D01*
X144840000Y-68397176D01*
X144833597Y-68337624D01*
X144783352Y-68202910D01*
X144697188Y-68087811D01*
X144582089Y-68001647D01*
X144447375Y-67951402D01*
X144387824Y-67945000D01*
X144085712Y-67945000D01*
X144029960Y-67931760D01*
X143986114Y-67894867D01*
X143963538Y-67842199D01*
X143967051Y-67785005D01*
X143978248Y-67748092D01*
X143997265Y-67554999D01*
X143978248Y-67361907D01*
X143921924Y-67176232D01*
X143858491Y-67057560D01*
X143146052Y-67769999D01*
X142868947Y-67769999D01*
X142156507Y-67057560D01*
X142156506Y-67057560D01*
X142093076Y-67176230D01*
X142036751Y-67361907D01*
X142017734Y-67554999D01*
X142036751Y-67748092D01*
X142047949Y-67785005D01*
X142051462Y-67842199D01*
X142028886Y-67894867D01*
X141985040Y-67931760D01*
X141929288Y-67945000D01*
X141627176Y-67945000D01*
X141567624Y-67951402D01*
X141432910Y-68001647D01*
X141317811Y-68087811D01*
X141231647Y-68202910D01*
X141181402Y-68337624D01*
X141175000Y-68397176D01*
X141175000Y-70290000D01*
X134334006Y-70290000D01*
X134347624Y-70257124D01*
X134375199Y-70118500D01*
X134381500Y-70086822D01*
X134381500Y-66646701D01*
X136706851Y-66646701D01*
X136939931Y-66835447D01*
X137247593Y-67035246D01*
X137574468Y-67201797D01*
X137916954Y-67333265D01*
X138271316Y-67428216D01*
X138633645Y-67485602D01*
X139000000Y-67504802D01*
X139366354Y-67485602D01*
X139728683Y-67428216D01*
X140083045Y-67333265D01*
X140425531Y-67201797D01*
X140752406Y-67035246D01*
X141060069Y-66835447D01*
X141222383Y-66704007D01*
X142510060Y-66704007D01*
X143007500Y-67201447D01*
X143007501Y-67201447D01*
X143504939Y-66704007D01*
X149495060Y-66704007D01*
X149992500Y-67201447D01*
X149992501Y-67201447D01*
X150489939Y-66704007D01*
X150489939Y-66704006D01*
X150382728Y-66646701D01*
X151706851Y-66646701D01*
X151939931Y-66835447D01*
X152247593Y-67035246D01*
X152574468Y-67201797D01*
X152916954Y-67333265D01*
X153271316Y-67428216D01*
X153633645Y-67485602D01*
X154000000Y-67504802D01*
X154366354Y-67485602D01*
X154728683Y-67428216D01*
X155083045Y-67333265D01*
X155425531Y-67201797D01*
X155752406Y-67035246D01*
X156060069Y-66835447D01*
X156293148Y-66646702D01*
X156293148Y-66646701D01*
X154000001Y-64353553D01*
X154000000Y-64353553D01*
X151706851Y-66646701D01*
X150382728Y-66646701D01*
X150371269Y-66640576D01*
X150185592Y-66584251D01*
X149992500Y-66565234D01*
X149799407Y-66584251D01*
X149613730Y-66640576D01*
X149495060Y-66704006D01*
X149495060Y-66704007D01*
X143504939Y-66704007D01*
X143504939Y-66704006D01*
X143386269Y-66640576D01*
X143200592Y-66584251D01*
X143007500Y-66565234D01*
X142814407Y-66584251D01*
X142628730Y-66640576D01*
X142510060Y-66704006D01*
X142510060Y-66704007D01*
X141222383Y-66704007D01*
X141293148Y-66646702D01*
X141293148Y-66646701D01*
X139000001Y-64353553D01*
X139000000Y-64353553D01*
X136706851Y-66646701D01*
X134381500Y-66646701D01*
X134381500Y-64000000D01*
X135495197Y-64000000D01*
X135514397Y-64366354D01*
X135571783Y-64728683D01*
X135666734Y-65083045D01*
X135798202Y-65425531D01*
X135964753Y-65752406D01*
X136164552Y-66060068D01*
X136353297Y-66293147D01*
X138646446Y-64000001D01*
X139353553Y-64000001D01*
X141646701Y-66293148D01*
X141646702Y-66293148D01*
X141835447Y-66060069D01*
X142035246Y-65752406D01*
X142201797Y-65425531D01*
X142333265Y-65083045D01*
X142428216Y-64728683D01*
X142485602Y-64366354D01*
X142504802Y-64000000D01*
X150495197Y-64000000D01*
X150514397Y-64366354D01*
X150571783Y-64728683D01*
X150666734Y-65083045D01*
X150798202Y-65425531D01*
X150964753Y-65752406D01*
X151164552Y-66060068D01*
X151353297Y-66293147D01*
X153646446Y-64000001D01*
X154353553Y-64000001D01*
X156646701Y-66293148D01*
X156646702Y-66293148D01*
X156835447Y-66060069D01*
X157035246Y-65752406D01*
X157201797Y-65425531D01*
X157333265Y-65083045D01*
X157428216Y-64728683D01*
X157485602Y-64366354D01*
X157504802Y-64000000D01*
X157485602Y-63633645D01*
X157428216Y-63271316D01*
X157333265Y-62916954D01*
X157201797Y-62574468D01*
X157035246Y-62247594D01*
X156835447Y-61939931D01*
X156646701Y-61706851D01*
X154353553Y-64000000D01*
X154353553Y-64000001D01*
X153646446Y-64000001D01*
X153646446Y-64000000D01*
X151353297Y-61706851D01*
X151164552Y-61939931D01*
X150964753Y-62247594D01*
X150798202Y-62574468D01*
X150666734Y-62916954D01*
X150571783Y-63271316D01*
X150514397Y-63633645D01*
X150495197Y-64000000D01*
X142504802Y-64000000D01*
X142485602Y-63633645D01*
X142428216Y-63271316D01*
X142333265Y-62916954D01*
X142201797Y-62574468D01*
X142035246Y-62247594D01*
X141835447Y-61939931D01*
X141646701Y-61706851D01*
X139353553Y-64000000D01*
X139353553Y-64000001D01*
X138646446Y-64000001D01*
X138646446Y-64000000D01*
X136353297Y-61706851D01*
X136164552Y-61939931D01*
X135964753Y-62247594D01*
X135798202Y-62574468D01*
X135666734Y-62916954D01*
X135571783Y-63271316D01*
X135514397Y-63633645D01*
X135495197Y-64000000D01*
X134381500Y-64000000D01*
X134381500Y-61353297D01*
X136706851Y-61353297D01*
X139000000Y-63646446D01*
X139000001Y-63646446D01*
X141293148Y-61353297D01*
X151706851Y-61353297D01*
X154000000Y-63646446D01*
X154000001Y-63646446D01*
X156293148Y-61353297D01*
X156060068Y-61164552D01*
X155752406Y-60964753D01*
X155425531Y-60798202D01*
X155083045Y-60666734D01*
X154728683Y-60571783D01*
X154366354Y-60514397D01*
X154000000Y-60495197D01*
X153633645Y-60514397D01*
X153271316Y-60571783D01*
X152916954Y-60666734D01*
X152574468Y-60798202D01*
X152247594Y-60964753D01*
X151939931Y-61164552D01*
X151706851Y-61353297D01*
X141293148Y-61353297D01*
X141060068Y-61164552D01*
X140752406Y-60964753D01*
X140425531Y-60798202D01*
X140083045Y-60666734D01*
X139728683Y-60571783D01*
X139366354Y-60514397D01*
X139000000Y-60495197D01*
X138633645Y-60514397D01*
X138271316Y-60571783D01*
X137916954Y-60666734D01*
X137574468Y-60798202D01*
X137247594Y-60964753D01*
X136939931Y-61164552D01*
X136706851Y-61353297D01*
X134381500Y-61353297D01*
X134381500Y-51913178D01*
X134347625Y-51742878D01*
X134332570Y-51706534D01*
X134281175Y-51582453D01*
X134184706Y-51438077D01*
X134061923Y-51315294D01*
X134061922Y-51315293D01*
X134061921Y-51315292D01*
X134055111Y-51310742D01*
X134014642Y-51266093D01*
X134000000Y-51207639D01*
X134000000Y-50792361D01*
X134014642Y-50733907D01*
X134055111Y-50689258D01*
X134058655Y-50686888D01*
X134061923Y-50684706D01*
X134184706Y-50561923D01*
X134281175Y-50417547D01*
X134347624Y-50257124D01*
X134374105Y-50124000D01*
X134381500Y-50086822D01*
X134381500Y-44874000D01*
X134398113Y-44812000D01*
X134443500Y-44766613D01*
X134505500Y-44750000D01*
X142626000Y-44750000D01*
X142688000Y-44766613D01*
G37*
%TD.AperFunction*%
%TD*%
%TA.AperFunction,Conductor*%
%TO.N,GND*%
G36*
X131438000Y-50016613D02*
G01*
X131483387Y-50062000D01*
X131500000Y-50124000D01*
X131500000Y-50250000D01*
X131700000Y-50250000D01*
X131700000Y-50124000D01*
X131716613Y-50062000D01*
X131762000Y-50016613D01*
X131824000Y-50000000D01*
X132499466Y-50000000D01*
X132554310Y-50012788D01*
X132597842Y-50048513D01*
X132621083Y-50099808D01*
X132652375Y-50257122D01*
X132652376Y-50257124D01*
X132718825Y-50417547D01*
X132815294Y-50561923D01*
X132938077Y-50684706D01*
X132938078Y-50684707D01*
X132944889Y-50689258D01*
X132985358Y-50733907D01*
X133000000Y-50792361D01*
X133000000Y-51207639D01*
X132985358Y-51266093D01*
X132944889Y-51310742D01*
X132938078Y-51315292D01*
X132815293Y-51438078D01*
X132718825Y-51582452D01*
X132652374Y-51742878D01*
X132618500Y-51913178D01*
X132618500Y-70086822D01*
X132652374Y-70257121D01*
X132718825Y-70417547D01*
X132815294Y-70561923D01*
X132938077Y-70684706D01*
X132938078Y-70684707D01*
X132944889Y-70689258D01*
X132985358Y-70733907D01*
X133000000Y-70792361D01*
X133000000Y-71207639D01*
X132985358Y-71266093D01*
X132944889Y-71310742D01*
X132938078Y-71315292D01*
X132815293Y-71438078D01*
X132718825Y-71582452D01*
X132652374Y-71742878D01*
X132618500Y-71913178D01*
X132618500Y-71993039D01*
X132617720Y-72006923D01*
X132604557Y-72123746D01*
X132598378Y-72150817D01*
X132561864Y-72255167D01*
X132549817Y-72280184D01*
X132490994Y-72373800D01*
X132473681Y-72395509D01*
X132395509Y-72473681D01*
X132373800Y-72490994D01*
X132280184Y-72549817D01*
X132255167Y-72561864D01*
X132150817Y-72598378D01*
X132123746Y-72604557D01*
X132006923Y-72617720D01*
X131993039Y-72618500D01*
X131913178Y-72618500D01*
X131742878Y-72652374D01*
X131582452Y-72718825D01*
X131438078Y-72815293D01*
X131315292Y-72938078D01*
X131310742Y-72944889D01*
X131266093Y-72985358D01*
X131207639Y-73000000D01*
X130792361Y-73000000D01*
X130733907Y-72985358D01*
X130689258Y-72944889D01*
X130684707Y-72938078D01*
X130646616Y-72899987D01*
X130561923Y-72815294D01*
X130417547Y-72718825D01*
X130257121Y-72652374D01*
X130086822Y-72618500D01*
X130086820Y-72618500D01*
X130063661Y-72618500D01*
X125949000Y-72618500D01*
X125887000Y-72601887D01*
X125841613Y-72556500D01*
X125825000Y-72494500D01*
X125825000Y-70790000D01*
X122160000Y-70790000D01*
X122160000Y-72494500D01*
X122143387Y-72556500D01*
X122098000Y-72601887D01*
X122036000Y-72618500D01*
X118964000Y-72618500D01*
X118902000Y-72601887D01*
X118856613Y-72556500D01*
X118840000Y-72494500D01*
X118840000Y-70790000D01*
X115175000Y-70790000D01*
X115175000Y-72494500D01*
X115158387Y-72556500D01*
X115113000Y-72601887D01*
X115051000Y-72618500D01*
X110913178Y-72618500D01*
X110742878Y-72652374D01*
X110582452Y-72718825D01*
X110438078Y-72815293D01*
X110315292Y-72938078D01*
X110310742Y-72944889D01*
X110266093Y-72985358D01*
X110207639Y-73000000D01*
X109792361Y-73000000D01*
X109733907Y-72985358D01*
X109689258Y-72944889D01*
X109684707Y-72938078D01*
X109646616Y-72899987D01*
X109561923Y-72815294D01*
X109417547Y-72718825D01*
X109257121Y-72652374D01*
X109086822Y-72618500D01*
X109086820Y-72618500D01*
X109006961Y-72618500D01*
X108993077Y-72617720D01*
X108876253Y-72604557D01*
X108849182Y-72598378D01*
X108744832Y-72561864D01*
X108719815Y-72549817D01*
X108626199Y-72490994D01*
X108604490Y-72473681D01*
X108526318Y-72395509D01*
X108509005Y-72373800D01*
X108450182Y-72280184D01*
X108438137Y-72255171D01*
X108401619Y-72150811D01*
X108395443Y-72123750D01*
X108382280Y-72006922D01*
X108381500Y-71993039D01*
X108381500Y-71913178D01*
X108347625Y-71742878D01*
X108332570Y-71706534D01*
X108281175Y-71582453D01*
X108184706Y-71438077D01*
X108061923Y-71315294D01*
X108061922Y-71315293D01*
X108061921Y-71315292D01*
X108055111Y-71310742D01*
X108014642Y-71266093D01*
X108000000Y-71207639D01*
X108000000Y-70792361D01*
X108014642Y-70733907D01*
X108055111Y-70689258D01*
X108058655Y-70686888D01*
X108061923Y-70684706D01*
X108184706Y-70561923D01*
X108281175Y-70417547D01*
X108334006Y-70290000D01*
X115175000Y-70290000D01*
X116757500Y-70290000D01*
X116757500Y-67976362D01*
X116766939Y-67928909D01*
X116777500Y-67913104D01*
X116777500Y-67894000D01*
X116794113Y-67832000D01*
X116839500Y-67786613D01*
X116864882Y-67779811D01*
X116868947Y-67769999D01*
X117146052Y-67769999D01*
X117150117Y-67779811D01*
X117175500Y-67786613D01*
X117220887Y-67832000D01*
X117237500Y-67894000D01*
X117237500Y-67913104D01*
X117248061Y-67928909D01*
X117257500Y-67976362D01*
X117257500Y-70290000D01*
X118840000Y-70290000D01*
X122160000Y-70290000D01*
X123742500Y-70290000D01*
X123742500Y-67976362D01*
X123751939Y-67928909D01*
X123762500Y-67913104D01*
X123762500Y-67894000D01*
X123779113Y-67832000D01*
X123824500Y-67786613D01*
X123849882Y-67779811D01*
X123853947Y-67769999D01*
X124131052Y-67769999D01*
X124135117Y-67779811D01*
X124160500Y-67786613D01*
X124205887Y-67832000D01*
X124222500Y-67894000D01*
X124222500Y-67913104D01*
X124233061Y-67928909D01*
X124242500Y-67976362D01*
X124242500Y-70290000D01*
X125825000Y-70290000D01*
X125825000Y-68397176D01*
X125818597Y-68337624D01*
X125768352Y-68202910D01*
X125682188Y-68087811D01*
X125567089Y-68001647D01*
X125432375Y-67951402D01*
X125372824Y-67945000D01*
X125070712Y-67945000D01*
X125014960Y-67931760D01*
X124971114Y-67894867D01*
X124948538Y-67842199D01*
X124952051Y-67785005D01*
X124963248Y-67748092D01*
X124982265Y-67555000D01*
X124963248Y-67361907D01*
X124906924Y-67176232D01*
X124843491Y-67057560D01*
X124131052Y-67769999D01*
X123853947Y-67769999D01*
X123141507Y-67057560D01*
X123141506Y-67057560D01*
X123078076Y-67176230D01*
X123021751Y-67361907D01*
X123002734Y-67555000D01*
X123021751Y-67748092D01*
X123032949Y-67785005D01*
X123036462Y-67842199D01*
X123013886Y-67894867D01*
X122970040Y-67931760D01*
X122914288Y-67945000D01*
X122612176Y-67945000D01*
X122552624Y-67951402D01*
X122417910Y-68001647D01*
X122302811Y-68087811D01*
X122216647Y-68202910D01*
X122166402Y-68337624D01*
X122160000Y-68397176D01*
X122160000Y-70290000D01*
X118840000Y-70290000D01*
X118840000Y-68397176D01*
X118833597Y-68337624D01*
X118783352Y-68202910D01*
X118697188Y-68087811D01*
X118582089Y-68001647D01*
X118447375Y-67951402D01*
X118387824Y-67945000D01*
X118085712Y-67945000D01*
X118029960Y-67931760D01*
X117986114Y-67894867D01*
X117963538Y-67842199D01*
X117967051Y-67785005D01*
X117978248Y-67748092D01*
X117997265Y-67555000D01*
X117978248Y-67361907D01*
X117921924Y-67176232D01*
X117858491Y-67057560D01*
X117146052Y-67769999D01*
X116868947Y-67769999D01*
X116156507Y-67057560D01*
X116156506Y-67057560D01*
X116093076Y-67176230D01*
X116036751Y-67361907D01*
X116017734Y-67555000D01*
X116036751Y-67748092D01*
X116047949Y-67785005D01*
X116051462Y-67842199D01*
X116028886Y-67894867D01*
X115985040Y-67931760D01*
X115929288Y-67945000D01*
X115627176Y-67945000D01*
X115567624Y-67951402D01*
X115432910Y-68001647D01*
X115317811Y-68087811D01*
X115231647Y-68202910D01*
X115181402Y-68337624D01*
X115175000Y-68397176D01*
X115175000Y-70290000D01*
X108334006Y-70290000D01*
X108347624Y-70257124D01*
X108375199Y-70118500D01*
X108381500Y-70086822D01*
X108381500Y-66646701D01*
X110706851Y-66646701D01*
X110939931Y-66835447D01*
X111247593Y-67035246D01*
X111574468Y-67201797D01*
X111916954Y-67333265D01*
X112271316Y-67428216D01*
X112633645Y-67485602D01*
X113000000Y-67504802D01*
X113366354Y-67485602D01*
X113728683Y-67428216D01*
X114083045Y-67333265D01*
X114425531Y-67201797D01*
X114752406Y-67035246D01*
X115060069Y-66835447D01*
X115222383Y-66704007D01*
X116510060Y-66704007D01*
X117007500Y-67201447D01*
X117007501Y-67201447D01*
X117504939Y-66704007D01*
X123495060Y-66704007D01*
X123992500Y-67201447D01*
X123992501Y-67201447D01*
X124489939Y-66704007D01*
X124489939Y-66704006D01*
X124382728Y-66646701D01*
X125706851Y-66646701D01*
X125939931Y-66835447D01*
X126247593Y-67035246D01*
X126574468Y-67201797D01*
X126916954Y-67333265D01*
X127271316Y-67428216D01*
X127633645Y-67485602D01*
X128000000Y-67504802D01*
X128366354Y-67485602D01*
X128728683Y-67428216D01*
X129083045Y-67333265D01*
X129425531Y-67201797D01*
X129752406Y-67035246D01*
X130060069Y-66835447D01*
X130293148Y-66646702D01*
X130293148Y-66646701D01*
X128000001Y-64353553D01*
X128000000Y-64353553D01*
X125706851Y-66646701D01*
X124382728Y-66646701D01*
X124371269Y-66640576D01*
X124185592Y-66584251D01*
X123992500Y-66565234D01*
X123799407Y-66584251D01*
X123613730Y-66640576D01*
X123495060Y-66704006D01*
X123495060Y-66704007D01*
X117504939Y-66704007D01*
X117504939Y-66704006D01*
X117386269Y-66640576D01*
X117200592Y-66584251D01*
X117007500Y-66565234D01*
X116814407Y-66584251D01*
X116628730Y-66640576D01*
X116510060Y-66704006D01*
X116510060Y-66704007D01*
X115222383Y-66704007D01*
X115293148Y-66646702D01*
X115293148Y-66646701D01*
X113000001Y-64353553D01*
X113000000Y-64353553D01*
X110706851Y-66646701D01*
X108381500Y-66646701D01*
X108381500Y-63999999D01*
X109495197Y-63999999D01*
X109514397Y-64366354D01*
X109571783Y-64728683D01*
X109666734Y-65083045D01*
X109798202Y-65425531D01*
X109964753Y-65752406D01*
X110164552Y-66060068D01*
X110353297Y-66293147D01*
X112646446Y-64000001D01*
X113353553Y-64000001D01*
X115646701Y-66293148D01*
X115646702Y-66293148D01*
X115835447Y-66060069D01*
X116035246Y-65752406D01*
X116201797Y-65425531D01*
X116333265Y-65083045D01*
X116428216Y-64728683D01*
X116485602Y-64366354D01*
X116504802Y-63999999D01*
X124495197Y-63999999D01*
X124514397Y-64366354D01*
X124571783Y-64728683D01*
X124666734Y-65083045D01*
X124798202Y-65425531D01*
X124964753Y-65752406D01*
X125164552Y-66060068D01*
X125353297Y-66293147D01*
X127646446Y-64000001D01*
X128353553Y-64000001D01*
X130646701Y-66293148D01*
X130646702Y-66293148D01*
X130835447Y-66060069D01*
X131035246Y-65752406D01*
X131201797Y-65425531D01*
X131333265Y-65083045D01*
X131428216Y-64728683D01*
X131485602Y-64366354D01*
X131504802Y-63999999D01*
X131485602Y-63633645D01*
X131428216Y-63271316D01*
X131333265Y-62916954D01*
X131201797Y-62574468D01*
X131035246Y-62247594D01*
X130835447Y-61939931D01*
X130646701Y-61706851D01*
X128353553Y-64000000D01*
X128353553Y-64000001D01*
X127646446Y-64000001D01*
X127646446Y-64000000D01*
X125353297Y-61706851D01*
X125164552Y-61939931D01*
X124964753Y-62247594D01*
X124798202Y-62574468D01*
X124666734Y-62916954D01*
X124571783Y-63271316D01*
X124514397Y-63633645D01*
X124495197Y-63999999D01*
X116504802Y-63999999D01*
X116485602Y-63633645D01*
X116428216Y-63271316D01*
X116333265Y-62916954D01*
X116201797Y-62574468D01*
X116035246Y-62247594D01*
X115835447Y-61939931D01*
X115646701Y-61706851D01*
X113353553Y-64000000D01*
X113353553Y-64000001D01*
X112646446Y-64000001D01*
X112646446Y-64000000D01*
X110353297Y-61706851D01*
X110164552Y-61939931D01*
X109964753Y-62247594D01*
X109798202Y-62574468D01*
X109666734Y-62916954D01*
X109571783Y-63271316D01*
X109514397Y-63633645D01*
X109495197Y-63999999D01*
X108381500Y-63999999D01*
X108381500Y-61353297D01*
X110706851Y-61353297D01*
X113000000Y-63646446D01*
X113000001Y-63646446D01*
X115293148Y-61353297D01*
X125706851Y-61353297D01*
X128000000Y-63646446D01*
X128000001Y-63646446D01*
X130293148Y-61353297D01*
X130060068Y-61164552D01*
X129752406Y-60964753D01*
X129425531Y-60798202D01*
X129083045Y-60666734D01*
X128728683Y-60571783D01*
X128366354Y-60514397D01*
X128000000Y-60495197D01*
X127633645Y-60514397D01*
X127271316Y-60571783D01*
X126916954Y-60666734D01*
X126574468Y-60798202D01*
X126247594Y-60964753D01*
X125939931Y-61164552D01*
X125706851Y-61353297D01*
X115293148Y-61353297D01*
X115060068Y-61164552D01*
X114752406Y-60964753D01*
X114425531Y-60798202D01*
X114083045Y-60666734D01*
X113728683Y-60571783D01*
X113366354Y-60514397D01*
X113000000Y-60495197D01*
X112633645Y-60514397D01*
X112271316Y-60571783D01*
X111916954Y-60666734D01*
X111574468Y-60798202D01*
X111247594Y-60964753D01*
X110939931Y-61164552D01*
X110706851Y-61353297D01*
X108381500Y-61353297D01*
X108381500Y-51913178D01*
X108347625Y-51742878D01*
X108332570Y-51706534D01*
X108281175Y-51582453D01*
X108184706Y-51438077D01*
X108061923Y-51315294D01*
X108061922Y-51315293D01*
X108061921Y-51315292D01*
X108055111Y-51310742D01*
X108014642Y-51266093D01*
X108000000Y-51207639D01*
X108000000Y-50792361D01*
X108014642Y-50733907D01*
X108055111Y-50689258D01*
X108058655Y-50686888D01*
X108061923Y-50684706D01*
X108184706Y-50561923D01*
X108281175Y-50417547D01*
X108347624Y-50257124D01*
X108361390Y-50187915D01*
X108378917Y-50099808D01*
X108402158Y-50048513D01*
X108445690Y-50012788D01*
X108500534Y-50000000D01*
X131376000Y-50000000D01*
X131438000Y-50016613D01*
G37*
%TD.AperFunction*%
%TD*%
%TA.AperFunction,Conductor*%
%TO.N,GND*%
G36*
X54006922Y-39382280D02*
G01*
X54019791Y-39383729D01*
X54123750Y-39395443D01*
X54150811Y-39401619D01*
X54255171Y-39438137D01*
X54280181Y-39450180D01*
X54373800Y-39509005D01*
X54395509Y-39526318D01*
X54473681Y-39604490D01*
X54490994Y-39626199D01*
X54549817Y-39719815D01*
X54561864Y-39744832D01*
X54598378Y-39849182D01*
X54604557Y-39876253D01*
X54617720Y-39993077D01*
X54618500Y-40006961D01*
X54618500Y-50086822D01*
X54652374Y-50257121D01*
X54718824Y-50417546D01*
X54718825Y-50417547D01*
X54815294Y-50561923D01*
X54938077Y-50684706D01*
X54938078Y-50684707D01*
X54944889Y-50689258D01*
X54985358Y-50733907D01*
X55000000Y-50792361D01*
X55000000Y-51207639D01*
X54985358Y-51266093D01*
X54944889Y-51310742D01*
X54938078Y-51315292D01*
X54815293Y-51438078D01*
X54718825Y-51582452D01*
X54652374Y-51742878D01*
X54618500Y-51913178D01*
X54618500Y-70086822D01*
X54652374Y-70257121D01*
X54718824Y-70417546D01*
X54718825Y-70417547D01*
X54815294Y-70561923D01*
X54938077Y-70684706D01*
X54938078Y-70684707D01*
X54944889Y-70689258D01*
X54985358Y-70733907D01*
X55000000Y-70792361D01*
X55000000Y-71207639D01*
X54985358Y-71266093D01*
X54944889Y-71310742D01*
X54938078Y-71315292D01*
X54815293Y-71438078D01*
X54718825Y-71582452D01*
X54652374Y-71742878D01*
X54618500Y-71913178D01*
X54618500Y-71993039D01*
X54617720Y-72006923D01*
X54604557Y-72123746D01*
X54598378Y-72150817D01*
X54561864Y-72255167D01*
X54549817Y-72280184D01*
X54490994Y-72373800D01*
X54473681Y-72395509D01*
X54395509Y-72473681D01*
X54373800Y-72490994D01*
X54280184Y-72549817D01*
X54255167Y-72561864D01*
X54150817Y-72598378D01*
X54123746Y-72604557D01*
X54006923Y-72617720D01*
X53993039Y-72618500D01*
X53913178Y-72618500D01*
X53742878Y-72652374D01*
X53582452Y-72718825D01*
X53438078Y-72815293D01*
X53315292Y-72938078D01*
X53310742Y-72944889D01*
X53266093Y-72985358D01*
X53207639Y-73000000D01*
X52792361Y-73000000D01*
X52733907Y-72985358D01*
X52689258Y-72944889D01*
X52684707Y-72938078D01*
X52646616Y-72899987D01*
X52561923Y-72815294D01*
X52417547Y-72718825D01*
X52257121Y-72652374D01*
X52086822Y-72618500D01*
X52086820Y-72618500D01*
X52063661Y-72618500D01*
X47949000Y-72618500D01*
X47887000Y-72601887D01*
X47841613Y-72556500D01*
X47825000Y-72494500D01*
X47825000Y-70790000D01*
X44160000Y-70790000D01*
X44160000Y-72494500D01*
X44143387Y-72556500D01*
X44098000Y-72601887D01*
X44036000Y-72618500D01*
X40964000Y-72618500D01*
X40902000Y-72601887D01*
X40856613Y-72556500D01*
X40840000Y-72494500D01*
X40840000Y-70790000D01*
X37175000Y-70790000D01*
X37175000Y-72494500D01*
X37158387Y-72556500D01*
X37113000Y-72601887D01*
X37051000Y-72618500D01*
X32913178Y-72618500D01*
X32742878Y-72652374D01*
X32582452Y-72718825D01*
X32438078Y-72815293D01*
X32315292Y-72938078D01*
X32310742Y-72944889D01*
X32266093Y-72985358D01*
X32207639Y-73000000D01*
X31792361Y-73000000D01*
X31733907Y-72985358D01*
X31689258Y-72944889D01*
X31684707Y-72938078D01*
X31646616Y-72899987D01*
X31561923Y-72815294D01*
X31417547Y-72718825D01*
X31257121Y-72652374D01*
X31086822Y-72618500D01*
X31086820Y-72618500D01*
X31006961Y-72618500D01*
X30993077Y-72617720D01*
X30876253Y-72604557D01*
X30849182Y-72598378D01*
X30744832Y-72561864D01*
X30719815Y-72549817D01*
X30626199Y-72490994D01*
X30604490Y-72473681D01*
X30526318Y-72395509D01*
X30509005Y-72373800D01*
X30450182Y-72280184D01*
X30438137Y-72255171D01*
X30401619Y-72150811D01*
X30395443Y-72123750D01*
X30382280Y-72006922D01*
X30381500Y-71993039D01*
X30381500Y-70290000D01*
X37175000Y-70290000D01*
X38757500Y-70290000D01*
X38757500Y-67976362D01*
X38766939Y-67928909D01*
X38777500Y-67913104D01*
X38777500Y-67894000D01*
X38794113Y-67832000D01*
X38839500Y-67786613D01*
X38864882Y-67779811D01*
X38868947Y-67769999D01*
X39146052Y-67769999D01*
X39150117Y-67779811D01*
X39175500Y-67786613D01*
X39220887Y-67832000D01*
X39237500Y-67894000D01*
X39237500Y-67913104D01*
X39248061Y-67928909D01*
X39257500Y-67976362D01*
X39257500Y-70290000D01*
X40840000Y-70290000D01*
X44160000Y-70290000D01*
X45742500Y-70290000D01*
X45742500Y-67976362D01*
X45751939Y-67928909D01*
X45762500Y-67913104D01*
X45762500Y-67894000D01*
X45779113Y-67832000D01*
X45824500Y-67786613D01*
X45849882Y-67779811D01*
X45853947Y-67769999D01*
X46131052Y-67769999D01*
X46135117Y-67779811D01*
X46160500Y-67786613D01*
X46205887Y-67832000D01*
X46222500Y-67894000D01*
X46222500Y-67913104D01*
X46233061Y-67928909D01*
X46242500Y-67976362D01*
X46242500Y-70290000D01*
X47825000Y-70290000D01*
X47825000Y-68397176D01*
X47818597Y-68337624D01*
X47768352Y-68202910D01*
X47682188Y-68087811D01*
X47567089Y-68001647D01*
X47432375Y-67951402D01*
X47372824Y-67945000D01*
X47070712Y-67945000D01*
X47014960Y-67931760D01*
X46971114Y-67894867D01*
X46948538Y-67842199D01*
X46952051Y-67785005D01*
X46963248Y-67748092D01*
X46982265Y-67555000D01*
X46963248Y-67361907D01*
X46906924Y-67176232D01*
X46843491Y-67057560D01*
X46131052Y-67769999D01*
X45853947Y-67769999D01*
X45141507Y-67057560D01*
X45141506Y-67057560D01*
X45078076Y-67176230D01*
X45021751Y-67361907D01*
X45002734Y-67555000D01*
X45021751Y-67748092D01*
X45032949Y-67785005D01*
X45036462Y-67842199D01*
X45013886Y-67894867D01*
X44970040Y-67931760D01*
X44914288Y-67945000D01*
X44612176Y-67945000D01*
X44552624Y-67951402D01*
X44417910Y-68001647D01*
X44302811Y-68087811D01*
X44216647Y-68202910D01*
X44166402Y-68337624D01*
X44160000Y-68397176D01*
X44160000Y-70290000D01*
X40840000Y-70290000D01*
X40840000Y-68397176D01*
X40833597Y-68337624D01*
X40783352Y-68202910D01*
X40697188Y-68087811D01*
X40582089Y-68001647D01*
X40447375Y-67951402D01*
X40387824Y-67945000D01*
X40085712Y-67945000D01*
X40029960Y-67931760D01*
X39986114Y-67894867D01*
X39963538Y-67842199D01*
X39967051Y-67785005D01*
X39978248Y-67748092D01*
X39997265Y-67555000D01*
X39978248Y-67361907D01*
X39921924Y-67176232D01*
X39858491Y-67057560D01*
X39146052Y-67769999D01*
X38868947Y-67769999D01*
X38156507Y-67057560D01*
X38156506Y-67057560D01*
X38093076Y-67176230D01*
X38036751Y-67361907D01*
X38017734Y-67555000D01*
X38036751Y-67748092D01*
X38047949Y-67785005D01*
X38051462Y-67842199D01*
X38028886Y-67894867D01*
X37985040Y-67931760D01*
X37929288Y-67945000D01*
X37627176Y-67945000D01*
X37567624Y-67951402D01*
X37432910Y-68001647D01*
X37317811Y-68087811D01*
X37231647Y-68202910D01*
X37181402Y-68337624D01*
X37175000Y-68397176D01*
X37175000Y-70290000D01*
X30381500Y-70290000D01*
X30381500Y-66646701D01*
X32706851Y-66646701D01*
X32939931Y-66835447D01*
X33247593Y-67035246D01*
X33574468Y-67201797D01*
X33916954Y-67333265D01*
X34271316Y-67428216D01*
X34633645Y-67485602D01*
X35000000Y-67504802D01*
X35366354Y-67485602D01*
X35728683Y-67428216D01*
X36083045Y-67333265D01*
X36425531Y-67201797D01*
X36752406Y-67035246D01*
X37060069Y-66835447D01*
X37222383Y-66704007D01*
X38510060Y-66704007D01*
X39007500Y-67201447D01*
X39007501Y-67201447D01*
X39504939Y-66704007D01*
X45495060Y-66704007D01*
X45992500Y-67201447D01*
X45992501Y-67201447D01*
X46489939Y-66704007D01*
X46489939Y-66704006D01*
X46382728Y-66646701D01*
X47706851Y-66646701D01*
X47939931Y-66835447D01*
X48247593Y-67035246D01*
X48574468Y-67201797D01*
X48916954Y-67333265D01*
X49271316Y-67428216D01*
X49633645Y-67485602D01*
X50000000Y-67504802D01*
X50366354Y-67485602D01*
X50728683Y-67428216D01*
X51083045Y-67333265D01*
X51425531Y-67201797D01*
X51752406Y-67035246D01*
X52060069Y-66835447D01*
X52293148Y-66646702D01*
X52293148Y-66646701D01*
X50000001Y-64353553D01*
X50000000Y-64353553D01*
X47706851Y-66646701D01*
X46382728Y-66646701D01*
X46371269Y-66640576D01*
X46185592Y-66584251D01*
X45992500Y-66565234D01*
X45799407Y-66584251D01*
X45613730Y-66640576D01*
X45495060Y-66704006D01*
X45495060Y-66704007D01*
X39504939Y-66704007D01*
X39504939Y-66704006D01*
X39386269Y-66640576D01*
X39200592Y-66584251D01*
X39007500Y-66565234D01*
X38814407Y-66584251D01*
X38628730Y-66640576D01*
X38510060Y-66704006D01*
X38510060Y-66704007D01*
X37222383Y-66704007D01*
X37293148Y-66646702D01*
X37293148Y-66646701D01*
X35000001Y-64353553D01*
X35000000Y-64353553D01*
X32706851Y-66646701D01*
X30381500Y-66646701D01*
X30381500Y-63999999D01*
X31495197Y-63999999D01*
X31514397Y-64366354D01*
X31571783Y-64728683D01*
X31666734Y-65083045D01*
X31798202Y-65425531D01*
X31964753Y-65752406D01*
X32164552Y-66060068D01*
X32353297Y-66293147D01*
X34646445Y-64000001D01*
X35353553Y-64000001D01*
X37646701Y-66293148D01*
X37646702Y-66293148D01*
X37835447Y-66060069D01*
X38035246Y-65752406D01*
X38201797Y-65425531D01*
X38333265Y-65083045D01*
X38428216Y-64728683D01*
X38485602Y-64366354D01*
X38504802Y-63999999D01*
X46495197Y-63999999D01*
X46514397Y-64366354D01*
X46571783Y-64728683D01*
X46666734Y-65083045D01*
X46798202Y-65425531D01*
X46964753Y-65752406D01*
X47164552Y-66060068D01*
X47353297Y-66293147D01*
X49646446Y-64000001D01*
X49646446Y-64000000D01*
X50353553Y-64000000D01*
X52646702Y-66293148D01*
X52835447Y-66060069D01*
X53035246Y-65752406D01*
X53201797Y-65425531D01*
X53333265Y-65083045D01*
X53428216Y-64728683D01*
X53485602Y-64366354D01*
X53504802Y-63999999D01*
X53485602Y-63633645D01*
X53428216Y-63271316D01*
X53333265Y-62916954D01*
X53201797Y-62574468D01*
X53035246Y-62247594D01*
X52835447Y-61939931D01*
X52646701Y-61706851D01*
X50353553Y-64000000D01*
X49646446Y-64000000D01*
X47353297Y-61706851D01*
X47164552Y-61939931D01*
X46964753Y-62247594D01*
X46798202Y-62574468D01*
X46666734Y-62916954D01*
X46571783Y-63271316D01*
X46514397Y-63633645D01*
X46495197Y-63999999D01*
X38504802Y-63999999D01*
X38485602Y-63633645D01*
X38428216Y-63271316D01*
X38333265Y-62916954D01*
X38201797Y-62574468D01*
X38035246Y-62247594D01*
X37835447Y-61939931D01*
X37646701Y-61706851D01*
X35353553Y-64000000D01*
X35353553Y-64000001D01*
X34646445Y-64000001D01*
X34646446Y-64000000D01*
X32353297Y-61706851D01*
X32164552Y-61939931D01*
X31964753Y-62247594D01*
X31798202Y-62574468D01*
X31666734Y-62916954D01*
X31571783Y-63271316D01*
X31514397Y-63633645D01*
X31495197Y-63999999D01*
X30381500Y-63999999D01*
X30381500Y-61353297D01*
X32706850Y-61353297D01*
X34999998Y-63646446D01*
X34999999Y-63646446D01*
X37293147Y-61353297D01*
X47706850Y-61353297D01*
X49999998Y-63646446D01*
X49999999Y-63646446D01*
X52293147Y-61353297D01*
X52060068Y-61164552D01*
X51752406Y-60964753D01*
X51425531Y-60798202D01*
X51083045Y-60666734D01*
X50728683Y-60571783D01*
X50366354Y-60514397D01*
X50000000Y-60495197D01*
X49633645Y-60514397D01*
X49271316Y-60571783D01*
X48916954Y-60666734D01*
X48574468Y-60798202D01*
X48247594Y-60964753D01*
X47939931Y-61164552D01*
X47706850Y-61353297D01*
X37293147Y-61353297D01*
X37060068Y-61164552D01*
X36752406Y-60964753D01*
X36425531Y-60798202D01*
X36083045Y-60666734D01*
X35728683Y-60571783D01*
X35366354Y-60514397D01*
X35000000Y-60495197D01*
X34633645Y-60514397D01*
X34271316Y-60571783D01*
X33916954Y-60666734D01*
X33574468Y-60798202D01*
X33247594Y-60964753D01*
X32939931Y-61164552D01*
X32706850Y-61353297D01*
X30381500Y-61353297D01*
X30381500Y-40006961D01*
X30382280Y-39993078D01*
X30393750Y-39891274D01*
X30395443Y-39876247D01*
X30401619Y-39849190D01*
X30438138Y-39744824D01*
X30450178Y-39719821D01*
X30509007Y-39626195D01*
X30526314Y-39604494D01*
X30604494Y-39526314D01*
X30626195Y-39509007D01*
X30719821Y-39450178D01*
X30744824Y-39438138D01*
X30849190Y-39401619D01*
X30876247Y-39395443D01*
X30981916Y-39383537D01*
X30993078Y-39382280D01*
X31006961Y-39381500D01*
X31054851Y-39381500D01*
X53945149Y-39381500D01*
X53993039Y-39381500D01*
X54006922Y-39382280D01*
G37*
%TD.AperFunction*%
%TD*%
%TA.AperFunction,Conductor*%
%TO.N,GND*%
G36*
X80554310Y-50012788D02*
G01*
X80597842Y-50048513D01*
X80621083Y-50099808D01*
X80652375Y-50257122D01*
X80652376Y-50257124D01*
X80718825Y-50417547D01*
X80815294Y-50561923D01*
X80938077Y-50684706D01*
X80938078Y-50684707D01*
X80944889Y-50689258D01*
X80985358Y-50733907D01*
X81000000Y-50792361D01*
X81000000Y-51207639D01*
X80985358Y-51266093D01*
X80944889Y-51310742D01*
X80938078Y-51315292D01*
X80815293Y-51438078D01*
X80718825Y-51582452D01*
X80652374Y-51742878D01*
X80618500Y-51913178D01*
X80618500Y-70086822D01*
X80652374Y-70257121D01*
X80718825Y-70417547D01*
X80815294Y-70561923D01*
X80938077Y-70684706D01*
X80938078Y-70684707D01*
X80944889Y-70689258D01*
X80985358Y-70733907D01*
X81000000Y-70792361D01*
X81000000Y-71207639D01*
X80985358Y-71266093D01*
X80944889Y-71310742D01*
X80938078Y-71315292D01*
X80815293Y-71438078D01*
X80718825Y-71582452D01*
X80652374Y-71742878D01*
X80618500Y-71913178D01*
X80618500Y-71993039D01*
X80617720Y-72006923D01*
X80604557Y-72123746D01*
X80598378Y-72150817D01*
X80561864Y-72255167D01*
X80549817Y-72280184D01*
X80490994Y-72373800D01*
X80473681Y-72395509D01*
X80395509Y-72473681D01*
X80373800Y-72490994D01*
X80280184Y-72549817D01*
X80255167Y-72561864D01*
X80150817Y-72598378D01*
X80123746Y-72604557D01*
X80006923Y-72617720D01*
X79993039Y-72618500D01*
X79913178Y-72618500D01*
X79742878Y-72652374D01*
X79582452Y-72718825D01*
X79438078Y-72815293D01*
X79315292Y-72938078D01*
X79310742Y-72944889D01*
X79266093Y-72985358D01*
X79207639Y-73000000D01*
X78792361Y-73000000D01*
X78733907Y-72985358D01*
X78689258Y-72944889D01*
X78684707Y-72938078D01*
X78646616Y-72899987D01*
X78561923Y-72815294D01*
X78417547Y-72718825D01*
X78257121Y-72652374D01*
X78086822Y-72618500D01*
X78086820Y-72618500D01*
X78063661Y-72618500D01*
X73949000Y-72618500D01*
X73887000Y-72601887D01*
X73841613Y-72556500D01*
X73825000Y-72494500D01*
X73825000Y-70790000D01*
X70160000Y-70790000D01*
X70160000Y-72494500D01*
X70143387Y-72556500D01*
X70098000Y-72601887D01*
X70036000Y-72618500D01*
X66964000Y-72618500D01*
X66902000Y-72601887D01*
X66856613Y-72556500D01*
X66840000Y-72494500D01*
X66840000Y-70790000D01*
X63175000Y-70790000D01*
X63175000Y-72494500D01*
X63158387Y-72556500D01*
X63113000Y-72601887D01*
X63051000Y-72618500D01*
X58913178Y-72618500D01*
X58742878Y-72652374D01*
X58582452Y-72718825D01*
X58438078Y-72815293D01*
X58315292Y-72938078D01*
X58310742Y-72944889D01*
X58266093Y-72985358D01*
X58207639Y-73000000D01*
X57792361Y-73000000D01*
X57733907Y-72985358D01*
X57689258Y-72944889D01*
X57684707Y-72938078D01*
X57646616Y-72899987D01*
X57561923Y-72815294D01*
X57417547Y-72718825D01*
X57257121Y-72652374D01*
X57086822Y-72618500D01*
X57086820Y-72618500D01*
X57006961Y-72618500D01*
X56993077Y-72617720D01*
X56876253Y-72604557D01*
X56849182Y-72598378D01*
X56744832Y-72561864D01*
X56719815Y-72549817D01*
X56626199Y-72490994D01*
X56604490Y-72473681D01*
X56526318Y-72395509D01*
X56509005Y-72373800D01*
X56450182Y-72280184D01*
X56438137Y-72255171D01*
X56401619Y-72150811D01*
X56395443Y-72123750D01*
X56382280Y-72006922D01*
X56381500Y-71993039D01*
X56381500Y-71913178D01*
X56347625Y-71742878D01*
X56332570Y-71706534D01*
X56281175Y-71582453D01*
X56184706Y-71438077D01*
X56061923Y-71315294D01*
X56061922Y-71315293D01*
X56061921Y-71315292D01*
X56055111Y-71310742D01*
X56014642Y-71266093D01*
X56000000Y-71207639D01*
X56000000Y-70792361D01*
X56014642Y-70733907D01*
X56055111Y-70689258D01*
X56058655Y-70686888D01*
X56061923Y-70684706D01*
X56184706Y-70561923D01*
X56281175Y-70417547D01*
X56334006Y-70290000D01*
X63175000Y-70290000D01*
X64757500Y-70290000D01*
X64757500Y-67976362D01*
X64766939Y-67928909D01*
X64777500Y-67913104D01*
X64777500Y-67894000D01*
X64794113Y-67832000D01*
X64839500Y-67786613D01*
X64864882Y-67779811D01*
X64868947Y-67769999D01*
X65146052Y-67769999D01*
X65150117Y-67779811D01*
X65175500Y-67786613D01*
X65220887Y-67832000D01*
X65237500Y-67894000D01*
X65237500Y-67913104D01*
X65248061Y-67928909D01*
X65257500Y-67976362D01*
X65257500Y-70290000D01*
X66840000Y-70290000D01*
X70160000Y-70290000D01*
X71742500Y-70290000D01*
X71742500Y-67976362D01*
X71751939Y-67928909D01*
X71762500Y-67913104D01*
X71762500Y-67894000D01*
X71779113Y-67832000D01*
X71824500Y-67786613D01*
X71849882Y-67779811D01*
X71853947Y-67769999D01*
X72131052Y-67769999D01*
X72135117Y-67779811D01*
X72160500Y-67786613D01*
X72205887Y-67832000D01*
X72222500Y-67894000D01*
X72222500Y-67913104D01*
X72233061Y-67928909D01*
X72242500Y-67976362D01*
X72242500Y-70290000D01*
X73825000Y-70290000D01*
X73825000Y-68397176D01*
X73818597Y-68337624D01*
X73768352Y-68202910D01*
X73682188Y-68087811D01*
X73567089Y-68001647D01*
X73432375Y-67951402D01*
X73372824Y-67945000D01*
X73070712Y-67945000D01*
X73014960Y-67931760D01*
X72971114Y-67894867D01*
X72948538Y-67842199D01*
X72952051Y-67785005D01*
X72963248Y-67748092D01*
X72982265Y-67555000D01*
X72963248Y-67361907D01*
X72906924Y-67176232D01*
X72843491Y-67057560D01*
X72131052Y-67769999D01*
X71853947Y-67769999D01*
X71141507Y-67057560D01*
X71141506Y-67057560D01*
X71078076Y-67176230D01*
X71021751Y-67361907D01*
X71002734Y-67555000D01*
X71021751Y-67748092D01*
X71032949Y-67785005D01*
X71036462Y-67842199D01*
X71013886Y-67894867D01*
X70970040Y-67931760D01*
X70914288Y-67945000D01*
X70612176Y-67945000D01*
X70552624Y-67951402D01*
X70417910Y-68001647D01*
X70302811Y-68087811D01*
X70216647Y-68202910D01*
X70166402Y-68337624D01*
X70160000Y-68397176D01*
X70160000Y-70290000D01*
X66840000Y-70290000D01*
X66840000Y-68397176D01*
X66833597Y-68337624D01*
X66783352Y-68202910D01*
X66697188Y-68087811D01*
X66582089Y-68001647D01*
X66447375Y-67951402D01*
X66387824Y-67945000D01*
X66085712Y-67945000D01*
X66029960Y-67931760D01*
X65986114Y-67894867D01*
X65963538Y-67842199D01*
X65967051Y-67785005D01*
X65978248Y-67748092D01*
X65997265Y-67555000D01*
X65978248Y-67361907D01*
X65921924Y-67176232D01*
X65858491Y-67057560D01*
X65146052Y-67769999D01*
X64868947Y-67769999D01*
X64156507Y-67057560D01*
X64156506Y-67057560D01*
X64093076Y-67176230D01*
X64036751Y-67361907D01*
X64017734Y-67555000D01*
X64036751Y-67748092D01*
X64047949Y-67785005D01*
X64051462Y-67842199D01*
X64028886Y-67894867D01*
X63985040Y-67931760D01*
X63929288Y-67945000D01*
X63627176Y-67945000D01*
X63567624Y-67951402D01*
X63432910Y-68001647D01*
X63317811Y-68087811D01*
X63231647Y-68202910D01*
X63181402Y-68337624D01*
X63175000Y-68397176D01*
X63175000Y-70290000D01*
X56334006Y-70290000D01*
X56347624Y-70257124D01*
X56375199Y-70118500D01*
X56381500Y-70086822D01*
X56381500Y-66646701D01*
X58706851Y-66646701D01*
X58939931Y-66835447D01*
X59247593Y-67035246D01*
X59574468Y-67201797D01*
X59916954Y-67333265D01*
X60271316Y-67428216D01*
X60633645Y-67485602D01*
X61000000Y-67504802D01*
X61366354Y-67485602D01*
X61728683Y-67428216D01*
X62083045Y-67333265D01*
X62425531Y-67201797D01*
X62752406Y-67035246D01*
X63060069Y-66835447D01*
X63222383Y-66704007D01*
X64510060Y-66704007D01*
X65007500Y-67201447D01*
X65007501Y-67201447D01*
X65504939Y-66704007D01*
X71495060Y-66704007D01*
X71992500Y-67201447D01*
X71992501Y-67201447D01*
X72489939Y-66704007D01*
X72489939Y-66704006D01*
X72382728Y-66646701D01*
X73706851Y-66646701D01*
X73939931Y-66835447D01*
X74247593Y-67035246D01*
X74574468Y-67201797D01*
X74916954Y-67333265D01*
X75271316Y-67428216D01*
X75633645Y-67485602D01*
X76000000Y-67504802D01*
X76366354Y-67485602D01*
X76728683Y-67428216D01*
X77083045Y-67333265D01*
X77425531Y-67201797D01*
X77752406Y-67035246D01*
X78060069Y-66835447D01*
X78293148Y-66646702D01*
X78293148Y-66646701D01*
X76000001Y-64353553D01*
X76000000Y-64353553D01*
X73706851Y-66646701D01*
X72382728Y-66646701D01*
X72371269Y-66640576D01*
X72185592Y-66584251D01*
X71992500Y-66565234D01*
X71799407Y-66584251D01*
X71613730Y-66640576D01*
X71495060Y-66704006D01*
X71495060Y-66704007D01*
X65504939Y-66704007D01*
X65504939Y-66704006D01*
X65386269Y-66640576D01*
X65200592Y-66584251D01*
X65007500Y-66565234D01*
X64814407Y-66584251D01*
X64628730Y-66640576D01*
X64510060Y-66704006D01*
X64510060Y-66704007D01*
X63222383Y-66704007D01*
X63293148Y-66646702D01*
X63293148Y-66646701D01*
X61000001Y-64353553D01*
X61000000Y-64353553D01*
X58706851Y-66646701D01*
X56381500Y-66646701D01*
X56381500Y-63999999D01*
X57495197Y-63999999D01*
X57514397Y-64366354D01*
X57571783Y-64728683D01*
X57666734Y-65083045D01*
X57798202Y-65425531D01*
X57964753Y-65752406D01*
X58164552Y-66060068D01*
X58353297Y-66293147D01*
X60646446Y-64000001D01*
X61353553Y-64000001D01*
X63646701Y-66293148D01*
X63646702Y-66293148D01*
X63835447Y-66060069D01*
X64035246Y-65752406D01*
X64201797Y-65425531D01*
X64333265Y-65083045D01*
X64428216Y-64728683D01*
X64485602Y-64366354D01*
X64504802Y-63999999D01*
X72495197Y-63999999D01*
X72514397Y-64366354D01*
X72571783Y-64728683D01*
X72666734Y-65083045D01*
X72798202Y-65425531D01*
X72964753Y-65752406D01*
X73164552Y-66060068D01*
X73353297Y-66293147D01*
X75646446Y-64000001D01*
X76353553Y-64000001D01*
X78646701Y-66293148D01*
X78646702Y-66293148D01*
X78835447Y-66060069D01*
X79035246Y-65752406D01*
X79201797Y-65425531D01*
X79333265Y-65083045D01*
X79428216Y-64728683D01*
X79485602Y-64366354D01*
X79504802Y-63999999D01*
X79485602Y-63633645D01*
X79428216Y-63271316D01*
X79333265Y-62916954D01*
X79201797Y-62574468D01*
X79035246Y-62247594D01*
X78835447Y-61939931D01*
X78646701Y-61706851D01*
X76353553Y-64000000D01*
X76353553Y-64000001D01*
X75646446Y-64000001D01*
X75646446Y-64000000D01*
X73353297Y-61706851D01*
X73164552Y-61939931D01*
X72964753Y-62247594D01*
X72798202Y-62574468D01*
X72666734Y-62916954D01*
X72571783Y-63271316D01*
X72514397Y-63633645D01*
X72495197Y-63999999D01*
X64504802Y-63999999D01*
X64485602Y-63633645D01*
X64428216Y-63271316D01*
X64333265Y-62916954D01*
X64201797Y-62574468D01*
X64035246Y-62247594D01*
X63835447Y-61939931D01*
X63646701Y-61706851D01*
X61353553Y-64000000D01*
X61353553Y-64000001D01*
X60646446Y-64000001D01*
X60646446Y-64000000D01*
X58353297Y-61706851D01*
X58164552Y-61939931D01*
X57964753Y-62247594D01*
X57798202Y-62574468D01*
X57666734Y-62916954D01*
X57571783Y-63271316D01*
X57514397Y-63633645D01*
X57495197Y-63999999D01*
X56381500Y-63999999D01*
X56381500Y-61353297D01*
X58706850Y-61353297D01*
X60999998Y-63646446D01*
X60999999Y-63646446D01*
X63293147Y-61353297D01*
X73706851Y-61353297D01*
X76000000Y-63646446D01*
X76000001Y-63646446D01*
X78293148Y-61353297D01*
X78060068Y-61164552D01*
X77752406Y-60964753D01*
X77425531Y-60798202D01*
X77083045Y-60666734D01*
X76728683Y-60571783D01*
X76366354Y-60514397D01*
X76000000Y-60495197D01*
X75633645Y-60514397D01*
X75271316Y-60571783D01*
X74916954Y-60666734D01*
X74574468Y-60798202D01*
X74247594Y-60964753D01*
X73939931Y-61164552D01*
X73706851Y-61353297D01*
X63293147Y-61353297D01*
X63060068Y-61164552D01*
X62752406Y-60964753D01*
X62425531Y-60798202D01*
X62083045Y-60666734D01*
X61728683Y-60571783D01*
X61366354Y-60514397D01*
X61000000Y-60495197D01*
X60633645Y-60514397D01*
X60271316Y-60571783D01*
X59916954Y-60666734D01*
X59574468Y-60798202D01*
X59247594Y-60964753D01*
X58939931Y-61164552D01*
X58706850Y-61353297D01*
X56381500Y-61353297D01*
X56381500Y-51913178D01*
X56347625Y-51742878D01*
X56332570Y-51706534D01*
X56281175Y-51582453D01*
X56184706Y-51438077D01*
X56061923Y-51315294D01*
X56061922Y-51315293D01*
X56061921Y-51315292D01*
X56055111Y-51310742D01*
X56014642Y-51266093D01*
X56000000Y-51207639D01*
X56000000Y-50792361D01*
X56014642Y-50733907D01*
X56055111Y-50689258D01*
X56058655Y-50686888D01*
X56061923Y-50684706D01*
X56184706Y-50561923D01*
X56281175Y-50417547D01*
X56347624Y-50257124D01*
X56361390Y-50187915D01*
X56378917Y-50099808D01*
X56402158Y-50048513D01*
X56445690Y-50012788D01*
X56500534Y-50000000D01*
X80499466Y-50000000D01*
X80554310Y-50012788D01*
G37*
%TD.AperFunction*%
%TD*%
%TA.AperFunction,Conductor*%
%TO.N,GND*%
G36*
X136266093Y-74014642D02*
G01*
X136310742Y-74055111D01*
X136315292Y-74061921D01*
X136315293Y-74061922D01*
X136315294Y-74061923D01*
X136438077Y-74184706D01*
X136582453Y-74281175D01*
X136706534Y-74332570D01*
X136742878Y-74347625D01*
X136913178Y-74381500D01*
X141051000Y-74381500D01*
X141113000Y-74398113D01*
X141158387Y-74443500D01*
X141175000Y-74505500D01*
X141175000Y-76250000D01*
X144840000Y-76250000D01*
X144840000Y-74505500D01*
X144856613Y-74443500D01*
X144902000Y-74398113D01*
X144964000Y-74381500D01*
X148036000Y-74381500D01*
X148098000Y-74398113D01*
X148143387Y-74443500D01*
X148160000Y-74505500D01*
X148160000Y-76250000D01*
X151825000Y-76250000D01*
X151825000Y-74505500D01*
X151841613Y-74443500D01*
X151887000Y-74398113D01*
X151949000Y-74381500D01*
X156086822Y-74381500D01*
X156257121Y-74347625D01*
X156257122Y-74347624D01*
X156257124Y-74347624D01*
X156417547Y-74281175D01*
X156561923Y-74184706D01*
X156684706Y-74061923D01*
X156689257Y-74055111D01*
X156733907Y-74014642D01*
X156792361Y-74000000D01*
X157207639Y-74000000D01*
X157266093Y-74014642D01*
X157310742Y-74055111D01*
X157315292Y-74061921D01*
X157315293Y-74061922D01*
X157315294Y-74061923D01*
X157438077Y-74184706D01*
X157582453Y-74281175D01*
X157706534Y-74332570D01*
X157742878Y-74347625D01*
X157913178Y-74381500D01*
X157913180Y-74381500D01*
X157945149Y-74381500D01*
X157993039Y-74381500D01*
X158006922Y-74382280D01*
X158019791Y-74383729D01*
X158123750Y-74395443D01*
X158150811Y-74401619D01*
X158255171Y-74438137D01*
X158280181Y-74450180D01*
X158368222Y-74505500D01*
X158373800Y-74509005D01*
X158395509Y-74526318D01*
X158473681Y-74604490D01*
X158490994Y-74626199D01*
X158549817Y-74719815D01*
X158561864Y-74744832D01*
X158598378Y-74849182D01*
X158604557Y-74876253D01*
X158617720Y-74993077D01*
X158618500Y-75006961D01*
X158618500Y-95876000D01*
X158601887Y-95938000D01*
X158556500Y-95983387D01*
X158494500Y-96000000D01*
X134124000Y-96000000D01*
X134062000Y-95983387D01*
X134016613Y-95938000D01*
X134000000Y-95876000D01*
X134000000Y-95792361D01*
X134014642Y-95733907D01*
X134055111Y-95689258D01*
X134058655Y-95686888D01*
X134061923Y-95684706D01*
X134184706Y-95561923D01*
X134281175Y-95417547D01*
X134347624Y-95257124D01*
X134375199Y-95118500D01*
X134381500Y-95086822D01*
X134381500Y-85646701D01*
X136706851Y-85646701D01*
X136939931Y-85835447D01*
X137247593Y-86035246D01*
X137574468Y-86201797D01*
X137916954Y-86333265D01*
X138271316Y-86428216D01*
X138633645Y-86485602D01*
X139000000Y-86504802D01*
X139366354Y-86485602D01*
X139728683Y-86428216D01*
X140083045Y-86333265D01*
X140425531Y-86201797D01*
X140752406Y-86035246D01*
X141060069Y-85835447D01*
X141293148Y-85646702D01*
X141293148Y-85646701D01*
X151706851Y-85646701D01*
X151939931Y-85835447D01*
X152247593Y-86035246D01*
X152574468Y-86201797D01*
X152916954Y-86333265D01*
X153271316Y-86428216D01*
X153633645Y-86485602D01*
X154000000Y-86504802D01*
X154366354Y-86485602D01*
X154728683Y-86428216D01*
X155083045Y-86333265D01*
X155425531Y-86201797D01*
X155752406Y-86035246D01*
X156060069Y-85835447D01*
X156293148Y-85646702D01*
X156293148Y-85646701D01*
X154000001Y-83353553D01*
X154000000Y-83353553D01*
X151706851Y-85646701D01*
X141293148Y-85646701D01*
X139000001Y-83353553D01*
X139000000Y-83353553D01*
X136706851Y-85646701D01*
X134381500Y-85646701D01*
X134381500Y-82999999D01*
X135495197Y-82999999D01*
X135514397Y-83366354D01*
X135571783Y-83728683D01*
X135666734Y-84083045D01*
X135798202Y-84425531D01*
X135964753Y-84752406D01*
X136164552Y-85060068D01*
X136353297Y-85293147D01*
X138646446Y-83000001D01*
X139353553Y-83000001D01*
X141646701Y-85293148D01*
X141646702Y-85293148D01*
X141835447Y-85060069D01*
X142035246Y-84752406D01*
X142201797Y-84425531D01*
X142333265Y-84083045D01*
X142428216Y-83728683D01*
X142485602Y-83366354D01*
X142504802Y-83000000D01*
X150495197Y-83000000D01*
X150514397Y-83366354D01*
X150571783Y-83728683D01*
X150666734Y-84083045D01*
X150798202Y-84425531D01*
X150964753Y-84752406D01*
X151164552Y-85060068D01*
X151353297Y-85293147D01*
X153646446Y-83000001D01*
X154353553Y-83000001D01*
X156646701Y-85293148D01*
X156646702Y-85293148D01*
X156835447Y-85060069D01*
X157035246Y-84752406D01*
X157201797Y-84425531D01*
X157333265Y-84083045D01*
X157428216Y-83728683D01*
X157485602Y-83366354D01*
X157504802Y-83000000D01*
X157485602Y-82633645D01*
X157428216Y-82271316D01*
X157333265Y-81916954D01*
X157201797Y-81574468D01*
X157035246Y-81247594D01*
X156835447Y-80939931D01*
X156646701Y-80706851D01*
X154353553Y-83000000D01*
X154353553Y-83000001D01*
X153646446Y-83000001D01*
X153646446Y-83000000D01*
X151353297Y-80706851D01*
X151164552Y-80939931D01*
X150964753Y-81247594D01*
X150798202Y-81574468D01*
X150666734Y-81916954D01*
X150571783Y-82271316D01*
X150514397Y-82633645D01*
X150495197Y-83000000D01*
X142504802Y-83000000D01*
X142485602Y-82633645D01*
X142428216Y-82271316D01*
X142333265Y-81916954D01*
X142201797Y-81574468D01*
X142035246Y-81247594D01*
X141835447Y-80939931D01*
X141646701Y-80706851D01*
X139353553Y-83000000D01*
X139353553Y-83000001D01*
X138646446Y-83000001D01*
X138646446Y-83000000D01*
X136353297Y-80706851D01*
X136164552Y-80939931D01*
X135964753Y-81247594D01*
X135798202Y-81574468D01*
X135666734Y-81916954D01*
X135571783Y-82271316D01*
X135514397Y-82633645D01*
X135495197Y-82999999D01*
X134381500Y-82999999D01*
X134381500Y-80353297D01*
X136706851Y-80353297D01*
X139000000Y-82646446D01*
X139000001Y-82646446D01*
X141293148Y-80353297D01*
X141271778Y-80335992D01*
X142510060Y-80335992D01*
X142628732Y-80399424D01*
X142814407Y-80455748D01*
X143007500Y-80474765D01*
X143200592Y-80455748D01*
X143386267Y-80399424D01*
X143504936Y-80335992D01*
X149495060Y-80335992D01*
X149613732Y-80399424D01*
X149799407Y-80455748D01*
X149992500Y-80474765D01*
X150185592Y-80455748D01*
X150371267Y-80399424D01*
X150457563Y-80353297D01*
X151706851Y-80353297D01*
X154000000Y-82646446D01*
X154000001Y-82646446D01*
X156293148Y-80353297D01*
X156060068Y-80164552D01*
X155752406Y-79964753D01*
X155425531Y-79798202D01*
X155083045Y-79666734D01*
X154728683Y-79571783D01*
X154366354Y-79514397D01*
X154000000Y-79495197D01*
X153633645Y-79514397D01*
X153271316Y-79571783D01*
X152916954Y-79666734D01*
X152574468Y-79798202D01*
X152247594Y-79964753D01*
X151939931Y-80164552D01*
X151706851Y-80353297D01*
X150457563Y-80353297D01*
X150489939Y-80335991D01*
X149992501Y-79838553D01*
X149992500Y-79838553D01*
X149495060Y-80335992D01*
X143504936Y-80335992D01*
X143504938Y-80335991D01*
X143007501Y-79838553D01*
X143007500Y-79838553D01*
X142510060Y-80335992D01*
X141271778Y-80335992D01*
X141060068Y-80164552D01*
X140752406Y-79964753D01*
X140425531Y-79798202D01*
X140083045Y-79666734D01*
X139728683Y-79571783D01*
X139366354Y-79514397D01*
X139000000Y-79495197D01*
X138633645Y-79514397D01*
X138271316Y-79571783D01*
X137916954Y-79666734D01*
X137574468Y-79798202D01*
X137247594Y-79964753D01*
X136939931Y-80164552D01*
X136706851Y-80353297D01*
X134381500Y-80353297D01*
X134381500Y-76913178D01*
X134349042Y-76750000D01*
X141175000Y-76750000D01*
X141175000Y-78642824D01*
X141181402Y-78702375D01*
X141231647Y-78837089D01*
X141317811Y-78952188D01*
X141432910Y-79038352D01*
X141567624Y-79088597D01*
X141627176Y-79095000D01*
X141929288Y-79095000D01*
X141985040Y-79108240D01*
X142028886Y-79145133D01*
X142051462Y-79197801D01*
X142047949Y-79254995D01*
X142036751Y-79291907D01*
X142017734Y-79485000D01*
X142036751Y-79678092D01*
X142093076Y-79863769D01*
X142156506Y-79982439D01*
X142868945Y-79270000D01*
X143146052Y-79270000D01*
X143858491Y-79982438D01*
X143921924Y-79863767D01*
X143978248Y-79678092D01*
X143997265Y-79484999D01*
X143978248Y-79291907D01*
X143967051Y-79254995D01*
X143963538Y-79197801D01*
X143986114Y-79145133D01*
X144029960Y-79108240D01*
X144085712Y-79095000D01*
X144387824Y-79095000D01*
X144447375Y-79088597D01*
X144582089Y-79038352D01*
X144697188Y-78952188D01*
X144783352Y-78837089D01*
X144833597Y-78702375D01*
X144840000Y-78642824D01*
X144840000Y-76750000D01*
X148160000Y-76750000D01*
X148160000Y-78642824D01*
X148166402Y-78702375D01*
X148216647Y-78837089D01*
X148302811Y-78952188D01*
X148417910Y-79038352D01*
X148552624Y-79088597D01*
X148612176Y-79095000D01*
X148914288Y-79095000D01*
X148970040Y-79108240D01*
X149013886Y-79145133D01*
X149036462Y-79197801D01*
X149032949Y-79254995D01*
X149021751Y-79291907D01*
X149002734Y-79484999D01*
X149021751Y-79678092D01*
X149078076Y-79863769D01*
X149141506Y-79982439D01*
X149853945Y-79270000D01*
X150131052Y-79270000D01*
X150843491Y-79982438D01*
X150906924Y-79863767D01*
X150963248Y-79678092D01*
X150982265Y-79484999D01*
X150963248Y-79291907D01*
X150952051Y-79254995D01*
X150948538Y-79197801D01*
X150971114Y-79145133D01*
X151014960Y-79108240D01*
X151070712Y-79095000D01*
X151372824Y-79095000D01*
X151432375Y-79088597D01*
X151567089Y-79038352D01*
X151682188Y-78952188D01*
X151768352Y-78837089D01*
X151818597Y-78702375D01*
X151825000Y-78642824D01*
X151825000Y-76750000D01*
X150242500Y-76750000D01*
X150242500Y-79063638D01*
X150233061Y-79111091D01*
X150222500Y-79126896D01*
X150222500Y-79146000D01*
X150205887Y-79208000D01*
X150160500Y-79253387D01*
X150135117Y-79260188D01*
X150131052Y-79270000D01*
X149853945Y-79270000D01*
X149853946Y-79269999D01*
X149849882Y-79260188D01*
X149824500Y-79253387D01*
X149779113Y-79208000D01*
X149762500Y-79146000D01*
X149762500Y-79126896D01*
X149751939Y-79111091D01*
X149742500Y-79063638D01*
X149742500Y-76750000D01*
X148160000Y-76750000D01*
X144840000Y-76750000D01*
X143257500Y-76750000D01*
X143257500Y-79063638D01*
X143248061Y-79111091D01*
X143237500Y-79126896D01*
X143237500Y-79146000D01*
X143220887Y-79208000D01*
X143175500Y-79253387D01*
X143150117Y-79260188D01*
X143146052Y-79270000D01*
X142868945Y-79270000D01*
X142868946Y-79269999D01*
X142864882Y-79260188D01*
X142839500Y-79253387D01*
X142794113Y-79208000D01*
X142777500Y-79146000D01*
X142777500Y-79126896D01*
X142766939Y-79111091D01*
X142757500Y-79063638D01*
X142757500Y-76750000D01*
X141175000Y-76750000D01*
X134349042Y-76750000D01*
X134347625Y-76742878D01*
X134332570Y-76706534D01*
X134281175Y-76582453D01*
X134184706Y-76438077D01*
X134061923Y-76315294D01*
X134061922Y-76315293D01*
X134061921Y-76315292D01*
X134055111Y-76310742D01*
X134014642Y-76266093D01*
X134000000Y-76207639D01*
X134000000Y-75792361D01*
X134014642Y-75733907D01*
X134055111Y-75689258D01*
X134058655Y-75686888D01*
X134061923Y-75684706D01*
X134184706Y-75561923D01*
X134281175Y-75417547D01*
X134347624Y-75257124D01*
X134375199Y-75118500D01*
X134381500Y-75086822D01*
X134381500Y-75006961D01*
X134382280Y-74993078D01*
X134393750Y-74891274D01*
X134395443Y-74876247D01*
X134401619Y-74849190D01*
X134438138Y-74744824D01*
X134450178Y-74719821D01*
X134509007Y-74626195D01*
X134526314Y-74604494D01*
X134604494Y-74526314D01*
X134626195Y-74509007D01*
X134719821Y-74450178D01*
X134744824Y-74438138D01*
X134849190Y-74401619D01*
X134876247Y-74395443D01*
X134981916Y-74383537D01*
X134993078Y-74382280D01*
X135006961Y-74381500D01*
X135086822Y-74381500D01*
X135257121Y-74347625D01*
X135257122Y-74347624D01*
X135257124Y-74347624D01*
X135417547Y-74281175D01*
X135561923Y-74184706D01*
X135684706Y-74061923D01*
X135689257Y-74055111D01*
X135733907Y-74014642D01*
X135792361Y-74000000D01*
X136207639Y-74000000D01*
X136266093Y-74014642D01*
G37*
%TD.AperFunction*%
%TD*%
%TA.AperFunction,Conductor*%
%TO.N,GND*%
G36*
X106554310Y-50012788D02*
G01*
X106597842Y-50048513D01*
X106621083Y-50099808D01*
X106652375Y-50257122D01*
X106652376Y-50257124D01*
X106718825Y-50417547D01*
X106815294Y-50561923D01*
X106938077Y-50684706D01*
X106938078Y-50684707D01*
X106944889Y-50689258D01*
X106985358Y-50733907D01*
X107000000Y-50792361D01*
X107000000Y-51207639D01*
X106985358Y-51266093D01*
X106944889Y-51310742D01*
X106938078Y-51315292D01*
X106815293Y-51438078D01*
X106718825Y-51582452D01*
X106652374Y-51742878D01*
X106618500Y-51913178D01*
X106618500Y-70086822D01*
X106652374Y-70257121D01*
X106718825Y-70417547D01*
X106815294Y-70561923D01*
X106938077Y-70684706D01*
X106938078Y-70684707D01*
X106944889Y-70689258D01*
X106985358Y-70733907D01*
X107000000Y-70792361D01*
X107000000Y-71207639D01*
X106985358Y-71266093D01*
X106944889Y-71310742D01*
X106938078Y-71315292D01*
X106815293Y-71438078D01*
X106718825Y-71582452D01*
X106652374Y-71742878D01*
X106618500Y-71913178D01*
X106618500Y-71993039D01*
X106617720Y-72006923D01*
X106604557Y-72123746D01*
X106598378Y-72150817D01*
X106561864Y-72255167D01*
X106549817Y-72280184D01*
X106490994Y-72373800D01*
X106473681Y-72395509D01*
X106395509Y-72473681D01*
X106373800Y-72490994D01*
X106280184Y-72549817D01*
X106255167Y-72561864D01*
X106150817Y-72598378D01*
X106123746Y-72604557D01*
X106006923Y-72617720D01*
X105993039Y-72618500D01*
X105913178Y-72618500D01*
X105742878Y-72652374D01*
X105582452Y-72718825D01*
X105438078Y-72815293D01*
X105315292Y-72938078D01*
X105310742Y-72944889D01*
X105266093Y-72985358D01*
X105207639Y-73000000D01*
X104792361Y-73000000D01*
X104733907Y-72985358D01*
X104689258Y-72944889D01*
X104684707Y-72938078D01*
X104646616Y-72899987D01*
X104561923Y-72815294D01*
X104417547Y-72718825D01*
X104257121Y-72652374D01*
X104086822Y-72618500D01*
X104086820Y-72618500D01*
X104063661Y-72618500D01*
X99949000Y-72618500D01*
X99887000Y-72601887D01*
X99841613Y-72556500D01*
X99825000Y-72494500D01*
X99825000Y-70790000D01*
X96160000Y-70790000D01*
X96160000Y-72494500D01*
X96143387Y-72556500D01*
X96098000Y-72601887D01*
X96036000Y-72618500D01*
X92964000Y-72618500D01*
X92902000Y-72601887D01*
X92856613Y-72556500D01*
X92840000Y-72494500D01*
X92840000Y-70790000D01*
X89175000Y-70790000D01*
X89175000Y-72494500D01*
X89158387Y-72556500D01*
X89113000Y-72601887D01*
X89051000Y-72618500D01*
X84913178Y-72618500D01*
X84742878Y-72652374D01*
X84582452Y-72718825D01*
X84438078Y-72815293D01*
X84315292Y-72938078D01*
X84310742Y-72944889D01*
X84266093Y-72985358D01*
X84207639Y-73000000D01*
X83792361Y-73000000D01*
X83733907Y-72985358D01*
X83689258Y-72944889D01*
X83684707Y-72938078D01*
X83646616Y-72899987D01*
X83561923Y-72815294D01*
X83417547Y-72718825D01*
X83257121Y-72652374D01*
X83086822Y-72618500D01*
X83086820Y-72618500D01*
X83006961Y-72618500D01*
X82993077Y-72617720D01*
X82876253Y-72604557D01*
X82849182Y-72598378D01*
X82744832Y-72561864D01*
X82719815Y-72549817D01*
X82626199Y-72490994D01*
X82604490Y-72473681D01*
X82526318Y-72395509D01*
X82509005Y-72373800D01*
X82450182Y-72280184D01*
X82438137Y-72255171D01*
X82401619Y-72150811D01*
X82395443Y-72123750D01*
X82382280Y-72006922D01*
X82381500Y-71993039D01*
X82381500Y-71913178D01*
X82347625Y-71742878D01*
X82332570Y-71706534D01*
X82281175Y-71582453D01*
X82184706Y-71438077D01*
X82061923Y-71315294D01*
X82061922Y-71315293D01*
X82061921Y-71315292D01*
X82055111Y-71310742D01*
X82014642Y-71266093D01*
X82000000Y-71207639D01*
X82000000Y-70792361D01*
X82014642Y-70733907D01*
X82055111Y-70689258D01*
X82058655Y-70686888D01*
X82061923Y-70684706D01*
X82184706Y-70561923D01*
X82281175Y-70417547D01*
X82334006Y-70290000D01*
X89175000Y-70290000D01*
X90757500Y-70290000D01*
X90757500Y-67976362D01*
X90766939Y-67928909D01*
X90777500Y-67913104D01*
X90777500Y-67894000D01*
X90794113Y-67832000D01*
X90839500Y-67786613D01*
X90864882Y-67779811D01*
X90868947Y-67769999D01*
X91146052Y-67769999D01*
X91150117Y-67779811D01*
X91175500Y-67786613D01*
X91220887Y-67832000D01*
X91237500Y-67894000D01*
X91237500Y-67913104D01*
X91248061Y-67928909D01*
X91257500Y-67976362D01*
X91257500Y-70290000D01*
X92840000Y-70290000D01*
X96160000Y-70290000D01*
X97742500Y-70290000D01*
X97742500Y-67976362D01*
X97751939Y-67928909D01*
X97762500Y-67913104D01*
X97762500Y-67894000D01*
X97779113Y-67832000D01*
X97824500Y-67786613D01*
X97849882Y-67779811D01*
X97853947Y-67769999D01*
X98131052Y-67769999D01*
X98135117Y-67779811D01*
X98160500Y-67786613D01*
X98205887Y-67832000D01*
X98222500Y-67894000D01*
X98222500Y-67913104D01*
X98233061Y-67928909D01*
X98242500Y-67976362D01*
X98242500Y-70290000D01*
X99825000Y-70290000D01*
X99825000Y-68397176D01*
X99818597Y-68337624D01*
X99768352Y-68202910D01*
X99682188Y-68087811D01*
X99567089Y-68001647D01*
X99432375Y-67951402D01*
X99372824Y-67945000D01*
X99070712Y-67945000D01*
X99014960Y-67931760D01*
X98971114Y-67894867D01*
X98948538Y-67842199D01*
X98952051Y-67785005D01*
X98963248Y-67748092D01*
X98982265Y-67555000D01*
X98963248Y-67361907D01*
X98906924Y-67176232D01*
X98843491Y-67057560D01*
X98131052Y-67769999D01*
X97853947Y-67769999D01*
X97141507Y-67057560D01*
X97141506Y-67057560D01*
X97078076Y-67176230D01*
X97021751Y-67361907D01*
X97002734Y-67555000D01*
X97021751Y-67748092D01*
X97032949Y-67785005D01*
X97036462Y-67842199D01*
X97013886Y-67894867D01*
X96970040Y-67931760D01*
X96914288Y-67945000D01*
X96612176Y-67945000D01*
X96552624Y-67951402D01*
X96417910Y-68001647D01*
X96302811Y-68087811D01*
X96216647Y-68202910D01*
X96166402Y-68337624D01*
X96160000Y-68397176D01*
X96160000Y-70290000D01*
X92840000Y-70290000D01*
X92840000Y-68397176D01*
X92833597Y-68337624D01*
X92783352Y-68202910D01*
X92697188Y-68087811D01*
X92582089Y-68001647D01*
X92447375Y-67951402D01*
X92387824Y-67945000D01*
X92085712Y-67945000D01*
X92029960Y-67931760D01*
X91986114Y-67894867D01*
X91963538Y-67842199D01*
X91967051Y-67785005D01*
X91978248Y-67748092D01*
X91997265Y-67555000D01*
X91978248Y-67361907D01*
X91921924Y-67176232D01*
X91858491Y-67057560D01*
X91146052Y-67769999D01*
X90868947Y-67769999D01*
X90156507Y-67057560D01*
X90156506Y-67057560D01*
X90093076Y-67176230D01*
X90036751Y-67361907D01*
X90017734Y-67555000D01*
X90036751Y-67748092D01*
X90047949Y-67785005D01*
X90051462Y-67842199D01*
X90028886Y-67894867D01*
X89985040Y-67931760D01*
X89929288Y-67945000D01*
X89627176Y-67945000D01*
X89567624Y-67951402D01*
X89432910Y-68001647D01*
X89317811Y-68087811D01*
X89231647Y-68202910D01*
X89181402Y-68337624D01*
X89175000Y-68397176D01*
X89175000Y-70290000D01*
X82334006Y-70290000D01*
X82347624Y-70257124D01*
X82375199Y-70118500D01*
X82381500Y-70086822D01*
X82381500Y-66646701D01*
X84706851Y-66646701D01*
X84939931Y-66835447D01*
X85247593Y-67035246D01*
X85574468Y-67201797D01*
X85916954Y-67333265D01*
X86271316Y-67428216D01*
X86633645Y-67485602D01*
X87000000Y-67504802D01*
X87366354Y-67485602D01*
X87728683Y-67428216D01*
X88083045Y-67333265D01*
X88425531Y-67201797D01*
X88752406Y-67035246D01*
X89060069Y-66835447D01*
X89222383Y-66704007D01*
X90510060Y-66704007D01*
X91007500Y-67201447D01*
X91007501Y-67201447D01*
X91504939Y-66704007D01*
X97495060Y-66704007D01*
X97992500Y-67201447D01*
X97992501Y-67201447D01*
X98489939Y-66704007D01*
X98489939Y-66704006D01*
X98382728Y-66646701D01*
X99706851Y-66646701D01*
X99939931Y-66835447D01*
X100247593Y-67035246D01*
X100574468Y-67201797D01*
X100916954Y-67333265D01*
X101271316Y-67428216D01*
X101633645Y-67485602D01*
X102000000Y-67504802D01*
X102366354Y-67485602D01*
X102728683Y-67428216D01*
X103083045Y-67333265D01*
X103425531Y-67201797D01*
X103752406Y-67035246D01*
X104060069Y-66835447D01*
X104293148Y-66646702D01*
X104293148Y-66646701D01*
X102000001Y-64353553D01*
X102000000Y-64353553D01*
X99706851Y-66646701D01*
X98382728Y-66646701D01*
X98371269Y-66640576D01*
X98185592Y-66584251D01*
X97992500Y-66565234D01*
X97799407Y-66584251D01*
X97613730Y-66640576D01*
X97495060Y-66704006D01*
X97495060Y-66704007D01*
X91504939Y-66704007D01*
X91504939Y-66704006D01*
X91386269Y-66640576D01*
X91200592Y-66584251D01*
X91007500Y-66565234D01*
X90814407Y-66584251D01*
X90628730Y-66640576D01*
X90510060Y-66704006D01*
X90510060Y-66704007D01*
X89222383Y-66704007D01*
X89293148Y-66646702D01*
X89293148Y-66646701D01*
X87000001Y-64353553D01*
X87000000Y-64353553D01*
X84706851Y-66646701D01*
X82381500Y-66646701D01*
X82381500Y-63999999D01*
X83495197Y-63999999D01*
X83514397Y-64366354D01*
X83571783Y-64728683D01*
X83666734Y-65083045D01*
X83798202Y-65425531D01*
X83964753Y-65752406D01*
X84164552Y-66060068D01*
X84353297Y-66293147D01*
X86646446Y-64000001D01*
X87353553Y-64000001D01*
X89646701Y-66293148D01*
X89646702Y-66293148D01*
X89835447Y-66060069D01*
X90035246Y-65752406D01*
X90201797Y-65425531D01*
X90333265Y-65083045D01*
X90428216Y-64728683D01*
X90485602Y-64366354D01*
X90504802Y-63999999D01*
X98495197Y-63999999D01*
X98514397Y-64366354D01*
X98571783Y-64728683D01*
X98666734Y-65083045D01*
X98798202Y-65425531D01*
X98964753Y-65752406D01*
X99164552Y-66060068D01*
X99353297Y-66293147D01*
X101646446Y-64000001D01*
X102353553Y-64000001D01*
X104646701Y-66293148D01*
X104646702Y-66293148D01*
X104835447Y-66060069D01*
X105035246Y-65752406D01*
X105201797Y-65425531D01*
X105333265Y-65083045D01*
X105428216Y-64728683D01*
X105485602Y-64366354D01*
X105504802Y-63999999D01*
X105485602Y-63633645D01*
X105428216Y-63271316D01*
X105333265Y-62916954D01*
X105201797Y-62574468D01*
X105035246Y-62247594D01*
X104835447Y-61939931D01*
X104646701Y-61706851D01*
X102353553Y-64000000D01*
X102353553Y-64000001D01*
X101646446Y-64000001D01*
X101646446Y-64000000D01*
X99353297Y-61706851D01*
X99164552Y-61939931D01*
X98964753Y-62247594D01*
X98798202Y-62574468D01*
X98666734Y-62916954D01*
X98571783Y-63271316D01*
X98514397Y-63633645D01*
X98495197Y-63999999D01*
X90504802Y-63999999D01*
X90485602Y-63633645D01*
X90428216Y-63271316D01*
X90333265Y-62916954D01*
X90201797Y-62574468D01*
X90035246Y-62247594D01*
X89835447Y-61939931D01*
X89646701Y-61706851D01*
X87353553Y-64000000D01*
X87353553Y-64000001D01*
X86646446Y-64000001D01*
X86646446Y-64000000D01*
X84353297Y-61706851D01*
X84164552Y-61939931D01*
X83964753Y-62247594D01*
X83798202Y-62574468D01*
X83666734Y-62916954D01*
X83571783Y-63271316D01*
X83514397Y-63633645D01*
X83495197Y-63999999D01*
X82381500Y-63999999D01*
X82381500Y-61353297D01*
X84706851Y-61353297D01*
X87000000Y-63646446D01*
X87000001Y-63646446D01*
X89293148Y-61353297D01*
X99706851Y-61353297D01*
X102000000Y-63646446D01*
X102000001Y-63646446D01*
X104293148Y-61353297D01*
X104060068Y-61164552D01*
X103752406Y-60964753D01*
X103425531Y-60798202D01*
X103083045Y-60666734D01*
X102728683Y-60571783D01*
X102366354Y-60514397D01*
X102000000Y-60495197D01*
X101633645Y-60514397D01*
X101271316Y-60571783D01*
X100916954Y-60666734D01*
X100574468Y-60798202D01*
X100247594Y-60964753D01*
X99939931Y-61164552D01*
X99706851Y-61353297D01*
X89293148Y-61353297D01*
X89060068Y-61164552D01*
X88752406Y-60964753D01*
X88425531Y-60798202D01*
X88083045Y-60666734D01*
X87728683Y-60571783D01*
X87366354Y-60514397D01*
X87000000Y-60495197D01*
X86633645Y-60514397D01*
X86271316Y-60571783D01*
X85916954Y-60666734D01*
X85574468Y-60798202D01*
X85247594Y-60964753D01*
X84939931Y-61164552D01*
X84706851Y-61353297D01*
X82381500Y-61353297D01*
X82381500Y-51913178D01*
X82347625Y-51742878D01*
X82332570Y-51706534D01*
X82281175Y-51582453D01*
X82184706Y-51438077D01*
X82061923Y-51315294D01*
X82061922Y-51315293D01*
X82061921Y-51315292D01*
X82055111Y-51310742D01*
X82014642Y-51266093D01*
X82000000Y-51207639D01*
X82000000Y-50792361D01*
X82014642Y-50733907D01*
X82055111Y-50689258D01*
X82058655Y-50686888D01*
X82061923Y-50684706D01*
X82184706Y-50561923D01*
X82281175Y-50417547D01*
X82347624Y-50257124D01*
X82361390Y-50187915D01*
X82378917Y-50099808D01*
X82402158Y-50048513D01*
X82445690Y-50012788D01*
X82500534Y-50000000D01*
X106499466Y-50000000D01*
X106554310Y-50012788D01*
G37*
%TD.AperFunction*%
%TD*%
%TA.AperFunction,Conductor*%
%TO.N,GND*%
G36*
X84245519Y-74018954D02*
G01*
X84326300Y-74072930D01*
X84438076Y-74184705D01*
X84438077Y-74184706D01*
X84582453Y-74281175D01*
X84742876Y-74347624D01*
X84785452Y-74356093D01*
X84913177Y-74381500D01*
X88926000Y-74381500D01*
X89021288Y-74400454D01*
X89102070Y-74454430D01*
X89156046Y-74535212D01*
X89175000Y-74630500D01*
X89175000Y-76249999D01*
X89175001Y-76250000D01*
X92839999Y-76250000D01*
X92840000Y-76249999D01*
X92840000Y-74630500D01*
X92858954Y-74535212D01*
X92912930Y-74454430D01*
X92993712Y-74400454D01*
X93089000Y-74381500D01*
X95911000Y-74381500D01*
X96006288Y-74400454D01*
X96087070Y-74454430D01*
X96141046Y-74535212D01*
X96160000Y-74630500D01*
X96160000Y-76249999D01*
X96160001Y-76250000D01*
X99824999Y-76250000D01*
X99825000Y-76249999D01*
X99825000Y-74630500D01*
X99843954Y-74535212D01*
X99897930Y-74454430D01*
X99978712Y-74400454D01*
X100074000Y-74381500D01*
X104086823Y-74381500D01*
X104189002Y-74361174D01*
X104257124Y-74347624D01*
X104417547Y-74281175D01*
X104561923Y-74184706D01*
X104617811Y-74128817D01*
X104673700Y-74072930D01*
X104754481Y-74018954D01*
X104849769Y-74000000D01*
X105150231Y-74000000D01*
X105245519Y-74018954D01*
X105326300Y-74072930D01*
X105438076Y-74184705D01*
X105438077Y-74184706D01*
X105582453Y-74281175D01*
X105742876Y-74347624D01*
X105785452Y-74356093D01*
X105913177Y-74381500D01*
X105913180Y-74381500D01*
X105945149Y-74381500D01*
X105986020Y-74381500D01*
X106013898Y-74383066D01*
X106031218Y-74385017D01*
X106109749Y-74393865D01*
X106164109Y-74406273D01*
X106241875Y-74433485D01*
X106292109Y-74457676D01*
X106361871Y-74501510D01*
X106405466Y-74536275D01*
X106463724Y-74594533D01*
X106498489Y-74638128D01*
X106542323Y-74707890D01*
X106566514Y-74758124D01*
X106593726Y-74835890D01*
X106606134Y-74890251D01*
X106616934Y-74986100D01*
X106618500Y-75013980D01*
X106618500Y-75086823D01*
X106652375Y-75257122D01*
X106718824Y-75417546D01*
X106815294Y-75561923D01*
X106927070Y-75673700D01*
X106981046Y-75754481D01*
X107000000Y-75849769D01*
X107000000Y-76150231D01*
X106981046Y-76245519D01*
X106927070Y-76326300D01*
X106815294Y-76438076D01*
X106718824Y-76582453D01*
X106652375Y-76742877D01*
X106618500Y-76913177D01*
X106618500Y-95086823D01*
X106652375Y-95257122D01*
X106718824Y-95417546D01*
X106815294Y-95561923D01*
X106927070Y-95673700D01*
X106981046Y-95754481D01*
X107000000Y-95849769D01*
X107000000Y-96150231D01*
X106981046Y-96245519D01*
X106927070Y-96326300D01*
X106815294Y-96438076D01*
X106718824Y-96582453D01*
X106667640Y-96706025D01*
X106630074Y-96768701D01*
X106575931Y-96817773D01*
X106509875Y-96849015D01*
X106437594Y-96859737D01*
X96050312Y-96859737D01*
X96011358Y-96856671D01*
X96000000Y-96854871D01*
X95969286Y-96859736D01*
X95969284Y-96859736D01*
X95969284Y-96859737D01*
X95917143Y-96867995D01*
X95877895Y-96874211D01*
X95767752Y-96930333D01*
X95680333Y-97017752D01*
X95624210Y-97127898D01*
X95604871Y-97249998D01*
X95606671Y-97261358D01*
X95609737Y-97300312D01*
X95609737Y-107369500D01*
X95590783Y-107464788D01*
X95536807Y-107545570D01*
X95456025Y-107599546D01*
X95360737Y-107618500D01*
X83013980Y-107618500D01*
X82986102Y-107616934D01*
X82955117Y-107613442D01*
X82890251Y-107606134D01*
X82835890Y-107593726D01*
X82758124Y-107566514D01*
X82707890Y-107542323D01*
X82638128Y-107498489D01*
X82594533Y-107463724D01*
X82536275Y-107405466D01*
X82501510Y-107361871D01*
X82457676Y-107292109D01*
X82433485Y-107241875D01*
X82406273Y-107164109D01*
X82393865Y-107109746D01*
X82383066Y-107013898D01*
X82381500Y-106986020D01*
X82381500Y-96913177D01*
X82347624Y-96742877D01*
X82281175Y-96582453D01*
X82184705Y-96438076D01*
X82072930Y-96326300D01*
X82018954Y-96245519D01*
X82000000Y-96150231D01*
X82000000Y-95849769D01*
X82018954Y-95754481D01*
X82072930Y-95673700D01*
X82128817Y-95617811D01*
X82184706Y-95561923D01*
X82281175Y-95417547D01*
X82347624Y-95257124D01*
X82361174Y-95189002D01*
X82381500Y-95086823D01*
X82381500Y-85646702D01*
X84706851Y-85646702D01*
X84939931Y-85835448D01*
X85247600Y-86035249D01*
X85574459Y-86201793D01*
X85916957Y-86333265D01*
X86271318Y-86428216D01*
X86633641Y-86485602D01*
X87000000Y-86504803D01*
X87366358Y-86485602D01*
X87728681Y-86428216D01*
X88083042Y-86333265D01*
X88425540Y-86201793D01*
X88752399Y-86035249D01*
X89060072Y-85835444D01*
X89293147Y-85646702D01*
X99706851Y-85646702D01*
X99939931Y-85835448D01*
X100247600Y-86035249D01*
X100574459Y-86201793D01*
X100916957Y-86333265D01*
X101271318Y-86428216D01*
X101633641Y-86485602D01*
X102000000Y-86504803D01*
X102366358Y-86485602D01*
X102728681Y-86428216D01*
X103083042Y-86333265D01*
X103425540Y-86201793D01*
X103752399Y-86035249D01*
X104060072Y-85835444D01*
X104293147Y-85646702D01*
X104293147Y-85646701D01*
X102000000Y-83353554D01*
X99706851Y-85646702D01*
X89293147Y-85646702D01*
X89293147Y-85646701D01*
X87000000Y-83353554D01*
X84706851Y-85646702D01*
X82381500Y-85646702D01*
X82381500Y-83000000D01*
X83495196Y-83000000D01*
X83514397Y-83366358D01*
X83571783Y-83728681D01*
X83666734Y-84083042D01*
X83798206Y-84425540D01*
X83964750Y-84752399D01*
X84164555Y-85060073D01*
X84353296Y-85293147D01*
X86646443Y-83000000D01*
X87353554Y-83000000D01*
X89646701Y-85293147D01*
X89646702Y-85293147D01*
X89835444Y-85060072D01*
X90035249Y-84752399D01*
X90201793Y-84425540D01*
X90333265Y-84083042D01*
X90428216Y-83728681D01*
X90485602Y-83366358D01*
X90504803Y-83000000D01*
X98495196Y-83000000D01*
X98514397Y-83366358D01*
X98571783Y-83728681D01*
X98666734Y-84083042D01*
X98798206Y-84425540D01*
X98964750Y-84752399D01*
X99164555Y-85060073D01*
X99353296Y-85293147D01*
X101646443Y-83000000D01*
X102353554Y-83000000D01*
X104646701Y-85293147D01*
X104646702Y-85293147D01*
X104835444Y-85060072D01*
X105035249Y-84752399D01*
X105201793Y-84425540D01*
X105333265Y-84083042D01*
X105428216Y-83728681D01*
X105485602Y-83366358D01*
X105504803Y-83000000D01*
X105485602Y-82633641D01*
X105428216Y-82271318D01*
X105333265Y-81916957D01*
X105201793Y-81574459D01*
X105035249Y-81247601D01*
X104835444Y-80939927D01*
X104646702Y-80706851D01*
X102353554Y-83000000D01*
X101646443Y-83000000D01*
X101646444Y-82999999D01*
X99353296Y-80706851D01*
X99164551Y-80939933D01*
X98964750Y-81247601D01*
X98798206Y-81574459D01*
X98666734Y-81916957D01*
X98571783Y-82271318D01*
X98514397Y-82633641D01*
X98495196Y-83000000D01*
X90504803Y-83000000D01*
X90485602Y-82633641D01*
X90428216Y-82271318D01*
X90333265Y-81916957D01*
X90201793Y-81574459D01*
X90035249Y-81247601D01*
X89835444Y-80939927D01*
X89646702Y-80706851D01*
X87353554Y-83000000D01*
X86646443Y-83000000D01*
X86646444Y-82999999D01*
X84353296Y-80706851D01*
X84164551Y-80939933D01*
X83964750Y-81247601D01*
X83798206Y-81574459D01*
X83666734Y-81916957D01*
X83571783Y-82271318D01*
X83514397Y-82633641D01*
X83495196Y-83000000D01*
X82381500Y-83000000D01*
X82381500Y-80353296D01*
X84706851Y-80353296D01*
X86999999Y-82646444D01*
X89293147Y-80353296D01*
X89271777Y-80335991D01*
X90510060Y-80335991D01*
X90628735Y-80399426D01*
X90814403Y-80455747D01*
X91007500Y-80474766D01*
X91200596Y-80455747D01*
X91386266Y-80399425D01*
X91504938Y-80335992D01*
X91504937Y-80335991D01*
X97495060Y-80335991D01*
X97613735Y-80399426D01*
X97799403Y-80455747D01*
X97992500Y-80474766D01*
X98185596Y-80455747D01*
X98371266Y-80399425D01*
X98457565Y-80353296D01*
X99706851Y-80353296D01*
X101999999Y-82646444D01*
X104293147Y-80353296D01*
X104060073Y-80164555D01*
X103752399Y-79964750D01*
X103425540Y-79798206D01*
X103083042Y-79666734D01*
X102728681Y-79571783D01*
X102366358Y-79514397D01*
X102000000Y-79495196D01*
X101633641Y-79514397D01*
X101271318Y-79571783D01*
X100916957Y-79666734D01*
X100574459Y-79798206D01*
X100247601Y-79964750D01*
X99939933Y-80164551D01*
X99706851Y-80353296D01*
X98457565Y-80353296D01*
X98489938Y-80335992D01*
X97992499Y-79838553D01*
X97495060Y-80335991D01*
X91504937Y-80335991D01*
X91007499Y-79838553D01*
X90510060Y-80335991D01*
X89271777Y-80335991D01*
X89060073Y-80164555D01*
X88752399Y-79964750D01*
X88425540Y-79798206D01*
X88083042Y-79666734D01*
X87728681Y-79571783D01*
X87366358Y-79514397D01*
X87000000Y-79495196D01*
X86633641Y-79514397D01*
X86271318Y-79571783D01*
X85916957Y-79666734D01*
X85574459Y-79798206D01*
X85247601Y-79964750D01*
X84939933Y-80164551D01*
X84706851Y-80353296D01*
X82381500Y-80353296D01*
X82381500Y-78642831D01*
X89175000Y-78642831D01*
X89181401Y-78702373D01*
X89231647Y-78837090D01*
X89317810Y-78952189D01*
X89432909Y-79038352D01*
X89567626Y-79088598D01*
X89627169Y-79095000D01*
X89781416Y-79095000D01*
X89862996Y-79108743D01*
X89935570Y-79148456D01*
X89991128Y-79209754D01*
X90023536Y-79285872D01*
X90029217Y-79368406D01*
X90017733Y-79484999D01*
X90036752Y-79678095D01*
X90093074Y-79863766D01*
X90156506Y-79982438D01*
X90831429Y-79307516D01*
X90912211Y-79253540D01*
X91007499Y-79234586D01*
X91102787Y-79253540D01*
X91183568Y-79307516D01*
X91858491Y-79982439D01*
X91858492Y-79982438D01*
X91921925Y-79863766D01*
X91978247Y-79678096D01*
X91997266Y-79484999D01*
X91985783Y-79368406D01*
X91991464Y-79285872D01*
X92023872Y-79209754D01*
X92079430Y-79148456D01*
X92152004Y-79108743D01*
X92233584Y-79095000D01*
X92387831Y-79095000D01*
X92447373Y-79088598D01*
X92582090Y-79038352D01*
X92697189Y-78952189D01*
X92783352Y-78837090D01*
X92833598Y-78702373D01*
X92840000Y-78642831D01*
X96160000Y-78642831D01*
X96166401Y-78702373D01*
X96216647Y-78837090D01*
X96302810Y-78952189D01*
X96417909Y-79038352D01*
X96552626Y-79088598D01*
X96612169Y-79095000D01*
X96766416Y-79095000D01*
X96847996Y-79108743D01*
X96920570Y-79148456D01*
X96976128Y-79209754D01*
X97008536Y-79285872D01*
X97014217Y-79368406D01*
X97002733Y-79484999D01*
X97021752Y-79678095D01*
X97078074Y-79863766D01*
X97141506Y-79982438D01*
X97816429Y-79307516D01*
X97897211Y-79253540D01*
X97992499Y-79234586D01*
X98087787Y-79253540D01*
X98168568Y-79307516D01*
X98843491Y-79982439D01*
X98843492Y-79982438D01*
X98906925Y-79863766D01*
X98963247Y-79678096D01*
X98982266Y-79484999D01*
X98970783Y-79368406D01*
X98976464Y-79285872D01*
X99008872Y-79209754D01*
X99064430Y-79148456D01*
X99137004Y-79108743D01*
X99218584Y-79095000D01*
X99372831Y-79095000D01*
X99432373Y-79088598D01*
X99567090Y-79038352D01*
X99682189Y-78952189D01*
X99768352Y-78837090D01*
X99818598Y-78702373D01*
X99825000Y-78642831D01*
X99825000Y-76750001D01*
X99824999Y-76750000D01*
X96160001Y-76750000D01*
X96160000Y-76750001D01*
X96160000Y-78642831D01*
X92840000Y-78642831D01*
X92840000Y-76750001D01*
X92839999Y-76750000D01*
X89175001Y-76750000D01*
X89175000Y-76750001D01*
X89175000Y-78642831D01*
X82381500Y-78642831D01*
X82381500Y-76913177D01*
X82347624Y-76742877D01*
X82281175Y-76582453D01*
X82184705Y-76438076D01*
X82072930Y-76326300D01*
X82018954Y-76245519D01*
X82000000Y-76150231D01*
X82000000Y-75849769D01*
X82018954Y-75754481D01*
X82072930Y-75673700D01*
X82128817Y-75617811D01*
X82184706Y-75561923D01*
X82281175Y-75417547D01*
X82347624Y-75257124D01*
X82361174Y-75189002D01*
X82381500Y-75086823D01*
X82381500Y-75013980D01*
X82383064Y-74986118D01*
X82393866Y-74890240D01*
X82406273Y-74835890D01*
X82433485Y-74758124D01*
X82457676Y-74707890D01*
X82501510Y-74638128D01*
X82536271Y-74594537D01*
X82594537Y-74536271D01*
X82638128Y-74501510D01*
X82707890Y-74457676D01*
X82758124Y-74433485D01*
X82835890Y-74406273D01*
X82890240Y-74393866D01*
X82986118Y-74383064D01*
X83013980Y-74381500D01*
X83086823Y-74381500D01*
X83189002Y-74361174D01*
X83257124Y-74347624D01*
X83417547Y-74281175D01*
X83561923Y-74184706D01*
X83617811Y-74128817D01*
X83673700Y-74072930D01*
X83754481Y-74018954D01*
X83849769Y-74000000D01*
X84150231Y-74000000D01*
X84245519Y-74018954D01*
G37*
%TD.AperFunction*%
%TD*%
M02*
